<?xml version="1.0" encoding="UTF-8" standalone="no"?>
<!DOCTYPE svg PUBLIC "-//W3C//DTD SVG 1.1//EN"
 "http://www.w3.org/Graphics/SVG/1.1/DTD/svg11.dtd">
<!-- Generated by graphviz version 2.43.0 (0)
 -->
<!-- Title: src/AIPlayer.cpp Pages: 1 -->
<svg width="455pt" height="308pt"
 viewBox="0.00 0.00 455.00 308.00" xmlns="http://www.w3.org/2000/svg" xmlns:xlink="http://www.w3.org/1999/xlink">
<g id="graph0" class="graph" transform="scale(1 1) rotate(0) translate(4 304)">
<title>src/AIPlayer.cpp</title>
<polygon fill="white" stroke="transparent" points="-4,4 -4,-304 451,-304 451,4 -4,4"/>
<!-- Node1 -->
<g id="node1" class="node">
<title>Node1</title>
<g id="a_node1"><a xlink:title=" ">
<polygon fill="#bfbfbf" stroke="black" points="151.5,-280.5 151.5,-299.5 245.5,-299.5 245.5,-280.5 151.5,-280.5"/>
<text text-anchor="middle" x="198.5" y="-287.5" font-family="Helvetica,sans-Serif" font-size="10.00">src/AIPlayer.cpp</text>
</a>
</g>
</g>
<!-- Node2 -->
<g id="node2" class="node">
<title>Node2</title>
<g id="a_node2"><a xlink:title=" ">
<polygon fill="white" stroke="#bfbfbf" points="47.5,-224.5 47.5,-243.5 107.5,-243.5 107.5,-224.5 47.5,-224.5"/>
<text text-anchor="middle" x="77.5" y="-231.5" font-family="Helvetica,sans-Serif" font-size="10.00">iostream</text>
</a>
</g>
</g>
<!-- Node1&#45;&gt;Node2 -->
<g id="edge1" class="edge">
<title>Node1&#45;&gt;Node2</title>
<path fill="none" stroke="midnightblue" d="M179.33,-280.44C159.59,-271.64 128.61,-257.81 106.01,-247.72"/>
<polygon fill="midnightblue" stroke="midnightblue" points="107.14,-244.4 96.58,-243.52 104.29,-250.79 107.14,-244.4"/>
</g>
<!-- Node3 -->
<g id="node3" class="node">
<title>Node3</title>
<g id="a_node3"><a xlink:title=" ">
<polygon fill="white" stroke="#bfbfbf" points="125.5,-224.5 125.5,-243.5 189.5,-243.5 189.5,-224.5 125.5,-224.5"/>
<text text-anchor="middle" x="157.5" y="-231.5" font-family="Helvetica,sans-Serif" font-size="10.00">algorithm</text>
</a>
</g>
</g>
<!-- Node1&#45;&gt;Node3 -->
<g id="edge2" class="edge">
<title>Node1&#45;&gt;Node3</title>
<path fill="none" stroke="midnightblue" d="M191.73,-280.08C185.94,-272.46 177.44,-261.26 170.36,-251.94"/>
<polygon fill="midnightblue" stroke="midnightblue" points="172.98,-249.6 164.14,-243.75 167.4,-253.83 172.98,-249.6"/>
</g>
<!-- Node4 -->
<g id="node4" class="node">
<title>Node4</title>
<g id="a_node4"><a xlink:href="AIPlayer_8h.html" target="_top" xlink:title=" ">
<polygon fill="white" stroke="black" points="208,-224.5 208,-243.5 273,-243.5 273,-224.5 208,-224.5"/>
<text text-anchor="middle" x="240.5" y="-231.5" font-family="Helvetica,sans-Serif" font-size="10.00">AIPlayer.h</text>
</a>
</g>
</g>
<!-- Node1&#45;&gt;Node4 -->
<g id="edge3" class="edge">
<title>Node1&#45;&gt;Node4</title>
<path fill="none" stroke="midnightblue" d="M205.44,-280.08C211.43,-272.38 220.25,-261.03 227.55,-251.65"/>
<polygon fill="midnightblue" stroke="midnightblue" points="230.32,-253.79 233.69,-243.75 224.79,-249.5 230.32,-253.79"/>
</g>
<!-- Node13 -->
<g id="node13" class="node">
<title>Node13</title>
<g id="a_node13"><a xlink:href="Block_8h.html" target="_top" xlink:title=" ">
<polygon fill="white" stroke="black" points="291,-224.5 291,-243.5 344,-243.5 344,-224.5 291,-224.5"/>
<text text-anchor="middle" x="317.5" y="-231.5" font-family="Helvetica,sans-Serif" font-size="10.00">Block.h</text>
</a>
</g>
</g>
<!-- Node1&#45;&gt;Node13 -->
<g id="edge19" class="edge">
<title>Node1&#45;&gt;Node13</title>
<path fill="none" stroke="midnightblue" d="M217.36,-280.44C236.77,-271.64 267.23,-257.81 289.46,-247.72"/>
<polygon fill="midnightblue" stroke="midnightblue" points="291.07,-250.84 298.73,-243.52 288.18,-244.46 291.07,-250.84"/>
</g>
<!-- Node5 -->
<g id="node5" class="node">
<title>Node5</title>
<g id="a_node5"><a xlink:title=" ">
<polygon fill="white" stroke="#bfbfbf" points="176,-56.5 176,-75.5 223,-75.5 223,-56.5 176,-56.5"/>
<text text-anchor="middle" x="199.5" y="-63.5" font-family="Helvetica,sans-Serif" font-size="10.00">vector</text>
</a>
</g>
</g>
<!-- Node4&#45;&gt;Node5 -->
<g id="edge4" class="edge">
<title>Node4&#45;&gt;Node5</title>
<path fill="none" stroke="midnightblue" d="M231.53,-224.22C223.4,-215.73 211.78,-202.11 205.5,-188 190.58,-154.49 193.2,-110.49 196.39,-85.84"/>
<polygon fill="midnightblue" stroke="midnightblue" points="199.89,-86.1 197.88,-75.7 192.96,-85.08 199.89,-86.1"/>
</g>
<!-- Node6 -->
<g id="node6" class="node">
<title>Node6</title>
<g id="a_node6"><a xlink:title=" ">
<polygon fill="white" stroke="#bfbfbf" points="324.5,-56.5 324.5,-75.5 382.5,-75.5 382.5,-56.5 324.5,-56.5"/>
<text text-anchor="middle" x="353.5" y="-63.5" font-family="Helvetica,sans-Serif" font-size="10.00">memory</text>
</a>
</g>
</g>
<!-- Node4&#45;&gt;Node6 -->
<g id="edge5" class="edge">
<title>Node4&#45;&gt;Node6</title>
<path fill="none" stroke="midnightblue" d="M247.88,-224.2C255.31,-215.24 267,-200.88 276.5,-188 294.35,-163.79 298.31,-157.35 314.5,-132 324.66,-116.09 335.68,-97.6 343.4,-84.42"/>
<polygon fill="midnightblue" stroke="midnightblue" points="346.59,-85.91 348.6,-75.51 340.54,-82.38 346.59,-85.91"/>
</g>
<!-- Node7 -->
<g id="node7" class="node">
<title>Node7</title>
<g id="a_node7"><a xlink:title=" ">
<polygon fill="white" stroke="#bfbfbf" points="400,-168.5 400,-187.5 447,-187.5 447,-168.5 400,-168.5"/>
<text text-anchor="middle" x="423.5" y="-175.5" font-family="Helvetica,sans-Serif" font-size="10.00">deque</text>
</a>
</g>
</g>
<!-- Node4&#45;&gt;Node7 -->
<g id="edge6" class="edge">
<title>Node4&#45;&gt;Node7</title>
<path fill="none" stroke="midnightblue" d="M269.5,-224.44C302.34,-214.75 355.75,-198.99 390.25,-188.81"/>
<polygon fill="midnightblue" stroke="midnightblue" points="391.28,-192.16 399.88,-185.97 389.29,-185.44 391.28,-192.16"/>
</g>
<!-- Node8 -->
<g id="node8" class="node">
<title>Node8</title>
<g id="a_node8"><a xlink:href="Entity_8h.html" target="_top" xlink:title=" ">
<polygon fill="white" stroke="black" points="214,-168.5 214,-187.5 267,-187.5 267,-168.5 214,-168.5"/>
<text text-anchor="middle" x="240.5" y="-175.5" font-family="Helvetica,sans-Serif" font-size="10.00">Entity.h</text>
</a>
</g>
</g>
<!-- Node4&#45;&gt;Node8 -->
<g id="edge7" class="edge">
<title>Node4&#45;&gt;Node8</title>
<path fill="none" stroke="midnightblue" d="M240.5,-224.08C240.5,-217.01 240.5,-206.86 240.5,-197.99"/>
<polygon fill="midnightblue" stroke="midnightblue" points="244,-197.75 240.5,-187.75 237,-197.75 244,-197.75"/>
</g>
<!-- Node12 -->
<g id="node12" class="node">
<title>Node12</title>
<g id="a_node12"><a xlink:href="PlayerStats_8h.html" target="_top" xlink:title=" ">
<polygon fill="white" stroke="black" points="0,-112.5 0,-131.5 81,-131.5 81,-112.5 0,-112.5"/>
<text text-anchor="middle" x="40.5" y="-119.5" font-family="Helvetica,sans-Serif" font-size="10.00">PlayerStats.h</text>
</a>
</g>
</g>
<!-- Node4&#45;&gt;Node12 -->
<g id="edge17" class="edge">
<title>Node4&#45;&gt;Node12</title>
<path fill="none" stroke="midnightblue" d="M207.75,-225.12C170.98,-215.87 114.02,-200.26 95.5,-188 76.69,-175.55 60.77,-154.85 50.97,-140.16"/>
<polygon fill="midnightblue" stroke="midnightblue" points="53.78,-138.06 45.45,-131.52 47.88,-141.83 53.78,-138.06"/>
</g>
<!-- Node8&#45;&gt;Node5 -->
<g id="edge8" class="edge">
<title>Node8&#45;&gt;Node5</title>
<path fill="none" stroke="midnightblue" d="M230.93,-168.41C222.34,-160.05 210.23,-146.52 204.5,-132 198.72,-117.34 197.75,-99.4 198.06,-86.09"/>
<polygon fill="midnightblue" stroke="midnightblue" points="201.57,-85.94 198.58,-75.77 194.58,-85.58 201.57,-85.94"/>
</g>
<!-- Node8&#45;&gt;Node6 -->
<g id="edge10" class="edge">
<title>Node8&#45;&gt;Node6</title>
<path fill="none" stroke="midnightblue" d="M250.89,-168.29C261.37,-159.4 277.88,-145.1 291.5,-132 308.25,-115.88 326.52,-96.5 338.85,-83.11"/>
<polygon fill="midnightblue" stroke="midnightblue" points="341.53,-85.38 345.7,-75.64 336.36,-80.65 341.53,-85.38"/>
</g>
<!-- Node9 -->
<g id="node9" class="node">
<title>Node9</title>
<g id="a_node9"><a xlink:title=" ">
<polygon fill="white" stroke="#bfbfbf" points="125.5,-0.5 125.5,-19.5 169.5,-19.5 169.5,-0.5 125.5,-0.5"/>
<text text-anchor="middle" x="147.5" y="-7.5" font-family="Helvetica,sans-Serif" font-size="10.00">string</text>
</a>
</g>
</g>
<!-- Node8&#45;&gt;Node9 -->
<g id="edge9" class="edge">
<title>Node8&#45;&gt;Node9</title>
<path fill="none" stroke="midnightblue" d="M230.25,-168.49C220.46,-159.98 205.71,-146.16 195.5,-132 172.24,-99.73 158.27,-54.62 151.81,-29.59"/>
<polygon fill="midnightblue" stroke="midnightblue" points="155.15,-28.5 149.37,-19.63 148.35,-30.17 155.15,-28.5"/>
</g>
<!-- Node10 -->
<g id="node10" class="node">
<title>Node10</title>
<g id="a_node10"><a xlink:href="Position_8h.html" target="_top" xlink:title=" ">
<polygon fill="white" stroke="black" points="241,-56.5 241,-75.5 306,-75.5 306,-56.5 241,-56.5"/>
<text text-anchor="middle" x="273.5" y="-63.5" font-family="Helvetica,sans-Serif" font-size="10.00">Position.h</text>
</a>
</g>
</g>
<!-- Node8&#45;&gt;Node10 -->
<g id="edge11" class="edge">
<title>Node8&#45;&gt;Node10</title>
<path fill="none" stroke="midnightblue" d="M250.66,-168.19C259.41,-159.87 271.4,-146.54 276.5,-132 281.76,-117.01 280.33,-98.87 277.98,-85.57"/>
<polygon fill="midnightblue" stroke="midnightblue" points="281.39,-84.78 275.92,-75.71 274.54,-86.22 281.39,-84.78"/>
</g>
<!-- Node11 -->
<g id="node11" class="node">
<title>Node11</title>
<g id="a_node11"><a xlink:href="Bomb_8h.html" target="_top" xlink:title=" ">
<polygon fill="white" stroke="black" points="213.5,-112.5 213.5,-131.5 267.5,-131.5 267.5,-112.5 213.5,-112.5"/>
<text text-anchor="middle" x="240.5" y="-119.5" font-family="Helvetica,sans-Serif" font-size="10.00">Bomb.h</text>
</a>
</g>
</g>
<!-- Node8&#45;&gt;Node11 -->
<g id="edge13" class="edge">
<title>Node8&#45;&gt;Node11</title>
<path fill="none" stroke="midnightblue" d="M240.5,-168.08C240.5,-161.01 240.5,-150.86 240.5,-141.99"/>
<polygon fill="midnightblue" stroke="midnightblue" points="244,-141.75 240.5,-131.75 237,-141.75 244,-141.75"/>
</g>
<!-- Node10&#45;&gt;Node9 -->
<g id="edge12" class="edge">
<title>Node10&#45;&gt;Node9</title>
<path fill="none" stroke="midnightblue" d="M253.53,-56.44C232.89,-47.6 200.44,-33.69 176.87,-23.59"/>
<polygon fill="midnightblue" stroke="midnightblue" points="177.94,-20.24 167.37,-19.52 175.18,-26.67 177.94,-20.24"/>
</g>
<!-- Node11&#45;&gt;Node5 -->
<g id="edge15" class="edge">
<title>Node11&#45;&gt;Node5</title>
<path fill="none" stroke="midnightblue" d="M233.73,-112.08C227.94,-104.46 219.44,-93.26 212.36,-83.94"/>
<polygon fill="midnightblue" stroke="midnightblue" points="214.98,-81.6 206.14,-75.75 209.4,-85.83 214.98,-81.6"/>
</g>
<!-- Node11&#45;&gt;Node6 -->
<g id="edge14" class="edge">
<title>Node11&#45;&gt;Node6</title>
<path fill="none" stroke="midnightblue" d="M258.41,-112.44C276.75,-103.68 305.51,-89.94 326.59,-79.86"/>
<polygon fill="midnightblue" stroke="midnightblue" points="328.17,-82.99 335.68,-75.52 325.15,-76.67 328.17,-82.99"/>
</g>
<!-- Node11&#45;&gt;Node10 -->
<g id="edge16" class="edge">
<title>Node11&#45;&gt;Node10</title>
<path fill="none" stroke="midnightblue" d="M245.95,-112.08C250.51,-104.61 257.17,-93.72 262.79,-84.52"/>
<polygon fill="midnightblue" stroke="midnightblue" points="265.92,-86.11 268.15,-75.75 259.95,-82.46 265.92,-86.11"/>
</g>
<!-- Node12&#45;&gt;Node9 -->
<g id="edge18" class="edge">
<title>Node12&#45;&gt;Node9</title>
<path fill="none" stroke="midnightblue" d="M48.9,-112.37C66.79,-93.97 108.91,-50.67 131.89,-27.05"/>
<polygon fill="midnightblue" stroke="midnightblue" points="134.68,-29.2 139.14,-19.59 129.66,-24.32 134.68,-29.2"/>
</g>
</g>
</svg>
