<?xml version="1.0" encoding="UTF-8" standalone="no"?>
<!DOCTYPE svg PUBLIC "-//W3C//DTD SVG 1.1//EN"
 "http://www.w3.org/Graphics/SVG/1.1/DTD/svg11.dtd">
<!-- Generated by graphviz version 2.43.0 (0)
 -->
<!-- Title: src/Banner.h Pages: 1 -->
<svg width="335pt" height="140pt"
 viewBox="0.00 0.00 334.50 140.00" xmlns="http://www.w3.org/2000/svg" xmlns:xlink="http://www.w3.org/1999/xlink">
<g id="graph0" class="graph" transform="scale(1 1) rotate(0) translate(4 136)">
<title>src/Banner.h</title>
<polygon fill="white" stroke="transparent" points="-4,4 -4,-136 330.5,-136 330.5,4 -4,4"/>
<!-- Node1 -->
<g id="node1" class="node">
<title>Node1</title>
<g id="a_node1"><a xlink:title=" ">
<polygon fill="#bfbfbf" stroke="black" points="137.5,-112.5 137.5,-131.5 214.5,-131.5 214.5,-112.5 137.5,-112.5"/>
<text text-anchor="middle" x="176" y="-119.5" font-family="Helvetica,sans-Serif" font-size="10.00">src/Banner.h</text>
</a>
</g>
</g>
<!-- Node2 -->
<g id="node2" class="node">
<title>Node2</title>
<g id="a_node2"><a xlink:href="Banner_8cpp.html" target="_top" xlink:title=" ">
<polygon fill="white" stroke="black" points="0,-56.5 0,-75.5 88,-75.5 88,-56.5 0,-56.5"/>
<text text-anchor="middle" x="44" y="-63.5" font-family="Helvetica,sans-Serif" font-size="10.00">src/Banner.cpp</text>
</a>
</g>
</g>
<!-- Node1&#45;&gt;Node2 -->
<g id="edge1" class="edge">
<title>Node1&#45;&gt;Node2</title>
<path fill="none" stroke="midnightblue" d="M145.78,-108.64C121.01,-98.5 86.6,-84.43 64.82,-75.52"/>
<polygon fill="midnightblue" stroke="midnightblue" points="144.5,-111.9 155.08,-112.44 147.15,-105.42 144.5,-111.9"/>
</g>
<!-- Node3 -->
<g id="node3" class="node">
<title>Node3</title>
<g id="a_node3"><a xlink:href="GameSettingsMenu_8h.html" target="_top" xlink:title=" ">
<polygon fill="white" stroke="black" points="106.5,-56.5 106.5,-75.5 245.5,-75.5 245.5,-56.5 106.5,-56.5"/>
<text text-anchor="middle" x="176" y="-63.5" font-family="Helvetica,sans-Serif" font-size="10.00">src/GameSettingsMenu.h</text>
</a>
</g>
</g>
<!-- Node1&#45;&gt;Node3 -->
<g id="edge2" class="edge">
<title>Node1&#45;&gt;Node3</title>
<path fill="none" stroke="midnightblue" d="M176,-101.8C176,-92.91 176,-82.78 176,-75.75"/>
<polygon fill="midnightblue" stroke="midnightblue" points="172.5,-102.08 176,-112.08 179.5,-102.08 172.5,-102.08"/>
</g>
<!-- Node5 -->
<g id="node5" class="node">
<title>Node5</title>
<g id="a_node5"><a xlink:href="MainMenu_8cpp.html" target="_top" xlink:title=" ">
<polygon fill="white" stroke="black" points="221.5,-0.5 221.5,-19.5 326.5,-19.5 326.5,-0.5 221.5,-0.5"/>
<text text-anchor="middle" x="274" y="-7.5" font-family="Helvetica,sans-Serif" font-size="10.00">src/MainMenu.cpp</text>
</a>
</g>
</g>
<!-- Node1&#45;&gt;Node5 -->
<g id="edge5" class="edge">
<title>Node1&#45;&gt;Node5</title>
<path fill="none" stroke="midnightblue" d="M210.55,-108.38C226.14,-101.09 243.57,-90.46 255,-76 268.41,-59.03 272.36,-32.87 273.52,-19.5"/>
<polygon fill="midnightblue" stroke="midnightblue" points="208.91,-105.27 201.15,-112.49 211.71,-111.69 208.91,-105.27"/>
</g>
<!-- Node4 -->
<g id="node4" class="node">
<title>Node4</title>
<g id="a_node4"><a xlink:href="GameSettingsMenu_8cpp.html" target="_top" xlink:title=" ">
<polygon fill="white" stroke="black" points="53,-0.5 53,-19.5 203,-19.5 203,-0.5 53,-0.5"/>
<text text-anchor="middle" x="128" y="-7.5" font-family="Helvetica,sans-Serif" font-size="10.00">src/GameSettingsMenu.cpp</text>
</a>
</g>
</g>
<!-- Node3&#45;&gt;Node4 -->
<g id="edge3" class="edge">
<title>Node3&#45;&gt;Node4</title>
<path fill="none" stroke="midnightblue" d="M161.27,-48.43C152.86,-38.97 142.65,-27.48 135.78,-19.75"/>
<polygon fill="midnightblue" stroke="midnightblue" points="158.81,-50.93 168.07,-56.08 164.05,-46.28 158.81,-50.93"/>
</g>
<!-- Node3&#45;&gt;Node5 -->
<g id="edge4" class="edge">
<title>Node3&#45;&gt;Node5</title>
<path fill="none" stroke="midnightblue" d="M200.59,-51.45C218.68,-41.48 242.73,-28.23 258.29,-19.65"/>
<polygon fill="midnightblue" stroke="midnightblue" points="198.81,-48.43 191.75,-56.32 202.19,-54.56 198.81,-48.43"/>
</g>
</g>
</svg>
