<?xml version="1.0" encoding="UTF-8" standalone="no"?>
<!DOCTYPE svg PUBLIC "-//W3C//DTD SVG 1.1//EN"
 "http://www.w3.org/Graphics/SVG/1.1/DTD/svg11.dtd">
<!-- Generated by graphviz version 2.43.0 (0)
 -->
<!-- Title: src/Bomb.h Pages: 1 -->
<svg width="522pt" height="252pt"
 viewBox="0.00 0.00 521.50 252.00" xmlns="http://www.w3.org/2000/svg" xmlns:xlink="http://www.w3.org/1999/xlink">
<g id="graph0" class="graph" transform="scale(1 1) rotate(0) translate(4 248)">
<title>src/Bomb.h</title>
<polygon fill="white" stroke="transparent" points="-4,4 -4,-248 517.5,-248 517.5,4 -4,4"/>
<!-- Node1 -->
<g id="node1" class="node">
<title>Node1</title>
<g id="a_node1"><a xlink:title=" ">
<polygon fill="#bfbfbf" stroke="black" points="289,-224.5 289,-243.5 360,-243.5 360,-224.5 289,-224.5"/>
<text text-anchor="middle" x="324.5" y="-231.5" font-family="Helvetica,sans-Serif" font-size="10.00">src/Bomb.h</text>
</a>
</g>
</g>
<!-- Node2 -->
<g id="node2" class="node">
<title>Node2</title>
<g id="a_node2"><a xlink:href="Entity_8h.html" target="_top" xlink:title=" ">
<polygon fill="white" stroke="black" points="206.5,-168.5 206.5,-187.5 276.5,-187.5 276.5,-168.5 206.5,-168.5"/>
<text text-anchor="middle" x="241.5" y="-175.5" font-family="Helvetica,sans-Serif" font-size="10.00">src/Entity.h</text>
</a>
</g>
</g>
<!-- Node1&#45;&gt;Node2 -->
<g id="edge1" class="edge">
<title>Node1&#45;&gt;Node2</title>
<path fill="none" stroke="midnightblue" d="M302.4,-218.62C287.24,-208.76 267.62,-195.99 254.8,-187.65"/>
<polygon fill="midnightblue" stroke="midnightblue" points="300.87,-221.8 311.16,-224.32 304.69,-215.94 300.87,-221.8"/>
</g>
<!-- Node9 -->
<g id="node9" class="node">
<title>Node9</title>
<g id="a_node9"><a xlink:href="MapContainer_8h.html" target="_top" xlink:title=" ">
<polygon fill="white" stroke="black" points="301.5,-56.5 301.5,-75.5 411.5,-75.5 411.5,-56.5 301.5,-56.5"/>
<text text-anchor="middle" x="356.5" y="-63.5" font-family="Helvetica,sans-Serif" font-size="10.00">src/MapContainer.h</text>
</a>
</g>
</g>
<!-- Node1&#45;&gt;Node9 -->
<g id="edge16" class="edge">
<title>Node1&#45;&gt;Node9</title>
<path fill="none" stroke="midnightblue" d="M321.05,-214.23C317.36,-189.97 313.41,-146.72 324.5,-112 329.05,-97.75 339.94,-84.16 347.75,-75.71"/>
<polygon fill="midnightblue" stroke="midnightblue" points="317.62,-214.93 322.72,-224.21 324.52,-213.77 317.62,-214.93"/>
</g>
<!-- Node11 -->
<g id="node11" class="node">
<title>Node11</title>
<g id="a_node11"><a xlink:href="Player_8h.html" target="_top" xlink:title=" ">
<polygon fill="white" stroke="black" points="334,-112.5 334,-131.5 407,-131.5 407,-112.5 334,-112.5"/>
<text text-anchor="middle" x="370.5" y="-119.5" font-family="Helvetica,sans-Serif" font-size="10.00">src/Player.h</text>
</a>
</g>
</g>
<!-- Node1&#45;&gt;Node11 -->
<g id="edge15" class="edge">
<title>Node1&#45;&gt;Node11</title>
<path fill="none" stroke="midnightblue" d="M332.03,-215C342.06,-191 359.43,-149.47 366.91,-131.59"/>
<polygon fill="midnightblue" stroke="midnightblue" points="328.74,-213.79 328.11,-224.37 335.2,-216.49 328.74,-213.79"/>
</g>
<!-- Node13 -->
<g id="node13" class="node">
<title>Node13</title>
<g id="a_node13"><a xlink:href="Bomb_8cpp.html" target="_top" xlink:title=" ">
<polygon fill="white" stroke="black" points="372,-168.5 372,-187.5 455,-187.5 455,-168.5 372,-168.5"/>
<text text-anchor="middle" x="413.5" y="-175.5" font-family="Helvetica,sans-Serif" font-size="10.00">src/Bomb.cpp</text>
</a>
</g>
</g>
<!-- Node1&#45;&gt;Node13 -->
<g id="edge14" class="edge">
<title>Node1&#45;&gt;Node13</title>
<path fill="none" stroke="midnightblue" d="M347.74,-218.9C364.06,-209 385.37,-196.07 399.24,-187.65"/>
<polygon fill="midnightblue" stroke="midnightblue" points="345.53,-216.14 338.8,-224.32 349.16,-222.13 345.53,-216.14"/>
</g>
<!-- Node3 -->
<g id="node3" class="node">
<title>Node3</title>
<g id="a_node3"><a xlink:href="AIPlayer_8h.html" target="_top" xlink:title=" ">
<polygon fill="white" stroke="black" points="99,-112.5 99,-131.5 182,-131.5 182,-112.5 99,-112.5"/>
<text text-anchor="middle" x="140.5" y="-119.5" font-family="Helvetica,sans-Serif" font-size="10.00">src/AIPlayer.h</text>
</a>
</g>
</g>
<!-- Node2&#45;&gt;Node3 -->
<g id="edge2" class="edge">
<title>Node2&#45;&gt;Node3</title>
<path fill="none" stroke="midnightblue" d="M216.42,-163.59C197.74,-153.61 172.8,-140.27 156.69,-131.65"/>
<polygon fill="midnightblue" stroke="midnightblue" points="214.8,-166.7 225.27,-168.32 218.1,-160.52 214.8,-166.7"/>
</g>
<!-- Node6 -->
<g id="node6" class="node">
<title>Node6</title>
<g id="a_node6"><a xlink:href="Entity_8cpp.html" target="_top" xlink:title=" ">
<polygon fill="white" stroke="black" points="0,-112.5 0,-131.5 81,-131.5 81,-112.5 0,-112.5"/>
<text text-anchor="middle" x="40.5" y="-119.5" font-family="Helvetica,sans-Serif" font-size="10.00">src/Entity.cpp</text>
</a>
</g>
</g>
<!-- Node2&#45;&gt;Node6 -->
<g id="edge5" class="edge">
<title>Node2&#45;&gt;Node6</title>
<path fill="none" stroke="midnightblue" d="M199.92,-165.83C161.97,-155.63 106.69,-140.78 72.2,-131.52"/>
<polygon fill="midnightblue" stroke="midnightblue" points="199.09,-169.23 209.65,-168.44 200.9,-162.47 199.09,-169.23"/>
</g>
<!-- Node7 -->
<g id="node7" class="node">
<title>Node7</title>
<g id="a_node7"><a xlink:href="Ghost_8h.html" target="_top" xlink:title=" ">
<polygon fill="white" stroke="black" points="206,-112.5 206,-131.5 277,-131.5 277,-112.5 206,-112.5"/>
<text text-anchor="middle" x="241.5" y="-119.5" font-family="Helvetica,sans-Serif" font-size="10.00">src/Ghost.h</text>
</a>
</g>
</g>
<!-- Node2&#45;&gt;Node7 -->
<g id="edge6" class="edge">
<title>Node2&#45;&gt;Node7</title>
<path fill="none" stroke="midnightblue" d="M241.5,-157.8C241.5,-148.91 241.5,-138.78 241.5,-131.75"/>
<polygon fill="midnightblue" stroke="midnightblue" points="238,-158.08 241.5,-168.08 245,-158.08 238,-158.08"/>
</g>
<!-- Node2&#45;&gt;Node11 -->
<g id="edge11" class="edge">
<title>Node2&#45;&gt;Node11</title>
<path fill="none" stroke="midnightblue" d="M271.35,-164.5C295.54,-154.38 328.96,-140.39 350.16,-131.52"/>
<polygon fill="midnightblue" stroke="midnightblue" points="269.81,-161.35 261.94,-168.44 272.52,-167.81 269.81,-161.35"/>
</g>
<!-- Node4 -->
<g id="node4" class="node">
<title>Node4</title>
<g id="a_node4"><a xlink:href="AIPlayer_8cpp.html" target="_top" xlink:title=" ">
<polygon fill="white" stroke="black" points="87.5,-56.5 87.5,-75.5 181.5,-75.5 181.5,-56.5 87.5,-56.5"/>
<text text-anchor="middle" x="134.5" y="-63.5" font-family="Helvetica,sans-Serif" font-size="10.00">src/AIPlayer.cpp</text>
</a>
</g>
</g>
<!-- Node3&#45;&gt;Node4 -->
<g id="edge3" class="edge">
<title>Node3&#45;&gt;Node4</title>
<path fill="none" stroke="midnightblue" d="M138.4,-102.1C137.4,-93.14 136.26,-82.86 135.47,-75.75"/>
<polygon fill="midnightblue" stroke="midnightblue" points="134.93,-102.53 139.51,-112.08 141.88,-101.76 134.93,-102.53"/>
</g>
<!-- Node5 -->
<g id="node5" class="node">
<title>Node5</title>
<g id="a_node5"><a xlink:href="MapContainer_8cpp.html" target="_top" xlink:title=" ">
<polygon fill="white" stroke="black" points="81.5,-0.5 81.5,-19.5 203.5,-19.5 203.5,-0.5 81.5,-0.5"/>
<text text-anchor="middle" x="142.5" y="-7.5" font-family="Helvetica,sans-Serif" font-size="10.00">src/MapContainer.cpp</text>
</a>
</g>
</g>
<!-- Node3&#45;&gt;Node5 -->
<g id="edge4" class="edge">
<title>Node3&#45;&gt;Node5</title>
<path fill="none" stroke="midnightblue" d="M112.16,-107.64C91.07,-95.68 67.67,-76.86 78.5,-56 87.39,-38.88 106.11,-26.91 121.02,-19.64"/>
<polygon fill="midnightblue" stroke="midnightblue" points="110.78,-110.87 121.25,-112.48 114.07,-104.69 110.78,-110.87"/>
</g>
<!-- Node8 -->
<g id="node8" class="node">
<title>Node8</title>
<g id="a_node8"><a xlink:href="Ghost_8cpp.html" target="_top" xlink:title=" ">
<polygon fill="white" stroke="black" points="200,-56.5 200,-75.5 283,-75.5 283,-56.5 200,-56.5"/>
<text text-anchor="middle" x="241.5" y="-63.5" font-family="Helvetica,sans-Serif" font-size="10.00">src/Ghost.cpp</text>
</a>
</g>
</g>
<!-- Node7&#45;&gt;Node8 -->
<g id="edge7" class="edge">
<title>Node7&#45;&gt;Node8</title>
<path fill="none" stroke="midnightblue" d="M241.5,-101.8C241.5,-92.91 241.5,-82.78 241.5,-75.75"/>
<polygon fill="midnightblue" stroke="midnightblue" points="238,-102.08 241.5,-112.08 245,-102.08 238,-102.08"/>
</g>
<!-- Node7&#45;&gt;Node9 -->
<g id="edge8" class="edge">
<title>Node7&#45;&gt;Node9</title>
<path fill="none" stroke="midnightblue" d="M268.98,-108.1C290.47,-98.01 319.72,-84.27 338.36,-75.52"/>
<polygon fill="midnightblue" stroke="midnightblue" points="267.29,-105.02 259.72,-112.44 270.26,-111.36 267.29,-105.02"/>
</g>
<!-- Node9&#45;&gt;Node5 -->
<g id="edge10" class="edge">
<title>Node9&#45;&gt;Node5</title>
<path fill="none" stroke="midnightblue" d="M312.74,-53.96C272.33,-43.76 213.13,-28.82 176.25,-19.52"/>
<polygon fill="midnightblue" stroke="midnightblue" points="312.04,-57.39 322.59,-56.44 313.75,-50.6 312.04,-57.39"/>
</g>
<!-- Node10 -->
<g id="node10" class="node">
<title>Node10</title>
<g id="a_node10"><a xlink:href="MainMenu_8cpp.html" target="_top" xlink:title=" ">
<polygon fill="white" stroke="black" points="304,-0.5 304,-19.5 409,-19.5 409,-0.5 304,-0.5"/>
<text text-anchor="middle" x="356.5" y="-7.5" font-family="Helvetica,sans-Serif" font-size="10.00">src/MainMenu.cpp</text>
</a>
</g>
</g>
<!-- Node9&#45;&gt;Node10 -->
<g id="edge9" class="edge">
<title>Node9&#45;&gt;Node10</title>
<path fill="none" stroke="midnightblue" d="M356.5,-45.8C356.5,-36.91 356.5,-26.78 356.5,-19.75"/>
<polygon fill="midnightblue" stroke="midnightblue" points="353,-46.08 356.5,-56.08 360,-46.08 353,-46.08"/>
</g>
<!-- Node11&#45;&gt;Node9 -->
<g id="edge12" class="edge">
<title>Node11&#45;&gt;Node9</title>
<path fill="none" stroke="midnightblue" d="M365.68,-102.4C363.33,-93.36 360.63,-82.94 358.77,-75.75"/>
<polygon fill="midnightblue" stroke="midnightblue" points="362.29,-103.28 368.19,-112.08 369.07,-101.52 362.29,-103.28"/>
</g>
<!-- Node12 -->
<g id="node12" class="node">
<title>Node12</title>
<g id="a_node12"><a xlink:href="Player_8cpp.html" target="_top" xlink:title=" ">
<polygon fill="white" stroke="black" points="429.5,-56.5 429.5,-75.5 513.5,-75.5 513.5,-56.5 429.5,-56.5"/>
<text text-anchor="middle" x="471.5" y="-63.5" font-family="Helvetica,sans-Serif" font-size="10.00">src/Player.cpp</text>
</a>
</g>
</g>
<!-- Node11&#45;&gt;Node12 -->
<g id="edge13" class="edge">
<title>Node11&#45;&gt;Node12</title>
<path fill="none" stroke="midnightblue" d="M395.58,-107.59C414.26,-97.61 439.2,-84.27 455.31,-75.65"/>
<polygon fill="midnightblue" stroke="midnightblue" points="393.9,-104.52 386.73,-112.32 397.2,-110.7 393.9,-104.52"/>
</g>
</g>
</svg>
