<?xml version="1.0" encoding="UTF-8" standalone="no"?>
<!DOCTYPE svg PUBLIC "-//W3C//DTD SVG 1.1//EN"
 "http://www.w3.org/Graphics/SVG/1.1/DTD/svg11.dtd">
<!-- Generated by graphviz version 2.43.0 (0)
 -->
<!-- Title: CAIPlayer Pages: 1 -->
<svg width="178pt" height="162pt"
 viewBox="0.00 0.00 178.00 162.00" xmlns="http://www.w3.org/2000/svg" xmlns:xlink="http://www.w3.org/1999/xlink">
<g id="graph0" class="graph" transform="scale(1 1) rotate(0) translate(4 158)">
<title>CAIPlayer</title>
<polygon fill="white" stroke="transparent" points="-4,4 -4,-158 174,-158 174,4 -4,4"/>
<!-- Node1 -->
<g id="node1" class="node">
<title>Node1</title>
<g id="a_node1"><a xlink:title="Class representing AI player.">
<polygon fill="#bfbfbf" stroke="black" points="41,-0.5 41,-19.5 105,-19.5 105,-0.5 41,-0.5"/>
<text text-anchor="middle" x="73" y="-7.5" font-family="Helvetica,sans-Serif" font-size="10.00">CAIPlayer</text>
</a>
</g>
</g>
<!-- Node2 -->
<g id="node2" class="node">
<title>Node2</title>
<g id="a_node2"><a xlink:href="classCEntity.html" target="_top" xlink:title="Polymorphic class representing players/ghosts.">
<polygon fill="white" stroke="black" points="5,-67.5 5,-86.5 57,-86.5 57,-67.5 5,-67.5"/>
<text text-anchor="middle" x="31" y="-74.5" font-family="Helvetica,sans-Serif" font-size="10.00">CEntity</text>
</a>
</g>
</g>
<!-- Node2&#45;&gt;Node1 -->
<g id="edge1" class="edge">
<title>Node2&#45;&gt;Node1</title>
<path fill="none" stroke="midnightblue" d="M42.29,-58.53C50.42,-45.95 61.04,-29.51 67.43,-19.63"/>
<polygon fill="midnightblue" stroke="midnightblue" points="39.15,-56.94 36.66,-67.23 45.03,-60.73 39.15,-56.94"/>
</g>
<!-- Node3 -->
<g id="node3" class="node">
<title>Node3</title>
<g id="a_node3"><a xlink:href="classCPosition.html" target="_top" xlink:title="Class representing positions of every character (players, enemies..)">
<polygon fill="white" stroke="black" points="0,-134.5 0,-153.5 62,-153.5 62,-134.5 0,-134.5"/>
<text text-anchor="middle" x="31" y="-141.5" font-family="Helvetica,sans-Serif" font-size="10.00">CPosition</text>
</a>
</g>
</g>
<!-- Node3&#45;&gt;Node2 -->
<g id="edge2" class="edge">
<title>Node3&#45;&gt;Node2</title>
<path fill="none" stroke="#9a32cd" stroke-dasharray="5,2" d="M31,-124.04C31,-111.67 31,-96.12 31,-86.63"/>
<polygon fill="#9a32cd" stroke="#9a32cd" points="27.5,-124.23 31,-134.23 34.5,-124.23 27.5,-124.23"/>
<text text-anchor="middle" x="60" y="-108" font-family="Helvetica,sans-Serif" font-size="10.00"> m_position</text>
</g>
<!-- Node4 -->
<g id="node4" class="node">
<title>Node4</title>
<g id="a_node4"><a xlink:href="classCPlayerStats.html" target="_top" xlink:title="Represents stats of player.">
<polygon fill="white" stroke="black" points="75.5,-67.5 75.5,-86.5 154.5,-86.5 154.5,-67.5 75.5,-67.5"/>
<text text-anchor="middle" x="115" y="-74.5" font-family="Helvetica,sans-Serif" font-size="10.00">CPlayerStats</text>
</a>
</g>
</g>
<!-- Node4&#45;&gt;Node1 -->
<g id="edge3" class="edge">
<title>Node4&#45;&gt;Node1</title>
<path fill="none" stroke="#9a32cd" stroke-dasharray="5,2" d="M103.71,-58.53C95.58,-45.95 84.96,-29.51 78.57,-19.63"/>
<polygon fill="#9a32cd" stroke="#9a32cd" points="100.97,-60.73 109.34,-67.23 106.85,-56.94 100.97,-60.73"/>
<text text-anchor="middle" x="133" y="-41" font-family="Helvetica,sans-Serif" font-size="10.00"> m_playerStats</text>
</g>
</g>
</svg>
