<?xml version="1.0" encoding="UTF-8" standalone="no"?>
<!DOCTYPE svg PUBLIC "-//W3C//DTD SVG 1.1//EN"
 "http://www.w3.org/Graphics/SVG/1.1/DTD/svg11.dtd">
<!-- Generated by graphviz version 2.43.0 (0)
 -->
<!-- Title: CGameSettingsMenu::LoadGameModeMenu Pages: 1 -->
<svg width="319pt" height="78pt"
 viewBox="0.00 0.00 319.00 77.50" xmlns="http://www.w3.org/2000/svg" xmlns:xlink="http://www.w3.org/1999/xlink">
<g id="graph0" class="graph" transform="scale(1 1) rotate(0) translate(4 73.5)">
<title>CGameSettingsMenu::LoadGameModeMenu</title>
<polygon fill="white" stroke="transparent" points="-4,4 -4,-73.5 315,-73.5 315,4 -4,4"/>
<!-- Node1 -->
<g id="node1" class="node">
<title>Node1</title>
<g id="a_node1"><a xlink:title="Create and handle user&#39;s nickname.">
<polygon fill="#bfbfbf" stroke="black" points="0,-22.5 0,-52.5 125,-52.5 125,-22.5 0,-22.5"/>
<text text-anchor="start" x="8" y="-40.5" font-family="Helvetica,sans-Serif" font-size="10.00">CGameSettingsMenu::</text>
<text text-anchor="middle" x="62.5" y="-29.5" font-family="Helvetica,sans-Serif" font-size="10.00">LoadGameModeMenu</text>
</a>
</g>
</g>
<!-- Node2 -->
<g id="node2" class="node">
<title>Node2</title>
<g id="a_node2"><a xlink:href="classCUserMenu.html#a8cefff436235de63ddfe8f1672b4b5a9" target="_top" xlink:title="Prints menu and check, if user&#39;s input is valid.">
<polygon fill="white" stroke="black" points="166,-50 166,-69 306,-69 306,-50 166,-50"/>
<text text-anchor="middle" x="236" y="-57" font-family="Helvetica,sans-Serif" font-size="10.00">CUserMenu::HandleMenu</text>
</a>
</g>
</g>
<!-- Node1&#45;&gt;Node2 -->
<g id="edge1" class="edge">
<title>Node1&#45;&gt;Node2</title>
<path fill="none" stroke="midnightblue" d="M125.42,-45.44C135.27,-46.71 145.59,-48.03 155.78,-49.34"/>
<polygon fill="midnightblue" stroke="midnightblue" points="155.54,-52.84 165.91,-50.64 156.44,-45.89 155.54,-52.84"/>
</g>
<!-- Node3 -->
<g id="node3" class="node">
<title>Node3</title>
<g id="a_node3"><a xlink:href="classCBanner.html#a9b95e0affc0ee737f0a88add2afa3743" target="_top" xlink:title="Prints ASCII art GAME SETTINGS (Font Slant) Credits to: https://patorjk.com/software/taag/#p=display&amp;...">
<polygon fill="white" stroke="black" points="161,-0.5 161,-30.5 311,-30.5 311,-0.5 161,-0.5"/>
<text text-anchor="start" x="169" y="-18.5" font-family="Helvetica,sans-Serif" font-size="10.00">CBanner::PrintBannerGame</text>
<text text-anchor="middle" x="236" y="-7.5" font-family="Helvetica,sans-Serif" font-size="10.00">Settings</text>
</a>
</g>
</g>
<!-- Node1&#45;&gt;Node3 -->
<g id="edge2" class="edge">
<title>Node1&#45;&gt;Node3</title>
<path fill="none" stroke="midnightblue" d="M125.42,-29.56C133.69,-28.5 142.29,-27.39 150.86,-26.29"/>
<polygon fill="midnightblue" stroke="midnightblue" points="151.43,-29.75 160.9,-25.01 150.54,-22.81 151.43,-29.75"/>
</g>
</g>
</svg>
