<?xml version="1.0" encoding="UTF-8" standalone="no"?>
<!DOCTYPE svg PUBLIC "-//W3C//DTD SVG 1.1//EN"
 "http://www.w3.org/Graphics/SVG/1.1/DTD/svg11.dtd">
<!-- Generated by graphviz version 2.43.0 (0)
 -->
<!-- Title: CPlayer::Move Pages: 1 -->
<svg width="438pt" height="279pt"
 viewBox="0.00 0.00 438.00 279.00" xmlns="http://www.w3.org/2000/svg" xmlns:xlink="http://www.w3.org/1999/xlink">
<g id="graph0" class="graph" transform="scale(1 1) rotate(0) translate(4 275)">
<title>CPlayer::Move</title>
<polygon fill="white" stroke="transparent" points="-4,4 -4,-275 434,-275 434,4 -4,4"/>
<!-- Node1 -->
<g id="node1" class="node">
<title>Node1</title>
<g id="a_node1"><a xlink:title="When user / AI changes position, this method manage it + is responsible for checking if the move is p...">
<polygon fill="#bfbfbf" stroke="black" points="0,-133.5 0,-152.5 87,-152.5 87,-133.5 0,-133.5"/>
<text text-anchor="middle" x="43.5" y="-140.5" font-family="Helvetica,sans-Serif" font-size="10.00">CPlayer::Move</text>
</a>
</g>
</g>
<!-- Node2 -->
<g id="node2" class="node">
<title>Node2</title>
<g id="a_node2"><a xlink:href="classCPlayer.html#ab7ca8b0c210bfc1ffed690b2801e0880" target="_top" xlink:title="Function responsible for ncurses library (scanning user&#39;s input)">
<polygon fill="white" stroke="black" points="134,-152.5 134,-171.5 234,-171.5 234,-152.5 134,-152.5"/>
<text text-anchor="middle" x="184" y="-159.5" font-family="Helvetica,sans-Serif" font-size="10.00">CPlayer::GetChar</text>
</a>
</g>
</g>
<!-- Node1&#45;&gt;Node2 -->
<g id="edge1" class="edge">
<title>Node1&#45;&gt;Node2</title>
<path fill="none" stroke="midnightblue" d="M87.18,-148.86C98.73,-150.44 111.45,-152.18 123.73,-153.87"/>
<polygon fill="midnightblue" stroke="midnightblue" points="123.53,-157.37 133.91,-155.27 124.48,-150.44 123.53,-157.37"/>
</g>
<!-- Node3 -->
<g id="node3" class="node">
<title>Node3</title>
<g id="a_node3"><a xlink:href="classCPlayer.html#a880c76f8fc694de5bcdec60837a0837a" target="_top" xlink:title="Function reading user input based on which user wanted to move. Creating controls vector based on pla...">
<polygon fill="white" stroke="black" points="123,-114.5 123,-133.5 245,-133.5 245,-114.5 123,-114.5"/>
<text text-anchor="middle" x="184" y="-121.5" font-family="Helvetica,sans-Serif" font-size="10.00">CPlayer::HandleMove</text>
</a>
</g>
</g>
<!-- Node1&#45;&gt;Node3 -->
<g id="edge2" class="edge">
<title>Node1&#45;&gt;Node3</title>
<path fill="none" stroke="midnightblue" d="M87.18,-137.14C95.38,-136.02 104.17,-134.81 112.97,-133.61"/>
<polygon fill="midnightblue" stroke="midnightblue" points="113.46,-137.07 122.89,-132.25 112.51,-130.14 113.46,-137.07"/>
</g>
<!-- Node4 -->
<g id="node4" class="node">
<title>Node4</title>
<g id="a_node4"><a xlink:href="classCPosition.html#a098615f7aefcc0405d4c346c70a6b940" target="_top" xlink:title=" ">
<polygon fill="white" stroke="black" points="283.5,-251.5 283.5,-270.5 427.5,-270.5 427.5,-251.5 283.5,-251.5"/>
<text text-anchor="middle" x="355.5" y="-258.5" font-family="Helvetica,sans-Serif" font-size="10.00">CPosition::ChangePosition</text>
</a>
</g>
</g>
<!-- Node3&#45;&gt;Node4 -->
<g id="edge3" class="edge">
<title>Node3&#45;&gt;Node4</title>
<path fill="none" stroke="midnightblue" d="M231.07,-133.62C236.18,-136.07 240.98,-139.14 245,-143 278.8,-175.4 246.35,-210.52 281,-242 282.7,-243.55 284.52,-244.97 286.42,-246.29"/>
<polygon fill="midnightblue" stroke="midnightblue" points="284.82,-249.4 295.24,-251.34 288.3,-243.33 284.82,-249.4"/>
</g>
<!-- Node5 -->
<g id="node5" class="node">
<title>Node5</title>
<g id="a_node5"><a xlink:href="classCPlayerStats.html#a1796be8dcae036167ed6a43f47907283" target="_top" xlink:title=" ">
<polygon fill="white" stroke="black" points="282.5,-202 282.5,-232 428.5,-232 428.5,-202 282.5,-202"/>
<text text-anchor="start" x="290.5" y="-220" font-family="Helvetica,sans-Serif" font-size="10.00">CPlayerStats::CheckBigger</text>
<text text-anchor="middle" x="355.5" y="-209" font-family="Helvetica,sans-Serif" font-size="10.00">BlowBonus</text>
</a>
</g>
</g>
<!-- Node3&#45;&gt;Node5 -->
<g id="edge4" class="edge">
<title>Node3&#45;&gt;Node5</title>
<path fill="none" stroke="midnightblue" d="M227.32,-133.6C233.57,-136.07 239.69,-139.16 245,-143 267.18,-159.06 258.89,-176.84 281,-193 282.89,-194.38 284.87,-195.69 286.91,-196.92"/>
<polygon fill="midnightblue" stroke="midnightblue" points="285.73,-200.26 296.2,-201.88 289.02,-194.08 285.73,-200.26"/>
</g>
<!-- Node6 -->
<g id="node6" class="node">
<title>Node6</title>
<g id="a_node6"><a xlink:href="classCPlayerStats.html#abf06e6632bb1fc9ea9e061ab1d08c588" target="_top" xlink:title=" ">
<polygon fill="white" stroke="black" points="281,-153 281,-183 430,-183 430,-153 281,-153"/>
<text text-anchor="start" x="289" y="-171" font-family="Helvetica,sans-Serif" font-size="10.00">CPlayerStats::CheckBombs</text>
<text text-anchor="middle" x="355.5" y="-160" font-family="Helvetica,sans-Serif" font-size="10.00">Available</text>
</a>
</g>
</g>
<!-- Node3&#45;&gt;Node6 -->
<g id="edge5" class="edge">
<title>Node3&#45;&gt;Node6</title>
<path fill="none" stroke="midnightblue" d="M221.78,-133.55C240.78,-138.48 264.57,-144.66 286.75,-150.41"/>
<polygon fill="midnightblue" stroke="midnightblue" points="285.91,-153.81 296.46,-152.93 287.66,-147.03 285.91,-153.81"/>
</g>
<!-- Node7 -->
<g id="node7" class="node">
<title>Node7</title>
<g id="a_node7"><a xlink:href="classCBomb.html#a6b5a166b777dffa8f504f19d01a887c9" target="_top" xlink:title="Creating unique pointer on bomb, so I can keep pointers in vector in MapContainer.">
<polygon fill="white" stroke="black" points="303.5,-114.5 303.5,-133.5 407.5,-133.5 407.5,-114.5 303.5,-114.5"/>
<text text-anchor="middle" x="355.5" y="-121.5" font-family="Helvetica,sans-Serif" font-size="10.00">CBomb::CreatePtr</text>
</a>
</g>
</g>
<!-- Node3&#45;&gt;Node7 -->
<g id="edge6" class="edge">
<title>Node3&#45;&gt;Node7</title>
<path fill="none" stroke="midnightblue" d="M245.24,-124C260.85,-124 277.67,-124 293.33,-124"/>
<polygon fill="midnightblue" stroke="midnightblue" points="293.43,-127.5 303.43,-124 293.43,-120.5 293.43,-127.5"/>
</g>
<!-- Node8 -->
<g id="node8" class="node">
<title>Node8</title>
<g id="a_node8"><a xlink:href="classCPosition.html#ac55e91406e3b04e1fa9960d9d935dff7" target="_top" xlink:title=" ">
<polygon fill="white" stroke="black" points="290,-76.5 290,-95.5 421,-95.5 421,-76.5 290,-76.5"/>
<text text-anchor="middle" x="355.5" y="-83.5" font-family="Helvetica,sans-Serif" font-size="10.00">CPosition::GetXPosition</text>
</a>
</g>
</g>
<!-- Node3&#45;&gt;Node8 -->
<g id="edge7" class="edge">
<title>Node3&#45;&gt;Node8</title>
<path fill="none" stroke="midnightblue" d="M227.77,-114.41C250.34,-109.35 278.22,-103.1 302.08,-97.75"/>
<polygon fill="midnightblue" stroke="midnightblue" points="303.04,-101.12 312.04,-95.52 301.51,-94.29 303.04,-101.12"/>
</g>
<!-- Node9 -->
<g id="node9" class="node">
<title>Node9</title>
<g id="a_node9"><a xlink:href="classCPosition.html#a49b0dc00e42f2f2f4d76ff0d46ff7c4e" target="_top" xlink:title=" ">
<polygon fill="white" stroke="black" points="290,-38.5 290,-57.5 421,-57.5 421,-38.5 290,-38.5"/>
<text text-anchor="middle" x="355.5" y="-45.5" font-family="Helvetica,sans-Serif" font-size="10.00">CPosition::GetYPosition</text>
</a>
</g>
</g>
<!-- Node3&#45;&gt;Node9 -->
<g id="edge8" class="edge">
<title>Node3&#45;&gt;Node9</title>
<path fill="none" stroke="midnightblue" d="M198.35,-114.41C216.32,-101.88 249.68,-80.03 281,-67 286.83,-64.57 293.05,-62.39 299.31,-60.44"/>
<polygon fill="midnightblue" stroke="midnightblue" points="300.52,-63.74 309.14,-57.58 298.56,-57.02 300.52,-63.74"/>
</g>
<!-- Node10 -->
<g id="node10" class="node">
<title>Node10</title>
<g id="a_node10"><a xlink:href="classCPlayerStats.html#a69d3e8e42c4ad3a0a4ebc676c2202293" target="_top" xlink:title="Returns AvailableBombs–, subtracts one bomb when user placed bomb.">
<polygon fill="white" stroke="black" points="290,-0.5 290,-19.5 421,-19.5 421,-0.5 290,-0.5"/>
<text text-anchor="middle" x="355.5" y="-7.5" font-family="Helvetica,sans-Serif" font-size="10.00">CPlayerStats::SubBomb</text>
</a>
</g>
</g>
<!-- Node3&#45;&gt;Node10 -->
<g id="edge9" class="edge">
<title>Node3&#45;&gt;Node10</title>
<path fill="none" stroke="midnightblue" d="M191.98,-114.24C206.35,-94.88 241.24,-51.58 281,-29 284.91,-26.78 289.08,-24.81 293.38,-23.07"/>
<polygon fill="midnightblue" stroke="midnightblue" points="294.71,-26.31 302.92,-19.61 292.33,-19.73 294.71,-26.31"/>
</g>
</g>
</svg>
