<?xml version="1.0" encoding="UTF-8" standalone="no"?>
<!DOCTYPE svg PUBLIC "-//W3C//DTD SVG 1.1//EN"
 "http://www.w3.org/Graphics/SVG/1.1/DTD/svg11.dtd">
<!-- Generated by graphviz version 2.43.0 (0)
 -->
<!-- Title: CPlayer::Move Pages: 1 -->
<svg width="438pt" height="317pt"
 viewBox="0.00 0.00 438.00 317.00" xmlns="http://www.w3.org/2000/svg" xmlns:xlink="http://www.w3.org/1999/xlink">
<g id="graph0" class="graph" transform="scale(1 1) rotate(0) translate(4 313)">
<title>CPlayer::Move</title>
<polygon fill="white" stroke="transparent" points="-4,4 -4,-313 434,-313 434,4 -4,4"/>
<!-- Node1 -->
<g id="node1" class="node">
<title>Node1</title>
<g id="a_node1"><a xlink:title="When user changes position, this method manage it + is responsible for checking if the move is possib...">
<polygon fill="#bfbfbf" stroke="black" points="0,-152.5 0,-171.5 87,-171.5 87,-152.5 0,-152.5"/>
<text text-anchor="middle" x="43.5" y="-159.5" font-family="Helvetica,sans-Serif" font-size="10.00">CPlayer::Move</text>
</a>
</g>
</g>
<!-- Node2 -->
<g id="node2" class="node">
<title>Node2</title>
<g id="a_node2"><a xlink:href="classCPlayer.html#ab0d6b3f16f1937c7bd01e9ea194c2f95" target="_top" xlink:title="Function responsible for ncurses library (scanning user&#39;s input)">
<polygon fill="white" stroke="black" points="134,-171.5 134,-190.5 234,-190.5 234,-171.5 134,-171.5"/>
<text text-anchor="middle" x="184" y="-178.5" font-family="Helvetica,sans-Serif" font-size="10.00">CPlayer::GetChar</text>
</a>
</g>
</g>
<!-- Node1&#45;&gt;Node2 -->
<g id="edge1" class="edge">
<title>Node1&#45;&gt;Node2</title>
<path fill="none" stroke="midnightblue" d="M87.18,-167.86C98.73,-169.44 111.45,-171.18 123.73,-172.87"/>
<polygon fill="midnightblue" stroke="midnightblue" points="123.53,-176.37 133.91,-174.27 124.48,-169.44 123.53,-176.37"/>
</g>
<!-- Node3 -->
<g id="node3" class="node">
<title>Node3</title>
<g id="a_node3"><a xlink:href="classCPlayer.html#a880c76f8fc694de5bcdec60837a0837a" target="_top" xlink:title="Function reading user input based on which user wanted to move. Creating controls vector based on pla...">
<polygon fill="white" stroke="black" points="123,-133.5 123,-152.5 245,-152.5 245,-133.5 123,-133.5"/>
<text text-anchor="middle" x="184" y="-140.5" font-family="Helvetica,sans-Serif" font-size="10.00">CPlayer::HandleMove</text>
</a>
</g>
</g>
<!-- Node1&#45;&gt;Node3 -->
<g id="edge2" class="edge">
<title>Node1&#45;&gt;Node3</title>
<path fill="none" stroke="midnightblue" d="M87.18,-156.14C95.38,-155.02 104.17,-153.81 112.97,-152.61"/>
<polygon fill="midnightblue" stroke="midnightblue" points="113.46,-156.07 122.89,-151.25 112.51,-149.14 113.46,-156.07"/>
</g>
<!-- Node4 -->
<g id="node4" class="node">
<title>Node4</title>
<g id="a_node4"><a xlink:href="classCPosition.html#a098615f7aefcc0405d4c346c70a6b940" target="_top" xlink:title=" ">
<polygon fill="white" stroke="black" points="283.5,-289.5 283.5,-308.5 427.5,-308.5 427.5,-289.5 283.5,-289.5"/>
<text text-anchor="middle" x="355.5" y="-296.5" font-family="Helvetica,sans-Serif" font-size="10.00">CPosition::ChangePosition</text>
</a>
</g>
</g>
<!-- Node3&#45;&gt;Node4 -->
<g id="edge3" class="edge">
<title>Node3&#45;&gt;Node4</title>
<path fill="none" stroke="midnightblue" d="M231.56,-152.56C236.53,-155.03 241.16,-158.12 245,-162 283.57,-200.98 241.4,-242.07 281,-280 282.5,-281.44 284.09,-282.77 285.76,-284"/>
<polygon fill="midnightblue" stroke="midnightblue" points="284.3,-287.21 294.67,-289.39 287.93,-281.22 284.3,-287.21"/>
</g>
<!-- Node5 -->
<g id="node5" class="node">
<title>Node5</title>
<g id="a_node5"><a xlink:href="classCPlayerStats.html#a1796be8dcae036167ed6a43f47907283" target="_top" xlink:title=" ">
<polygon fill="white" stroke="black" points="282.5,-240 282.5,-270 428.5,-270 428.5,-240 282.5,-240"/>
<text text-anchor="start" x="290.5" y="-258" font-family="Helvetica,sans-Serif" font-size="10.00">CPlayerStats::CheckBigger</text>
<text text-anchor="middle" x="355.5" y="-247" font-family="Helvetica,sans-Serif" font-size="10.00">BlowBonus</text>
</a>
</g>
</g>
<!-- Node3&#45;&gt;Node5 -->
<g id="edge4" class="edge">
<title>Node3&#45;&gt;Node5</title>
<path fill="none" stroke="midnightblue" d="M229.37,-152.6C235,-155.06 240.4,-158.14 245,-162 271.49,-184.24 254.61,-208.64 281,-231 282.54,-232.3 284.15,-233.53 285.81,-234.7"/>
<polygon fill="midnightblue" stroke="midnightblue" points="284.2,-237.81 294.57,-239.99 287.82,-231.82 284.2,-237.81"/>
</g>
<!-- Node6 -->
<g id="node6" class="node">
<title>Node6</title>
<g id="a_node6"><a xlink:href="classCPlayerStats.html#abf06e6632bb1fc9ea9e061ab1d08c588" target="_top" xlink:title=" ">
<polygon fill="white" stroke="black" points="281,-191 281,-221 430,-221 430,-191 281,-191"/>
<text text-anchor="start" x="289" y="-209" font-family="Helvetica,sans-Serif" font-size="10.00">CPlayerStats::CheckBombs</text>
<text text-anchor="middle" x="355.5" y="-198" font-family="Helvetica,sans-Serif" font-size="10.00">Available</text>
</a>
</g>
</g>
<!-- Node3&#45;&gt;Node6 -->
<g id="edge5" class="edge">
<title>Node3&#45;&gt;Node6</title>
<path fill="none" stroke="midnightblue" d="M218.71,-152.51C227.38,-155.27 236.63,-158.5 245,-162 261.69,-168.98 264.38,-173.84 281,-181 286.11,-183.2 291.48,-185.34 296.89,-187.38"/>
<polygon fill="midnightblue" stroke="midnightblue" points="296.04,-190.8 306.64,-190.94 298.45,-184.22 296.04,-190.8"/>
</g>
<!-- Node7 -->
<g id="node7" class="node">
<title>Node7</title>
<g id="a_node7"><a xlink:href="classCBomb.html#a6b5a166b777dffa8f504f19d01a887c9" target="_top" xlink:title="Creating unique pointer on bomb, so I can keep pointers in vector in MapContainer.">
<polygon fill="white" stroke="black" points="303.5,-152.5 303.5,-171.5 407.5,-171.5 407.5,-152.5 303.5,-152.5"/>
<text text-anchor="middle" x="355.5" y="-159.5" font-family="Helvetica,sans-Serif" font-size="10.00">CBomb::CreatePtr</text>
</a>
</g>
</g>
<!-- Node3&#45;&gt;Node7 -->
<g id="edge6" class="edge">
<title>Node3&#45;&gt;Node7</title>
<path fill="none" stroke="midnightblue" d="M245.24,-149.75C260.85,-151.5 277.67,-153.39 293.33,-155.14"/>
<polygon fill="midnightblue" stroke="midnightblue" points="293.1,-158.64 303.43,-156.28 293.88,-151.68 293.1,-158.64"/>
</g>
<!-- Node8 -->
<g id="node8" class="node">
<title>Node8</title>
<g id="a_node8"><a xlink:href="classCBlock.html#add32b563a6e910091af5a7a6710c92ca" target="_top" xlink:title="Converts type of block to printable symbol.">
<polygon fill="white" stroke="black" points="294,-114.5 294,-133.5 417,-133.5 417,-114.5 294,-114.5"/>
<text text-anchor="middle" x="355.5" y="-121.5" font-family="Helvetica,sans-Serif" font-size="10.00">CBlock::GetBlockChar</text>
</a>
</g>
</g>
<!-- Node3&#45;&gt;Node8 -->
<g id="edge7" class="edge">
<title>Node3&#45;&gt;Node8</title>
<path fill="none" stroke="midnightblue" d="M245.24,-136.25C257.7,-134.85 270.94,-133.37 283.74,-131.93"/>
<polygon fill="midnightblue" stroke="midnightblue" points="284.34,-135.39 293.89,-130.79 283.56,-128.43 284.34,-135.39"/>
</g>
<!-- Node9 -->
<g id="node9" class="node">
<title>Node9</title>
<g id="a_node9"><a xlink:href="classCPosition.html#ac55e91406e3b04e1fa9960d9d935dff7" target="_top" xlink:title=" ">
<polygon fill="white" stroke="black" points="290,-76.5 290,-95.5 421,-95.5 421,-76.5 290,-76.5"/>
<text text-anchor="middle" x="355.5" y="-83.5" font-family="Helvetica,sans-Serif" font-size="10.00">CPosition::GetXPosition</text>
</a>
</g>
</g>
<!-- Node3&#45;&gt;Node9 -->
<g id="edge8" class="edge">
<title>Node3&#45;&gt;Node9</title>
<path fill="none" stroke="midnightblue" d="M206.83,-133.46C226.11,-125.25 255.09,-113.44 281,-105 288.4,-102.59 296.3,-100.28 304.07,-98.15"/>
<polygon fill="midnightblue" stroke="midnightblue" points="305.04,-101.52 313.8,-95.56 303.24,-94.75 305.04,-101.52"/>
</g>
<!-- Node10 -->
<g id="node10" class="node">
<title>Node10</title>
<g id="a_node10"><a xlink:href="classCPosition.html#a49b0dc00e42f2f2f4d76ff0d46ff7c4e" target="_top" xlink:title=" ">
<polygon fill="white" stroke="black" points="290,-38.5 290,-57.5 421,-57.5 421,-38.5 290,-38.5"/>
<text text-anchor="middle" x="355.5" y="-45.5" font-family="Helvetica,sans-Serif" font-size="10.00">CPosition::GetYPosition</text>
</a>
</g>
</g>
<!-- Node3&#45;&gt;Node10 -->
<g id="edge9" class="edge">
<title>Node3&#45;&gt;Node10</title>
<path fill="none" stroke="midnightblue" d="M194.41,-133.27C210.59,-117.09 245.4,-84.69 281,-67 285.67,-64.68 290.66,-62.62 295.75,-60.8"/>
<polygon fill="midnightblue" stroke="midnightblue" points="297.2,-64.01 305.62,-57.58 295.03,-57.35 297.2,-64.01"/>
</g>
<!-- Node11 -->
<g id="node11" class="node">
<title>Node11</title>
<g id="a_node11"><a xlink:href="classCPlayerStats.html#a69d3e8e42c4ad3a0a4ebc676c2202293" target="_top" xlink:title="Returns AvailableBombs–, subtracts one bomb when user placed bomb.">
<polygon fill="white" stroke="black" points="290,-0.5 290,-19.5 421,-19.5 421,-0.5 290,-0.5"/>
<text text-anchor="middle" x="355.5" y="-7.5" font-family="Helvetica,sans-Serif" font-size="10.00">CPlayerStats::SubBomb</text>
</a>
</g>
</g>
<!-- Node3&#45;&gt;Node11 -->
<g id="edge10" class="edge">
<title>Node3&#45;&gt;Node11</title>
<path fill="none" stroke="midnightblue" d="M190.3,-133.31C202.91,-111.18 236.99,-56.71 281,-29 284.35,-26.89 287.94,-25.01 291.64,-23.34"/>
<polygon fill="midnightblue" stroke="midnightblue" points="293.06,-26.54 301.06,-19.6 290.48,-20.04 293.06,-26.54"/>
</g>
</g>
</svg>
