<?xml version="1.0" encoding="UTF-8" standalone="no"?>
<!DOCTYPE svg PUBLIC "-//W3C//DTD SVG 1.1//EN"
 "http://www.w3.org/Graphics/SVG/1.1/DTD/svg11.dtd">
<!-- Generated by graphviz version 2.43.0 (0)
 -->
<!-- Title: CAIPlayer::PlantBomb Pages: 1 -->
<svg width="316pt" height="165pt"
 viewBox="0.00 0.00 316.00 164.50" xmlns="http://www.w3.org/2000/svg" xmlns:xlink="http://www.w3.org/1999/xlink">
<g id="graph0" class="graph" transform="scale(1 1) rotate(0) translate(4 160.5)">
<title>CAIPlayer::PlantBomb</title>
<polygon fill="white" stroke="transparent" points="-4,4 -4,-160.5 312,-160.5 312,4 -4,4"/>
<!-- Node1 -->
<g id="node1" class="node">
<title>Node1</title>
<g id="a_node1"><a xlink:title="Handle if planting bomb is possible and if so creates new bomb object, plants bomb.">
<polygon fill="#bfbfbf" stroke="black" points="0,-60.5 0,-79.5 123,-79.5 123,-60.5 0,-60.5"/>
<text text-anchor="middle" x="61.5" y="-67.5" font-family="Helvetica,sans-Serif" font-size="10.00">CAIPlayer::PlantBomb</text>
</a>
</g>
</g>
<!-- Node2 -->
<g id="node2" class="node">
<title>Node2</title>
<g id="a_node2"><a xlink:href="classCPlayerStats.html#a1796be8dcae036167ed6a43f47907283" target="_top" xlink:title=" ">
<polygon fill="white" stroke="black" points="160.5,-126 160.5,-156 306.5,-156 306.5,-126 160.5,-126"/>
<text text-anchor="start" x="168.5" y="-144" font-family="Helvetica,sans-Serif" font-size="10.00">CPlayerStats::CheckBigger</text>
<text text-anchor="middle" x="233.5" y="-133" font-family="Helvetica,sans-Serif" font-size="10.00">BlowBonus</text>
</a>
</g>
</g>
<!-- Node1&#45;&gt;Node2 -->
<g id="edge1" class="edge">
<title>Node1&#45;&gt;Node2</title>
<path fill="none" stroke="midnightblue" d="M80.3,-79.59C99.42,-89.67 130.84,-105.61 159,-117 163.7,-118.9 168.62,-120.77 173.58,-122.56"/>
<polygon fill="midnightblue" stroke="midnightblue" points="172.54,-125.91 183.14,-125.92 174.86,-119.3 172.54,-125.91"/>
</g>
<!-- Node3 -->
<g id="node3" class="node">
<title>Node3</title>
<g id="a_node3"><a xlink:href="classCPlayerStats.html#abf06e6632bb1fc9ea9e061ab1d08c588" target="_top" xlink:title=" ">
<polygon fill="white" stroke="black" points="159,-77 159,-107 308,-107 308,-77 159,-77"/>
<text text-anchor="start" x="167" y="-95" font-family="Helvetica,sans-Serif" font-size="10.00">CPlayerStats::CheckBombs</text>
<text text-anchor="middle" x="233.5" y="-84" font-family="Helvetica,sans-Serif" font-size="10.00">Available</text>
</a>
</g>
</g>
<!-- Node1&#45;&gt;Node3 -->
<g id="edge2" class="edge">
<title>Node1&#45;&gt;Node3</title>
<path fill="none" stroke="midnightblue" d="M123.39,-77.88C131.68,-78.95 140.3,-80.07 148.9,-81.18"/>
<polygon fill="midnightblue" stroke="midnightblue" points="148.6,-84.67 158.96,-82.48 149.5,-77.73 148.6,-84.67"/>
</g>
<!-- Node4 -->
<g id="node4" class="node">
<title>Node4</title>
<g id="a_node4"><a xlink:href="classCBomb.html#a6b5a166b777dffa8f504f19d01a887c9" target="_top" xlink:title="Creating unique pointer on bomb, so I can keep pointers in vector in MapContainer.">
<polygon fill="white" stroke="black" points="181.5,-38.5 181.5,-57.5 285.5,-57.5 285.5,-38.5 181.5,-38.5"/>
<text text-anchor="middle" x="233.5" y="-45.5" font-family="Helvetica,sans-Serif" font-size="10.00">CBomb::CreatePtr</text>
</a>
</g>
</g>
<!-- Node1&#45;&gt;Node4 -->
<g id="edge3" class="edge">
<title>Node1&#45;&gt;Node4</title>
<path fill="none" stroke="midnightblue" d="M123.39,-62.12C138.95,-60.11 155.67,-57.94 171.24,-55.93"/>
<polygon fill="midnightblue" stroke="midnightblue" points="171.82,-59.38 181.28,-54.63 170.92,-52.44 171.82,-59.38"/>
</g>
<!-- Node5 -->
<g id="node5" class="node">
<title>Node5</title>
<g id="a_node5"><a xlink:href="classCPlayerStats.html#a69d3e8e42c4ad3a0a4ebc676c2202293" target="_top" xlink:title="Returns AvailableBombs–, subtracts one bomb when user placed bomb.">
<polygon fill="white" stroke="black" points="168,-0.5 168,-19.5 299,-19.5 299,-0.5 168,-0.5"/>
<text text-anchor="middle" x="233.5" y="-7.5" font-family="Helvetica,sans-Serif" font-size="10.00">CPlayerStats::SubBomb</text>
</a>
</g>
</g>
<!-- Node1&#45;&gt;Node5 -->
<g id="edge4" class="edge">
<title>Node1&#45;&gt;Node5</title>
<path fill="none" stroke="midnightblue" d="M82.49,-60.47C101.78,-51.53 131.94,-38.19 159,-29 166.12,-26.58 173.71,-24.3 181.21,-22.21"/>
<polygon fill="midnightblue" stroke="midnightblue" points="182.23,-25.56 190.98,-19.58 180.41,-18.8 182.23,-25.56"/>
</g>
</g>
</svg>
