<?xml version="1.0" encoding="UTF-8" standalone="no"?>
<!DOCTYPE svg PUBLIC "-//W3C//DTD SVG 1.1//EN"
 "http://www.w3.org/Graphics/SVG/1.1/DTD/svg11.dtd">
<!-- Generated by graphviz version 2.43.0 (0)
 -->
<!-- Title: CPosition::GetYPosition Pages: 1 -->
<svg width="648pt" height="162pt"
 viewBox="0.00 0.00 648.00 161.75" xmlns="http://www.w3.org/2000/svg" xmlns:xlink="http://www.w3.org/1999/xlink">
<g id="graph0" class="graph" transform="scale(1 1) rotate(0) translate(4 157.75)">
<title>CPosition::GetYPosition</title>
<polygon fill="white" stroke="transparent" points="-4,4 -4,-157.75 644,-157.75 644,4 -4,4"/>
<!-- Node1 -->
<g id="node1" class="node">
<title>Node1</title>
<g id="a_node1"><a xlink:title=" ">
<polygon fill="#bfbfbf" stroke="black" points="509,-76.5 509,-95.5 640,-95.5 640,-76.5 509,-76.5"/>
<text text-anchor="middle" x="574.5" y="-83.5" font-family="Helvetica,sans-Serif" font-size="10.00">CPosition::GetYPosition</text>
</a>
</g>
</g>
<!-- Node2 -->
<g id="node2" class="node">
<title>Node2</title>
<g id="a_node2"><a xlink:href="classCAIPlayer.html#a5e6f39de3b63341b62054fd78212cee6" target="_top" xlink:title="Calculate BFS and move the best direction possible. It is working in different direction (finding pat...">
<polygon fill="white" stroke="black" points="144,-114.5 144,-133.5 253,-133.5 253,-114.5 144,-114.5"/>
<text text-anchor="middle" x="198.5" y="-121.5" font-family="Helvetica,sans-Serif" font-size="10.00">CAIPlayer::BFSPath</text>
</a>
</g>
</g>
<!-- Node1&#45;&gt;Node2 -->
<g id="edge1" class="edge">
<title>Node1&#45;&gt;Node2</title>
<path fill="none" stroke="midnightblue" d="M553.36,-101.62C533.99,-115.57 503.27,-135.01 473,-143 389.7,-164.98 287.47,-146.38 234.72,-133.6"/>
<polygon fill="midnightblue" stroke="midnightblue" points="555.46,-104.42 561.42,-95.65 551.3,-98.79 555.46,-104.42"/>
</g>
<!-- Node4 -->
<g id="node4" class="node">
<title>Node4</title>
<g id="a_node4"><a xlink:href="classCBomb.html#af844a0c1b6f02763d30043cb1643b1ce" target="_top" xlink:title="Generating the flame effect of bomb (handling walls etc.)">
<polygon fill="white" stroke="black" points="328.5,-114.5 328.5,-133.5 444.5,-133.5 444.5,-114.5 328.5,-114.5"/>
<text text-anchor="middle" x="386.5" y="-121.5" font-family="Helvetica,sans-Serif" font-size="10.00">CBomb::FlameEffect</text>
</a>
</g>
</g>
<!-- Node1&#45;&gt;Node4 -->
<g id="edge3" class="edge">
<title>Node1&#45;&gt;Node4</title>
<path fill="none" stroke="midnightblue" d="M516.67,-97.61C490.22,-103.01 459.14,-109.36 434.1,-114.48"/>
<polygon fill="midnightblue" stroke="midnightblue" points="517.47,-101.02 526.56,-95.59 516.07,-94.16 517.47,-101.02"/>
</g>
<!-- Node5 -->
<g id="node5" class="node">
<title>Node5</title>
<g id="a_node5"><a xlink:href="classCPlayer.html#a880c76f8fc694de5bcdec60837a0837a" target="_top" xlink:title="Function reading user input based on which user wanted to move. Creating controls vector based on pla...">
<polygon fill="white" stroke="black" points="325.5,-38.5 325.5,-57.5 447.5,-57.5 447.5,-38.5 325.5,-38.5"/>
<text text-anchor="middle" x="386.5" y="-45.5" font-family="Helvetica,sans-Serif" font-size="10.00">CPlayer::HandleMove</text>
</a>
</g>
</g>
<!-- Node1&#45;&gt;Node5 -->
<g id="edge4" class="edge">
<title>Node1&#45;&gt;Node5</title>
<path fill="none" stroke="midnightblue" d="M516.67,-74.39C490.22,-68.99 459.14,-62.64 434.1,-57.52"/>
<polygon fill="midnightblue" stroke="midnightblue" points="516.07,-77.84 526.56,-76.41 517.47,-70.98 516.07,-77.84"/>
</g>
<!-- Node7 -->
<g id="node7" class="node">
<title>Node7</title>
<g id="a_node7"><a xlink:href="classCMapContainer.html#ae4bef5dbecc488fdfd0d064c261a9961" target="_top" xlink:title="Decide, where will players, ghosts, enemy etc. spawn based on map structure (clever spawning of ghost...">
<polygon fill="white" stroke="black" points="300,-0.5 300,-19.5 473,-19.5 473,-0.5 300,-0.5"/>
<text text-anchor="middle" x="386.5" y="-7.5" font-family="Helvetica,sans-Serif" font-size="10.00">CMapContainer::LoadObjectives</text>
</a>
</g>
</g>
<!-- Node1&#45;&gt;Node7 -->
<g id="edge6" class="edge">
<title>Node1&#45;&gt;Node7</title>
<path fill="none" stroke="midnightblue" d="M551.28,-70.83C531.53,-57.98 501.44,-39.94 473,-29 463.21,-25.23 452.48,-22.12 442.04,-19.57"/>
<polygon fill="midnightblue" stroke="midnightblue" points="549.57,-73.89 559.84,-76.49 553.44,-68.06 549.57,-73.89"/>
</g>
<!-- Node9 -->
<g id="node9" class="node">
<title>Node9</title>
<g id="a_node9"><a xlink:href="classCAIPlayer.html#ace409e60eda0ae6c08f8cd79d3b8bd3e" target="_top" xlink:title="Function is used, when BFS Couldn&#39;t find any possible way between players.">
<polygon fill="white" stroke="black" points="310.5,-76.5 310.5,-95.5 462.5,-95.5 462.5,-76.5 310.5,-76.5"/>
<text text-anchor="middle" x="386.5" y="-83.5" font-family="Helvetica,sans-Serif" font-size="10.00">CAIPlayer::RandomizeMove</text>
</a>
</g>
</g>
<!-- Node1&#45;&gt;Node9 -->
<g id="edge8" class="edge">
<title>Node1&#45;&gt;Node9</title>
<path fill="none" stroke="midnightblue" d="M498.7,-86C486.86,-86 474.62,-86 462.78,-86"/>
<polygon fill="midnightblue" stroke="midnightblue" points="498.97,-89.5 508.97,-86 498.97,-82.5 498.97,-89.5"/>
</g>
<!-- Node3 -->
<g id="node3" class="node">
<title>Node3</title>
<g id="a_node3"><a xlink:href="classCAIPlayer.html#a4a3b7d4cc43e3b3ded213ae191dfc70b" target="_top" xlink:title="When AI changes position, this method manage it + is responsible for checking if the move is possible...">
<polygon fill="white" stroke="black" points="0,-114.5 0,-133.5 97,-133.5 97,-114.5 0,-114.5"/>
<text text-anchor="middle" x="48.5" y="-121.5" font-family="Helvetica,sans-Serif" font-size="10.00">CAIPlayer::Move</text>
</a>
</g>
</g>
<!-- Node2&#45;&gt;Node3 -->
<g id="edge2" class="edge">
<title>Node2&#45;&gt;Node3</title>
<path fill="none" stroke="midnightblue" d="M133.52,-124C121.33,-124 108.76,-124 97.19,-124"/>
<polygon fill="midnightblue" stroke="midnightblue" points="133.65,-127.5 143.65,-124 133.65,-120.5 133.65,-127.5"/>
</g>
<!-- Node6 -->
<g id="node6" class="node">
<title>Node6</title>
<g id="a_node6"><a xlink:href="classCPlayer.html#ac67ecebfb4b30f41a7f37dbc6eb7b874" target="_top" xlink:title="When user changes position, this method manage it + is responsible for checking if the move is possib...">
<polygon fill="white" stroke="black" points="155,-38.5 155,-57.5 242,-57.5 242,-38.5 155,-38.5"/>
<text text-anchor="middle" x="198.5" y="-45.5" font-family="Helvetica,sans-Serif" font-size="10.00">CPlayer::Move</text>
</a>
</g>
</g>
<!-- Node5&#45;&gt;Node6 -->
<g id="edge5" class="edge">
<title>Node5&#45;&gt;Node6</title>
<path fill="none" stroke="midnightblue" d="M315.33,-48C290.68,-48 263.74,-48 242.06,-48"/>
<polygon fill="midnightblue" stroke="midnightblue" points="315.37,-51.5 325.37,-48 315.37,-44.5 315.37,-51.5"/>
</g>
<!-- Node8 -->
<g id="node8" class="node">
<title>Node8</title>
<g id="a_node8"><a xlink:href="classCMainMenu.html#ab969842c59bbaff6fbececc6b0c9b69a" target="_top" xlink:title="Render main menu (start of game)">
<polygon fill="white" stroke="black" points="133,-0.5 133,-19.5 264,-19.5 264,-0.5 133,-0.5"/>
<text text-anchor="middle" x="198.5" y="-7.5" font-family="Helvetica,sans-Serif" font-size="10.00">CMainMenu::MainMenu</text>
</a>
</g>
</g>
<!-- Node7&#45;&gt;Node8 -->
<g id="edge7" class="edge">
<title>Node7&#45;&gt;Node8</title>
<path fill="none" stroke="midnightblue" d="M289.69,-10C281.04,-10 272.41,-10 264.12,-10"/>
<polygon fill="midnightblue" stroke="midnightblue" points="289.85,-13.5 299.85,-10 289.85,-6.5 289.85,-13.5"/>
</g>
<!-- Node9&#45;&gt;Node2 -->
<g id="edge9" class="edge">
<title>Node9&#45;&gt;Node2</title>
<path fill="none" stroke="midnightblue" d="M328.67,-97.61C302.22,-103.01 271.14,-109.36 246.1,-114.48"/>
<polygon fill="midnightblue" stroke="midnightblue" points="329.47,-101.02 338.56,-95.59 328.07,-94.16 329.47,-101.02"/>
</g>
</g>
</svg>
