<?xml version="1.0" encoding="UTF-8" standalone="no"?>
<!DOCTYPE svg PUBLIC "-//W3C//DTD SVG 1.1//EN"
 "http://www.w3.org/Graphics/SVG/1.1/DTD/svg11.dtd">
<!-- Generated by graphviz version 2.43.0 (0)
 -->
<!-- Title: CBlock::GetBlockChar Pages: 1 -->
<svg width="640pt" height="504pt"
 viewBox="0.00 0.00 640.00 503.50" xmlns="http://www.w3.org/2000/svg" xmlns:xlink="http://www.w3.org/1999/xlink">
<g id="graph0" class="graph" transform="scale(1 1) rotate(0) translate(4 499.5)">
<title>CBlock::GetBlockChar</title>
<polygon fill="white" stroke="transparent" points="-4,4 -4,-499.5 636,-499.5 636,4 -4,4"/>
<!-- Node1 -->
<g id="node1" class="node">
<title>Node1</title>
<g id="a_node1"><a xlink:title="Converts type of block to printable symbol.">
<polygon fill="#bfbfbf" stroke="black" points="509,-232.5 509,-251.5 632,-251.5 632,-232.5 509,-232.5"/>
<text text-anchor="middle" x="570.5" y="-239.5" font-family="Helvetica,sans-Serif" font-size="10.00">CBlock::GetBlockChar</text>
</a>
</g>
</g>
<!-- Node2 -->
<g id="node2" class="node">
<title>Node2</title>
<g id="a_node2"><a xlink:href="classCMapContainer.html#ada274c140f101e7dd4f2dd43ef4e1771" target="_top" xlink:title="Adding bombs to the map + controlling the explosion.">
<polygon fill="white" stroke="black" points="301.5,-465 301.5,-495 471.5,-495 471.5,-465 301.5,-465"/>
<text text-anchor="start" x="309.5" y="-483" font-family="Helvetica,sans-Serif" font-size="10.00">CMapContainer::AddAndHandle</text>
<text text-anchor="middle" x="386.5" y="-472" font-family="Helvetica,sans-Serif" font-size="10.00">BombOnMap</text>
</a>
</g>
</g>
<!-- Node1&#45;&gt;Node2 -->
<g id="edge1" class="edge">
<title>Node1&#45;&gt;Node2</title>
<path fill="none" stroke="midnightblue" d="M566.34,-261.69C558.52,-303.86 534.26,-403.3 473,-456 469.03,-459.42 464.6,-462.35 459.91,-464.87"/>
<polygon fill="midnightblue" stroke="midnightblue" points="569.79,-262.29 568.06,-251.84 562.89,-261.09 569.79,-262.29"/>
</g>
<!-- Node3 -->
<g id="node3" class="node">
<title>Node3</title>
<g id="a_node3"><a xlink:href="classCMapContainer.html#a992a6548a3a39215c6d245cea39d1b1b" target="_top" xlink:title="Adding monsters to the map + handling collisions of players and ghosts.">
<polygon fill="white" stroke="black" points="301.5,-416 301.5,-446 471.5,-446 471.5,-416 301.5,-416"/>
<text text-anchor="start" x="309.5" y="-434" font-family="Helvetica,sans-Serif" font-size="10.00">CMapContainer::AddAndHandle</text>
<text text-anchor="middle" x="386.5" y="-423" font-family="Helvetica,sans-Serif" font-size="10.00">EntitiesOnMap</text>
</a>
</g>
</g>
<!-- Node1&#45;&gt;Node3 -->
<g id="edge2" class="edge">
<title>Node1&#45;&gt;Node3</title>
<path fill="none" stroke="midnightblue" d="M562.79,-261.29C550.28,-294.51 520.3,-362.64 473,-401 465.55,-407.04 456.79,-411.91 447.78,-415.82"/>
<polygon fill="midnightblue" stroke="midnightblue" points="566.11,-262.41 566.24,-251.81 559.53,-260.01 566.11,-262.41"/>
</g>
<!-- Node4 -->
<g id="node4" class="node">
<title>Node4</title>
<g id="a_node4"><a xlink:href="classCAIPlayer.html#a5e6f39de3b63341b62054fd78212cee6" target="_top" xlink:title="Calculate BFS and move the best direction possible. It is working in different direction (finding pat...">
<polygon fill="white" stroke="black" points="144,-270.5 144,-289.5 253,-289.5 253,-270.5 144,-270.5"/>
<text text-anchor="middle" x="198.5" y="-277.5" font-family="Helvetica,sans-Serif" font-size="10.00">CAIPlayer::BFSPath</text>
</a>
</g>
</g>
<!-- Node1&#45;&gt;Node4 -->
<g id="edge3" class="edge">
<title>Node1&#45;&gt;Node4</title>
<path fill="none" stroke="midnightblue" d="M561.57,-261.22C548.25,-290.6 518.33,-345.62 473,-368 404.06,-402.04 371.97,-395.06 300,-368 257.45,-352 221.14,-308.92 206.46,-289.6"/>
<polygon fill="midnightblue" stroke="midnightblue" points="564.94,-262.23 565.72,-251.67 558.52,-259.44 564.94,-262.23"/>
</g>
<!-- Node6 -->
<g id="node6" class="node">
<title>Node6</title>
<g id="a_node6"><a xlink:href="classCBomb.html#a8a6703ff56dc295acbe3e93963cb1a05" target="_top" xlink:title="Contructor for new bomb object.">
<polygon fill="white" stroke="black" points="340,-339.5 340,-358.5 433,-358.5 433,-339.5 340,-339.5"/>
<text text-anchor="middle" x="386.5" y="-346.5" font-family="Helvetica,sans-Serif" font-size="10.00">CBomb::CBomb</text>
</a>
</g>
</g>
<!-- Node1&#45;&gt;Node6 -->
<g id="edge5" class="edge">
<title>Node1&#45;&gt;Node6</title>
<path fill="none" stroke="midnightblue" d="M555.38,-259.51C538.12,-279.69 506.98,-312.35 473,-330 460.86,-336.31 446.68,-340.53 433.41,-343.35"/>
<polygon fill="midnightblue" stroke="midnightblue" points="558.18,-261.62 561.9,-251.7 552.8,-257.14 558.18,-261.62"/>
</g>
<!-- Node7 -->
<g id="node7" class="node">
<title>Node7</title>
<g id="a_node7"><a xlink:href="classCBomb.html#af844a0c1b6f02763d30043cb1643b1ce" target="_top" xlink:title="Generating the flame effect of bomb (handling walls etc.)">
<polygon fill="white" stroke="black" points="328.5,-301.5 328.5,-320.5 444.5,-320.5 444.5,-301.5 328.5,-301.5"/>
<text text-anchor="middle" x="386.5" y="-308.5" font-family="Helvetica,sans-Serif" font-size="10.00">CBomb::FlameEffect</text>
</a>
</g>
</g>
<!-- Node1&#45;&gt;Node7 -->
<g id="edge6" class="edge">
<title>Node1&#45;&gt;Node7</title>
<path fill="none" stroke="midnightblue" d="M545.4,-256.73C526.35,-267.81 498.76,-282.65 473,-292 462.71,-295.74 451.44,-298.88 440.57,-301.46"/>
<polygon fill="midnightblue" stroke="midnightblue" points="547.2,-259.73 554.02,-251.63 543.64,-253.71 547.2,-259.73"/>
</g>
<!-- Node8 -->
<g id="node8" class="node">
<title>Node8</title>
<g id="a_node8"><a xlink:href="classCMapContainer.html#a5019e96ad966471e936d0d184953fe52" target="_top" xlink:title="Generating the flame + destroying things around.">
<polygon fill="white" stroke="black" points="306,-252 306,-282 467,-282 467,-252 306,-252"/>
<text text-anchor="start" x="314" y="-270" font-family="Helvetica,sans-Serif" font-size="10.00">CMapContainer::HandleBomb</text>
<text text-anchor="middle" x="386.5" y="-259" font-family="Helvetica,sans-Serif" font-size="10.00">Explosion</text>
</a>
</g>
</g>
<!-- Node1&#45;&gt;Node8 -->
<g id="edge7" class="edge">
<title>Node1&#45;&gt;Node8</title>
<path fill="none" stroke="midnightblue" d="M498.73,-251.72C488.42,-253.14 477.74,-254.6 467.27,-256.04"/>
<polygon fill="midnightblue" stroke="midnightblue" points="499.47,-255.15 508.9,-250.32 498.51,-248.22 499.47,-255.15"/>
</g>
<!-- Node9 -->
<g id="node9" class="node">
<title>Node9</title>
<g id="a_node9"><a xlink:href="classCMapContainer.html#adca6d8dd441aea01e3b05a22363439a6" target="_top" xlink:title="Handling bonuses on the map, based on their visibility at the moment (it means you can&#39;t pickup bonus...">
<polygon fill="white" stroke="black" points="300,-203 300,-233 473,-233 473,-203 300,-203"/>
<text text-anchor="start" x="308" y="-221" font-family="Helvetica,sans-Serif" font-size="10.00">CMapContainer::HandleBonuses</text>
<text text-anchor="middle" x="386.5" y="-210" font-family="Helvetica,sans-Serif" font-size="10.00">OnMap</text>
</a>
</g>
</g>
<!-- Node1&#45;&gt;Node9 -->
<g id="edge8" class="edge">
<title>Node1&#45;&gt;Node9</title>
<path fill="none" stroke="midnightblue" d="M498.78,-232.67C490.37,-231.57 481.72,-230.42 473.13,-229.29"/>
<polygon fill="midnightblue" stroke="midnightblue" points="498.52,-236.17 508.9,-234.01 499.44,-229.23 498.52,-236.17"/>
</g>
<!-- Node10 -->
<g id="node10" class="node">
<title>Node10</title>
<g id="a_node10"><a xlink:href="classCPlayer.html#a880c76f8fc694de5bcdec60837a0837a" target="_top" xlink:title="Function reading user input based on which user wanted to move. Creating controls vector based on pla...">
<polygon fill="white" stroke="black" points="325.5,-126.5 325.5,-145.5 447.5,-145.5 447.5,-126.5 325.5,-126.5"/>
<text text-anchor="middle" x="386.5" y="-133.5" font-family="Helvetica,sans-Serif" font-size="10.00">CPlayer::HandleMove</text>
</a>
</g>
</g>
<!-- Node1&#45;&gt;Node10 -->
<g id="edge9" class="edge">
<title>Node1&#45;&gt;Node10</title>
<path fill="none" stroke="midnightblue" d="M555.34,-224.7C538.04,-204.74 506.86,-172.46 473,-155 465.16,-150.96 456.49,-147.77 447.76,-145.26"/>
<polygon fill="midnightblue" stroke="midnightblue" points="552.74,-227.04 561.87,-232.41 558.08,-222.52 552.74,-227.04"/>
</g>
<!-- Node12 -->
<g id="node12" class="node">
<title>Node12</title>
<g id="a_node12"><a xlink:href="classCGameSettingsMenu.html#a65162e72eed6257ff155390ce5570316" target="_top" xlink:title="Load data from chosen file to our map array, that will be retrieved by MapContainer in a future.">
<polygon fill="white" stroke="black" points="324,-77 324,-107 449,-107 449,-77 324,-77"/>
<text text-anchor="start" x="332" y="-95" font-family="Helvetica,sans-Serif" font-size="10.00">CGameSettingsMenu::</text>
<text text-anchor="middle" x="386.5" y="-84" font-family="Helvetica,sans-Serif" font-size="10.00">LoadMapData</text>
</a>
</g>
</g>
<!-- Node1&#45;&gt;Node12 -->
<g id="edge11" class="edge">
<title>Node1&#45;&gt;Node12</title>
<path fill="none" stroke="midnightblue" d="M560.01,-223.21C545.18,-195.76 513.94,-144.94 473,-117 465.85,-112.12 457.73,-108.18 449.42,-104.99"/>
<polygon fill="midnightblue" stroke="midnightblue" points="556.97,-224.95 564.71,-232.18 563.17,-221.7 556.97,-224.95"/>
</g>
<!-- Node14 -->
<g id="node14" class="node">
<title>Node14</title>
<g id="a_node14"><a xlink:href="classCMapContainer.html#ae4bef5dbecc488fdfd0d064c261a9961" target="_top" xlink:title="Decide, where will players, ghosts, enemy etc. spawn based on map structure (clever spawning of ghost...">
<polygon fill="white" stroke="black" points="300,-38.5 300,-57.5 473,-57.5 473,-38.5 300,-38.5"/>
<text text-anchor="middle" x="386.5" y="-45.5" font-family="Helvetica,sans-Serif" font-size="10.00">CMapContainer::LoadObjectives</text>
</a>
</g>
</g>
<!-- Node1&#45;&gt;Node14 -->
<g id="edge13" class="edge">
<title>Node1&#45;&gt;Node14</title>
<path fill="none" stroke="midnightblue" d="M564.36,-222.38C553.77,-185.97 525.95,-108.01 473,-68 467.28,-63.68 460.78,-60.27 453.98,-57.59"/>
<polygon fill="midnightblue" stroke="midnightblue" points="561.06,-223.56 567.11,-232.26 567.8,-221.69 561.06,-223.56"/>
</g>
<!-- Node16 -->
<g id="node16" class="node">
<title>Node16</title>
<g id="a_node16"><a xlink:href="classCAIPlayer.html#ace409e60eda0ae6c08f8cd79d3b8bd3e" target="_top" xlink:title="Function is used, when BFS Couldn&#39;t find any possible way between players.">
<polygon fill="white" stroke="black" points="310.5,-164.5 310.5,-183.5 462.5,-183.5 462.5,-164.5 310.5,-164.5"/>
<text text-anchor="middle" x="386.5" y="-171.5" font-family="Helvetica,sans-Serif" font-size="10.00">CAIPlayer::RandomizeMove</text>
</a>
</g>
</g>
<!-- Node1&#45;&gt;Node16 -->
<g id="edge15" class="edge">
<title>Node1&#45;&gt;Node16</title>
<path fill="none" stroke="midnightblue" d="M544.35,-227.47C525.28,-216.95 498.15,-203.06 473,-194 461.53,-189.87 448.87,-186.36 436.9,-183.5"/>
<polygon fill="midnightblue" stroke="midnightblue" points="542.84,-230.64 553.28,-232.47 546.27,-224.53 542.84,-230.64"/>
</g>
<!-- Node17 -->
<g id="node17" class="node">
<title>Node17</title>
<g id="a_node17"><a xlink:href="classCMapContainer.html#a06e21c7bfb19bfd0fa3eb738a51de042" target="_top" xlink:title="Clears console and render map with changed data, also is responsible for colisions,...">
<polygon fill="white" stroke="black" points="310,-0.5 310,-19.5 463,-19.5 463,-0.5 310,-0.5"/>
<text text-anchor="middle" x="386.5" y="-7.5" font-family="Helvetica,sans-Serif" font-size="10.00">CMapContainer::RenderMap</text>
</a>
</g>
</g>
<!-- Node1&#45;&gt;Node17 -->
<g id="edge17" class="edge">
<title>Node1&#45;&gt;Node17</title>
<path fill="none" stroke="midnightblue" d="M566.53,-222.14C559.07,-179.66 535.49,-79.74 473,-29 468.28,-25.17 462.94,-22.07 457.31,-19.56"/>
<polygon fill="midnightblue" stroke="midnightblue" points="563.08,-222.77 568.15,-232.07 569.99,-221.64 563.08,-222.77"/>
</g>
<!-- Node5 -->
<g id="node5" class="node">
<title>Node5</title>
<g id="a_node5"><a xlink:href="classCAIPlayer.html#a4a3b7d4cc43e3b3ded213ae191dfc70b" target="_top" xlink:title="When AI changes position, this method manage it + is responsible for checking if the move is possible...">
<polygon fill="white" stroke="black" points="0,-270.5 0,-289.5 97,-289.5 97,-270.5 0,-270.5"/>
<text text-anchor="middle" x="48.5" y="-277.5" font-family="Helvetica,sans-Serif" font-size="10.00">CAIPlayer::Move</text>
</a>
</g>
</g>
<!-- Node4&#45;&gt;Node5 -->
<g id="edge4" class="edge">
<title>Node4&#45;&gt;Node5</title>
<path fill="none" stroke="midnightblue" d="M133.52,-280C121.33,-280 108.76,-280 97.19,-280"/>
<polygon fill="midnightblue" stroke="midnightblue" points="133.65,-283.5 143.65,-280 133.65,-276.5 133.65,-283.5"/>
</g>
<!-- Node11 -->
<g id="node11" class="node">
<title>Node11</title>
<g id="a_node11"><a xlink:href="classCPlayer.html#ac67ecebfb4b30f41a7f37dbc6eb7b874" target="_top" xlink:title="When user changes position, this method manage it + is responsible for checking if the move is possib...">
<polygon fill="white" stroke="black" points="155,-126.5 155,-145.5 242,-145.5 242,-126.5 155,-126.5"/>
<text text-anchor="middle" x="198.5" y="-133.5" font-family="Helvetica,sans-Serif" font-size="10.00">CPlayer::Move</text>
</a>
</g>
</g>
<!-- Node10&#45;&gt;Node11 -->
<g id="edge10" class="edge">
<title>Node10&#45;&gt;Node11</title>
<path fill="none" stroke="midnightblue" d="M315.33,-136C290.68,-136 263.74,-136 242.06,-136"/>
<polygon fill="midnightblue" stroke="midnightblue" points="315.37,-139.5 325.37,-136 315.37,-132.5 315.37,-139.5"/>
</g>
<!-- Node13 -->
<g id="node13" class="node">
<title>Node13</title>
<g id="a_node13"><a xlink:href="classCGameSettingsMenu.html#a7c8e78c05c4444cfeaa73826d683f502" target="_top" xlink:title="Decides for user, which map he is going to play.">
<polygon fill="white" stroke="black" points="136,-77 136,-107 261,-107 261,-77 136,-77"/>
<text text-anchor="start" x="144" y="-95" font-family="Helvetica,sans-Serif" font-size="10.00">CGameSettingsMenu::</text>
<text text-anchor="middle" x="198.5" y="-84" font-family="Helvetica,sans-Serif" font-size="10.00">ChooseRandomMap</text>
</a>
</g>
</g>
<!-- Node12&#45;&gt;Node13 -->
<g id="edge12" class="edge">
<title>Node12&#45;&gt;Node13</title>
<path fill="none" stroke="midnightblue" d="M313.72,-92C296.33,-92 277.88,-92 261.01,-92"/>
<polygon fill="midnightblue" stroke="midnightblue" points="313.82,-95.5 323.82,-92 313.82,-88.5 313.82,-95.5"/>
</g>
<!-- Node15 -->
<g id="node15" class="node">
<title>Node15</title>
<g id="a_node15"><a xlink:href="classCMainMenu.html#ab969842c59bbaff6fbececc6b0c9b69a" target="_top" xlink:title="Render main menu (start of game)">
<polygon fill="white" stroke="black" points="133,-19.5 133,-38.5 264,-38.5 264,-19.5 133,-19.5"/>
<text text-anchor="middle" x="198.5" y="-26.5" font-family="Helvetica,sans-Serif" font-size="10.00">CMainMenu::MainMenu</text>
</a>
</g>
</g>
<!-- Node14&#45;&gt;Node15 -->
<g id="edge14" class="edge">
<title>Node14&#45;&gt;Node15</title>
<path fill="none" stroke="midnightblue" d="M289.69,-38.21C281.04,-37.33 272.41,-36.45 264.12,-35.6"/>
<polygon fill="midnightblue" stroke="midnightblue" points="289.55,-41.72 299.85,-39.25 290.26,-34.75 289.55,-41.72"/>
</g>
<!-- Node16&#45;&gt;Node4 -->
<g id="edge16" class="edge">
<title>Node16&#45;&gt;Node4</title>
<path fill="none" stroke="midnightblue" d="M317.83,-186.6C311.66,-188.7 305.62,-191.15 300,-194 260.67,-213.92 223.8,-252.34 207.83,-270.3"/>
<polygon fill="midnightblue" stroke="midnightblue" points="319.08,-189.87 327.59,-183.56 317.01,-183.19 319.08,-189.87"/>
</g>
<!-- Node17&#45;&gt;Node15 -->
<g id="edge18" class="edge">
<title>Node17&#45;&gt;Node15</title>
<path fill="none" stroke="midnightblue" d="M299.81,-18.75C287.79,-19.98 275.6,-21.23 264.06,-22.4"/>
<polygon fill="midnightblue" stroke="midnightblue" points="300.25,-22.23 309.85,-17.73 299.54,-15.26 300.25,-22.23"/>
</g>
</g>
</svg>
