<?xml version="1.0" encoding="UTF-8" standalone="no"?>
<!DOCTYPE svg PUBLIC "-//W3C//DTD SVG 1.1//EN"
 "http://www.w3.org/Graphics/SVG/1.1/DTD/svg11.dtd">
<!-- Generated by graphviz version 2.43.0 (0)
 -->
<!-- Title: CMainMenu::MainMenu Pages: 1 -->
<svg width="542pt" height="514pt"
 viewBox="0.00 0.00 542.00 513.50" xmlns="http://www.w3.org/2000/svg" xmlns:xlink="http://www.w3.org/1999/xlink">
<g id="graph0" class="graph" transform="scale(1 1) rotate(0) translate(4 509.5)">
<title>CMainMenu::MainMenu</title>
<polygon fill="white" stroke="transparent" points="-4,4 -4,-509.5 538,-509.5 538,4 -4,4"/>
<!-- Node1 -->
<g id="node1" class="node">
<title>Node1</title>
<g id="a_node1"><a xlink:title="Render main menu (start of game)">
<polygon fill="#bfbfbf" stroke="black" points="0,-245.5 0,-264.5 131,-264.5 131,-245.5 0,-245.5"/>
<text text-anchor="middle" x="65.5" y="-252.5" font-family="Helvetica,sans-Serif" font-size="10.00">CMainMenu::MainMenu</text>
</a>
</g>
</g>
<!-- Node2 -->
<g id="node2" class="node">
<title>Node2</title>
<g id="a_node2"><a xlink:href="classCGameSettingsMenu.html#a3c6c93902343b3c60ab9d88002805f5b" target="_top" xlink:title=" ">
<polygon fill="white" stroke="black" points="195,-475 195,-505 320,-505 320,-475 195,-475"/>
<text text-anchor="start" x="203" y="-493" font-family="Helvetica,sans-Serif" font-size="10.00">CGameSettingsMenu::</text>
<text text-anchor="middle" x="257.5" y="-482" font-family="Helvetica,sans-Serif" font-size="10.00">GetGamemode</text>
</a>
</g>
</g>
<!-- Node1&#45;&gt;Node2 -->
<g id="edge1" class="edge">
<title>Node1&#45;&gt;Node2</title>
<path fill="none" stroke="midnightblue" d="M68.16,-264.74C74.4,-298.27 99.64,-409.93 167,-466 172.4,-470.49 178.56,-474.15 185.07,-477.13"/>
<polygon fill="midnightblue" stroke="midnightblue" points="184.22,-480.56 194.8,-481.03 186.82,-474.06 184.22,-480.56"/>
</g>
<!-- Node3 -->
<g id="node3" class="node">
<title>Node3</title>
<g id="a_node3"><a xlink:href="classCGameSettingsMenu.html#afeaf8060e3ee727e257b62b00baf5495" target="_top" xlink:title=" ">
<polygon fill="white" stroke="black" points="195,-426 195,-456 320,-456 320,-426 195,-426"/>
<text text-anchor="start" x="203" y="-444" font-family="Helvetica,sans-Serif" font-size="10.00">CGameSettingsMenu::</text>
<text text-anchor="middle" x="257.5" y="-433" font-family="Helvetica,sans-Serif" font-size="10.00">GetMainNickname</text>
</a>
</g>
</g>
<!-- Node1&#45;&gt;Node3 -->
<g id="edge2" class="edge">
<title>Node1&#45;&gt;Node3</title>
<path fill="none" stroke="midnightblue" d="M69.66,-264.8C79.32,-293.1 111.2,-375.56 167,-417 172.55,-421.12 178.77,-424.54 185.26,-427.37"/>
<polygon fill="midnightblue" stroke="midnightblue" points="184.34,-430.77 194.93,-431.11 186.87,-424.24 184.34,-430.77"/>
</g>
<!-- Node4 -->
<g id="node4" class="node">
<title>Node4</title>
<g id="a_node4"><a xlink:href="classCGameSettingsMenu.html#ac9188327784fac65506de1ad7198604e" target="_top" xlink:title="Called from MapContainer to retrieve pure, not changed data. At this point, we will never have modifi...">
<polygon fill="white" stroke="black" points="195,-377 195,-407 320,-407 320,-377 195,-377"/>
<text text-anchor="start" x="203" y="-395" font-family="Helvetica,sans-Serif" font-size="10.00">CGameSettingsMenu::</text>
<text text-anchor="middle" x="257.5" y="-384" font-family="Helvetica,sans-Serif" font-size="10.00">GetMapData</text>
</a>
</g>
</g>
<!-- Node1&#45;&gt;Node4 -->
<g id="edge3" class="edge">
<title>Node1&#45;&gt;Node4</title>
<path fill="none" stroke="midnightblue" d="M72.2,-264.57C85.75,-286.43 122.09,-340.29 167,-368 172.7,-371.52 178.92,-374.53 185.33,-377.1"/>
<polygon fill="midnightblue" stroke="midnightblue" points="184.24,-380.43 194.83,-380.57 186.63,-373.85 184.24,-380.43"/>
</g>
<!-- Node5 -->
<g id="node5" class="node">
<title>Node5</title>
<g id="a_node5"><a xlink:href="classCGameSettingsMenu.html#aade4b5ea2c7aa4a650869b0838628b8e" target="_top" xlink:title=" ">
<polygon fill="white" stroke="black" points="190.5,-328 190.5,-358 324.5,-358 324.5,-328 190.5,-328"/>
<text text-anchor="start" x="198.5" y="-346" font-family="Helvetica,sans-Serif" font-size="10.00">CGameSettingsMenu::</text>
<text text-anchor="middle" x="257.5" y="-335" font-family="Helvetica,sans-Serif" font-size="10.00">GetSecondaryNickname</text>
</a>
</g>
</g>
<!-- Node1&#45;&gt;Node5 -->
<g id="edge4" class="edge">
<title>Node1&#45;&gt;Node5</title>
<path fill="none" stroke="midnightblue" d="M80.99,-264.61C100.1,-276.98 135.04,-298.6 167,-313 176.19,-317.14 186.13,-321.02 195.93,-324.53"/>
<polygon fill="midnightblue" stroke="midnightblue" points="195.05,-327.93 205.64,-327.91 197.35,-321.32 195.05,-327.93"/>
</g>
<!-- Node6 -->
<g id="node6" class="node">
<title>Node6</title>
<g id="a_node6"><a xlink:href="classCUserMenu.html#a8cefff436235de63ddfe8f1672b4b5a9" target="_top" xlink:title="Prints menu and check, if user&#39;s input is valid.">
<polygon fill="white" stroke="black" points="389,-316.5 389,-335.5 529,-335.5 529,-316.5 389,-316.5"/>
<text text-anchor="middle" x="459" y="-323.5" font-family="Helvetica,sans-Serif" font-size="10.00">CUserMenu::HandleMenu</text>
</a>
</g>
</g>
<!-- Node1&#45;&gt;Node6 -->
<g id="edge5" class="edge">
<title>Node1&#45;&gt;Node6</title>
<path fill="none" stroke="midnightblue" d="M101.68,-264.55C120.89,-269.56 145.15,-275.56 167,-280 238.31,-294.48 320.24,-307.07 378.95,-315.4"/>
<polygon fill="midnightblue" stroke="midnightblue" points="378.51,-318.87 388.91,-316.81 379.49,-311.94 378.51,-318.87"/>
</g>
<!-- Node7 -->
<g id="node7" class="node">
<title>Node7</title>
<g id="a_node7"><a xlink:href="classCGameSettingsMenu.html#a61f11f2282613c0f5074cd168cdb6a9e" target="_top" xlink:title=" ">
<polygon fill="white" stroke="black" points="195,-240 195,-270 320,-270 320,-240 195,-240"/>
<text text-anchor="start" x="203" y="-258" font-family="Helvetica,sans-Serif" font-size="10.00">CGameSettingsMenu::</text>
<text text-anchor="middle" x="257.5" y="-247" font-family="Helvetica,sans-Serif" font-size="10.00">IsMapReady</text>
</a>
</g>
</g>
<!-- Node1&#45;&gt;Node7 -->
<g id="edge6" class="edge">
<title>Node1&#45;&gt;Node7</title>
<path fill="none" stroke="midnightblue" d="M131.09,-255C148.36,-255 167.12,-255 184.75,-255"/>
<polygon fill="midnightblue" stroke="midnightblue" points="184.98,-258.5 194.98,-255 184.98,-251.5 184.98,-258.5"/>
</g>
<!-- Node8 -->
<g id="node8" class="node">
<title>Node8</title>
<g id="a_node8"><a xlink:href="classCGameSettingsMenu.html#a8e3414794e56564768a17351d119d5cf" target="_top" xlink:title="Create and handle menu for map creation.">
<polygon fill="white" stroke="black" points="195,-191 195,-221 320,-221 320,-191 195,-191"/>
<text text-anchor="start" x="203" y="-209" font-family="Helvetica,sans-Serif" font-size="10.00">CGameSettingsMenu::</text>
<text text-anchor="middle" x="257.5" y="-198" font-family="Helvetica,sans-Serif" font-size="10.00">LoadMapMenu</text>
</a>
</g>
</g>
<!-- Node1&#45;&gt;Node8 -->
<g id="edge7" class="edge">
<title>Node1&#45;&gt;Node8</title>
<path fill="none" stroke="midnightblue" d="M103.58,-245.44C127.64,-239.23 159.71,-230.96 188.26,-223.6"/>
<polygon fill="midnightblue" stroke="midnightblue" points="189.38,-226.92 198.19,-221.04 187.64,-220.15 189.38,-226.92"/>
</g>
<!-- Node10 -->
<g id="node10" class="node">
<title>Node10</title>
<g id="a_node10"><a xlink:href="classCMapContainer.html#ae4bef5dbecc488fdfd0d064c261a9961" target="_top" xlink:title="Decide, where will players, ghosts, enemy etc. spawn based on map structure (clever spawning of ghost...">
<polygon fill="white" stroke="black" points="171,-152.5 171,-171.5 344,-171.5 344,-152.5 171,-152.5"/>
<text text-anchor="middle" x="257.5" y="-159.5" font-family="Helvetica,sans-Serif" font-size="10.00">CMapContainer::LoadObjectives</text>
</a>
</g>
</g>
<!-- Node1&#45;&gt;Node10 -->
<g id="edge10" class="edge">
<title>Node1&#45;&gt;Node10</title>
<path fill="none" stroke="midnightblue" d="M76.73,-245.31C93.95,-229.56 130.44,-198.5 167,-182 173.58,-179.03 180.65,-176.48 187.81,-174.3"/>
<polygon fill="midnightblue" stroke="midnightblue" points="188.92,-177.62 197.61,-171.55 187.03,-170.88 188.92,-177.62"/>
</g>
<!-- Node18 -->
<g id="node18" class="node">
<title>Node18</title>
<g id="a_node18"><a xlink:href="classCMapContainer.html#a9bbc951c0b4d29d26f642673c0d20ac9" target="_top" xlink:title="Method responsible for polymorphic moving of every entity.">
<polygon fill="white" stroke="black" points="177,-114.5 177,-133.5 338,-133.5 338,-114.5 177,-114.5"/>
<text text-anchor="middle" x="257.5" y="-121.5" font-family="Helvetica,sans-Serif" font-size="10.00">CMapContainer::MoveEntities</text>
</a>
</g>
</g>
<!-- Node1&#45;&gt;Node18 -->
<g id="edge18" class="edge">
<title>Node1&#45;&gt;Node18</title>
<path fill="none" stroke="midnightblue" d="M72.13,-245.35C85.51,-223.34 121.54,-169.29 167,-143 170.9,-140.75 175.02,-138.76 179.29,-137.01"/>
<polygon fill="midnightblue" stroke="midnightblue" points="180.61,-140.25 188.8,-133.54 178.2,-133.68 180.61,-140.25"/>
</g>
<!-- Node19 -->
<g id="node19" class="node">
<title>Node19</title>
<g id="a_node19"><a xlink:href="classCBanner.html#a6f8c22622d2b701e980b24a16b671abb" target="_top" xlink:title="Prints ASCII art BOMBERMAN (Font Slant) Credits to: https://patorjk.com/software/taag/#p=display&amp;f=Gr...">
<polygon fill="white" stroke="black" points="167,-76.5 167,-95.5 348,-95.5 348,-76.5 167,-76.5"/>
<text text-anchor="middle" x="257.5" y="-83.5" font-family="Helvetica,sans-Serif" font-size="10.00">CBanner::PrintBannerBomberman</text>
</a>
</g>
</g>
<!-- Node1&#45;&gt;Node19 -->
<g id="edge19" class="edge">
<title>Node1&#45;&gt;Node19</title>
<path fill="none" stroke="midnightblue" d="M69.93,-245.4C80.09,-218.46 112.74,-141.71 167,-105 169.92,-103.03 173,-101.25 176.2,-99.66"/>
<polygon fill="midnightblue" stroke="midnightblue" points="177.7,-102.82 185.48,-95.62 174.91,-96.4 177.7,-102.82"/>
</g>
<!-- Node20 -->
<g id="node20" class="node">
<title>Node20</title>
<g id="a_node20"><a xlink:href="classCMapContainer.html#a06e21c7bfb19bfd0fa3eb738a51de042" target="_top" xlink:title="Clears console and render map with changed data, also is responsible for colisions,...">
<polygon fill="white" stroke="black" points="181,-19.5 181,-38.5 334,-38.5 334,-19.5 181,-19.5"/>
<text text-anchor="middle" x="257.5" y="-26.5" font-family="Helvetica,sans-Serif" font-size="10.00">CMapContainer::RenderMap</text>
</a>
</g>
</g>
<!-- Node1&#45;&gt;Node20 -->
<g id="edge20" class="edge">
<title>Node1&#45;&gt;Node20</title>
<path fill="none" stroke="midnightblue" d="M69.13,-245.37C77.88,-215.02 108.82,-120.2 167,-67 179.06,-55.97 194.79,-47.85 209.7,-42.02"/>
<polygon fill="midnightblue" stroke="midnightblue" points="211.14,-45.22 219.33,-38.5 208.74,-38.64 211.14,-45.22"/>
</g>
<!-- Node8&#45;&gt;Node6 -->
<g id="edge8" class="edge">
<title>Node8&#45;&gt;Node6</title>
<path fill="none" stroke="midnightblue" d="M320.23,-215.7C330.27,-219.3 339.98,-224.24 348,-231 376.58,-255.09 355.17,-283.21 384,-307 386.06,-308.7 388.25,-310.25 390.54,-311.66"/>
<polygon fill="midnightblue" stroke="midnightblue" points="389.32,-314.97 399.81,-316.46 392.54,-308.75 389.32,-314.97"/>
</g>
<!-- Node9 -->
<g id="node9" class="node">
<title>Node9</title>
<g id="a_node9"><a xlink:href="classCBanner.html#a9b95e0affc0ee737f0a88add2afa3743" target="_top" xlink:title="Prints ASCII art GAME SETTINGS (Font Slant) Credits to: https://patorjk.com/software/taag/#p=display&amp;...">
<polygon fill="white" stroke="black" points="384,-267 384,-297 534,-297 534,-267 384,-267"/>
<text text-anchor="start" x="392" y="-285" font-family="Helvetica,sans-Serif" font-size="10.00">CBanner::PrintBannerGame</text>
<text text-anchor="middle" x="459" y="-274" font-family="Helvetica,sans-Serif" font-size="10.00">Settings</text>
</a>
</g>
</g>
<!-- Node8&#45;&gt;Node9 -->
<g id="edge9" class="edge">
<title>Node8&#45;&gt;Node9</title>
<path fill="none" stroke="midnightblue" d="M320.22,-220.14C329.73,-223.19 339.28,-226.8 348,-231 365.78,-239.57 366.45,-247.96 384,-257 388.22,-259.18 392.68,-261.22 397.22,-263.14"/>
<polygon fill="midnightblue" stroke="midnightblue" points="396.03,-266.43 406.62,-266.88 398.62,-259.93 396.03,-266.43"/>
</g>
<!-- Node11 -->
<g id="node11" class="node">
<title>Node11</title>
<g id="a_node11"><a xlink:href="classCEntity.html#adee05fceb3aa05beff9ecb08d80b5d0f" target="_top" xlink:title=" ">
<polygon fill="white" stroke="black" points="396,-228.5 396,-247.5 522,-247.5 522,-228.5 396,-228.5"/>
<text text-anchor="middle" x="459" y="-235.5" font-family="Helvetica,sans-Serif" font-size="10.00">CEntity::CheckPosition</text>
</a>
</g>
</g>
<!-- Node10&#45;&gt;Node11 -->
<g id="edge11" class="edge">
<title>Node10&#45;&gt;Node11</title>
<path fill="none" stroke="midnightblue" d="M322.77,-171.59C331.56,-174.25 340.22,-177.65 348,-182 368.03,-193.19 364.15,-207.5 384,-219 387.85,-221.23 391.96,-223.2 396.19,-224.94"/>
<polygon fill="midnightblue" stroke="midnightblue" points="395.03,-228.24 405.62,-228.41 397.44,-221.67 395.03,-228.24"/>
</g>
<!-- Node12 -->
<g id="node12" class="node">
<title>Node12</title>
<g id="a_node12"><a xlink:href="classCGhost.html#a42949dfc60baabad85803f0434c4d85f" target="_top" xlink:title="Overriding polymorphic method.">
<polygon fill="white" stroke="black" points="407,-190.5 407,-209.5 511,-209.5 511,-190.5 407,-190.5"/>
<text text-anchor="middle" x="459" y="-197.5" font-family="Helvetica,sans-Serif" font-size="10.00">CGhost::CreatePtr</text>
</a>
</g>
</g>
<!-- Node10&#45;&gt;Node12 -->
<g id="edge12" class="edge">
<title>Node10&#45;&gt;Node12</title>
<path fill="none" stroke="midnightblue" d="M308.58,-171.54C335.74,-176.71 369.49,-183.14 398.03,-188.58"/>
<polygon fill="midnightblue" stroke="midnightblue" points="397.42,-192.02 407.89,-190.46 398.73,-185.15 397.42,-192.02"/>
</g>
<!-- Node13 -->
<g id="node13" class="node">
<title>Node13</title>
<g id="a_node13"><a xlink:href="classCPlayer.html#a97c6f10f5584c2f39299b38640443206" target="_top" xlink:title=" ">
<polygon fill="white" stroke="black" points="406,-152.5 406,-171.5 512,-171.5 512,-152.5 406,-152.5"/>
<text text-anchor="middle" x="459" y="-159.5" font-family="Helvetica,sans-Serif" font-size="10.00">CPlayer::CreatePtr</text>
</a>
</g>
</g>
<!-- Node10&#45;&gt;Node13 -->
<g id="edge13" class="edge">
<title>Node10&#45;&gt;Node13</title>
<path fill="none" stroke="midnightblue" d="M344.26,-162C361.42,-162 379.13,-162 395.33,-162"/>
<polygon fill="midnightblue" stroke="midnightblue" points="395.73,-165.5 405.73,-162 395.73,-158.5 395.73,-165.5"/>
</g>
<!-- Node14 -->
<g id="node14" class="node">
<title>Node14</title>
<g id="a_node14"><a xlink:href="classCAIPlayer.html#ad3e2977a1c3b2544420aff9b450836e4" target="_top" xlink:title=" ">
<polygon fill="white" stroke="black" points="401,-114.5 401,-133.5 517,-133.5 517,-114.5 401,-114.5"/>
<text text-anchor="middle" x="459" y="-121.5" font-family="Helvetica,sans-Serif" font-size="10.00">CAIPlayer::CreatePtr</text>
</a>
</g>
</g>
<!-- Node10&#45;&gt;Node14 -->
<g id="edge14" class="edge">
<title>Node10&#45;&gt;Node14</title>
<path fill="none" stroke="midnightblue" d="M308.58,-152.46C335.74,-147.29 369.49,-140.86 398.03,-135.42"/>
<polygon fill="midnightblue" stroke="midnightblue" points="398.73,-138.85 407.89,-133.54 397.42,-131.98 398.73,-138.85"/>
</g>
<!-- Node15 -->
<g id="node15" class="node">
<title>Node15</title>
<g id="a_node15"><a xlink:href="classCBlock.html#add32b563a6e910091af5a7a6710c92ca" target="_top" xlink:title="Converts type of block to printable symbol.">
<polygon fill="white" stroke="black" points="397.5,-0.5 397.5,-19.5 520.5,-19.5 520.5,-0.5 397.5,-0.5"/>
<text text-anchor="middle" x="459" y="-7.5" font-family="Helvetica,sans-Serif" font-size="10.00">CBlock::GetBlockChar</text>
</a>
</g>
</g>
<!-- Node10&#45;&gt;Node15 -->
<g id="edge15" class="edge">
<title>Node10&#45;&gt;Node15</title>
<path fill="none" stroke="midnightblue" d="M334.23,-152.32C339.22,-149.81 343.88,-146.74 348,-143 387.34,-107.29 345.42,-65.53 384,-29 385.52,-27.56 387.13,-26.23 388.81,-25"/>
<polygon fill="midnightblue" stroke="midnightblue" points="391.03,-27.75 397.8,-19.6 387.43,-21.75 391.03,-27.75"/>
</g>
<!-- Node16 -->
<g id="node16" class="node">
<title>Node16</title>
<g id="a_node16"><a xlink:href="classCPosition.html#ac55e91406e3b04e1fa9960d9d935dff7" target="_top" xlink:title=" ">
<polygon fill="white" stroke="black" points="393.5,-76.5 393.5,-95.5 524.5,-95.5 524.5,-76.5 393.5,-76.5"/>
<text text-anchor="middle" x="459" y="-83.5" font-family="Helvetica,sans-Serif" font-size="10.00">CPosition::GetXPosition</text>
</a>
</g>
</g>
<!-- Node10&#45;&gt;Node16 -->
<g id="edge16" class="edge">
<title>Node10&#45;&gt;Node16</title>
<path fill="none" stroke="midnightblue" d="M325.63,-152.43C333.44,-149.97 341.07,-146.88 348,-143 368.29,-131.63 363.95,-116.8 384,-105 387.83,-102.74 391.93,-100.75 396.16,-99"/>
<polygon fill="midnightblue" stroke="midnightblue" points="397.41,-102.27 405.57,-95.51 394.98,-95.7 397.41,-102.27"/>
</g>
<!-- Node17 -->
<g id="node17" class="node">
<title>Node17</title>
<g id="a_node17"><a xlink:href="classCPosition.html#a49b0dc00e42f2f2f4d76ff0d46ff7c4e" target="_top" xlink:title=" ">
<polygon fill="white" stroke="black" points="393.5,-38.5 393.5,-57.5 524.5,-57.5 524.5,-38.5 393.5,-38.5"/>
<text text-anchor="middle" x="459" y="-45.5" font-family="Helvetica,sans-Serif" font-size="10.00">CPosition::GetYPosition</text>
</a>
</g>
</g>
<!-- Node10&#45;&gt;Node17 -->
<g id="edge17" class="edge">
<title>Node10&#45;&gt;Node17</title>
<path fill="none" stroke="midnightblue" d="M331.92,-152.47C337.68,-149.95 343.14,-146.84 348,-143 377.32,-119.83 355.17,-90.79 384,-67 386.06,-65.3 388.25,-63.75 390.54,-62.34"/>
<polygon fill="midnightblue" stroke="midnightblue" points="392.54,-65.25 399.81,-57.54 389.32,-59.03 392.54,-65.25"/>
</g>
<!-- Node20&#45;&gt;Node15 -->
<g id="edge21" class="edge">
<title>Node20&#45;&gt;Node15</title>
<path fill="none" stroke="midnightblue" d="M334.21,-21.79C351.62,-20.13 370.08,-18.37 387.27,-16.74"/>
<polygon fill="midnightblue" stroke="midnightblue" points="387.61,-20.22 397.23,-15.79 386.95,-13.25 387.61,-20.22"/>
</g>
</g>
</svg>
