<?xml version="1.0" encoding="UTF-8" standalone="no"?>
<!DOCTYPE svg PUBLIC "-//W3C//DTD SVG 1.1//EN"
 "http://www.w3.org/Graphics/SVG/1.1/DTD/svg11.dtd">
<!-- Generated by graphviz version 2.43.0 (0)
 -->
<!-- Title: CPlayer::HandleMove Pages: 1 -->
<svg width="315pt" height="317pt"
 viewBox="0.00 0.00 315.00 317.00" xmlns="http://www.w3.org/2000/svg" xmlns:xlink="http://www.w3.org/1999/xlink">
<g id="graph0" class="graph" transform="scale(1 1) rotate(0) translate(4 313)">
<title>CPlayer::HandleMove</title>
<polygon fill="white" stroke="transparent" points="-4,4 -4,-313 311,-313 311,4 -4,4"/>
<!-- Node1 -->
<g id="node1" class="node">
<title>Node1</title>
<g id="a_node1"><a xlink:title="Function reading user input based on which user wanted to move. Creating controls vector based on pla...">
<polygon fill="#bfbfbf" stroke="black" points="0,-133.5 0,-152.5 122,-152.5 122,-133.5 0,-133.5"/>
<text text-anchor="middle" x="61" y="-140.5" font-family="Helvetica,sans-Serif" font-size="10.00">CPlayer::HandleMove</text>
</a>
</g>
</g>
<!-- Node2 -->
<g id="node2" class="node">
<title>Node2</title>
<g id="a_node2"><a xlink:href="classCPosition.html#a098615f7aefcc0405d4c346c70a6b940" target="_top" xlink:title=" ">
<polygon fill="white" stroke="black" points="160.5,-289.5 160.5,-308.5 304.5,-308.5 304.5,-289.5 160.5,-289.5"/>
<text text-anchor="middle" x="232.5" y="-296.5" font-family="Helvetica,sans-Serif" font-size="10.00">CPosition::ChangePosition</text>
</a>
</g>
</g>
<!-- Node1&#45;&gt;Node2 -->
<g id="edge1" class="edge">
<title>Node1&#45;&gt;Node2</title>
<path fill="none" stroke="midnightblue" d="M65.93,-152.74C76.63,-177.97 108.83,-245.91 158,-280 160.9,-282.01 164.01,-283.81 167.23,-285.42"/>
<polygon fill="midnightblue" stroke="midnightblue" points="166.03,-288.72 176.6,-289.47 168.81,-282.29 166.03,-288.72"/>
</g>
<!-- Node3 -->
<g id="node3" class="node">
<title>Node3</title>
<g id="a_node3"><a xlink:href="classCPlayerStats.html#a1796be8dcae036167ed6a43f47907283" target="_top" xlink:title=" ">
<polygon fill="white" stroke="black" points="159.5,-240 159.5,-270 305.5,-270 305.5,-240 159.5,-240"/>
<text text-anchor="start" x="167.5" y="-258" font-family="Helvetica,sans-Serif" font-size="10.00">CPlayerStats::CheckBigger</text>
<text text-anchor="middle" x="232.5" y="-247" font-family="Helvetica,sans-Serif" font-size="10.00">BlowBonus</text>
</a>
</g>
</g>
<!-- Node1&#45;&gt;Node3 -->
<g id="edge2" class="edge">
<title>Node1&#45;&gt;Node3</title>
<path fill="none" stroke="midnightblue" d="M69.97,-152.64C85.26,-170.55 120.52,-209.1 158,-231 160.99,-232.75 164.12,-234.38 167.34,-235.92"/>
<polygon fill="midnightblue" stroke="midnightblue" points="166.01,-239.16 176.57,-239.97 168.82,-232.75 166.01,-239.16"/>
</g>
<!-- Node4 -->
<g id="node4" class="node">
<title>Node4</title>
<g id="a_node4"><a xlink:href="classCPlayerStats.html#abf06e6632bb1fc9ea9e061ab1d08c588" target="_top" xlink:title=" ">
<polygon fill="white" stroke="black" points="158,-191 158,-221 307,-221 307,-191 158,-191"/>
<text text-anchor="start" x="166" y="-209" font-family="Helvetica,sans-Serif" font-size="10.00">CPlayerStats::CheckBombs</text>
<text text-anchor="middle" x="232.5" y="-198" font-family="Helvetica,sans-Serif" font-size="10.00">Available</text>
</a>
</g>
</g>
<!-- Node1&#45;&gt;Node4 -->
<g id="edge3" class="edge">
<title>Node1&#45;&gt;Node4</title>
<path fill="none" stroke="midnightblue" d="M85.16,-152.54C104.52,-160.42 132.93,-171.78 158,-181 163.89,-183.17 170.08,-185.37 176.25,-187.53"/>
<polygon fill="midnightblue" stroke="midnightblue" points="175.3,-190.91 185.9,-190.88 177.59,-184.3 175.3,-190.91"/>
</g>
<!-- Node5 -->
<g id="node5" class="node">
<title>Node5</title>
<g id="a_node5"><a xlink:href="classCBomb.html#a6b5a166b777dffa8f504f19d01a887c9" target="_top" xlink:title="Creating unique pointer on bomb, so I can keep pointers in vector in MapContainer.">
<polygon fill="white" stroke="black" points="180.5,-152.5 180.5,-171.5 284.5,-171.5 284.5,-152.5 180.5,-152.5"/>
<text text-anchor="middle" x="232.5" y="-159.5" font-family="Helvetica,sans-Serif" font-size="10.00">CBomb::CreatePtr</text>
</a>
</g>
</g>
<!-- Node1&#45;&gt;Node5 -->
<g id="edge4" class="edge">
<title>Node1&#45;&gt;Node5</title>
<path fill="none" stroke="midnightblue" d="M122.24,-149.75C137.85,-151.5 154.67,-153.39 170.33,-155.14"/>
<polygon fill="midnightblue" stroke="midnightblue" points="170.1,-158.64 180.43,-156.28 170.88,-151.68 170.1,-158.64"/>
</g>
<!-- Node6 -->
<g id="node6" class="node">
<title>Node6</title>
<g id="a_node6"><a xlink:href="classCBlock.html#add32b563a6e910091af5a7a6710c92ca" target="_top" xlink:title="Converts type of block to printable symbol.">
<polygon fill="white" stroke="black" points="171,-114.5 171,-133.5 294,-133.5 294,-114.5 171,-114.5"/>
<text text-anchor="middle" x="232.5" y="-121.5" font-family="Helvetica,sans-Serif" font-size="10.00">CBlock::GetBlockChar</text>
</a>
</g>
</g>
<!-- Node1&#45;&gt;Node6 -->
<g id="edge5" class="edge">
<title>Node1&#45;&gt;Node6</title>
<path fill="none" stroke="midnightblue" d="M122.24,-136.25C134.7,-134.85 147.94,-133.37 160.74,-131.93"/>
<polygon fill="midnightblue" stroke="midnightblue" points="161.34,-135.39 170.89,-130.79 160.56,-128.43 161.34,-135.39"/>
</g>
<!-- Node7 -->
<g id="node7" class="node">
<title>Node7</title>
<g id="a_node7"><a xlink:href="classCPosition.html#ac55e91406e3b04e1fa9960d9d935dff7" target="_top" xlink:title=" ">
<polygon fill="white" stroke="black" points="167,-76.5 167,-95.5 298,-95.5 298,-76.5 167,-76.5"/>
<text text-anchor="middle" x="232.5" y="-83.5" font-family="Helvetica,sans-Serif" font-size="10.00">CPosition::GetXPosition</text>
</a>
</g>
</g>
<!-- Node1&#45;&gt;Node7 -->
<g id="edge6" class="edge">
<title>Node1&#45;&gt;Node7</title>
<path fill="none" stroke="midnightblue" d="M83.83,-133.46C103.11,-125.25 132.09,-113.44 158,-105 165.4,-102.59 173.3,-100.28 181.07,-98.15"/>
<polygon fill="midnightblue" stroke="midnightblue" points="182.04,-101.52 190.8,-95.56 180.24,-94.75 182.04,-101.52"/>
</g>
<!-- Node8 -->
<g id="node8" class="node">
<title>Node8</title>
<g id="a_node8"><a xlink:href="classCPosition.html#a49b0dc00e42f2f2f4d76ff0d46ff7c4e" target="_top" xlink:title=" ">
<polygon fill="white" stroke="black" points="167,-38.5 167,-57.5 298,-57.5 298,-38.5 167,-38.5"/>
<text text-anchor="middle" x="232.5" y="-45.5" font-family="Helvetica,sans-Serif" font-size="10.00">CPosition::GetYPosition</text>
</a>
</g>
</g>
<!-- Node1&#45;&gt;Node8 -->
<g id="edge7" class="edge">
<title>Node1&#45;&gt;Node8</title>
<path fill="none" stroke="midnightblue" d="M71.41,-133.27C87.59,-117.09 122.4,-84.69 158,-67 162.67,-64.68 167.66,-62.62 172.75,-60.8"/>
<polygon fill="midnightblue" stroke="midnightblue" points="174.2,-64.01 182.62,-57.58 172.03,-57.35 174.2,-64.01"/>
</g>
<!-- Node9 -->
<g id="node9" class="node">
<title>Node9</title>
<g id="a_node9"><a xlink:href="classCPlayerStats.html#a69d3e8e42c4ad3a0a4ebc676c2202293" target="_top" xlink:title="Returns AvailableBombs–, subtracts one bomb when user placed bomb.">
<polygon fill="white" stroke="black" points="167,-0.5 167,-19.5 298,-19.5 298,-0.5 167,-0.5"/>
<text text-anchor="middle" x="232.5" y="-7.5" font-family="Helvetica,sans-Serif" font-size="10.00">CPlayerStats::SubBomb</text>
</a>
</g>
</g>
<!-- Node1&#45;&gt;Node9 -->
<g id="edge8" class="edge">
<title>Node1&#45;&gt;Node9</title>
<path fill="none" stroke="midnightblue" d="M67.3,-133.31C79.91,-111.18 113.99,-56.71 158,-29 161.35,-26.89 164.94,-25.01 168.64,-23.34"/>
<polygon fill="midnightblue" stroke="midnightblue" points="170.06,-26.54 178.06,-19.6 167.48,-20.04 170.06,-26.54"/>
</g>
</g>
</svg>
