<?xml version="1.0" encoding="UTF-8" standalone="no"?>
<!DOCTYPE svg PUBLIC "-//W3C//DTD SVG 1.1//EN"
 "http://www.w3.org/Graphics/SVG/1.1/DTD/svg11.dtd">
<!-- Generated by graphviz version 2.43.0 (0)
 -->
<!-- Title: CBomb::CreatePtr Pages: 1 -->
<svg width="549pt" height="66pt"
 viewBox="0.00 0.00 549.00 66.00" xmlns="http://www.w3.org/2000/svg" xmlns:xlink="http://www.w3.org/1999/xlink">
<g id="graph0" class="graph" transform="scale(1 1) rotate(0) translate(4 62)">
<title>CBomb::CreatePtr</title>
<polygon fill="white" stroke="transparent" points="-4,4 -4,-62 545,-62 545,4 -4,4"/>
<!-- Node1 -->
<g id="node1" class="node">
<title>Node1</title>
<g id="a_node1"><a xlink:title="Creating unique pointer on bomb, so I can keep pointers in vector in MapContainer.">
<polygon fill="#bfbfbf" stroke="black" points="437,-19.5 437,-38.5 541,-38.5 541,-19.5 437,-19.5"/>
<text text-anchor="middle" x="489" y="-26.5" font-family="Helvetica,sans-Serif" font-size="10.00">CBomb::CreatePtr</text>
</a>
</g>
</g>
<!-- Node2 -->
<g id="node2" class="node">
<title>Node2</title>
<g id="a_node2"><a xlink:href="classCPlayer.html#a880c76f8fc694de5bcdec60837a0837a" target="_top" xlink:title="Function reading user input based on which user wanted to move. Creating controls vector based on pla...">
<polygon fill="white" stroke="black" points="278.5,-38.5 278.5,-57.5 400.5,-57.5 400.5,-38.5 278.5,-38.5"/>
<text text-anchor="middle" x="339.5" y="-45.5" font-family="Helvetica,sans-Serif" font-size="10.00">CPlayer::HandleMove</text>
</a>
</g>
</g>
<!-- Node1&#45;&gt;Node2 -->
<g id="edge1" class="edge">
<title>Node1&#45;&gt;Node2</title>
<path fill="none" stroke="midnightblue" d="M426.83,-36.88C418.2,-37.99 409.33,-39.13 400.71,-40.24"/>
<polygon fill="midnightblue" stroke="midnightblue" points="427.35,-40.34 436.83,-35.59 426.46,-33.4 427.35,-40.34"/>
</g>
<!-- Node4 -->
<g id="node4" class="node">
<title>Node4</title>
<g id="a_node4"><a xlink:href="classCAIPlayer.html#a203076816ebe38623465b412408274ec" target="_top" xlink:title="Handle if planting bomb is possible and if so creates new bomb object, plants bomb.">
<polygon fill="white" stroke="black" points="278,-0.5 278,-19.5 401,-19.5 401,-0.5 278,-0.5"/>
<text text-anchor="middle" x="339.5" y="-7.5" font-family="Helvetica,sans-Serif" font-size="10.00">CAIPlayer::PlantBomb</text>
</a>
</g>
</g>
<!-- Node1&#45;&gt;Node4 -->
<g id="edge3" class="edge">
<title>Node1&#45;&gt;Node4</title>
<path fill="none" stroke="midnightblue" d="M426.7,-21.1C418.28,-20.02 409.63,-18.91 401.22,-17.82"/>
<polygon fill="midnightblue" stroke="midnightblue" points="426.46,-24.6 436.83,-22.41 427.35,-17.66 426.46,-24.6"/>
</g>
<!-- Node3 -->
<g id="node3" class="node">
<title>Node3</title>
<g id="a_node3"><a xlink:href="classCPlayer.html#ac67ecebfb4b30f41a7f37dbc6eb7b874" target="_top" xlink:title="When user changes position, this method manage it + is responsible for checking if the move is possib...">
<polygon fill="white" stroke="black" points="144,-38.5 144,-57.5 231,-57.5 231,-38.5 144,-38.5"/>
<text text-anchor="middle" x="187.5" y="-45.5" font-family="Helvetica,sans-Serif" font-size="10.00">CPlayer::Move</text>
</a>
</g>
</g>
<!-- Node2&#45;&gt;Node3 -->
<g id="edge2" class="edge">
<title>Node2&#45;&gt;Node3</title>
<path fill="none" stroke="midnightblue" d="M268.25,-48C255.57,-48 242.71,-48 231.13,-48"/>
<polygon fill="midnightblue" stroke="midnightblue" points="268.35,-51.5 278.35,-48 268.35,-44.5 268.35,-51.5"/>
</g>
<!-- Node5 -->
<g id="node5" class="node">
<title>Node5</title>
<g id="a_node5"><a xlink:href="classCAIPlayer.html#a5e6f39de3b63341b62054fd78212cee6" target="_top" xlink:title="Calculate BFS and move the best direction possible. It is working in different direction (finding pat...">
<polygon fill="white" stroke="black" points="133,-0.5 133,-19.5 242,-19.5 242,-0.5 133,-0.5"/>
<text text-anchor="middle" x="187.5" y="-7.5" font-family="Helvetica,sans-Serif" font-size="10.00">CAIPlayer::BFSPath</text>
</a>
</g>
</g>
<!-- Node4&#45;&gt;Node5 -->
<g id="edge4" class="edge">
<title>Node4&#45;&gt;Node5</title>
<path fill="none" stroke="midnightblue" d="M267.81,-10C259.15,-10 250.41,-10 242.06,-10"/>
<polygon fill="midnightblue" stroke="midnightblue" points="267.92,-13.5 277.92,-10 267.92,-6.5 267.92,-13.5"/>
</g>
<!-- Node6 -->
<g id="node6" class="node">
<title>Node6</title>
<g id="a_node6"><a xlink:href="classCAIPlayer.html#a4a3b7d4cc43e3b3ded213ae191dfc70b" target="_top" xlink:title="When AI changes position, this method manage it + is responsible for checking if the move is possible...">
<polygon fill="white" stroke="black" points="0,-0.5 0,-19.5 97,-19.5 97,-0.5 0,-0.5"/>
<text text-anchor="middle" x="48.5" y="-7.5" font-family="Helvetica,sans-Serif" font-size="10.00">CAIPlayer::Move</text>
</a>
</g>
</g>
<!-- Node5&#45;&gt;Node6 -->
<g id="edge5" class="edge">
<title>Node5&#45;&gt;Node6</title>
<path fill="none" stroke="midnightblue" d="M122.49,-10C114.02,-10 105.45,-10 97.31,-10"/>
<polygon fill="midnightblue" stroke="midnightblue" points="122.75,-13.5 132.75,-10 122.75,-6.5 122.75,-13.5"/>
</g>
</g>
</svg>
