<?xml version="1.0" encoding="UTF-8" standalone="no"?>
<!DOCTYPE svg PUBLIC "-//W3C//DTD SVG 1.1//EN"
 "http://www.w3.org/Graphics/SVG/1.1/DTD/svg11.dtd">
<!-- Generated by graphviz version 2.43.0 (0)
 -->
<!-- Title: CGhost Pages: 1 -->
<svg width="97pt" height="152pt"
 viewBox="0.00 0.00 97.00 152.00" xmlns="http://www.w3.org/2000/svg" xmlns:xlink="http://www.w3.org/1999/xlink">
<g id="graph0" class="graph" transform="scale(1 1) rotate(0) translate(4 148)">
<title>CGhost</title>
<polygon fill="white" stroke="transparent" points="-4,4 -4,-148 93,-148 93,4 -4,4"/>
<!-- Node1 -->
<g id="node1" class="node">
<title>Node1</title>
<g id="a_node1"><a xlink:title="Represents ghosts.">
<polygon fill="#bfbfbf" stroke="black" points="5,-0.5 5,-19.5 57,-19.5 57,-0.5 5,-0.5"/>
<text text-anchor="middle" x="31" y="-7.5" font-family="Helvetica,sans-Serif" font-size="10.00">CGhost</text>
</a>
</g>
</g>
<!-- Node2 -->
<g id="node2" class="node">
<title>Node2</title>
<g id="a_node2"><a xlink:href="classCEntity.html" target="_top" xlink:title="Polymorphic class representing players/ghosts.">
<polygon fill="white" stroke="black" points="5,-57.5 5,-76.5 57,-76.5 57,-57.5 5,-57.5"/>
<text text-anchor="middle" x="31" y="-64.5" font-family="Helvetica,sans-Serif" font-size="10.00">CEntity</text>
</a>
</g>
</g>
<!-- Node2&#45;&gt;Node1 -->
<g id="edge1" class="edge">
<title>Node2&#45;&gt;Node1</title>
<path fill="none" stroke="midnightblue" d="M31,-47.12C31,-37.82 31,-27.06 31,-19.71"/>
<polygon fill="midnightblue" stroke="midnightblue" points="27.5,-47.41 31,-57.41 34.5,-47.41 27.5,-47.41"/>
</g>
<!-- Node3 -->
<g id="node3" class="node">
<title>Node3</title>
<g id="a_node3"><a xlink:href="classCPosition.html" target="_top" xlink:title="Class representing positions of every character (players, enemies..)">
<polygon fill="white" stroke="black" points="0,-124.5 0,-143.5 62,-143.5 62,-124.5 0,-124.5"/>
<text text-anchor="middle" x="31" y="-131.5" font-family="Helvetica,sans-Serif" font-size="10.00">CPosition</text>
</a>
</g>
</g>
<!-- Node3&#45;&gt;Node2 -->
<g id="edge2" class="edge">
<title>Node3&#45;&gt;Node2</title>
<path fill="none" stroke="#9a32cd" stroke-dasharray="5,2" d="M31,-114.04C31,-101.67 31,-86.12 31,-76.63"/>
<polygon fill="#9a32cd" stroke="#9a32cd" points="27.5,-114.23 31,-124.23 34.5,-114.23 27.5,-114.23"/>
<text text-anchor="middle" x="60" y="-98" font-family="Helvetica,sans-Serif" font-size="10.00"> m_position</text>
</g>
</g>
</svg>
