<?xml version="1.0" encoding="UTF-8" standalone="no"?>
<!DOCTYPE svg PUBLIC "-//W3C//DTD SVG 1.1//EN"
 "http://www.w3.org/Graphics/SVG/1.1/DTD/svg11.dtd">
<!-- Generated by graphviz version 2.43.0 (0)
 -->
<!-- Title: CAIPlayer::Move Pages: 1 -->
<svg width="623pt" height="317pt"
 viewBox="0.00 0.00 623.00 317.00" xmlns="http://www.w3.org/2000/svg" xmlns:xlink="http://www.w3.org/1999/xlink">
<g id="graph0" class="graph" transform="scale(1 1) rotate(0) translate(4 313)">
<title>CAIPlayer::Move</title>
<polygon fill="white" stroke="transparent" points="-4,4 -4,-313 619,-313 619,4 -4,4"/>
<!-- Node1 -->
<g id="node1" class="node">
<title>Node1</title>
<g id="a_node1"><a xlink:title="When AI changes position, this method manage it + is responsible for checking if the move is possible...">
<polygon fill="#bfbfbf" stroke="black" points="0,-194.5 0,-213.5 97,-213.5 97,-194.5 0,-194.5"/>
<text text-anchor="middle" x="48.5" y="-201.5" font-family="Helvetica,sans-Serif" font-size="10.00">CAIPlayer::Move</text>
</a>
</g>
</g>
<!-- Node2 -->
<g id="node2" class="node">
<title>Node2</title>
<g id="a_node2"><a xlink:href="classCAIPlayer.html#a5e6f39de3b63341b62054fd78212cee6" target="_top" xlink:title="Calculate BFS and move the best direction possible. It is working in different direction (finding pat...">
<polygon fill="white" stroke="black" points="133,-194.5 133,-213.5 242,-213.5 242,-194.5 133,-194.5"/>
<text text-anchor="middle" x="187.5" y="-201.5" font-family="Helvetica,sans-Serif" font-size="10.00">CAIPlayer::BFSPath</text>
</a>
</g>
</g>
<!-- Node1&#45;&gt;Node2 -->
<g id="edge1" class="edge">
<title>Node1&#45;&gt;Node2</title>
<path fill="none" stroke="midnightblue" d="M97.03,-204C105.36,-204 114.15,-204 122.84,-204"/>
<polygon fill="midnightblue" stroke="midnightblue" points="122.95,-207.5 132.95,-204 122.95,-200.5 122.95,-207.5"/>
</g>
<!-- Node3 -->
<g id="node3" class="node">
<title>Node3</title>
<g id="a_node3"><a xlink:href="classCPosition.html#a098615f7aefcc0405d4c346c70a6b940" target="_top" xlink:title=" ">
<polygon fill="white" stroke="black" points="468.5,-289.5 468.5,-308.5 612.5,-308.5 612.5,-289.5 468.5,-289.5"/>
<text text-anchor="middle" x="540.5" y="-296.5" font-family="Helvetica,sans-Serif" font-size="10.00">CPosition::ChangePosition</text>
</a>
</g>
</g>
<!-- Node2&#45;&gt;Node3 -->
<g id="edge2" class="edge">
<title>Node2&#45;&gt;Node3</title>
<path fill="none" stroke="midnightblue" d="M198.85,-213.52C214.62,-227.41 246.19,-252.89 278,-265 335.78,-287 405.37,-295.25 458.23,-298.13"/>
<polygon fill="midnightblue" stroke="midnightblue" points="458.08,-301.63 468.24,-298.63 458.42,-294.64 458.08,-301.63"/>
</g>
<!-- Node4 -->
<g id="node4" class="node">
<title>Node4</title>
<g id="a_node4"><a xlink:href="classCBlock.html#add32b563a6e910091af5a7a6710c92ca" target="_top" xlink:title="Converts type of block to printable symbol.">
<polygon fill="white" stroke="black" points="479,-251.5 479,-270.5 602,-270.5 602,-251.5 479,-251.5"/>
<text text-anchor="middle" x="540.5" y="-258.5" font-family="Helvetica,sans-Serif" font-size="10.00">CBlock::GetBlockChar</text>
</a>
</g>
</g>
<!-- Node2&#45;&gt;Node4 -->
<g id="edge3" class="edge">
<title>Node2&#45;&gt;Node4</title>
<path fill="none" stroke="midnightblue" d="M206.07,-213.52C223.7,-222.57 251.91,-235.7 278,-242 341.39,-257.31 415.73,-261.44 468.91,-262.1"/>
<polygon fill="midnightblue" stroke="midnightblue" points="468.89,-265.6 478.92,-262.19 468.95,-258.6 468.89,-265.6"/>
</g>
<!-- Node5 -->
<g id="node5" class="node">
<title>Node5</title>
<g id="a_node5"><a xlink:href="classCPosition.html#ac55e91406e3b04e1fa9960d9d935dff7" target="_top" xlink:title=" ">
<polygon fill="white" stroke="black" points="475,-213.5 475,-232.5 606,-232.5 606,-213.5 475,-213.5"/>
<text text-anchor="middle" x="540.5" y="-220.5" font-family="Helvetica,sans-Serif" font-size="10.00">CPosition::GetXPosition</text>
</a>
</g>
</g>
<!-- Node2&#45;&gt;Node5 -->
<g id="edge4" class="edge">
<title>Node2&#45;&gt;Node5</title>
<path fill="none" stroke="midnightblue" d="M242.33,-201.36C291.34,-199.59 365.67,-198.46 430,-204 448,-205.55 467.48,-208.51 484.95,-211.64"/>
<polygon fill="midnightblue" stroke="midnightblue" points="484.51,-215.11 494.97,-213.49 485.78,-208.23 484.51,-215.11"/>
</g>
<!-- Node6 -->
<g id="node6" class="node">
<title>Node6</title>
<g id="a_node6"><a xlink:href="classCPosition.html#a49b0dc00e42f2f2f4d76ff0d46ff7c4e" target="_top" xlink:title=" ">
<polygon fill="white" stroke="black" points="475,-175.5 475,-194.5 606,-194.5 606,-175.5 475,-175.5"/>
<text text-anchor="middle" x="540.5" y="-182.5" font-family="Helvetica,sans-Serif" font-size="10.00">CPosition::GetYPosition</text>
</a>
</g>
</g>
<!-- Node2&#45;&gt;Node6 -->
<g id="edge5" class="edge">
<title>Node2&#45;&gt;Node6</title>
<path fill="none" stroke="midnightblue" d="M242.41,-198.03C254.13,-196.89 266.47,-195.8 278,-195 340.89,-190.64 412.42,-188.07 464.76,-186.63"/>
<polygon fill="midnightblue" stroke="midnightblue" points="465.06,-190.12 474.96,-186.35 464.87,-183.12 465.06,-190.12"/>
</g>
<!-- Node7 -->
<g id="node7" class="node">
<title>Node7</title>
<g id="a_node7"><a xlink:href="classCAIPlayer.html#a203076816ebe38623465b412408274ec" target="_top" xlink:title="Handle if planting bomb is possible and if so creates new bomb object, plants bomb.">
<polygon fill="white" stroke="black" points="292.5,-82.5 292.5,-101.5 415.5,-101.5 415.5,-82.5 292.5,-82.5"/>
<text text-anchor="middle" x="354" y="-89.5" font-family="Helvetica,sans-Serif" font-size="10.00">CAIPlayer::PlantBomb</text>
</a>
</g>
</g>
<!-- Node2&#45;&gt;Node7 -->
<g id="edge6" class="edge">
<title>Node2&#45;&gt;Node7</title>
<path fill="none" stroke="midnightblue" d="M199.34,-194.4C215.73,-180.12 248.08,-152.84 278,-133 292.67,-123.27 309.85,-113.76 324.06,-106.34"/>
<polygon fill="midnightblue" stroke="midnightblue" points="326.06,-109.25 333.36,-101.57 322.87,-103.03 326.06,-109.25"/>
</g>
<!-- Node12 -->
<g id="node12" class="node">
<title>Node12</title>
<g id="a_node12"><a xlink:href="classCAIPlayer.html#ace409e60eda0ae6c08f8cd79d3b8bd3e" target="_top" xlink:title="Function is used, when BFS Couldn&#39;t find any possible way between players.">
<polygon fill="white" stroke="black" points="278,-213.5 278,-232.5 430,-232.5 430,-213.5 278,-213.5"/>
<text text-anchor="middle" x="354" y="-220.5" font-family="Helvetica,sans-Serif" font-size="10.00">CAIPlayer::RandomizeMove</text>
</a>
</g>
</g>
<!-- Node2&#45;&gt;Node12 -->
<g id="edge11" class="edge">
<title>Node2&#45;&gt;Node12</title>
<path fill="none" stroke="midnightblue" d="M242.36,-210.22C250.51,-211.16 259.09,-212.15 267.7,-213.15"/>
<polygon fill="midnightblue" stroke="midnightblue" points="267.48,-216.65 277.82,-214.32 268.28,-209.69 267.48,-216.65"/>
</g>
<!-- Node8 -->
<g id="node8" class="node">
<title>Node8</title>
<g id="a_node8"><a xlink:href="classCPlayerStats.html#a1796be8dcae036167ed6a43f47907283" target="_top" xlink:title=" ">
<polygon fill="white" stroke="black" points="467.5,-126 467.5,-156 613.5,-156 613.5,-126 467.5,-126"/>
<text text-anchor="start" x="475.5" y="-144" font-family="Helvetica,sans-Serif" font-size="10.00">CPlayerStats::CheckBigger</text>
<text text-anchor="middle" x="540.5" y="-133" font-family="Helvetica,sans-Serif" font-size="10.00">BlowBonus</text>
</a>
</g>
</g>
<!-- Node7&#45;&gt;Node8 -->
<g id="edge7" class="edge">
<title>Node7&#45;&gt;Node8</title>
<path fill="none" stroke="midnightblue" d="M391.01,-101.56C414.27,-107.74 445.24,-115.96 472.87,-123.3"/>
<polygon fill="midnightblue" stroke="midnightblue" points="472.32,-126.78 482.88,-125.96 474.11,-120.01 472.32,-126.78"/>
</g>
<!-- Node9 -->
<g id="node9" class="node">
<title>Node9</title>
<g id="a_node9"><a xlink:href="classCPlayerStats.html#abf06e6632bb1fc9ea9e061ab1d08c588" target="_top" xlink:title=" ">
<polygon fill="white" stroke="black" points="466,-77 466,-107 615,-107 615,-77 466,-77"/>
<text text-anchor="start" x="474" y="-95" font-family="Helvetica,sans-Serif" font-size="10.00">CPlayerStats::CheckBombs</text>
<text text-anchor="middle" x="540.5" y="-84" font-family="Helvetica,sans-Serif" font-size="10.00">Available</text>
</a>
</g>
</g>
<!-- Node7&#45;&gt;Node9 -->
<g id="edge8" class="edge">
<title>Node7&#45;&gt;Node9</title>
<path fill="none" stroke="midnightblue" d="M415.67,-92C428.47,-92 442.2,-92 455.69,-92"/>
<polygon fill="midnightblue" stroke="midnightblue" points="455.93,-95.5 465.93,-92 455.93,-88.5 455.93,-95.5"/>
</g>
<!-- Node10 -->
<g id="node10" class="node">
<title>Node10</title>
<g id="a_node10"><a xlink:href="classCBomb.html#a6b5a166b777dffa8f504f19d01a887c9" target="_top" xlink:title="Creating unique pointer on bomb, so I can keep pointers in vector in MapContainer.">
<polygon fill="white" stroke="black" points="488.5,-38.5 488.5,-57.5 592.5,-57.5 592.5,-38.5 488.5,-38.5"/>
<text text-anchor="middle" x="540.5" y="-45.5" font-family="Helvetica,sans-Serif" font-size="10.00">CBomb::CreatePtr</text>
</a>
</g>
</g>
<!-- Node7&#45;&gt;Node10 -->
<g id="edge9" class="edge">
<title>Node7&#45;&gt;Node10</title>
<path fill="none" stroke="midnightblue" d="M395.03,-82.45C422.84,-75.82 460.08,-66.94 489.78,-59.86"/>
<polygon fill="midnightblue" stroke="midnightblue" points="490.63,-63.25 499.54,-57.53 489.01,-56.44 490.63,-63.25"/>
</g>
<!-- Node11 -->
<g id="node11" class="node">
<title>Node11</title>
<g id="a_node11"><a xlink:href="classCPlayerStats.html#a69d3e8e42c4ad3a0a4ebc676c2202293" target="_top" xlink:title="Returns AvailableBombs–, subtracts one bomb when user placed bomb.">
<polygon fill="white" stroke="black" points="475,-0.5 475,-19.5 606,-19.5 606,-0.5 475,-0.5"/>
<text text-anchor="middle" x="540.5" y="-7.5" font-family="Helvetica,sans-Serif" font-size="10.00">CPlayerStats::SubBomb</text>
</a>
</g>
</g>
<!-- Node7&#45;&gt;Node11 -->
<g id="edge10" class="edge">
<title>Node7&#45;&gt;Node11</title>
<path fill="none" stroke="midnightblue" d="M369.11,-82.37C389.61,-68.75 429.23,-43.88 466,-29 472.16,-26.51 478.74,-24.26 485.34,-22.26"/>
<polygon fill="midnightblue" stroke="midnightblue" points="486.32,-25.62 494.97,-19.5 484.39,-18.89 486.32,-25.62"/>
</g>
<!-- Node12&#45;&gt;Node3 -->
<g id="edge12" class="edge">
<title>Node12&#45;&gt;Node3</title>
<path fill="none" stroke="midnightblue" d="M371.03,-232.67C392.15,-245.08 430.77,-266.59 466,-280 472.37,-282.43 479.17,-284.65 485.96,-286.65"/>
<polygon fill="midnightblue" stroke="midnightblue" points="485.29,-290.09 495.86,-289.42 487.17,-283.35 485.29,-290.09"/>
</g>
<!-- Node12&#45;&gt;Node4 -->
<g id="edge13" class="edge">
<title>Node12&#45;&gt;Node4</title>
<path fill="none" stroke="midnightblue" d="M401.56,-232.59C426.34,-237.69 457.02,-244.01 483.14,-249.39"/>
<polygon fill="midnightblue" stroke="midnightblue" points="482.78,-252.89 493.28,-251.48 484.19,-246.03 482.78,-252.89"/>
</g>
<!-- Node12&#45;&gt;Node5 -->
<g id="edge14" class="edge">
<title>Node12&#45;&gt;Node5</title>
<path fill="none" stroke="midnightblue" d="M430.04,-223C441.42,-223 453.17,-223 464.55,-223"/>
<polygon fill="midnightblue" stroke="midnightblue" points="464.87,-226.5 474.87,-223 464.87,-219.5 464.87,-226.5"/>
</g>
<!-- Node12&#45;&gt;Node6 -->
<g id="edge15" class="edge">
<title>Node12&#45;&gt;Node6</title>
<path fill="none" stroke="midnightblue" d="M401.56,-213.41C426.34,-208.31 457.02,-201.99 483.14,-196.61"/>
<polygon fill="midnightblue" stroke="midnightblue" points="484.19,-199.97 493.28,-194.52 482.78,-193.11 484.19,-199.97"/>
</g>
</g>
</svg>
