<?xml version="1.0" encoding="UTF-8" standalone="no"?>
<!DOCTYPE svg PUBLIC "-//W3C//DTD SVG 1.1//EN"
 "http://www.w3.org/Graphics/SVG/1.1/DTD/svg11.dtd">
<!-- Generated by graphviz version 2.43.0 (0)
 -->
<!-- Title: CMapContainer::LoadObjectives Pages: 1 -->
<svg width="348pt" height="256pt"
 viewBox="0.00 0.00 348.00 256.00" xmlns="http://www.w3.org/2000/svg" xmlns:xlink="http://www.w3.org/1999/xlink">
<g id="graph0" class="graph" transform="scale(1 1) rotate(0) translate(4 252)">
<title>CMapContainer::LoadObjectives</title>
<polygon fill="white" stroke="transparent" points="-4,4 -4,-252 344,-252 344,4 -4,4"/>
<!-- Node1 -->
<g id="node1" class="node">
<title>Node1</title>
<g id="a_node1"><a xlink:title="Decide, where will players, ghosts, enemy etc. spawn based on map structure (clever spawning of ghost...">
<polygon fill="#bfbfbf" stroke="black" points="0,-114.5 0,-133.5 173,-133.5 173,-114.5 0,-114.5"/>
<text text-anchor="middle" x="86.5" y="-121.5" font-family="Helvetica,sans-Serif" font-size="10.00">CMapContainer::LoadObjectives</text>
</a>
</g>
</g>
<!-- Node2 -->
<g id="node2" class="node">
<title>Node2</title>
<g id="a_node2"><a xlink:href="classCEntity.html#adee05fceb3aa05beff9ecb08d80b5d0f" target="_top" xlink:title=" ">
<polygon fill="white" stroke="black" points="211.5,-228.5 211.5,-247.5 337.5,-247.5 337.5,-228.5 211.5,-228.5"/>
<text text-anchor="middle" x="274.5" y="-235.5" font-family="Helvetica,sans-Serif" font-size="10.00">CEntity::CheckPosition</text>
</a>
</g>
</g>
<!-- Node1&#45;&gt;Node2 -->
<g id="edge1" class="edge">
<title>Node1&#45;&gt;Node2</title>
<path fill="none" stroke="midnightblue" d="M97,-133.54C116.38,-152.5 162.57,-195.12 209,-219 213.31,-221.22 217.93,-223.22 222.63,-225.01"/>
<polygon fill="midnightblue" stroke="midnightblue" points="221.74,-228.41 232.34,-228.4 224.05,-221.8 221.74,-228.41"/>
</g>
<!-- Node3 -->
<g id="node3" class="node">
<title>Node3</title>
<g id="a_node3"><a xlink:href="classCGhost.html#a42949dfc60baabad85803f0434c4d85f" target="_top" xlink:title="Overriding polymorphic method.">
<polygon fill="white" stroke="black" points="222.5,-190.5 222.5,-209.5 326.5,-209.5 326.5,-190.5 222.5,-190.5"/>
<text text-anchor="middle" x="274.5" y="-197.5" font-family="Helvetica,sans-Serif" font-size="10.00">CGhost::CreatePtr</text>
</a>
</g>
</g>
<!-- Node1&#45;&gt;Node3 -->
<g id="edge2" class="edge">
<title>Node1&#45;&gt;Node3</title>
<path fill="none" stroke="midnightblue" d="M105.65,-133.58C129.08,-145.7 171.31,-166.7 209,-181 214.95,-183.26 221.28,-185.41 227.57,-187.41"/>
<polygon fill="midnightblue" stroke="midnightblue" points="226.77,-190.82 237.36,-190.4 228.82,-184.13 226.77,-190.82"/>
</g>
<!-- Node4 -->
<g id="node4" class="node">
<title>Node4</title>
<g id="a_node4"><a xlink:href="classCPlayer.html#a97c6f10f5584c2f39299b38640443206" target="_top" xlink:title=" ">
<polygon fill="white" stroke="black" points="221.5,-152.5 221.5,-171.5 327.5,-171.5 327.5,-152.5 221.5,-152.5"/>
<text text-anchor="middle" x="274.5" y="-159.5" font-family="Helvetica,sans-Serif" font-size="10.00">CPlayer::CreatePtr</text>
</a>
</g>
</g>
<!-- Node1&#45;&gt;Node4 -->
<g id="edge3" class="edge">
<title>Node1&#45;&gt;Node4</title>
<path fill="none" stroke="midnightblue" d="M134.44,-133.59C159.53,-138.72 190.62,-145.07 217.03,-150.46"/>
<polygon fill="midnightblue" stroke="midnightblue" points="216.4,-153.91 226.9,-152.48 217.8,-147.05 216.4,-153.91"/>
</g>
<!-- Node5 -->
<g id="node5" class="node">
<title>Node5</title>
<g id="a_node5"><a xlink:href="classCAIPlayer.html#ad3e2977a1c3b2544420aff9b450836e4" target="_top" xlink:title=" ">
<polygon fill="white" stroke="black" points="216.5,-114.5 216.5,-133.5 332.5,-133.5 332.5,-114.5 216.5,-114.5"/>
<text text-anchor="middle" x="274.5" y="-121.5" font-family="Helvetica,sans-Serif" font-size="10.00">CAIPlayer::CreatePtr</text>
</a>
</g>
</g>
<!-- Node1&#45;&gt;Node5 -->
<g id="edge4" class="edge">
<title>Node1&#45;&gt;Node5</title>
<path fill="none" stroke="midnightblue" d="M173.15,-124C184.28,-124 195.55,-124 206.31,-124"/>
<polygon fill="midnightblue" stroke="midnightblue" points="206.46,-127.5 216.46,-124 206.46,-120.5 206.46,-127.5"/>
</g>
<!-- Node6 -->
<g id="node6" class="node">
<title>Node6</title>
<g id="a_node6"><a xlink:href="classCBlock.html#add32b563a6e910091af5a7a6710c92ca" target="_top" xlink:title="Converts type of block to printable symbol.">
<polygon fill="white" stroke="black" points="213,-76.5 213,-95.5 336,-95.5 336,-76.5 213,-76.5"/>
<text text-anchor="middle" x="274.5" y="-83.5" font-family="Helvetica,sans-Serif" font-size="10.00">CBlock::GetBlockChar</text>
</a>
</g>
</g>
<!-- Node1&#45;&gt;Node6 -->
<g id="edge5" class="edge">
<title>Node1&#45;&gt;Node6</title>
<path fill="none" stroke="midnightblue" d="M134.44,-114.41C159.53,-109.28 190.62,-102.93 217.03,-97.54"/>
<polygon fill="midnightblue" stroke="midnightblue" points="217.8,-100.95 226.9,-95.52 216.4,-94.09 217.8,-100.95"/>
</g>
<!-- Node7 -->
<g id="node7" class="node">
<title>Node7</title>
<g id="a_node7"><a xlink:href="classCPosition.html#ac55e91406e3b04e1fa9960d9d935dff7" target="_top" xlink:title=" ">
<polygon fill="white" stroke="black" points="209,-38.5 209,-57.5 340,-57.5 340,-38.5 209,-38.5"/>
<text text-anchor="middle" x="274.5" y="-45.5" font-family="Helvetica,sans-Serif" font-size="10.00">CPosition::GetXPosition</text>
</a>
</g>
</g>
<!-- Node1&#45;&gt;Node7 -->
<g id="edge6" class="edge">
<title>Node1&#45;&gt;Node7</title>
<path fill="none" stroke="midnightblue" d="M105.65,-114.42C129.08,-102.3 171.31,-81.3 209,-67 214.95,-64.74 221.28,-62.59 227.57,-60.59"/>
<polygon fill="midnightblue" stroke="midnightblue" points="228.82,-63.87 237.36,-57.6 226.77,-57.18 228.82,-63.87"/>
</g>
<!-- Node8 -->
<g id="node8" class="node">
<title>Node8</title>
<g id="a_node8"><a xlink:href="classCPosition.html#a49b0dc00e42f2f2f4d76ff0d46ff7c4e" target="_top" xlink:title=" ">
<polygon fill="white" stroke="black" points="209,-0.5 209,-19.5 340,-19.5 340,-0.5 209,-0.5"/>
<text text-anchor="middle" x="274.5" y="-7.5" font-family="Helvetica,sans-Serif" font-size="10.00">CPosition::GetYPosition</text>
</a>
</g>
</g>
<!-- Node1&#45;&gt;Node8 -->
<g id="edge7" class="edge">
<title>Node1&#45;&gt;Node8</title>
<path fill="none" stroke="midnightblue" d="M97,-114.46C116.38,-95.5 162.57,-52.88 209,-29 213.31,-26.78 217.93,-24.78 222.63,-22.99"/>
<polygon fill="midnightblue" stroke="midnightblue" points="224.05,-26.2 232.34,-19.6 221.74,-19.59 224.05,-26.2"/>
</g>
</g>
</svg>
