<?xml version="1.0" encoding="UTF-8" standalone="no"?>
<!DOCTYPE svg PUBLIC "-//W3C//DTD SVG 1.1//EN"
 "http://www.w3.org/Graphics/SVG/1.1/DTD/svg11.dtd">
<!-- Generated by graphviz version 2.43.0 (0)
 -->
<!-- Title: CAIPlayer::BFSPath Pages: 1 -->
<svg width="490pt" height="317pt"
 viewBox="0.00 0.00 490.00 317.00" xmlns="http://www.w3.org/2000/svg" xmlns:xlink="http://www.w3.org/1999/xlink">
<g id="graph0" class="graph" transform="scale(1 1) rotate(0) translate(4 313)">
<title>CAIPlayer::BFSPath</title>
<polygon fill="white" stroke="transparent" points="-4,4 -4,-313 486,-313 486,4 -4,4"/>
<!-- Node1 -->
<g id="node1" class="node">
<title>Node1</title>
<g id="a_node1"><a xlink:title="Calculate BFS and move the best direction possible. It is working in different direction (finding pat...">
<polygon fill="#bfbfbf" stroke="black" points="0,-194.5 0,-213.5 109,-213.5 109,-194.5 0,-194.5"/>
<text text-anchor="middle" x="54.5" y="-201.5" font-family="Helvetica,sans-Serif" font-size="10.00">CAIPlayer::BFSPath</text>
</a>
</g>
</g>
<!-- Node2 -->
<g id="node2" class="node">
<title>Node2</title>
<g id="a_node2"><a xlink:href="classCPosition.html#a098615f7aefcc0405d4c346c70a6b940" target="_top" xlink:title=" ">
<polygon fill="white" stroke="black" points="335.5,-289.5 335.5,-308.5 479.5,-308.5 479.5,-289.5 335.5,-289.5"/>
<text text-anchor="middle" x="407.5" y="-296.5" font-family="Helvetica,sans-Serif" font-size="10.00">CPosition::ChangePosition</text>
</a>
</g>
</g>
<!-- Node1&#45;&gt;Node2 -->
<g id="edge1" class="edge">
<title>Node1&#45;&gt;Node2</title>
<path fill="none" stroke="midnightblue" d="M65.85,-213.52C81.62,-227.41 113.19,-252.89 145,-265 202.78,-287 272.37,-295.25 325.23,-298.13"/>
<polygon fill="midnightblue" stroke="midnightblue" points="325.08,-301.63 335.24,-298.63 325.42,-294.64 325.08,-301.63"/>
</g>
<!-- Node3 -->
<g id="node3" class="node">
<title>Node3</title>
<g id="a_node3"><a xlink:href="classCBlock.html#add32b563a6e910091af5a7a6710c92ca" target="_top" xlink:title="Converts type of block to printable symbol.">
<polygon fill="white" stroke="black" points="346,-251.5 346,-270.5 469,-270.5 469,-251.5 346,-251.5"/>
<text text-anchor="middle" x="407.5" y="-258.5" font-family="Helvetica,sans-Serif" font-size="10.00">CBlock::GetBlockChar</text>
</a>
</g>
</g>
<!-- Node1&#45;&gt;Node3 -->
<g id="edge2" class="edge">
<title>Node1&#45;&gt;Node3</title>
<path fill="none" stroke="midnightblue" d="M73.07,-213.52C90.7,-222.57 118.91,-235.7 145,-242 208.39,-257.31 282.73,-261.44 335.91,-262.1"/>
<polygon fill="midnightblue" stroke="midnightblue" points="335.89,-265.6 345.92,-262.19 335.95,-258.6 335.89,-265.6"/>
</g>
<!-- Node4 -->
<g id="node4" class="node">
<title>Node4</title>
<g id="a_node4"><a xlink:href="classCPosition.html#ac55e91406e3b04e1fa9960d9d935dff7" target="_top" xlink:title=" ">
<polygon fill="white" stroke="black" points="342,-213.5 342,-232.5 473,-232.5 473,-213.5 342,-213.5"/>
<text text-anchor="middle" x="407.5" y="-220.5" font-family="Helvetica,sans-Serif" font-size="10.00">CPosition::GetXPosition</text>
</a>
</g>
</g>
<!-- Node1&#45;&gt;Node4 -->
<g id="edge3" class="edge">
<title>Node1&#45;&gt;Node4</title>
<path fill="none" stroke="midnightblue" d="M109.33,-201.36C158.34,-199.59 232.67,-198.46 297,-204 315,-205.55 334.48,-208.51 351.95,-211.64"/>
<polygon fill="midnightblue" stroke="midnightblue" points="351.51,-215.11 361.97,-213.49 352.78,-208.23 351.51,-215.11"/>
</g>
<!-- Node5 -->
<g id="node5" class="node">
<title>Node5</title>
<g id="a_node5"><a xlink:href="classCPosition.html#a49b0dc00e42f2f2f4d76ff0d46ff7c4e" target="_top" xlink:title=" ">
<polygon fill="white" stroke="black" points="342,-175.5 342,-194.5 473,-194.5 473,-175.5 342,-175.5"/>
<text text-anchor="middle" x="407.5" y="-182.5" font-family="Helvetica,sans-Serif" font-size="10.00">CPosition::GetYPosition</text>
</a>
</g>
</g>
<!-- Node1&#45;&gt;Node5 -->
<g id="edge4" class="edge">
<title>Node1&#45;&gt;Node5</title>
<path fill="none" stroke="midnightblue" d="M109.41,-198.03C121.13,-196.89 133.47,-195.8 145,-195 207.89,-190.64 279.42,-188.07 331.76,-186.63"/>
<polygon fill="midnightblue" stroke="midnightblue" points="332.06,-190.12 341.96,-186.35 331.87,-183.12 332.06,-190.12"/>
</g>
<!-- Node6 -->
<g id="node6" class="node">
<title>Node6</title>
<g id="a_node6"><a xlink:href="classCAIPlayer.html#a203076816ebe38623465b412408274ec" target="_top" xlink:title="Handle if planting bomb is possible and if so creates new bomb object, plants bomb.">
<polygon fill="white" stroke="black" points="159.5,-82.5 159.5,-101.5 282.5,-101.5 282.5,-82.5 159.5,-82.5"/>
<text text-anchor="middle" x="221" y="-89.5" font-family="Helvetica,sans-Serif" font-size="10.00">CAIPlayer::PlantBomb</text>
</a>
</g>
</g>
<!-- Node1&#45;&gt;Node6 -->
<g id="edge5" class="edge">
<title>Node1&#45;&gt;Node6</title>
<path fill="none" stroke="midnightblue" d="M66.34,-194.4C82.73,-180.12 115.08,-152.84 145,-133 159.67,-123.27 176.85,-113.76 191.06,-106.34"/>
<polygon fill="midnightblue" stroke="midnightblue" points="193.06,-109.25 200.36,-101.57 189.87,-103.03 193.06,-109.25"/>
</g>
<!-- Node11 -->
<g id="node11" class="node">
<title>Node11</title>
<g id="a_node11"><a xlink:href="classCAIPlayer.html#ace409e60eda0ae6c08f8cd79d3b8bd3e" target="_top" xlink:title="Function is used, when BFS Couldn&#39;t find any possible way between players.">
<polygon fill="white" stroke="black" points="145,-213.5 145,-232.5 297,-232.5 297,-213.5 145,-213.5"/>
<text text-anchor="middle" x="221" y="-220.5" font-family="Helvetica,sans-Serif" font-size="10.00">CAIPlayer::RandomizeMove</text>
</a>
</g>
</g>
<!-- Node1&#45;&gt;Node11 -->
<g id="edge10" class="edge">
<title>Node1&#45;&gt;Node11</title>
<path fill="none" stroke="midnightblue" d="M109.36,-210.22C117.51,-211.16 126.09,-212.15 134.7,-213.15"/>
<polygon fill="midnightblue" stroke="midnightblue" points="134.48,-216.65 144.82,-214.32 135.28,-209.69 134.48,-216.65"/>
</g>
<!-- Node7 -->
<g id="node7" class="node">
<title>Node7</title>
<g id="a_node7"><a xlink:href="classCPlayerStats.html#a1796be8dcae036167ed6a43f47907283" target="_top" xlink:title=" ">
<polygon fill="white" stroke="black" points="334.5,-126 334.5,-156 480.5,-156 480.5,-126 334.5,-126"/>
<text text-anchor="start" x="342.5" y="-144" font-family="Helvetica,sans-Serif" font-size="10.00">CPlayerStats::CheckBigger</text>
<text text-anchor="middle" x="407.5" y="-133" font-family="Helvetica,sans-Serif" font-size="10.00">BlowBonus</text>
</a>
</g>
</g>
<!-- Node6&#45;&gt;Node7 -->
<g id="edge6" class="edge">
<title>Node6&#45;&gt;Node7</title>
<path fill="none" stroke="midnightblue" d="M258.01,-101.56C281.27,-107.74 312.24,-115.96 339.87,-123.3"/>
<polygon fill="midnightblue" stroke="midnightblue" points="339.32,-126.78 349.88,-125.96 341.11,-120.01 339.32,-126.78"/>
</g>
<!-- Node8 -->
<g id="node8" class="node">
<title>Node8</title>
<g id="a_node8"><a xlink:href="classCPlayerStats.html#abf06e6632bb1fc9ea9e061ab1d08c588" target="_top" xlink:title=" ">
<polygon fill="white" stroke="black" points="333,-77 333,-107 482,-107 482,-77 333,-77"/>
<text text-anchor="start" x="341" y="-95" font-family="Helvetica,sans-Serif" font-size="10.00">CPlayerStats::CheckBombs</text>
<text text-anchor="middle" x="407.5" y="-84" font-family="Helvetica,sans-Serif" font-size="10.00">Available</text>
</a>
</g>
</g>
<!-- Node6&#45;&gt;Node8 -->
<g id="edge7" class="edge">
<title>Node6&#45;&gt;Node8</title>
<path fill="none" stroke="midnightblue" d="M282.67,-92C295.47,-92 309.2,-92 322.69,-92"/>
<polygon fill="midnightblue" stroke="midnightblue" points="322.93,-95.5 332.93,-92 322.93,-88.5 322.93,-95.5"/>
</g>
<!-- Node9 -->
<g id="node9" class="node">
<title>Node9</title>
<g id="a_node9"><a xlink:href="classCBomb.html#a6b5a166b777dffa8f504f19d01a887c9" target="_top" xlink:title="Creating unique pointer on bomb, so I can keep pointers in vector in MapContainer.">
<polygon fill="white" stroke="black" points="355.5,-38.5 355.5,-57.5 459.5,-57.5 459.5,-38.5 355.5,-38.5"/>
<text text-anchor="middle" x="407.5" y="-45.5" font-family="Helvetica,sans-Serif" font-size="10.00">CBomb::CreatePtr</text>
</a>
</g>
</g>
<!-- Node6&#45;&gt;Node9 -->
<g id="edge8" class="edge">
<title>Node6&#45;&gt;Node9</title>
<path fill="none" stroke="midnightblue" d="M262.03,-82.45C289.84,-75.82 327.08,-66.94 356.78,-59.86"/>
<polygon fill="midnightblue" stroke="midnightblue" points="357.63,-63.25 366.54,-57.53 356.01,-56.44 357.63,-63.25"/>
</g>
<!-- Node10 -->
<g id="node10" class="node">
<title>Node10</title>
<g id="a_node10"><a xlink:href="classCPlayerStats.html#a69d3e8e42c4ad3a0a4ebc676c2202293" target="_top" xlink:title="Returns AvailableBombs–, subtracts one bomb when user placed bomb.">
<polygon fill="white" stroke="black" points="342,-0.5 342,-19.5 473,-19.5 473,-0.5 342,-0.5"/>
<text text-anchor="middle" x="407.5" y="-7.5" font-family="Helvetica,sans-Serif" font-size="10.00">CPlayerStats::SubBomb</text>
</a>
</g>
</g>
<!-- Node6&#45;&gt;Node10 -->
<g id="edge9" class="edge">
<title>Node6&#45;&gt;Node10</title>
<path fill="none" stroke="midnightblue" d="M236.11,-82.37C256.61,-68.75 296.23,-43.88 333,-29 339.16,-26.51 345.74,-24.26 352.34,-22.26"/>
<polygon fill="midnightblue" stroke="midnightblue" points="353.32,-25.62 361.97,-19.5 351.39,-18.89 353.32,-25.62"/>
</g>
<!-- Node11&#45;&gt;Node2 -->
<g id="edge11" class="edge">
<title>Node11&#45;&gt;Node2</title>
<path fill="none" stroke="midnightblue" d="M238.03,-232.67C259.15,-245.08 297.77,-266.59 333,-280 339.37,-282.43 346.17,-284.65 352.96,-286.65"/>
<polygon fill="midnightblue" stroke="midnightblue" points="352.29,-290.09 362.86,-289.42 354.17,-283.35 352.29,-290.09"/>
</g>
<!-- Node11&#45;&gt;Node3 -->
<g id="edge12" class="edge">
<title>Node11&#45;&gt;Node3</title>
<path fill="none" stroke="midnightblue" d="M268.56,-232.59C293.34,-237.69 324.02,-244.01 350.14,-249.39"/>
<polygon fill="midnightblue" stroke="midnightblue" points="349.78,-252.89 360.28,-251.48 351.19,-246.03 349.78,-252.89"/>
</g>
<!-- Node11&#45;&gt;Node4 -->
<g id="edge13" class="edge">
<title>Node11&#45;&gt;Node4</title>
<path fill="none" stroke="midnightblue" d="M297.04,-223C308.42,-223 320.17,-223 331.55,-223"/>
<polygon fill="midnightblue" stroke="midnightblue" points="331.87,-226.5 341.87,-223 331.87,-219.5 331.87,-226.5"/>
</g>
<!-- Node11&#45;&gt;Node5 -->
<g id="edge14" class="edge">
<title>Node11&#45;&gt;Node5</title>
<path fill="none" stroke="midnightblue" d="M268.56,-213.41C293.34,-208.31 324.02,-201.99 350.14,-196.61"/>
<polygon fill="midnightblue" stroke="midnightblue" points="351.19,-199.97 360.28,-194.52 349.78,-193.11 351.19,-199.97"/>
</g>
</g>
</svg>
