<?xml version="1.0" encoding="UTF-8" standalone="no"?>
<!DOCTYPE svg PUBLIC "-//W3C//DTD SVG 1.1//EN"
 "http://www.w3.org/Graphics/SVG/1.1/DTD/svg11.dtd">
<!-- Generated by graphviz version 2.43.0 (0)
 -->
<!-- Title: CMainMenu::HelpMenu Pages: 1 -->
<svg width="317pt" height="66pt"
 viewBox="0.00 0.00 317.00 66.00" xmlns="http://www.w3.org/2000/svg" xmlns:xlink="http://www.w3.org/1999/xlink">
<g id="graph0" class="graph" transform="scale(1 1) rotate(0) translate(4 62)">
<title>CMainMenu::HelpMenu</title>
<polygon fill="white" stroke="transparent" points="-4,4 -4,-62 313,-62 313,4 -4,4"/>
<!-- Node1 -->
<g id="node1" class="node">
<title>Node1</title>
<g id="a_node1"><a xlink:title="Printing help/controls for user.">
<polygon fill="#bfbfbf" stroke="black" points="0,-19.5 0,-38.5 130,-38.5 130,-19.5 0,-19.5"/>
<text text-anchor="middle" x="65" y="-26.5" font-family="Helvetica,sans-Serif" font-size="10.00">CMainMenu::HelpMenu</text>
</a>
</g>
</g>
<!-- Node2 -->
<g id="node2" class="node">
<title>Node2</title>
<g id="a_node2"><a xlink:href="classCUserMenu.html#a8cefff436235de63ddfe8f1672b4b5a9" target="_top" xlink:title="Prints menu and check, if user&#39;s input is valid.">
<polygon fill="white" stroke="black" points="167.5,-38.5 167.5,-57.5 307.5,-57.5 307.5,-38.5 167.5,-38.5"/>
<text text-anchor="middle" x="237.5" y="-45.5" font-family="Helvetica,sans-Serif" font-size="10.00">CUserMenu::HandleMenu</text>
</a>
</g>
</g>
<!-- Node1&#45;&gt;Node2 -->
<g id="edge1" class="edge">
<title>Node1&#45;&gt;Node2</title>
<path fill="none" stroke="midnightblue" d="M130.46,-36.18C139.23,-37.16 148.31,-38.17 157.3,-39.17"/>
<polygon fill="midnightblue" stroke="midnightblue" points="157.07,-42.67 167.4,-40.3 157.85,-35.71 157.07,-42.67"/>
</g>
<!-- Node3 -->
<g id="node3" class="node">
<title>Node3</title>
<g id="a_node3"><a xlink:href="classCBanner.html#a69bbec9b00f5fdd02fcd9019371216c5" target="_top" xlink:title="Prints ASCII art HELP (Font Slant) Credits to: https://patorjk.com/software/taag/#p=display&amp;f=Graffit...">
<polygon fill="white" stroke="black" points="166,-0.5 166,-19.5 309,-19.5 309,-0.5 166,-0.5"/>
<text text-anchor="middle" x="237.5" y="-7.5" font-family="Helvetica,sans-Serif" font-size="10.00">CBanner::PrintBannerHelp</text>
</a>
</g>
</g>
<!-- Node1&#45;&gt;Node3 -->
<g id="edge2" class="edge">
<title>Node1&#45;&gt;Node3</title>
<path fill="none" stroke="midnightblue" d="M130.46,-21.82C138.8,-20.89 147.42,-19.93 155.97,-18.97"/>
<polygon fill="midnightblue" stroke="midnightblue" points="156.41,-22.45 165.96,-17.86 155.64,-15.49 156.41,-22.45"/>
</g>
</g>
</svg>
