<?xml version="1.0" encoding="UTF-8" standalone="no"?>
<!DOCTYPE svg PUBLIC "-//W3C//DTD SVG 1.1//EN"
 "http://www.w3.org/Graphics/SVG/1.1/DTD/svg11.dtd">
<!-- Generated by graphviz version 2.43.0 (0)
 -->
<!-- Title: CAIPlayer::RandomizeMove Pages: 1 -->
<svg width="438pt" height="28pt"
 viewBox="0.00 0.00 438.00 28.00" xmlns="http://www.w3.org/2000/svg" xmlns:xlink="http://www.w3.org/1999/xlink">
<g id="graph0" class="graph" transform="scale(1 1) rotate(0) translate(4 24)">
<title>CAIPlayer::RandomizeMove</title>
<polygon fill="white" stroke="transparent" points="-4,4 -4,-24 434,-24 434,4 -4,4"/>
<!-- Node1 -->
<g id="node1" class="node">
<title>Node1</title>
<g id="a_node1"><a xlink:title="Function is used, when BFS Couldn&#39;t find any possible way between players.">
<polygon fill="#bfbfbf" stroke="black" points="278,-0.5 278,-19.5 430,-19.5 430,-0.5 278,-0.5"/>
<text text-anchor="middle" x="354" y="-7.5" font-family="Helvetica,sans-Serif" font-size="10.00">CAIPlayer::RandomizeMove</text>
</a>
</g>
</g>
<!-- Node2 -->
<g id="node2" class="node">
<title>Node2</title>
<g id="a_node2"><a xlink:href="classCAIPlayer.html#a5e6f39de3b63341b62054fd78212cee6" target="_top" xlink:title="Calculate BFS and move the best direction possible. It is working in different direction (finding pat...">
<polygon fill="white" stroke="black" points="133,-0.5 133,-19.5 242,-19.5 242,-0.5 133,-0.5"/>
<text text-anchor="middle" x="187.5" y="-7.5" font-family="Helvetica,sans-Serif" font-size="10.00">CAIPlayer::BFSPath</text>
</a>
</g>
</g>
<!-- Node1&#45;&gt;Node2 -->
<g id="edge1" class="edge">
<title>Node1&#45;&gt;Node2</title>
<path fill="none" stroke="midnightblue" d="M267.79,-10C259.12,-10 250.49,-10 242.29,-10"/>
<polygon fill="midnightblue" stroke="midnightblue" points="267.97,-13.5 277.97,-10 267.97,-6.5 267.97,-13.5"/>
</g>
<!-- Node3 -->
<g id="node3" class="node">
<title>Node3</title>
<g id="a_node3"><a xlink:href="classCAIPlayer.html#a4a3b7d4cc43e3b3ded213ae191dfc70b" target="_top" xlink:title="When AI changes position, this method manage it + is responsible for checking if the move is possible...">
<polygon fill="white" stroke="black" points="0,-0.5 0,-19.5 97,-19.5 97,-0.5 0,-0.5"/>
<text text-anchor="middle" x="48.5" y="-7.5" font-family="Helvetica,sans-Serif" font-size="10.00">CAIPlayer::Move</text>
</a>
</g>
</g>
<!-- Node2&#45;&gt;Node3 -->
<g id="edge2" class="edge">
<title>Node2&#45;&gt;Node3</title>
<path fill="none" stroke="midnightblue" d="M122.49,-10C114.02,-10 105.45,-10 97.31,-10"/>
<polygon fill="midnightblue" stroke="midnightblue" points="122.75,-13.5 132.75,-10 122.75,-6.5 122.75,-13.5"/>
</g>
</g>
</svg>
