<?xml version="1.0" encoding="UTF-8" standalone="no"?>
<!DOCTYPE svg PUBLIC "-//W3C//DTD SVG 1.1//EN"
 "http://www.w3.org/Graphics/SVG/1.1/DTD/svg11.dtd">
<!-- Generated by graphviz version 2.43.0 (0)
 -->
<!-- Title: CAIPlayer::RandomizeMove Pages: 1 -->
<svg width="340pt" height="142pt"
 viewBox="0.00 0.00 340.00 142.00" xmlns="http://www.w3.org/2000/svg" xmlns:xlink="http://www.w3.org/1999/xlink">
<g id="graph0" class="graph" transform="scale(1 1) rotate(0) translate(4 138)">
<title>CAIPlayer::RandomizeMove</title>
<polygon fill="white" stroke="transparent" points="-4,4 -4,-138 336,-138 336,4 -4,4"/>
<!-- Node1 -->
<g id="node1" class="node">
<title>Node1</title>
<g id="a_node1"><a xlink:title="Function is used, when BFS Couldn&#39;t find any possible way between players.">
<polygon fill="#bfbfbf" stroke="black" points="0,-57.5 0,-76.5 152,-76.5 152,-57.5 0,-57.5"/>
<text text-anchor="middle" x="76" y="-64.5" font-family="Helvetica,sans-Serif" font-size="10.00">CAIPlayer::RandomizeMove</text>
</a>
</g>
</g>
<!-- Node2 -->
<g id="node2" class="node">
<title>Node2</title>
<g id="a_node2"><a xlink:href="classCPosition.html#a098615f7aefcc0405d4c346c70a6b940" target="_top" xlink:title=" ">
<polygon fill="white" stroke="black" points="188,-114.5 188,-133.5 332,-133.5 332,-114.5 188,-114.5"/>
<text text-anchor="middle" x="260" y="-121.5" font-family="Helvetica,sans-Serif" font-size="10.00">CPosition::ChangePosition</text>
</a>
</g>
</g>
<!-- Node1&#45;&gt;Node2 -->
<g id="edge1" class="edge">
<title>Node1&#45;&gt;Node2</title>
<path fill="none" stroke="midnightblue" d="M103.3,-76.57C125.69,-84.58 158.77,-96.1 188,-105 195.55,-107.3 203.6,-109.6 211.47,-111.76"/>
<polygon fill="midnightblue" stroke="midnightblue" points="210.71,-115.18 221.28,-114.42 212.54,-108.43 210.71,-115.18"/>
</g>
<!-- Node3 -->
<g id="node3" class="node">
<title>Node3</title>
<g id="a_node3"><a xlink:href="classCBlock.html#add32b563a6e910091af5a7a6710c92ca" target="_top" xlink:title="Converts type of block to printable symbol.">
<polygon fill="white" stroke="black" points="198.5,-76.5 198.5,-95.5 321.5,-95.5 321.5,-76.5 198.5,-76.5"/>
<text text-anchor="middle" x="260" y="-83.5" font-family="Helvetica,sans-Serif" font-size="10.00">CBlock::GetBlockChar</text>
</a>
</g>
</g>
<!-- Node1&#45;&gt;Node3 -->
<g id="edge2" class="edge">
<title>Node1&#45;&gt;Node3</title>
<path fill="none" stroke="midnightblue" d="M152.08,-74.84C163.97,-76.08 176.23,-77.36 188.02,-78.59"/>
<polygon fill="midnightblue" stroke="midnightblue" points="187.94,-82.1 198.24,-79.66 188.66,-75.14 187.94,-82.1"/>
</g>
<!-- Node4 -->
<g id="node4" class="node">
<title>Node4</title>
<g id="a_node4"><a xlink:href="classCPosition.html#ac55e91406e3b04e1fa9960d9d935dff7" target="_top" xlink:title=" ">
<polygon fill="white" stroke="black" points="194.5,-38.5 194.5,-57.5 325.5,-57.5 325.5,-38.5 194.5,-38.5"/>
<text text-anchor="middle" x="260" y="-45.5" font-family="Helvetica,sans-Serif" font-size="10.00">CPosition::GetXPosition</text>
</a>
</g>
</g>
<!-- Node1&#45;&gt;Node4 -->
<g id="edge3" class="edge">
<title>Node1&#45;&gt;Node4</title>
<path fill="none" stroke="midnightblue" d="M152.08,-59.16C162.69,-58.05 173.6,-56.92 184.2,-55.81"/>
<polygon fill="midnightblue" stroke="midnightblue" points="184.68,-59.28 194.26,-54.76 183.95,-52.32 184.68,-59.28"/>
</g>
<!-- Node5 -->
<g id="node5" class="node">
<title>Node5</title>
<g id="a_node5"><a xlink:href="classCPosition.html#a49b0dc00e42f2f2f4d76ff0d46ff7c4e" target="_top" xlink:title=" ">
<polygon fill="white" stroke="black" points="194.5,-0.5 194.5,-19.5 325.5,-19.5 325.5,-0.5 194.5,-0.5"/>
<text text-anchor="middle" x="260" y="-7.5" font-family="Helvetica,sans-Serif" font-size="10.00">CPosition::GetYPosition</text>
</a>
</g>
</g>
<!-- Node1&#45;&gt;Node5 -->
<g id="edge4" class="edge">
<title>Node1&#45;&gt;Node5</title>
<path fill="none" stroke="midnightblue" d="M103.3,-57.43C125.69,-49.42 158.77,-37.9 188,-29 195.55,-26.7 203.6,-24.4 211.47,-22.24"/>
<polygon fill="midnightblue" stroke="midnightblue" points="212.54,-25.57 221.28,-19.58 210.71,-18.82 212.54,-25.57"/>
</g>
</g>
</svg>
