<?xml version="1.0" encoding="UTF-8" standalone="no"?>
<!DOCTYPE svg PUBLIC "-//W3C//DTD SVG 1.1//EN"
 "http://www.w3.org/Graphics/SVG/1.1/DTD/svg11.dtd">
<!-- Generated by graphviz version 2.43.0 (0)
 -->
<!-- Title: CBanner::PrintBannerGameSettings Pages: 1 -->
<svg width="486pt" height="137pt"
 viewBox="0.00 0.00 486.00 137.00" xmlns="http://www.w3.org/2000/svg" xmlns:xlink="http://www.w3.org/1999/xlink">
<g id="graph0" class="graph" transform="scale(1 1) rotate(0) translate(4 133)">
<title>CBanner::PrintBannerGameSettings</title>
<polygon fill="white" stroke="transparent" points="-4,4 -4,-133 482,-133 482,4 -4,4"/>
<!-- Node1 -->
<g id="node1" class="node">
<title>Node1</title>
<g id="a_node1"><a xlink:title="Prints ASCII art GAME SETTINGS (Font Slant) Credits to: https://patorjk.com/software/taag/#p=display&amp;...">
<polygon fill="#bfbfbf" stroke="black" points="328,-49.5 328,-79.5 478,-79.5 478,-49.5 328,-49.5"/>
<text text-anchor="start" x="336" y="-67.5" font-family="Helvetica,sans-Serif" font-size="10.00">CBanner::PrintBannerGame</text>
<text text-anchor="middle" x="403" y="-56.5" font-family="Helvetica,sans-Serif" font-size="10.00">Settings</text>
</a>
</g>
</g>
<!-- Node2 -->
<g id="node2" class="node">
<title>Node2</title>
<g id="a_node2"><a xlink:href="classCGameSettingsMenu.html#ac3cc878803c48e3f2b081d16f45c474c" target="_top" xlink:title="Create and handle user&#39;s nickname.">
<polygon fill="white" stroke="black" points="167,-98.5 167,-128.5 292,-128.5 292,-98.5 167,-98.5"/>
<text text-anchor="start" x="175" y="-116.5" font-family="Helvetica,sans-Serif" font-size="10.00">CGameSettingsMenu::</text>
<text text-anchor="middle" x="229.5" y="-105.5" font-family="Helvetica,sans-Serif" font-size="10.00">LoadGameModeMenu</text>
</a>
</g>
</g>
<!-- Node1&#45;&gt;Node2 -->
<g id="edge1" class="edge">
<title>Node1&#45;&gt;Node2</title>
<path fill="none" stroke="midnightblue" d="M339.37,-82.39C320.92,-87.66 300.94,-93.38 283.18,-98.45"/>
<polygon fill="midnightblue" stroke="midnightblue" points="340.49,-85.71 349.14,-79.6 338.57,-78.98 340.49,-85.71"/>
</g>
<!-- Node3 -->
<g id="node3" class="node">
<title>Node3</title>
<g id="a_node3"><a xlink:href="classCGameSettingsMenu.html#a8e3414794e56564768a17351d119d5cf" target="_top" xlink:title="Create and handle menu for map creation.">
<polygon fill="white" stroke="black" points="167,-49.5 167,-79.5 292,-79.5 292,-49.5 167,-49.5"/>
<text text-anchor="start" x="175" y="-67.5" font-family="Helvetica,sans-Serif" font-size="10.00">CGameSettingsMenu::</text>
<text text-anchor="middle" x="229.5" y="-56.5" font-family="Helvetica,sans-Serif" font-size="10.00">LoadMapMenu</text>
</a>
</g>
</g>
<!-- Node1&#45;&gt;Node3 -->
<g id="edge2" class="edge">
<title>Node1&#45;&gt;Node3</title>
<path fill="none" stroke="midnightblue" d="M317.72,-64.5C309.13,-64.5 300.52,-64.5 292.23,-64.5"/>
<polygon fill="midnightblue" stroke="midnightblue" points="317.78,-68 327.78,-64.5 317.78,-61 317.78,-68"/>
</g>
<!-- Node5 -->
<g id="node5" class="node">
<title>Node5</title>
<g id="a_node5"><a xlink:href="classCGameSettingsMenu.html#a503bf54bc6f903ea42d16cfc7c42db70" target="_top" xlink:title="Create and handle user&#39;s nickname.">
<polygon fill="white" stroke="black" points="167,-0.5 167,-30.5 292,-30.5 292,-0.5 167,-0.5"/>
<text text-anchor="start" x="175" y="-18.5" font-family="Helvetica,sans-Serif" font-size="10.00">CGameSettingsMenu::</text>
<text text-anchor="middle" x="229.5" y="-7.5" font-family="Helvetica,sans-Serif" font-size="10.00">LoadNickNameMenu</text>
</a>
</g>
</g>
<!-- Node1&#45;&gt;Node5 -->
<g id="edge4" class="edge">
<title>Node1&#45;&gt;Node5</title>
<path fill="none" stroke="midnightblue" d="M339.37,-46.61C320.92,-41.34 300.94,-35.62 283.18,-30.55"/>
<polygon fill="midnightblue" stroke="midnightblue" points="338.57,-50.02 349.14,-49.4 340.49,-43.29 338.57,-50.02"/>
</g>
<!-- Node4 -->
<g id="node4" class="node">
<title>Node4</title>
<g id="a_node4"><a xlink:href="classCMainMenu.html#ab969842c59bbaff6fbececc6b0c9b69a" target="_top" xlink:title="Render main menu (start of game)">
<polygon fill="white" stroke="black" points="0,-55 0,-74 131,-74 131,-55 0,-55"/>
<text text-anchor="middle" x="65.5" y="-62" font-family="Helvetica,sans-Serif" font-size="10.00">CMainMenu::MainMenu</text>
</a>
</g>
</g>
<!-- Node3&#45;&gt;Node4 -->
<g id="edge3" class="edge">
<title>Node3&#45;&gt;Node4</title>
<path fill="none" stroke="midnightblue" d="M156.6,-64.5C148.16,-64.5 139.6,-64.5 131.27,-64.5"/>
<polygon fill="midnightblue" stroke="midnightblue" points="156.79,-68 166.79,-64.5 156.79,-61 156.79,-68"/>
</g>
</g>
</svg>
