<?xml version="1.0" encoding="UTF-8" standalone="no"?>
<!DOCTYPE svg PUBLIC "-//W3C//DTD SVG 1.1//EN"
 "http://www.w3.org/Graphics/SVG/1.1/DTD/svg11.dtd">
<!-- Generated by graphviz version 2.43.0 (0)
 -->
<!-- Title: CBomb::FlameEffect Pages: 1 -->
<svg width="304pt" height="142pt"
 viewBox="0.00 0.00 304.00 142.00" xmlns="http://www.w3.org/2000/svg" xmlns:xlink="http://www.w3.org/1999/xlink">
<g id="graph0" class="graph" transform="scale(1 1) rotate(0) translate(4 138)">
<title>CBomb::FlameEffect</title>
<polygon fill="white" stroke="transparent" points="-4,4 -4,-138 300,-138 300,4 -4,4"/>
<!-- Node1 -->
<g id="node1" class="node">
<title>Node1</title>
<g id="a_node1"><a xlink:title="Generating the flame effect of bomb (handling walls etc.)">
<polygon fill="#bfbfbf" stroke="black" points="0,-57.5 0,-76.5 116,-76.5 116,-57.5 0,-57.5"/>
<text text-anchor="middle" x="58" y="-64.5" font-family="Helvetica,sans-Serif" font-size="10.00">CBomb::FlameEffect</text>
</a>
</g>
</g>
<!-- Node2 -->
<g id="node2" class="node">
<title>Node2</title>
<g id="a_node2"><a xlink:href="classCPosition.html#a098615f7aefcc0405d4c346c70a6b940" target="_top" xlink:title=" ">
<polygon fill="white" stroke="black" points="152,-114.5 152,-133.5 296,-133.5 296,-114.5 152,-114.5"/>
<text text-anchor="middle" x="224" y="-121.5" font-family="Helvetica,sans-Serif" font-size="10.00">CPosition::ChangePosition</text>
</a>
</g>
</g>
<!-- Node1&#45;&gt;Node2 -->
<g id="edge1" class="edge">
<title>Node1&#45;&gt;Node2</title>
<path fill="none" stroke="midnightblue" d="M80.13,-76.53C98.8,-84.73 126.87,-96.54 152,-105 159.06,-107.38 166.6,-109.66 174.02,-111.76"/>
<polygon fill="midnightblue" stroke="midnightblue" points="173.1,-115.14 183.67,-114.43 174.96,-108.39 173.1,-115.14"/>
</g>
<!-- Node3 -->
<g id="node3" class="node">
<title>Node3</title>
<g id="a_node3"><a xlink:href="classCBlock.html#add32b563a6e910091af5a7a6710c92ca" target="_top" xlink:title="Converts type of block to printable symbol.">
<polygon fill="white" stroke="black" points="162.5,-76.5 162.5,-95.5 285.5,-95.5 285.5,-76.5 162.5,-76.5"/>
<text text-anchor="middle" x="224" y="-83.5" font-family="Helvetica,sans-Serif" font-size="10.00">CBlock::GetBlockChar</text>
</a>
</g>
</g>
<!-- Node1&#45;&gt;Node3 -->
<g id="edge2" class="edge">
<title>Node1&#45;&gt;Node3</title>
<path fill="none" stroke="midnightblue" d="M116.36,-73.65C127.98,-74.99 140.32,-76.42 152.34,-77.81"/>
<polygon fill="midnightblue" stroke="midnightblue" points="151.99,-81.3 162.33,-78.97 152.8,-74.34 151.99,-81.3"/>
</g>
<!-- Node4 -->
<g id="node4" class="node">
<title>Node4</title>
<g id="a_node4"><a xlink:href="classCPosition.html#ac55e91406e3b04e1fa9960d9d935dff7" target="_top" xlink:title=" ">
<polygon fill="white" stroke="black" points="158.5,-38.5 158.5,-57.5 289.5,-57.5 289.5,-38.5 158.5,-38.5"/>
<text text-anchor="middle" x="224" y="-45.5" font-family="Helvetica,sans-Serif" font-size="10.00">CPosition::GetXPosition</text>
</a>
</g>
</g>
<!-- Node1&#45;&gt;Node4 -->
<g id="edge3" class="edge">
<title>Node1&#45;&gt;Node4</title>
<path fill="none" stroke="midnightblue" d="M116.36,-60.35C126.65,-59.16 137.51,-57.9 148.21,-56.67"/>
<polygon fill="midnightblue" stroke="midnightblue" points="148.85,-60.11 158.39,-55.49 148.05,-53.16 148.85,-60.11"/>
</g>
<!-- Node5 -->
<g id="node5" class="node">
<title>Node5</title>
<g id="a_node5"><a xlink:href="classCPosition.html#a49b0dc00e42f2f2f4d76ff0d46ff7c4e" target="_top" xlink:title=" ">
<polygon fill="white" stroke="black" points="158.5,-0.5 158.5,-19.5 289.5,-19.5 289.5,-0.5 158.5,-0.5"/>
<text text-anchor="middle" x="224" y="-7.5" font-family="Helvetica,sans-Serif" font-size="10.00">CPosition::GetYPosition</text>
</a>
</g>
</g>
<!-- Node1&#45;&gt;Node5 -->
<g id="edge4" class="edge">
<title>Node1&#45;&gt;Node5</title>
<path fill="none" stroke="midnightblue" d="M80.13,-57.47C98.8,-49.27 126.87,-37.46 152,-29 159.06,-26.62 166.6,-24.34 174.02,-22.24"/>
<polygon fill="midnightblue" stroke="midnightblue" points="174.96,-25.61 183.67,-19.57 173.1,-18.86 174.96,-25.61"/>
</g>
</g>
</svg>
