<?xml version="1.0" encoding="UTF-8" standalone="no"?>
<!DOCTYPE svg PUBLIC "-//W3C//DTD SVG 1.1//EN"
 "http://www.w3.org/Graphics/SVG/1.1/DTD/svg11.dtd">
<!-- Generated by graphviz version 2.43.0 (0)
 -->
<!-- Title: CMainMenu::ScoreMenu Pages: 1 -->
<svg width="318pt" height="78pt"
 viewBox="0.00 0.00 318.00 77.50" xmlns="http://www.w3.org/2000/svg" xmlns:xlink="http://www.w3.org/1999/xlink">
<g id="graph0" class="graph" transform="scale(1 1) rotate(0) translate(4 73.5)">
<title>CMainMenu::ScoreMenu</title>
<polygon fill="white" stroke="transparent" points="-4,4 -4,-73.5 314,-73.5 314,4 -4,4"/>
<!-- Node1 -->
<g id="node1" class="node">
<title>Node1</title>
<g id="a_node1"><a xlink:title="Hall of fame printing.">
<polygon fill="#bfbfbf" stroke="black" points="0,-28 0,-47 134,-47 134,-28 0,-28"/>
<text text-anchor="middle" x="67" y="-35" font-family="Helvetica,sans-Serif" font-size="10.00">CMainMenu::ScoreMenu</text>
</a>
</g>
</g>
<!-- Node2 -->
<g id="node2" class="node">
<title>Node2</title>
<g id="a_node2"><a xlink:href="classCUserMenu.html#a8cefff436235de63ddfe8f1672b4b5a9" target="_top" xlink:title="Prints menu and check, if user&#39;s input is valid.">
<polygon fill="white" stroke="black" points="170,-50 170,-69 310,-69 310,-50 170,-50"/>
<text text-anchor="middle" x="240" y="-57" font-family="Helvetica,sans-Serif" font-size="10.00">CUserMenu::HandleMenu</text>
</a>
</g>
</g>
<!-- Node1&#45;&gt;Node2 -->
<g id="edge1" class="edge">
<title>Node1&#45;&gt;Node2</title>
<path fill="none" stroke="midnightblue" d="M134.11,-46.01C142.56,-47.09 151.27,-48.21 159.89,-49.32"/>
<polygon fill="midnightblue" stroke="midnightblue" points="159.59,-52.81 169.95,-50.62 160.48,-45.87 159.59,-52.81"/>
</g>
<!-- Node3 -->
<g id="node3" class="node">
<title>Node3</title>
<g id="a_node3"><a xlink:href="classCBanner.html#a9122dfd7421b6c6c0a9d654537af1002" target="_top" xlink:title="Prints ASCII art HALLOFFAME Credits to: https://patorjk.com/software/taag/#p=display&amp;f=Graffiti&amp;t=Typ...">
<polygon fill="white" stroke="black" points="170,-0.5 170,-30.5 310,-30.5 310,-0.5 170,-0.5"/>
<text text-anchor="start" x="178" y="-18.5" font-family="Helvetica,sans-Serif" font-size="10.00">CBanner::PrintBannerHall</text>
<text text-anchor="middle" x="240" y="-7.5" font-family="Helvetica,sans-Serif" font-size="10.00">OfFame</text>
</a>
</g>
</g>
<!-- Node1&#45;&gt;Node3 -->
<g id="edge2" class="edge">
<title>Node1&#45;&gt;Node3</title>
<path fill="none" stroke="midnightblue" d="M134.11,-28.99C142.56,-27.91 151.27,-26.79 159.89,-25.68"/>
<polygon fill="midnightblue" stroke="midnightblue" points="160.48,-29.13 169.95,-24.38 159.59,-22.19 160.48,-29.13"/>
</g>
</g>
</svg>
