<?xml version="1.0" encoding="UTF-8" standalone="no"?>
<!DOCTYPE svg PUBLIC "-//W3C//DTD SVG 1.1//EN"
 "http://www.w3.org/Graphics/SVG/1.1/DTD/svg11.dtd">
<!-- Generated by graphviz version 2.43.0 (0)
 -->
<!-- Title: CPosition::ChangePosition Pages: 1 -->
<svg width="618pt" height="120pt"
 viewBox="0.00 0.00 618.00 120.22" xmlns="http://www.w3.org/2000/svg" xmlns:xlink="http://www.w3.org/1999/xlink">
<g id="graph0" class="graph" transform="scale(1 1) rotate(0) translate(4 116.22)">
<title>CPosition::ChangePosition</title>
<polygon fill="white" stroke="transparent" points="-4,4 -4,-116.22 614,-116.22 614,4 -4,4"/>
<!-- Node1 -->
<g id="node1" class="node">
<title>Node1</title>
<g id="a_node1"><a xlink:title=" ">
<polygon fill="#bfbfbf" stroke="black" points="466,-57.5 466,-76.5 610,-76.5 610,-57.5 466,-57.5"/>
<text text-anchor="middle" x="538" y="-64.5" font-family="Helvetica,sans-Serif" font-size="10.00">CPosition::ChangePosition</text>
</a>
</g>
</g>
<!-- Node2 -->
<g id="node2" class="node">
<title>Node2</title>
<g id="a_node2"><a xlink:href="classCAIPlayer.html#a5e6f39de3b63341b62054fd78212cee6" target="_top" xlink:title="Calculate BFS and move the best direction possible. It is working in different direction (finding pat...">
<polygon fill="white" stroke="black" points="133,-76.5 133,-95.5 242,-95.5 242,-76.5 133,-76.5"/>
<text text-anchor="middle" x="187.5" y="-83.5" font-family="Helvetica,sans-Serif" font-size="10.00">CAIPlayer::BFSPath</text>
</a>
</g>
</g>
<!-- Node1&#45;&gt;Node2 -->
<g id="edge1" class="edge">
<title>Node1&#45;&gt;Node2</title>
<path fill="none" stroke="midnightblue" d="M507.3,-80.64C486.22,-89.55 457,-100.35 430,-105 363.43,-116.47 345.19,-112.05 278,-105 260.31,-103.14 240.96,-99.27 224.8,-95.51"/>
<polygon fill="midnightblue" stroke="midnightblue" points="508.87,-83.78 516.65,-76.59 506.09,-77.35 508.87,-83.78"/>
</g>
<!-- Node4 -->
<g id="node4" class="node">
<title>Node4</title>
<g id="a_node4"><a xlink:href="classCBomb.html#af844a0c1b6f02763d30043cb1643b1ce" target="_top" xlink:title="Generating the flame effect of bomb (handling walls etc.)">
<polygon fill="white" stroke="black" points="296,-76.5 296,-95.5 412,-95.5 412,-76.5 296,-76.5"/>
<text text-anchor="middle" x="354" y="-83.5" font-family="Helvetica,sans-Serif" font-size="10.00">CBomb::FlameEffect</text>
</a>
</g>
</g>
<!-- Node1&#45;&gt;Node4 -->
<g id="edge3" class="edge">
<title>Node1&#45;&gt;Node4</title>
<path fill="none" stroke="midnightblue" d="M455.72,-75.49C440.98,-77.02 425.89,-78.6 412.03,-80.05"/>
<polygon fill="midnightblue" stroke="midnightblue" points="456.27,-78.95 465.85,-74.43 455.54,-71.98 456.27,-78.95"/>
</g>
<!-- Node5 -->
<g id="node5" class="node">
<title>Node5</title>
<g id="a_node5"><a xlink:href="classCPlayer.html#a880c76f8fc694de5bcdec60837a0837a" target="_top" xlink:title="Function reading user input based on which user wanted to move. Creating controls vector based on pla...">
<polygon fill="white" stroke="black" points="293,-0.5 293,-19.5 415,-19.5 415,-0.5 293,-0.5"/>
<text text-anchor="middle" x="354" y="-7.5" font-family="Helvetica,sans-Serif" font-size="10.00">CPlayer::HandleMove</text>
</a>
</g>
</g>
<!-- Node1&#45;&gt;Node5 -->
<g id="edge4" class="edge">
<title>Node1&#45;&gt;Node5</title>
<path fill="none" stroke="midnightblue" d="M502.75,-53.92C481.88,-46.18 454.59,-36.46 430,-29 418.95,-25.65 406.86,-22.4 395.67,-19.57"/>
<polygon fill="midnightblue" stroke="midnightblue" points="501.55,-57.21 512.14,-57.43 504,-50.65 501.55,-57.21"/>
</g>
<!-- Node7 -->
<g id="node7" class="node">
<title>Node7</title>
<g id="a_node7"><a xlink:href="classCAIPlayer.html#ace409e60eda0ae6c08f8cd79d3b8bd3e" target="_top" xlink:title="Function is used, when BFS Couldn&#39;t find any possible way between players.">
<polygon fill="white" stroke="black" points="278,-38.5 278,-57.5 430,-57.5 430,-38.5 278,-38.5"/>
<text text-anchor="middle" x="354" y="-45.5" font-family="Helvetica,sans-Serif" font-size="10.00">CAIPlayer::RandomizeMove</text>
</a>
</g>
</g>
<!-- Node1&#45;&gt;Node7 -->
<g id="edge6" class="edge">
<title>Node1&#45;&gt;Node7</title>
<path fill="none" stroke="midnightblue" d="M455.83,-58.53C447.24,-57.63 438.52,-56.72 430,-55.83"/>
<polygon fill="midnightblue" stroke="midnightblue" points="455.54,-62.02 465.85,-59.57 456.27,-55.05 455.54,-62.02"/>
</g>
<!-- Node3 -->
<g id="node3" class="node">
<title>Node3</title>
<g id="a_node3"><a xlink:href="classCAIPlayer.html#a4a3b7d4cc43e3b3ded213ae191dfc70b" target="_top" xlink:title="When AI changes position, this method manage it + is responsible for checking if the move is possible...">
<polygon fill="white" stroke="black" points="0,-76.5 0,-95.5 97,-95.5 97,-76.5 0,-76.5"/>
<text text-anchor="middle" x="48.5" y="-83.5" font-family="Helvetica,sans-Serif" font-size="10.00">CAIPlayer::Move</text>
</a>
</g>
</g>
<!-- Node2&#45;&gt;Node3 -->
<g id="edge2" class="edge">
<title>Node2&#45;&gt;Node3</title>
<path fill="none" stroke="midnightblue" d="M122.49,-86C114.02,-86 105.45,-86 97.31,-86"/>
<polygon fill="midnightblue" stroke="midnightblue" points="122.75,-89.5 132.75,-86 122.75,-82.5 122.75,-89.5"/>
</g>
<!-- Node6 -->
<g id="node6" class="node">
<title>Node6</title>
<g id="a_node6"><a xlink:href="classCPlayer.html#ac67ecebfb4b30f41a7f37dbc6eb7b874" target="_top" xlink:title="When user changes position, this method manage it + is responsible for checking if the move is possib...">
<polygon fill="white" stroke="black" points="144,-0.5 144,-19.5 231,-19.5 231,-0.5 144,-0.5"/>
<text text-anchor="middle" x="187.5" y="-7.5" font-family="Helvetica,sans-Serif" font-size="10.00">CPlayer::Move</text>
</a>
</g>
</g>
<!-- Node5&#45;&gt;Node6 -->
<g id="edge5" class="edge">
<title>Node5&#45;&gt;Node6</title>
<path fill="none" stroke="midnightblue" d="M282.48,-10C264.98,-10 246.75,-10 231.06,-10"/>
<polygon fill="midnightblue" stroke="midnightblue" points="282.68,-13.5 292.68,-10 282.68,-6.5 282.68,-13.5"/>
</g>
<!-- Node7&#45;&gt;Node2 -->
<g id="edge7" class="edge">
<title>Node7&#45;&gt;Node2</title>
<path fill="none" stroke="midnightblue" d="M301.5,-59.9C278.38,-65.24 251.47,-71.45 229.71,-76.48"/>
<polygon fill="midnightblue" stroke="midnightblue" points="302.53,-63.25 311.49,-57.59 300.96,-56.43 302.53,-63.25"/>
</g>
</g>
</svg>
