<?xml version="1.0" encoding="UTF-8" standalone="no"?>
<!DOCTYPE svg PUBLIC "-//W3C//DTD SVG 1.1//EN"
 "http://www.w3.org/Graphics/SVG/1.1/DTD/svg11.dtd">
<!-- Generated by graphviz version 2.43.0 (0)
 -->
<!-- Title: CUserMenu::HandleMenu Pages: 1 -->
<svg width="485pt" height="203pt"
 viewBox="0.00 0.00 485.00 203.00" xmlns="http://www.w3.org/2000/svg" xmlns:xlink="http://www.w3.org/1999/xlink">
<g id="graph0" class="graph" transform="scale(1 1) rotate(0) translate(4 199)">
<title>CUserMenu::HandleMenu</title>
<polygon fill="white" stroke="transparent" points="-4,4 -4,-199 481,-199 481,4 -4,4"/>
<!-- Node1 -->
<g id="node1" class="node">
<title>Node1</title>
<g id="a_node1"><a xlink:title="Prints menu and check, if user&#39;s input is valid.">
<polygon fill="#bfbfbf" stroke="black" points="337,-82.5 337,-101.5 477,-101.5 477,-82.5 337,-82.5"/>
<text text-anchor="middle" x="407" y="-89.5" font-family="Helvetica,sans-Serif" font-size="10.00">CUserMenu::HandleMenu</text>
</a>
</g>
</g>
<!-- Node2 -->
<g id="node2" class="node">
<title>Node2</title>
<g id="a_node2"><a xlink:href="classCMainMenu.html#adb2942a33bf54dff1723b4d4357c91dc" target="_top" xlink:title="Printing help/controls for user.">
<polygon fill="white" stroke="black" points="169,-175.5 169,-194.5 299,-194.5 299,-175.5 169,-175.5"/>
<text text-anchor="middle" x="234" y="-182.5" font-family="Helvetica,sans-Serif" font-size="10.00">CMainMenu::HelpMenu</text>
</a>
</g>
</g>
<!-- Node1&#45;&gt;Node2 -->
<g id="edge1" class="edge">
<title>Node1&#45;&gt;Node2</title>
<path fill="none" stroke="midnightblue" d="M387.38,-108.06C367.28,-124.66 333.73,-150.31 301,-166 293.26,-169.71 284.65,-172.84 276.28,-175.42"/>
<polygon fill="midnightblue" stroke="midnightblue" points="389.72,-110.66 395.13,-101.55 385.22,-105.3 389.72,-110.66"/>
</g>
<!-- Node3 -->
<g id="node3" class="node">
<title>Node3</title>
<g id="a_node3"><a xlink:href="classCGameSettingsMenu.html#ac3cc878803c48e3f2b081d16f45c474c" target="_top" xlink:title="Create and handle user&#39;s nickname.">
<polygon fill="white" stroke="black" points="171.5,-126 171.5,-156 296.5,-156 296.5,-126 171.5,-126"/>
<text text-anchor="start" x="179.5" y="-144" font-family="Helvetica,sans-Serif" font-size="10.00">CGameSettingsMenu::</text>
<text text-anchor="middle" x="234" y="-133" font-family="Helvetica,sans-Serif" font-size="10.00">LoadGameModeMenu</text>
</a>
</g>
</g>
<!-- Node1&#45;&gt;Node3 -->
<g id="edge2" class="edge">
<title>Node1&#45;&gt;Node3</title>
<path fill="none" stroke="midnightblue" d="M362.85,-104.37C339.95,-110.93 311.63,-119.04 287.48,-125.96"/>
<polygon fill="midnightblue" stroke="midnightblue" points="363.97,-107.68 372.62,-101.56 362.05,-100.95 363.97,-107.68"/>
</g>
<!-- Node4 -->
<g id="node4" class="node">
<title>Node4</title>
<g id="a_node4"><a xlink:href="classCGameSettingsMenu.html#a8e3414794e56564768a17351d119d5cf" target="_top" xlink:title="Create and handle menu for map creation.">
<polygon fill="white" stroke="black" points="171.5,-77 171.5,-107 296.5,-107 296.5,-77 171.5,-77"/>
<text text-anchor="start" x="179.5" y="-95" font-family="Helvetica,sans-Serif" font-size="10.00">CGameSettingsMenu::</text>
<text text-anchor="middle" x="234" y="-84" font-family="Helvetica,sans-Serif" font-size="10.00">LoadMapMenu</text>
</a>
</g>
</g>
<!-- Node1&#45;&gt;Node4 -->
<g id="edge3" class="edge">
<title>Node1&#45;&gt;Node4</title>
<path fill="none" stroke="midnightblue" d="M326.85,-92C316.69,-92 306.42,-92 296.6,-92"/>
<polygon fill="midnightblue" stroke="midnightblue" points="326.94,-95.5 336.94,-92 326.94,-88.5 326.94,-95.5"/>
</g>
<!-- Node5 -->
<g id="node5" class="node">
<title>Node5</title>
<g id="a_node5"><a xlink:href="classCMainMenu.html#ab969842c59bbaff6fbececc6b0c9b69a" target="_top" xlink:title="Render main menu (start of game)">
<polygon fill="white" stroke="black" points="0,-60.5 0,-79.5 131,-79.5 131,-60.5 0,-60.5"/>
<text text-anchor="middle" x="65.5" y="-67.5" font-family="Helvetica,sans-Serif" font-size="10.00">CMainMenu::MainMenu</text>
</a>
</g>
</g>
<!-- Node1&#45;&gt;Node5 -->
<g id="edge5" class="edge">
<title>Node1&#45;&gt;Node5</title>
<path fill="none" stroke="midnightblue" d="M362.98,-79.87C344.12,-75.15 321.63,-70.33 301,-68 243.86,-61.55 178.38,-62.83 131.16,-65.27"/>
<polygon fill="midnightblue" stroke="midnightblue" points="362.2,-83.28 372.76,-82.39 363.94,-76.5 362.2,-83.28"/>
</g>
<!-- Node6 -->
<g id="node6" class="node">
<title>Node6</title>
<g id="a_node6"><a xlink:href="classCMainMenu.html#a9cd05e8db5f915b6527e8c6f6f2fb716" target="_top" xlink:title="Hall of fame printing.">
<polygon fill="white" stroke="black" points="167,-0.5 167,-19.5 301,-19.5 301,-0.5 167,-0.5"/>
<text text-anchor="middle" x="234" y="-7.5" font-family="Helvetica,sans-Serif" font-size="10.00">CMainMenu::ScoreMenu</text>
</a>
</g>
</g>
<!-- Node1&#45;&gt;Node6 -->
<g id="edge6" class="edge">
<title>Node1&#45;&gt;Node6</title>
<path fill="none" stroke="midnightblue" d="M381.54,-77.06C360.61,-64.63 329.44,-46.93 301,-34 289.23,-28.65 275.9,-23.62 264.31,-19.55"/>
<polygon fill="midnightblue" stroke="midnightblue" points="380.01,-80.22 390.39,-82.37 383.61,-74.22 380.01,-80.22"/>
</g>
<!-- Node4&#45;&gt;Node5 -->
<g id="edge4" class="edge">
<title>Node4&#45;&gt;Node5</title>
<path fill="none" stroke="midnightblue" d="M161.49,-82.55C151.4,-81.22 141.07,-79.85 131.12,-78.54"/>
<polygon fill="midnightblue" stroke="midnightblue" points="161.1,-86.03 171.47,-83.87 162.02,-79.09 161.1,-86.03"/>
</g>
</g>
</svg>
