<?xml version="1.0" encoding="UTF-8" standalone="no"?>
<!DOCTYPE svg PUBLIC "-//W3C//DTD SVG 1.1//EN"
 "http://www.w3.org/Graphics/SVG/1.1/DTD/svg11.dtd">
<!-- Generated by graphviz version 2.43.0 (0)
 -->
<!-- Title: src/Entity.cpp Pages: 1 -->
<svg width="235pt" height="252pt"
 viewBox="0.00 0.00 234.50 252.00" xmlns="http://www.w3.org/2000/svg" xmlns:xlink="http://www.w3.org/1999/xlink">
<g id="graph0" class="graph" transform="scale(1 1) rotate(0) translate(4 248)">
<title>src/Entity.cpp</title>
<polygon fill="white" stroke="transparent" points="-4,4 -4,-248 230.5,-248 230.5,4 -4,4"/>
<!-- Node1 -->
<g id="node1" class="node">
<title>Node1</title>
<g id="a_node1"><a xlink:title=" ">
<polygon fill="#bfbfbf" stroke="black" points="40,-224.5 40,-243.5 121,-243.5 121,-224.5 40,-224.5"/>
<text text-anchor="middle" x="80.5" y="-231.5" font-family="Helvetica,sans-Serif" font-size="10.00">src/Entity.cpp</text>
</a>
</g>
</g>
<!-- Node2 -->
<g id="node2" class="node">
<title>Node2</title>
<g id="a_node2"><a xlink:title=" ">
<polygon fill="white" stroke="#bfbfbf" points="10,-168.5 10,-187.5 75,-187.5 75,-168.5 10,-168.5"/>
<text text-anchor="middle" x="42.5" y="-175.5" font-family="Helvetica,sans-Serif" font-size="10.00">stdexcept</text>
</a>
</g>
</g>
<!-- Node1&#45;&gt;Node2 -->
<g id="edge1" class="edge">
<title>Node1&#45;&gt;Node2</title>
<path fill="none" stroke="midnightblue" d="M74.23,-224.08C68.86,-216.46 60.98,-205.26 54.42,-195.94"/>
<polygon fill="midnightblue" stroke="midnightblue" points="57.28,-193.91 48.66,-187.75 51.55,-197.94 57.28,-193.91"/>
</g>
<!-- Node3 -->
<g id="node3" class="node">
<title>Node3</title>
<g id="a_node3"><a xlink:href="Entity_8h.html" target="_top" xlink:title=" ">
<polygon fill="white" stroke="black" points="93,-168.5 93,-187.5 146,-187.5 146,-168.5 93,-168.5"/>
<text text-anchor="middle" x="119.5" y="-175.5" font-family="Helvetica,sans-Serif" font-size="10.00">Entity.h</text>
</a>
</g>
</g>
<!-- Node1&#45;&gt;Node3 -->
<g id="edge2" class="edge">
<title>Node1&#45;&gt;Node3</title>
<path fill="none" stroke="midnightblue" d="M86.94,-224.08C92.45,-216.46 100.53,-205.26 107.26,-195.94"/>
<polygon fill="midnightblue" stroke="midnightblue" points="110.16,-197.91 113.18,-187.75 104.49,-193.81 110.16,-197.91"/>
</g>
<!-- Node4 -->
<g id="node4" class="node">
<title>Node4</title>
<g id="a_node4"><a xlink:title=" ">
<polygon fill="white" stroke="#bfbfbf" points="0,-56.5 0,-75.5 47,-75.5 47,-56.5 0,-56.5"/>
<text text-anchor="middle" x="23.5" y="-63.5" font-family="Helvetica,sans-Serif" font-size="10.00">vector</text>
</a>
</g>
</g>
<!-- Node3&#45;&gt;Node4 -->
<g id="edge3" class="edge">
<title>Node3&#45;&gt;Node4</title>
<path fill="none" stroke="midnightblue" d="M110.98,-168.17C102.38,-159.2 88.8,-144.83 77.5,-132 63.18,-115.74 47.42,-96.62 36.64,-83.34"/>
<polygon fill="midnightblue" stroke="midnightblue" points="39.35,-81.12 30.34,-75.55 33.9,-85.52 39.35,-81.12"/>
</g>
<!-- Node5 -->
<g id="node5" class="node">
<title>Node5</title>
<g id="a_node5"><a xlink:title=" ">
<polygon fill="white" stroke="#bfbfbf" points="182.5,-0.5 182.5,-19.5 226.5,-19.5 226.5,-0.5 182.5,-0.5"/>
<text text-anchor="middle" x="204.5" y="-7.5" font-family="Helvetica,sans-Serif" font-size="10.00">string</text>
</a>
</g>
</g>
<!-- Node3&#45;&gt;Node5 -->
<g id="edge4" class="edge">
<title>Node3&#45;&gt;Node5</title>
<path fill="none" stroke="midnightblue" d="M133.66,-168.33C156.86,-153.1 201.88,-119.05 216.5,-76 221.74,-60.57 217.47,-42.25 212.63,-29"/>
<polygon fill="midnightblue" stroke="midnightblue" points="215.82,-27.55 208.8,-19.61 209.34,-30.19 215.82,-27.55"/>
</g>
<!-- Node6 -->
<g id="node6" class="node">
<title>Node6</title>
<g id="a_node6"><a xlink:title=" ">
<polygon fill="white" stroke="#bfbfbf" points="65.5,-56.5 65.5,-75.5 123.5,-75.5 123.5,-56.5 65.5,-56.5"/>
<text text-anchor="middle" x="94.5" y="-63.5" font-family="Helvetica,sans-Serif" font-size="10.00">memory</text>
</a>
</g>
</g>
<!-- Node3&#45;&gt;Node6 -->
<g id="edge5" class="edge">
<title>Node3&#45;&gt;Node6</title>
<path fill="none" stroke="midnightblue" d="M109.34,-168.19C100.59,-159.87 88.6,-146.54 83.5,-132 78.12,-116.66 82.1,-98.33 86.7,-85.06"/>
<polygon fill="midnightblue" stroke="midnightblue" points="90,-86.23 90.36,-75.64 83.48,-83.69 90,-86.23"/>
</g>
<!-- Node7 -->
<g id="node7" class="node">
<title>Node7</title>
<g id="a_node7"><a xlink:href="Position_8h.html" target="_top" xlink:title=" ">
<polygon fill="white" stroke="black" points="142,-56.5 142,-75.5 207,-75.5 207,-56.5 142,-56.5"/>
<text text-anchor="middle" x="174.5" y="-63.5" font-family="Helvetica,sans-Serif" font-size="10.00">Position.h</text>
</a>
</g>
</g>
<!-- Node3&#45;&gt;Node7 -->
<g id="edge6" class="edge">
<title>Node3&#45;&gt;Node7</title>
<path fill="none" stroke="midnightblue" d="M128.08,-168.43C136.2,-159.88 148.21,-146.02 155.5,-132 163.13,-117.33 168.11,-99.16 171.05,-85.77"/>
<polygon fill="midnightblue" stroke="midnightblue" points="174.51,-86.31 173.05,-75.82 167.65,-84.93 174.51,-86.31"/>
</g>
<!-- Node8 -->
<g id="node8" class="node">
<title>Node8</title>
<g id="a_node8"><a xlink:href="Bomb_8h.html" target="_top" xlink:title=" ">
<polygon fill="white" stroke="black" points="92.5,-112.5 92.5,-131.5 146.5,-131.5 146.5,-112.5 92.5,-112.5"/>
<text text-anchor="middle" x="119.5" y="-119.5" font-family="Helvetica,sans-Serif" font-size="10.00">Bomb.h</text>
</a>
</g>
</g>
<!-- Node3&#45;&gt;Node8 -->
<g id="edge8" class="edge">
<title>Node3&#45;&gt;Node8</title>
<path fill="none" stroke="midnightblue" d="M119.5,-168.08C119.5,-161.01 119.5,-150.86 119.5,-141.99"/>
<polygon fill="midnightblue" stroke="midnightblue" points="123,-141.75 119.5,-131.75 116,-141.75 123,-141.75"/>
</g>
<!-- Node7&#45;&gt;Node5 -->
<g id="edge7" class="edge">
<title>Node7&#45;&gt;Node5</title>
<path fill="none" stroke="midnightblue" d="M179.45,-56.08C183.6,-48.61 189.65,-37.72 194.77,-28.52"/>
<polygon fill="midnightblue" stroke="midnightblue" points="197.84,-30.19 199.64,-19.75 191.72,-26.79 197.84,-30.19"/>
</g>
<!-- Node8&#45;&gt;Node4 -->
<g id="edge10" class="edge">
<title>Node8&#45;&gt;Node4</title>
<path fill="none" stroke="midnightblue" d="M104.08,-112.32C88.96,-103.82 65.68,-90.73 48.03,-80.8"/>
<polygon fill="midnightblue" stroke="midnightblue" points="49.32,-77.51 38.89,-75.65 45.89,-83.61 49.32,-77.51"/>
</g>
<!-- Node8&#45;&gt;Node6 -->
<g id="edge9" class="edge">
<title>Node8&#45;&gt;Node6</title>
<path fill="none" stroke="midnightblue" d="M115.37,-112.08C111.99,-104.77 107.08,-94.18 102.88,-85.1"/>
<polygon fill="midnightblue" stroke="midnightblue" points="105.93,-83.36 98.55,-75.75 99.58,-86.3 105.93,-83.36"/>
</g>
<!-- Node8&#45;&gt;Node7 -->
<g id="edge11" class="edge">
<title>Node8&#45;&gt;Node7</title>
<path fill="none" stroke="midnightblue" d="M128.58,-112.08C136.67,-104.14 148.7,-92.34 158.41,-82.8"/>
<polygon fill="midnightblue" stroke="midnightblue" points="160.9,-85.25 165.59,-75.75 156,-80.26 160.9,-85.25"/>
</g>
</g>
</svg>
