<?xml version="1.0" encoding="UTF-8" standalone="no"?>
<!DOCTYPE svg PUBLIC "-//W3C//DTD SVG 1.1//EN"
 "http://www.w3.org/Graphics/SVG/1.1/DTD/svg11.dtd">
<!-- Generated by graphviz version 2.43.0 (0)
 -->
<!-- Title: src/Entity.h Pages: 1 -->
<svg width="472pt" height="196pt"
 viewBox="0.00 0.00 472.00 196.00" xmlns="http://www.w3.org/2000/svg" xmlns:xlink="http://www.w3.org/1999/xlink">
<g id="graph0" class="graph" transform="scale(1 1) rotate(0) translate(4 192)">
<title>src/Entity.h</title>
<polygon fill="white" stroke="transparent" points="-4,4 -4,-192 468,-192 468,4 -4,4"/>
<!-- Node1 -->
<g id="node1" class="node">
<title>Node1</title>
<g id="a_node1"><a xlink:title=" ">
<polygon fill="#bfbfbf" stroke="black" points="192,-168.5 192,-187.5 262,-187.5 262,-168.5 192,-168.5"/>
<text text-anchor="middle" x="227" y="-175.5" font-family="Helvetica,sans-Serif" font-size="10.00">src/Entity.h</text>
</a>
</g>
</g>
<!-- Node2 -->
<g id="node2" class="node">
<title>Node2</title>
<g id="a_node2"><a xlink:href="AIPlayer_8h.html" target="_top" xlink:title=" ">
<polygon fill="white" stroke="black" points="38.5,-112.5 38.5,-131.5 121.5,-131.5 121.5,-112.5 38.5,-112.5"/>
<text text-anchor="middle" x="80" y="-119.5" font-family="Helvetica,sans-Serif" font-size="10.00">src/AIPlayer.h</text>
</a>
</g>
</g>
<!-- Node1&#45;&gt;Node2 -->
<g id="edge1" class="edge">
<title>Node1&#45;&gt;Node2</title>
<path fill="none" stroke="midnightblue" d="M194.08,-164.91C166.44,-154.75 127.66,-140.51 103.18,-131.52"/>
<polygon fill="midnightblue" stroke="midnightblue" points="193.11,-168.28 203.71,-168.44 195.53,-161.71 193.11,-168.28"/>
</g>
<!-- Node5 -->
<g id="node5" class="node">
<title>Node5</title>
<g id="a_node5"><a xlink:href="Entity_8cpp.html" target="_top" xlink:title=" ">
<polygon fill="white" stroke="black" points="139.5,-112.5 139.5,-131.5 220.5,-131.5 220.5,-112.5 139.5,-112.5"/>
<text text-anchor="middle" x="180" y="-119.5" font-family="Helvetica,sans-Serif" font-size="10.00">src/Entity.cpp</text>
</a>
</g>
</g>
<!-- Node1&#45;&gt;Node5 -->
<g id="edge4" class="edge">
<title>Node1&#45;&gt;Node5</title>
<path fill="none" stroke="midnightblue" d="M212.58,-160.43C204.34,-150.97 194.35,-139.48 187.62,-131.75"/>
<polygon fill="midnightblue" stroke="midnightblue" points="210.03,-162.84 219.24,-168.08 215.31,-158.24 210.03,-162.84"/>
</g>
<!-- Node6 -->
<g id="node6" class="node">
<title>Node6</title>
<g id="a_node6"><a xlink:href="Ghost_8h.html" target="_top" xlink:title=" ">
<polygon fill="white" stroke="black" points="238.5,-112.5 238.5,-131.5 309.5,-131.5 309.5,-112.5 238.5,-112.5"/>
<text text-anchor="middle" x="274" y="-119.5" font-family="Helvetica,sans-Serif" font-size="10.00">src/Ghost.h</text>
</a>
</g>
</g>
<!-- Node1&#45;&gt;Node6 -->
<g id="edge5" class="edge">
<title>Node1&#45;&gt;Node6</title>
<path fill="none" stroke="midnightblue" d="M241.42,-160.43C249.66,-150.97 259.65,-139.48 266.38,-131.75"/>
<polygon fill="midnightblue" stroke="midnightblue" points="238.69,-158.24 234.76,-168.08 243.97,-162.84 238.69,-158.24"/>
</g>
<!-- Node10 -->
<g id="node10" class="node">
<title>Node10</title>
<g id="a_node10"><a xlink:href="Player_8h.html" target="_top" xlink:title=" ">
<polygon fill="white" stroke="black" points="327.5,-112.5 327.5,-131.5 400.5,-131.5 400.5,-112.5 327.5,-112.5"/>
<text text-anchor="middle" x="364" y="-119.5" font-family="Helvetica,sans-Serif" font-size="10.00">src/Player.h</text>
</a>
</g>
</g>
<!-- Node1&#45;&gt;Node10 -->
<g id="edge10" class="edge">
<title>Node1&#45;&gt;Node10</title>
<path fill="none" stroke="midnightblue" d="M258.02,-164.77C283.76,-154.63 319.69,-140.47 342.39,-131.52"/>
<polygon fill="midnightblue" stroke="midnightblue" points="256.73,-161.52 248.71,-168.44 259.29,-168.03 256.73,-161.52"/>
</g>
<!-- Node3 -->
<g id="node3" class="node">
<title>Node3</title>
<g id="a_node3"><a xlink:href="AIPlayer_8cpp.html" target="_top" xlink:title=" ">
<polygon fill="white" stroke="black" points="0,-56.5 0,-75.5 94,-75.5 94,-56.5 0,-56.5"/>
<text text-anchor="middle" x="47" y="-63.5" font-family="Helvetica,sans-Serif" font-size="10.00">src/AIPlayer.cpp</text>
</a>
</g>
</g>
<!-- Node2&#45;&gt;Node3 -->
<g id="edge2" class="edge">
<title>Node2&#45;&gt;Node3</title>
<path fill="none" stroke="midnightblue" d="M69.17,-103.27C63.53,-94.05 56.88,-83.17 52.35,-75.75"/>
<polygon fill="midnightblue" stroke="midnightblue" points="66.35,-105.38 74.55,-112.08 72.32,-101.73 66.35,-105.38"/>
</g>
<!-- Node4 -->
<g id="node4" class="node">
<title>Node4</title>
<g id="a_node4"><a xlink:href="MapContainer_8cpp.html" target="_top" xlink:title=" ">
<polygon fill="white" stroke="black" points="88,-0.5 88,-19.5 210,-19.5 210,-0.5 88,-0.5"/>
<text text-anchor="middle" x="149" y="-7.5" font-family="Helvetica,sans-Serif" font-size="10.00">src/MapContainer.cpp</text>
</a>
</g>
</g>
<!-- Node2&#45;&gt;Node4 -->
<g id="edge3" class="edge">
<title>Node2&#45;&gt;Node4</title>
<path fill="none" stroke="midnightblue" d="M90.89,-103.64C105.88,-79.74 132.3,-37.63 143.61,-19.59"/>
<polygon fill="midnightblue" stroke="midnightblue" points="87.76,-102.04 85.41,-112.37 93.69,-105.76 87.76,-102.04"/>
</g>
<!-- Node7 -->
<g id="node7" class="node">
<title>Node7</title>
<g id="a_node7"><a xlink:href="Ghost_8cpp.html" target="_top" xlink:title=" ">
<polygon fill="white" stroke="black" points="150.5,-56.5 150.5,-75.5 233.5,-75.5 233.5,-56.5 150.5,-56.5"/>
<text text-anchor="middle" x="192" y="-63.5" font-family="Helvetica,sans-Serif" font-size="10.00">src/Ghost.cpp</text>
</a>
</g>
</g>
<!-- Node6&#45;&gt;Node7 -->
<g id="edge6" class="edge">
<title>Node6&#45;&gt;Node7</title>
<path fill="none" stroke="midnightblue" d="M252.17,-106.62C237.19,-96.76 217.8,-83.99 205.14,-75.65"/>
<polygon fill="midnightblue" stroke="midnightblue" points="250.55,-109.75 260.83,-112.32 254.4,-103.9 250.55,-109.75"/>
</g>
<!-- Node8 -->
<g id="node8" class="node">
<title>Node8</title>
<g id="a_node8"><a xlink:href="MapContainer_8h.html" target="_top" xlink:title=" ">
<polygon fill="white" stroke="black" points="252,-56.5 252,-75.5 362,-75.5 362,-56.5 252,-56.5"/>
<text text-anchor="middle" x="307" y="-63.5" font-family="Helvetica,sans-Serif" font-size="10.00">src/MapContainer.h</text>
</a>
</g>
</g>
<!-- Node6&#45;&gt;Node8 -->
<g id="edge7" class="edge">
<title>Node6&#45;&gt;Node8</title>
<path fill="none" stroke="midnightblue" d="M284.83,-103.27C290.47,-94.05 297.12,-83.17 301.65,-75.75"/>
<polygon fill="midnightblue" stroke="midnightblue" points="281.68,-101.73 279.45,-112.08 287.65,-105.38 281.68,-101.73"/>
</g>
<!-- Node8&#45;&gt;Node4 -->
<g id="edge9" class="edge">
<title>Node8&#45;&gt;Node4</title>
<path fill="none" stroke="midnightblue" d="M272.39,-53.17C242.64,-43 200.45,-28.59 173.92,-19.52"/>
<polygon fill="midnightblue" stroke="midnightblue" points="271.37,-56.52 281.96,-56.44 273.63,-49.9 271.37,-56.52"/>
</g>
<!-- Node9 -->
<g id="node9" class="node">
<title>Node9</title>
<g id="a_node9"><a xlink:href="MainMenu_8cpp.html" target="_top" xlink:title=" ">
<polygon fill="white" stroke="black" points="254.5,-0.5 254.5,-19.5 359.5,-19.5 359.5,-0.5 254.5,-0.5"/>
<text text-anchor="middle" x="307" y="-7.5" font-family="Helvetica,sans-Serif" font-size="10.00">src/MainMenu.cpp</text>
</a>
</g>
</g>
<!-- Node8&#45;&gt;Node9 -->
<g id="edge8" class="edge">
<title>Node8&#45;&gt;Node9</title>
<path fill="none" stroke="midnightblue" d="M307,-45.8C307,-36.91 307,-26.78 307,-19.75"/>
<polygon fill="midnightblue" stroke="midnightblue" points="303.5,-46.08 307,-56.08 310.5,-46.08 303.5,-46.08"/>
</g>
<!-- Node10&#45;&gt;Node8 -->
<g id="edge11" class="edge">
<title>Node10&#45;&gt;Node8</title>
<path fill="none" stroke="midnightblue" d="M347.38,-105.25C337.27,-95.67 324.72,-83.79 316.32,-75.83"/>
<polygon fill="midnightblue" stroke="midnightblue" points="345.18,-107.99 354.84,-112.32 349.99,-102.91 345.18,-107.99"/>
</g>
<!-- Node11 -->
<g id="node11" class="node">
<title>Node11</title>
<g id="a_node11"><a xlink:href="Player_8cpp.html" target="_top" xlink:title=" ">
<polygon fill="white" stroke="black" points="380,-56.5 380,-75.5 464,-75.5 464,-56.5 380,-56.5"/>
<text text-anchor="middle" x="422" y="-63.5" font-family="Helvetica,sans-Serif" font-size="10.00">src/Player.cpp</text>
</a>
</g>
</g>
<!-- Node10&#45;&gt;Node11 -->
<g id="edge12" class="edge">
<title>Node10&#45;&gt;Node11</title>
<path fill="none" stroke="midnightblue" d="M380.91,-105.25C391.2,-95.67 403.97,-83.79 412.51,-75.83"/>
<polygon fill="midnightblue" stroke="midnightblue" points="378.25,-102.95 373.32,-112.32 383.02,-108.07 378.25,-102.95"/>
</g>
</g>
</svg>
