<?xml version="1.0" encoding="UTF-8" standalone="no"?>
<!DOCTYPE svg PUBLIC "-//W3C//DTD SVG 1.1//EN"
 "http://www.w3.org/Graphics/SVG/1.1/DTD/svg11.dtd">
<!-- Generated by graphviz version 2.43.0 (0)
 -->
<!-- Title: src/GameSettingsMenu.cpp Pages: 1 -->
<svg width="478pt" height="196pt"
 viewBox="0.00 0.00 477.50 196.00" xmlns="http://www.w3.org/2000/svg" xmlns:xlink="http://www.w3.org/1999/xlink">
<g id="graph0" class="graph" transform="scale(1 1) rotate(0) translate(4 192)">
<title>src/GameSettingsMenu.cpp</title>
<polygon fill="white" stroke="transparent" points="-4,4 -4,-192 473.5,-192 473.5,4 -4,4"/>
<!-- Node1 -->
<g id="node1" class="node">
<title>Node1</title>
<g id="a_node1"><a xlink:title=" ">
<polygon fill="#bfbfbf" stroke="black" points="142,-168.5 142,-187.5 292,-187.5 292,-168.5 142,-168.5"/>
<text text-anchor="middle" x="217" y="-175.5" font-family="Helvetica,sans-Serif" font-size="10.00">src/GameSettingsMenu.cpp</text>
</a>
</g>
</g>
<!-- Node2 -->
<g id="node2" class="node">
<title>Node2</title>
<g id="a_node2"><a xlink:title=" ">
<polygon fill="white" stroke="#bfbfbf" points="0,-112.5 0,-131.5 60,-131.5 60,-112.5 0,-112.5"/>
<text text-anchor="middle" x="30" y="-119.5" font-family="Helvetica,sans-Serif" font-size="10.00">iostream</text>
</a>
</g>
</g>
<!-- Node1&#45;&gt;Node2 -->
<g id="edge1" class="edge">
<title>Node1&#45;&gt;Node2</title>
<path fill="none" stroke="midnightblue" d="M187.37,-168.44C155.5,-159.24 104.67,-144.56 69.44,-134.39"/>
<polygon fill="midnightblue" stroke="midnightblue" points="70.07,-130.93 59.49,-131.52 68.13,-137.65 70.07,-130.93"/>
</g>
<!-- Node3 -->
<g id="node3" class="node">
<title>Node3</title>
<g id="a_node3"><a xlink:title=" ">
<polygon fill="white" stroke="#bfbfbf" points="78.5,-112.5 78.5,-131.5 133.5,-131.5 133.5,-112.5 78.5,-112.5"/>
<text text-anchor="middle" x="106" y="-119.5" font-family="Helvetica,sans-Serif" font-size="10.00">fstream</text>
</a>
</g>
</g>
<!-- Node1&#45;&gt;Node3 -->
<g id="edge2" class="edge">
<title>Node1&#45;&gt;Node3</title>
<path fill="none" stroke="midnightblue" d="M199.17,-168.32C181.28,-159.62 153.52,-146.12 132.95,-136.11"/>
<polygon fill="midnightblue" stroke="midnightblue" points="134.31,-132.88 123.79,-131.65 131.25,-139.18 134.31,-132.88"/>
</g>
<!-- Node4 -->
<g id="node4" class="node">
<title>Node4</title>
<g id="a_node4"><a xlink:title=" ">
<polygon fill="white" stroke="#bfbfbf" points="152,-112.5 152,-131.5 220,-131.5 220,-112.5 152,-112.5"/>
<text text-anchor="middle" x="186" y="-119.5" font-family="Helvetica,sans-Serif" font-size="10.00">filesystem</text>
</a>
</g>
</g>
<!-- Node1&#45;&gt;Node4 -->
<g id="edge3" class="edge">
<title>Node1&#45;&gt;Node4</title>
<path fill="none" stroke="midnightblue" d="M211.88,-168.08C207.59,-160.61 201.34,-149.72 196.06,-140.52"/>
<polygon fill="midnightblue" stroke="midnightblue" points="199.04,-138.68 191.02,-131.75 192.97,-142.17 199.04,-138.68"/>
</g>
<!-- Node5 -->
<g id="node5" class="node">
<title>Node5</title>
<g id="a_node5"><a xlink:href="GameSettingsMenu_8h.html" target="_top" xlink:title=" ">
<polygon fill="white" stroke="black" points="276,-112.5 276,-131.5 398,-131.5 398,-112.5 276,-112.5"/>
<text text-anchor="middle" x="337" y="-119.5" font-family="Helvetica,sans-Serif" font-size="10.00">GameSettingsMenu.h</text>
</a>
</g>
</g>
<!-- Node1&#45;&gt;Node5 -->
<g id="edge4" class="edge">
<title>Node1&#45;&gt;Node5</title>
<path fill="none" stroke="midnightblue" d="M236.01,-168.44C255.59,-159.64 286.31,-145.81 308.73,-135.72"/>
<polygon fill="midnightblue" stroke="midnightblue" points="310.39,-138.81 318.07,-131.52 307.52,-132.43 310.39,-138.81"/>
</g>
<!-- Node9 -->
<g id="node9" class="node">
<title>Node9</title>
<g id="a_node9"><a xlink:href="UserInputMenu_8h.html" target="_top" xlink:title=" ">
<polygon fill="white" stroke="black" points="198,-56.5 198,-75.5 298,-75.5 298,-56.5 198,-56.5"/>
<text text-anchor="middle" x="248" y="-63.5" font-family="Helvetica,sans-Serif" font-size="10.00">UserInputMenu.h</text>
</a>
</g>
</g>
<!-- Node1&#45;&gt;Node9 -->
<g id="edge13" class="edge">
<title>Node1&#45;&gt;Node9</title>
<path fill="none" stroke="midnightblue" d="M219.43,-168.37C224.46,-150.54 236.08,-109.3 242.85,-85.27"/>
<polygon fill="midnightblue" stroke="midnightblue" points="246.23,-86.17 245.58,-75.59 239.5,-84.27 246.23,-86.17"/>
</g>
<!-- Node10 -->
<g id="node10" class="node">
<title>Node10</title>
<g id="a_node10"><a xlink:href="Block_8h.html" target="_top" xlink:title=" ">
<polygon fill="white" stroke="black" points="416.5,-112.5 416.5,-131.5 469.5,-131.5 469.5,-112.5 416.5,-112.5"/>
<text text-anchor="middle" x="443" y="-119.5" font-family="Helvetica,sans-Serif" font-size="10.00">Block.h</text>
</a>
</g>
</g>
<!-- Node1&#45;&gt;Node10 -->
<g id="edge14" class="edge">
<title>Node1&#45;&gt;Node10</title>
<path fill="none" stroke="midnightblue" d="M253.81,-168.42C290.09,-159.94 347.36,-146.46 406.4,-132.12"/>
<polygon fill="midnightblue" stroke="midnightblue" points="407.38,-135.49 416.27,-129.72 405.73,-128.68 407.38,-135.49"/>
</g>
<!-- Node6 -->
<g id="node6" class="node">
<title>Node6</title>
<g id="a_node6"><a xlink:title=" ">
<polygon fill="white" stroke="#bfbfbf" points="301,-0.5 301,-19.5 345,-19.5 345,-0.5 301,-0.5"/>
<text text-anchor="middle" x="323" y="-7.5" font-family="Helvetica,sans-Serif" font-size="10.00">string</text>
</a>
</g>
</g>
<!-- Node5&#45;&gt;Node6 -->
<g id="edge5" class="edge">
<title>Node5&#45;&gt;Node6</title>
<path fill="none" stroke="midnightblue" d="M335.9,-112.37C333.64,-94.62 328.43,-53.67 325.37,-29.6"/>
<polygon fill="midnightblue" stroke="midnightblue" points="328.83,-29.07 324.09,-19.59 321.88,-29.95 328.83,-29.07"/>
</g>
<!-- Node7 -->
<g id="node7" class="node">
<title>Node7</title>
<g id="a_node7"><a xlink:title=" ">
<polygon fill="white" stroke="#bfbfbf" points="363.5,-0.5 363.5,-19.5 410.5,-19.5 410.5,-0.5 363.5,-0.5"/>
<text text-anchor="middle" x="387" y="-7.5" font-family="Helvetica,sans-Serif" font-size="10.00">vector</text>
</a>
</g>
</g>
<!-- Node5&#45;&gt;Node7 -->
<g id="edge6" class="edge">
<title>Node5&#45;&gt;Node7</title>
<path fill="none" stroke="midnightblue" d="M371.18,-112.49C389.99,-105.88 411.74,-94.6 423,-76 433.05,-59.4 418.85,-39.85 405.43,-26.57"/>
<polygon fill="midnightblue" stroke="midnightblue" points="407.54,-23.74 397.81,-19.53 402.79,-28.89 407.54,-23.74"/>
</g>
<!-- Node8 -->
<g id="node8" class="node">
<title>Node8</title>
<g id="a_node8"><a xlink:href="Banner_8h.html" target="_top" xlink:title=" ">
<polygon fill="white" stroke="black" points="354.5,-56.5 354.5,-75.5 413.5,-75.5 413.5,-56.5 354.5,-56.5"/>
<text text-anchor="middle" x="384" y="-63.5" font-family="Helvetica,sans-Serif" font-size="10.00">Banner.h</text>
</a>
</g>
</g>
<!-- Node5&#45;&gt;Node8 -->
<g id="edge7" class="edge">
<title>Node5&#45;&gt;Node8</title>
<path fill="none" stroke="midnightblue" d="M344.76,-112.08C351.54,-104.3 361.54,-92.8 369.76,-83.37"/>
<polygon fill="midnightblue" stroke="midnightblue" points="372.46,-85.59 376.38,-75.75 367.18,-81 372.46,-85.59"/>
</g>
<!-- Node5&#45;&gt;Node9 -->
<g id="edge10" class="edge">
<title>Node5&#45;&gt;Node9</title>
<path fill="none" stroke="midnightblue" d="M322.7,-112.32C308.82,-103.9 287.51,-90.97 271.2,-81.07"/>
<polygon fill="midnightblue" stroke="midnightblue" points="272.63,-77.85 262.26,-75.65 269,-83.83 272.63,-77.85"/>
</g>
<!-- Node8&#45;&gt;Node6 -->
<g id="edge9" class="edge">
<title>Node8&#45;&gt;Node6</title>
<path fill="none" stroke="midnightblue" d="M374.2,-56.32C365.18,-48.34 351.59,-36.31 340.68,-26.65"/>
<polygon fill="midnightblue" stroke="midnightblue" points="342.79,-23.84 332.98,-19.83 338.15,-29.08 342.79,-23.84"/>
</g>
<!-- Node8&#45;&gt;Node7 -->
<g id="edge8" class="edge">
<title>Node8&#45;&gt;Node7</title>
<path fill="none" stroke="midnightblue" d="M384.5,-56.08C384.89,-49.01 385.45,-38.86 385.95,-29.99"/>
<polygon fill="midnightblue" stroke="midnightblue" points="389.45,-29.93 386.51,-19.75 382.46,-29.54 389.45,-29.93"/>
</g>
<!-- Node9&#45;&gt;Node6 -->
<g id="edge12" class="edge">
<title>Node9&#45;&gt;Node6</title>
<path fill="none" stroke="midnightblue" d="M260.05,-56.32C271.46,-48.11 288.83,-35.6 302.43,-25.81"/>
<polygon fill="midnightblue" stroke="midnightblue" points="304.66,-28.52 310.73,-19.83 300.57,-22.84 304.66,-28.52"/>
</g>
<!-- Node9&#45;&gt;Node7 -->
<g id="edge11" class="edge">
<title>Node9&#45;&gt;Node7</title>
<path fill="none" stroke="midnightblue" d="M270.02,-56.44C293.1,-47.48 329.56,-33.31 355.64,-23.18"/>
<polygon fill="midnightblue" stroke="midnightblue" points="357.02,-26.4 365.08,-19.52 354.49,-19.88 357.02,-26.4"/>
</g>
</g>
</svg>
