<?xml version="1.0" encoding="UTF-8" standalone="no"?>
<!DOCTYPE svg PUBLIC "-//W3C//DTD SVG 1.1//EN"
 "http://www.w3.org/Graphics/SVG/1.1/DTD/svg11.dtd">
<!-- Generated by graphviz version 2.43.0 (0)
 -->
<!-- Title: src/GameSettingsMenu.h Pages: 1 -->
<svg width="211pt" height="140pt"
 viewBox="0.00 0.00 211.39 140.00" xmlns="http://www.w3.org/2000/svg" xmlns:xlink="http://www.w3.org/1999/xlink">
<g id="graph0" class="graph" transform="scale(1 1) rotate(0) translate(4 136)">
<title>src/GameSettingsMenu.h</title>
<polygon fill="white" stroke="transparent" points="-4,4 -4,-136 207.39,-136 207.39,4 -4,4"/>
<!-- Node1 -->
<g id="node1" class="node">
<title>Node1</title>
<g id="a_node1"><a xlink:title=" ">
<polygon fill="#bfbfbf" stroke="black" points="22.07,-112.5 22.07,-131.5 161.07,-131.5 161.07,-112.5 22.07,-112.5"/>
<text text-anchor="middle" x="91.57" y="-119.5" font-family="Helvetica,sans-Serif" font-size="10.00">src/GameSettingsMenu.h</text>
</a>
</g>
</g>
<!-- Node2 -->
<g id="node2" class="node">
<title>Node2</title>
<g id="a_node2"><a xlink:title=" ">
<polygon fill="white" stroke="#bfbfbf" points="20.57,-0.5 20.57,-19.5 64.57,-19.5 64.57,-0.5 20.57,-0.5"/>
<text text-anchor="middle" x="42.57" y="-7.5" font-family="Helvetica,sans-Serif" font-size="10.00">string</text>
</a>
</g>
</g>
<!-- Node1&#45;&gt;Node2 -->
<g id="edge1" class="edge">
<title>Node1&#45;&gt;Node2</title>
<path fill="none" stroke="midnightblue" d="M55.72,-112.4C36.69,-105.81 14.95,-94.59 3.57,-76 -6.8,-59.05 8.64,-39.47 23.05,-26.27"/>
<polygon fill="midnightblue" stroke="midnightblue" points="25.46,-28.81 30.77,-19.65 20.9,-23.5 25.46,-28.81"/>
</g>
<!-- Node3 -->
<g id="node3" class="node">
<title>Node3</title>
<g id="a_node3"><a xlink:title=" ">
<polygon fill="white" stroke="#bfbfbf" points="117.07,-0.5 117.07,-19.5 164.07,-19.5 164.07,-0.5 117.07,-0.5"/>
<text text-anchor="middle" x="140.57" y="-7.5" font-family="Helvetica,sans-Serif" font-size="10.00">vector</text>
</a>
</g>
</g>
<!-- Node1&#45;&gt;Node3 -->
<g id="edge2" class="edge">
<title>Node1&#45;&gt;Node3</title>
<path fill="none" stroke="midnightblue" d="M143.1,-112.44C164.31,-106.1 186.84,-95.1 199.57,-76 212.59,-56.47 188.6,-36.92 167.41,-24.43"/>
<polygon fill="midnightblue" stroke="midnightblue" points="169.06,-21.34 158.62,-19.54 165.65,-27.46 169.06,-21.34"/>
</g>
<!-- Node4 -->
<g id="node4" class="node">
<title>Node4</title>
<g id="a_node4"><a xlink:href="Banner_8h.html" target="_top" xlink:title=" ">
<polygon fill="white" stroke="black" points="13.07,-56.5 13.07,-75.5 72.07,-75.5 72.07,-56.5 13.07,-56.5"/>
<text text-anchor="middle" x="42.57" y="-63.5" font-family="Helvetica,sans-Serif" font-size="10.00">Banner.h</text>
</a>
</g>
</g>
<!-- Node1&#45;&gt;Node4 -->
<g id="edge3" class="edge">
<title>Node1&#45;&gt;Node4</title>
<path fill="none" stroke="midnightblue" d="M83.48,-112.08C76.42,-104.3 65.99,-92.8 57.42,-83.37"/>
<polygon fill="midnightblue" stroke="midnightblue" points="59.83,-80.8 50.51,-75.75 54.64,-85.51 59.83,-80.8"/>
</g>
<!-- Node5 -->
<g id="node5" class="node">
<title>Node5</title>
<g id="a_node5"><a xlink:href="UserInputMenu_8h.html" target="_top" xlink:title=" ">
<polygon fill="white" stroke="black" points="90.57,-56.5 90.57,-75.5 190.57,-75.5 190.57,-56.5 90.57,-56.5"/>
<text text-anchor="middle" x="140.57" y="-63.5" font-family="Helvetica,sans-Serif" font-size="10.00">UserInputMenu.h</text>
</a>
</g>
</g>
<!-- Node1&#45;&gt;Node5 -->
<g id="edge6" class="edge">
<title>Node1&#45;&gt;Node5</title>
<path fill="none" stroke="midnightblue" d="M99.66,-112.08C106.73,-104.3 117.16,-92.8 125.72,-83.37"/>
<polygon fill="midnightblue" stroke="midnightblue" points="128.5,-85.51 132.63,-75.75 123.32,-80.8 128.5,-85.51"/>
</g>
<!-- Node4&#45;&gt;Node2 -->
<g id="edge5" class="edge">
<title>Node4&#45;&gt;Node2</title>
<path fill="none" stroke="midnightblue" d="M42.57,-56.08C42.57,-49.01 42.57,-38.86 42.57,-29.99"/>
<polygon fill="midnightblue" stroke="midnightblue" points="46.07,-29.75 42.57,-19.75 39.07,-29.75 46.07,-29.75"/>
</g>
<!-- Node4&#45;&gt;Node3 -->
<g id="edge4" class="edge">
<title>Node4&#45;&gt;Node3</title>
<path fill="none" stroke="midnightblue" d="M58.32,-56.32C73.89,-47.74 97.95,-34.49 116.03,-24.52"/>
<polygon fill="midnightblue" stroke="midnightblue" points="117.8,-27.55 124.87,-19.65 114.42,-21.42 117.8,-27.55"/>
</g>
<!-- Node5&#45;&gt;Node2 -->
<g id="edge8" class="edge">
<title>Node5&#45;&gt;Node2</title>
<path fill="none" stroke="midnightblue" d="M124.83,-56.32C109.25,-47.74 85.2,-34.49 67.11,-24.52"/>
<polygon fill="midnightblue" stroke="midnightblue" points="68.73,-21.42 58.28,-19.65 65.35,-27.55 68.73,-21.42"/>
</g>
<!-- Node5&#45;&gt;Node3 -->
<g id="edge7" class="edge">
<title>Node5&#45;&gt;Node3</title>
<path fill="none" stroke="midnightblue" d="M140.57,-56.08C140.57,-49.01 140.57,-38.86 140.57,-29.99"/>
<polygon fill="midnightblue" stroke="midnightblue" points="144.07,-29.75 140.57,-19.75 137.07,-29.75 144.07,-29.75"/>
</g>
</g>
</svg>
