<?xml version="1.0" encoding="UTF-8" standalone="no"?>
<!DOCTYPE svg PUBLIC "-//W3C//DTD SVG 1.1//EN"
 "http://www.w3.org/Graphics/SVG/1.1/DTD/svg11.dtd">
<!-- Generated by graphviz version 2.43.0 (0)
 -->
<!-- Title: src/Ghost.cpp Pages: 1 -->
<svg width="246pt" height="308pt"
 viewBox="0.00 0.00 245.76 308.00" xmlns="http://www.w3.org/2000/svg" xmlns:xlink="http://www.w3.org/1999/xlink">
<g id="graph0" class="graph" transform="scale(1 1) rotate(0) translate(4 304)">
<title>src/Ghost.cpp</title>
<polygon fill="white" stroke="transparent" points="-4,4 -4,-304 241.76,-304 241.76,4 -4,4"/>
<!-- Node1 -->
<g id="node1" class="node">
<title>Node1</title>
<g id="a_node1"><a xlink:title=" ">
<polygon fill="#bfbfbf" stroke="black" points="18.52,-280.5 18.52,-299.5 101.52,-299.5 101.52,-280.5 18.52,-280.5"/>
<text text-anchor="middle" x="60.02" y="-287.5" font-family="Helvetica,sans-Serif" font-size="10.00">src/Ghost.cpp</text>
</a>
</g>
</g>
<!-- Node2 -->
<g id="node2" class="node">
<title>Node2</title>
<g id="a_node2"><a xlink:href="Ghost_8h.html" target="_top" xlink:title=" ">
<polygon fill="white" stroke="black" points="33.02,-224.5 33.02,-243.5 87.02,-243.5 87.02,-224.5 33.02,-224.5"/>
<text text-anchor="middle" x="60.02" y="-231.5" font-family="Helvetica,sans-Serif" font-size="10.00">Ghost.h</text>
</a>
</g>
</g>
<!-- Node1&#45;&gt;Node2 -->
<g id="edge1" class="edge">
<title>Node1&#45;&gt;Node2</title>
<path fill="none" stroke="midnightblue" d="M60.02,-280.08C60.02,-273.01 60.02,-262.86 60.02,-253.99"/>
<polygon fill="midnightblue" stroke="midnightblue" points="63.52,-253.75 60.02,-243.75 56.52,-253.75 63.52,-253.75"/>
</g>
<!-- Node3 -->
<g id="node3" class="node">
<title>Node3</title>
<g id="a_node3"><a xlink:title=" ">
<polygon fill="white" stroke="#bfbfbf" points="171.52,-56.5 171.52,-75.5 218.52,-75.5 218.52,-56.5 171.52,-56.5"/>
<text text-anchor="middle" x="195.02" y="-63.5" font-family="Helvetica,sans-Serif" font-size="10.00">vector</text>
</a>
</g>
</g>
<!-- Node2&#45;&gt;Node3 -->
<g id="edge2" class="edge">
<title>Node2&#45;&gt;Node3</title>
<path fill="none" stroke="midnightblue" d="M87.2,-224.84C108.68,-217.5 138.67,-205.22 161.02,-188 186.31,-168.51 195.42,-162.12 206.02,-132 211.42,-116.67 207.44,-98.34 202.83,-85.06"/>
<polygon fill="midnightblue" stroke="midnightblue" points="206.05,-83.69 199.16,-75.65 199.53,-86.24 206.05,-83.69"/>
</g>
<!-- Node4 -->
<g id="node4" class="node">
<title>Node4</title>
<g id="a_node4"><a xlink:title=" ">
<polygon fill="white" stroke="#bfbfbf" points="22.02,-0.5 22.02,-19.5 66.02,-19.5 66.02,-0.5 22.02,-0.5"/>
<text text-anchor="middle" x="44.02" y="-7.5" font-family="Helvetica,sans-Serif" font-size="10.00">string</text>
</a>
</g>
</g>
<!-- Node2&#45;&gt;Node4 -->
<g id="edge3" class="edge">
<title>Node2&#45;&gt;Node4</title>
<path fill="none" stroke="midnightblue" d="M55.62,-224.45C44,-201.32 12.61,-135.21 2.02,-76 0.46,-67.25 -1.24,-64.27 2.02,-56 6.53,-44.55 15.49,-34.29 23.98,-26.47"/>
<polygon fill="midnightblue" stroke="midnightblue" points="26.49,-28.93 31.81,-19.76 21.94,-23.61 26.49,-28.93"/>
</g>
<!-- Node5 -->
<g id="node5" class="node">
<title>Node5</title>
<g id="a_node5"><a xlink:href="Position_8h.html" target="_top" xlink:title=" ">
<polygon fill="white" stroke="black" points="11.52,-56.5 11.52,-75.5 76.52,-75.5 76.52,-56.5 11.52,-56.5"/>
<text text-anchor="middle" x="44.02" y="-63.5" font-family="Helvetica,sans-Serif" font-size="10.00">Position.h</text>
</a>
</g>
</g>
<!-- Node2&#45;&gt;Node5 -->
<g id="edge4" class="edge">
<title>Node2&#45;&gt;Node5</title>
<path fill="none" stroke="midnightblue" d="M59.16,-224.08C56.64,-197.95 49.25,-121.21 45.81,-85.58"/>
<polygon fill="midnightblue" stroke="midnightblue" points="49.29,-85.19 44.85,-75.57 42.32,-85.86 49.29,-85.19"/>
</g>
<!-- Node6 -->
<g id="node6" class="node">
<title>Node6</title>
<g id="a_node6"><a xlink:href="Entity_8h.html" target="_top" xlink:title=" ">
<polygon fill="white" stroke="black" points="98.52,-168.5 98.52,-187.5 151.52,-187.5 151.52,-168.5 98.52,-168.5"/>
<text text-anchor="middle" x="125.02" y="-175.5" font-family="Helvetica,sans-Serif" font-size="10.00">Entity.h</text>
</a>
</g>
</g>
<!-- Node2&#45;&gt;Node6 -->
<g id="edge6" class="edge">
<title>Node2&#45;&gt;Node6</title>
<path fill="none" stroke="midnightblue" d="M70.46,-224.32C80.17,-216.26 94.84,-204.08 106.52,-194.37"/>
<polygon fill="midnightblue" stroke="midnightblue" points="108.93,-196.92 114.39,-187.83 104.46,-191.53 108.93,-196.92"/>
</g>
<!-- Node5&#45;&gt;Node4 -->
<g id="edge5" class="edge">
<title>Node5&#45;&gt;Node4</title>
<path fill="none" stroke="midnightblue" d="M44.02,-56.08C44.02,-49.01 44.02,-38.86 44.02,-29.99"/>
<polygon fill="midnightblue" stroke="midnightblue" points="47.52,-29.75 44.02,-19.75 40.52,-29.75 47.52,-29.75"/>
</g>
<!-- Node6&#45;&gt;Node3 -->
<g id="edge7" class="edge">
<title>Node6&#45;&gt;Node3</title>
<path fill="none" stroke="midnightblue" d="M145.42,-168.42C160.19,-161.05 179.22,-148.92 189.02,-132 197.1,-118.06 198.05,-99.55 197.31,-85.85"/>
<polygon fill="midnightblue" stroke="midnightblue" points="200.77,-85.33 196.4,-75.68 193.8,-85.95 200.77,-85.33"/>
</g>
<!-- Node6&#45;&gt;Node4 -->
<g id="edge8" class="edge">
<title>Node6&#45;&gt;Node4</title>
<path fill="none" stroke="midnightblue" d="M149.95,-168.4C167.7,-161.15 190.98,-149.19 206.02,-132 229.18,-105.54 249.73,-83.66 228.02,-56 209.52,-32.43 124.13,-19.62 76.45,-14.19"/>
<polygon fill="midnightblue" stroke="midnightblue" points="76.65,-10.69 66.33,-13.08 75.89,-17.64 76.65,-10.69"/>
</g>
<!-- Node6&#45;&gt;Node5 -->
<g id="edge10" class="edge">
<title>Node6&#45;&gt;Node5</title>
<path fill="none" stroke="midnightblue" d="M118.67,-168.37C105.24,-150.14 73.79,-107.43 56.3,-83.68"/>
<polygon fill="midnightblue" stroke="midnightblue" points="59.1,-81.57 50.35,-75.59 53.46,-85.72 59.1,-81.57"/>
</g>
<!-- Node7 -->
<g id="node7" class="node">
<title>Node7</title>
<g id="a_node7"><a xlink:title=" ">
<polygon fill="white" stroke="#bfbfbf" points="95.02,-56.5 95.02,-75.5 153.02,-75.5 153.02,-56.5 95.02,-56.5"/>
<text text-anchor="middle" x="124.02" y="-63.5" font-family="Helvetica,sans-Serif" font-size="10.00">memory</text>
</a>
</g>
</g>
<!-- Node6&#45;&gt;Node7 -->
<g id="edge9" class="edge">
<title>Node6&#45;&gt;Node7</title>
<path fill="none" stroke="midnightblue" d="M123.03,-168.43C121.05,-159.42 118.15,-144.8 117.02,-132 115.65,-116.43 117.78,-98.81 120.04,-85.85"/>
<polygon fill="midnightblue" stroke="midnightblue" points="123.51,-86.3 121.97,-75.82 116.64,-84.98 123.51,-86.3"/>
</g>
<!-- Node8 -->
<g id="node8" class="node">
<title>Node8</title>
<g id="a_node8"><a xlink:href="Bomb_8h.html" target="_top" xlink:title=" ">
<polygon fill="white" stroke="black" points="126.02,-112.5 126.02,-131.5 180.02,-131.5 180.02,-112.5 126.02,-112.5"/>
<text text-anchor="middle" x="153.02" y="-119.5" font-family="Helvetica,sans-Serif" font-size="10.00">Bomb.h</text>
</a>
</g>
</g>
<!-- Node6&#45;&gt;Node8 -->
<g id="edge11" class="edge">
<title>Node6&#45;&gt;Node8</title>
<path fill="none" stroke="midnightblue" d="M129.64,-168.08C133.48,-160.69 139.05,-149.95 143.79,-140.81"/>
<polygon fill="midnightblue" stroke="midnightblue" points="146.99,-142.24 148.48,-131.75 140.77,-139.02 146.99,-142.24"/>
</g>
<!-- Node8&#45;&gt;Node3 -->
<g id="edge13" class="edge">
<title>Node8&#45;&gt;Node3</title>
<path fill="none" stroke="midnightblue" d="M159.96,-112.08C165.95,-104.38 174.77,-93.03 182.07,-83.65"/>
<polygon fill="midnightblue" stroke="midnightblue" points="184.84,-85.79 188.21,-75.75 179.31,-81.5 184.84,-85.79"/>
</g>
<!-- Node8&#45;&gt;Node5 -->
<g id="edge14" class="edge">
<title>Node8&#45;&gt;Node5</title>
<path fill="none" stroke="midnightblue" d="M135.51,-112.32C117.95,-103.62 90.69,-90.12 70.49,-80.11"/>
<polygon fill="midnightblue" stroke="midnightblue" points="72,-76.96 61.49,-75.65 68.9,-83.23 72,-76.96"/>
</g>
<!-- Node8&#45;&gt;Node7 -->
<g id="edge12" class="edge">
<title>Node8&#45;&gt;Node7</title>
<path fill="none" stroke="midnightblue" d="M148.23,-112.08C144.26,-104.69 138.5,-93.95 133.59,-84.81"/>
<polygon fill="midnightblue" stroke="midnightblue" points="136.54,-82.91 128.72,-75.75 130.37,-86.22 136.54,-82.91"/>
</g>
</g>
</svg>
