<?xml version="1.0" encoding="UTF-8" standalone="no"?>
<!DOCTYPE svg PUBLIC "-//W3C//DTD SVG 1.1//EN"
 "http://www.w3.org/Graphics/SVG/1.1/DTD/svg11.dtd">
<!-- Generated by graphviz version 2.43.0 (0)
 -->
<!-- Title: Graphical Class Hierarchy Pages: 1 -->
<svg width="160pt" height="104pt"
 viewBox="0.00 0.00 160.00 104.00" xmlns="http://www.w3.org/2000/svg" xmlns:xlink="http://www.w3.org/1999/xlink">
<g id="graph0" class="graph" transform="scale(1 1) rotate(0) translate(4 100)">
<title>Graphical Class Hierarchy</title>
<polygon fill="white" stroke="transparent" points="-4,4 -4,-100 156,-100 156,4 -4,4"/>
<!-- Node0 -->
<g id="node1" class="node">
<title>Node0</title>
<g id="a_node1"><a xlink:href="classCEntity.html" target="_top" xlink:title="Polymorphic class representing players/ghosts.">
<polygon fill="white" stroke="black" points="0,-38.5 0,-57.5 52,-57.5 52,-38.5 0,-38.5"/>
<text text-anchor="middle" x="26" y="-45.5" font-family="Helvetica,sans-Serif" font-size="10.00">CEntity</text>
</a>
</g>
</g>
<!-- Node1 -->
<g id="node2" class="node">
<title>Node1</title>
<g id="a_node2"><a xlink:href="classCAIPlayer.html" target="_top" xlink:title="Class representing AI player.">
<polygon fill="white" stroke="black" points="88,-76.5 88,-95.5 152,-95.5 152,-76.5 88,-76.5"/>
<text text-anchor="middle" x="120" y="-83.5" font-family="Helvetica,sans-Serif" font-size="10.00">CAIPlayer</text>
</a>
</g>
</g>
<!-- Node0&#45;&gt;Node1 -->
<g id="edge1" class="edge">
<title>Node0&#45;&gt;Node1</title>
<path fill="none" stroke="midnightblue" d="M59.47,-61.41C71.46,-66.36 84.79,-71.87 95.79,-76.41"/>
<polygon fill="midnightblue" stroke="midnightblue" points="60.79,-58.17 50.22,-57.59 58.12,-64.64 60.79,-58.17"/>
</g>
<!-- Node2 -->
<g id="node3" class="node">
<title>Node2</title>
<g id="a_node3"><a xlink:href="classCGhost.html" target="_top" xlink:title="Represents ghosts.">
<polygon fill="white" stroke="black" points="94,-38.5 94,-57.5 146,-57.5 146,-38.5 94,-38.5"/>
<text text-anchor="middle" x="120" y="-45.5" font-family="Helvetica,sans-Serif" font-size="10.00">CGhost</text>
</a>
</g>
</g>
<!-- Node0&#45;&gt;Node2 -->
<g id="edge2" class="edge">
<title>Node0&#45;&gt;Node2</title>
<path fill="none" stroke="midnightblue" d="M62.31,-48C72.84,-48 84.16,-48 93.89,-48"/>
<polygon fill="midnightblue" stroke="midnightblue" points="62.14,-44.5 52.14,-48 62.14,-51.5 62.14,-44.5"/>
</g>
<!-- Node3 -->
<g id="node4" class="node">
<title>Node3</title>
<g id="a_node4"><a xlink:href="classCPlayer.html" target="_top" xlink:title="Represents Players.">
<polygon fill="white" stroke="black" points="93,-0.5 93,-19.5 147,-19.5 147,-0.5 93,-0.5"/>
<text text-anchor="middle" x="120" y="-7.5" font-family="Helvetica,sans-Serif" font-size="10.00">CPlayer</text>
</a>
</g>
</g>
<!-- Node0&#45;&gt;Node3 -->
<g id="edge3" class="edge">
<title>Node0&#45;&gt;Node3</title>
<path fill="none" stroke="midnightblue" d="M59.47,-34.59C71.46,-29.64 84.79,-24.13 95.79,-19.59"/>
<polygon fill="midnightblue" stroke="midnightblue" points="58.12,-31.36 50.22,-38.41 60.79,-37.83 58.12,-31.36"/>
</g>
</g>
</svg>
