<?xml version="1.0" encoding="UTF-8" standalone="no"?>
<!DOCTYPE svg PUBLIC "-//W3C//DTD SVG 1.1//EN"
 "http://www.w3.org/Graphics/SVG/1.1/DTD/svg11.dtd">
<!-- Generated by graphviz version 2.43.0 (0)
 -->
<!-- Title: src/main.cpp Pages: 1 -->
<svg width="247pt" height="140pt"
 viewBox="0.00 0.00 246.50 140.00" xmlns="http://www.w3.org/2000/svg" xmlns:xlink="http://www.w3.org/1999/xlink">
<g id="graph0" class="graph" transform="scale(1 1) rotate(0) translate(4 136)">
<title>src/main.cpp</title>
<polygon fill="white" stroke="transparent" points="-4,4 -4,-136 242.5,-136 242.5,4 -4,4"/>
<!-- Node1 -->
<g id="node1" class="node">
<title>Node1</title>
<g id="a_node1"><a xlink:title=" ">
<polygon fill="#bfbfbf" stroke="black" points="71.5,-112.5 71.5,-131.5 150.5,-131.5 150.5,-112.5 71.5,-112.5"/>
<text text-anchor="middle" x="111" y="-119.5" font-family="Helvetica,sans-Serif" font-size="10.00">src/main.cpp</text>
</a>
</g>
</g>
<!-- Node2 -->
<g id="node2" class="node">
<title>Node2</title>
<g id="a_node2"><a xlink:title=" ">
<polygon fill="white" stroke="#bfbfbf" points="0,-56.5 0,-75.5 60,-75.5 60,-56.5 0,-56.5"/>
<text text-anchor="middle" x="30" y="-63.5" font-family="Helvetica,sans-Serif" font-size="10.00">iostream</text>
</a>
</g>
</g>
<!-- Node1&#45;&gt;Node2 -->
<g id="edge1" class="edge">
<title>Node1&#45;&gt;Node2</title>
<path fill="none" stroke="midnightblue" d="M97.99,-112.32C85.47,-103.98 66.32,-91.21 51.53,-81.35"/>
<polygon fill="midnightblue" stroke="midnightblue" points="53.24,-78.29 42.98,-75.65 49.36,-84.11 53.24,-78.29"/>
</g>
<!-- Node3 -->
<g id="node3" class="node">
<title>Node3</title>
<g id="a_node3"><a xlink:title=" ">
<polygon fill="white" stroke="#bfbfbf" points="78.5,-56.5 78.5,-75.5 143.5,-75.5 143.5,-56.5 78.5,-56.5"/>
<text text-anchor="middle" x="111" y="-63.5" font-family="Helvetica,sans-Serif" font-size="10.00">exception</text>
</a>
</g>
</g>
<!-- Node1&#45;&gt;Node3 -->
<g id="edge2" class="edge">
<title>Node1&#45;&gt;Node3</title>
<path fill="none" stroke="midnightblue" d="M111,-112.08C111,-105.01 111,-94.86 111,-85.99"/>
<polygon fill="midnightblue" stroke="midnightblue" points="114.5,-85.75 111,-75.75 107.5,-85.75 114.5,-85.75"/>
</g>
<!-- Node4 -->
<g id="node4" class="node">
<title>Node4</title>
<g id="a_node4"><a xlink:href="MainMenu_8h.html" target="_top" xlink:title=" ">
<polygon fill="white" stroke="black" points="161.5,-56.5 161.5,-75.5 238.5,-75.5 238.5,-56.5 161.5,-56.5"/>
<text text-anchor="middle" x="200" y="-63.5" font-family="Helvetica,sans-Serif" font-size="10.00">MainMenu.h</text>
</a>
</g>
</g>
<!-- Node1&#45;&gt;Node4 -->
<g id="edge3" class="edge">
<title>Node1&#45;&gt;Node4</title>
<path fill="none" stroke="midnightblue" d="M125.3,-112.32C139.18,-103.9 160.49,-90.97 176.8,-81.07"/>
<polygon fill="midnightblue" stroke="midnightblue" points="179,-83.83 185.74,-75.65 175.37,-77.85 179,-83.83"/>
</g>
<!-- Node5 -->
<g id="node5" class="node">
<title>Node5</title>
<g id="a_node5"><a xlink:title=" ">
<polygon fill="white" stroke="#bfbfbf" points="176.5,-0.5 176.5,-19.5 223.5,-19.5 223.5,-0.5 176.5,-0.5"/>
<text text-anchor="middle" x="200" y="-7.5" font-family="Helvetica,sans-Serif" font-size="10.00">vector</text>
</a>
</g>
</g>
<!-- Node4&#45;&gt;Node5 -->
<g id="edge4" class="edge">
<title>Node4&#45;&gt;Node5</title>
<path fill="none" stroke="midnightblue" d="M200,-56.08C200,-49.01 200,-38.86 200,-29.99"/>
<polygon fill="midnightblue" stroke="midnightblue" points="203.5,-29.75 200,-19.75 196.5,-29.75 203.5,-29.75"/>
</g>
</g>
</svg>
