<?xml version="1.0" encoding="UTF-8" standalone="no"?>
<!DOCTYPE svg PUBLIC "-//W3C//DTD SVG 1.1//EN"
 "http://www.w3.org/Graphics/SVG/1.1/DTD/svg11.dtd">
<!-- Generated by graphviz version 2.43.0 (0)
 -->
<!-- Title: src/MainMenu.cpp Pages: 1 -->
<svg width="966pt" height="364pt"
 viewBox="0.00 0.00 965.50 364.00" xmlns="http://www.w3.org/2000/svg" xmlns:xlink="http://www.w3.org/1999/xlink">
<g id="graph0" class="graph" transform="scale(1 1) rotate(0) translate(4 360)">
<title>src/MainMenu.cpp</title>
<polygon fill="white" stroke="transparent" points="-4,4 -4,-360 961.5,-360 961.5,4 -4,4"/>
<!-- Node1 -->
<g id="node1" class="node">
<title>Node1</title>
<g id="a_node1"><a xlink:title=" ">
<polygon fill="#bfbfbf" stroke="black" points="448,-336.5 448,-355.5 553,-355.5 553,-336.5 448,-336.5"/>
<text text-anchor="middle" x="500.5" y="-343.5" font-family="Helvetica,sans-Serif" font-size="10.00">src/MainMenu.cpp</text>
</a>
</g>
</g>
<!-- Node2 -->
<g id="node2" class="node">
<title>Node2</title>
<g id="a_node2"><a xlink:title=" ">
<polygon fill="white" stroke="#bfbfbf" points="91.5,-280.5 91.5,-299.5 151.5,-299.5 151.5,-280.5 91.5,-280.5"/>
<text text-anchor="middle" x="121.5" y="-287.5" font-family="Helvetica,sans-Serif" font-size="10.00">iostream</text>
</a>
</g>
</g>
<!-- Node1&#45;&gt;Node2 -->
<g id="edge1" class="edge">
<title>Node1&#45;&gt;Node2</title>
<path fill="none" stroke="midnightblue" d="M447.84,-339.6C382.83,-332.59 268.74,-319.15 161.68,-300.07"/>
<polygon fill="midnightblue" stroke="midnightblue" points="162.14,-296.59 151.67,-298.26 160.9,-303.48 162.14,-296.59"/>
</g>
<!-- Node3 -->
<g id="node3" class="node">
<title>Node3</title>
<g id="a_node3"><a xlink:title=" ">
<polygon fill="white" stroke="#bfbfbf" points="170,-280.5 170,-299.5 225,-299.5 225,-280.5 170,-280.5"/>
<text text-anchor="middle" x="197.5" y="-287.5" font-family="Helvetica,sans-Serif" font-size="10.00">fstream</text>
</a>
</g>
</g>
<!-- Node1&#45;&gt;Node3 -->
<g id="edge2" class="edge">
<title>Node1&#45;&gt;Node3</title>
<path fill="none" stroke="midnightblue" d="M447.8,-337.22C396.2,-329.34 315.12,-316.29 235.53,-300.09"/>
<polygon fill="midnightblue" stroke="midnightblue" points="235.83,-296.58 225.33,-297.99 234.42,-303.44 235.83,-296.58"/>
</g>
<!-- Node4 -->
<g id="node4" class="node">
<title>Node4</title>
<g id="a_node4"><a xlink:title=" ">
<polygon fill="white" stroke="#bfbfbf" points="243.5,-280.5 243.5,-299.5 299.5,-299.5 299.5,-280.5 243.5,-280.5"/>
<text text-anchor="middle" x="271.5" y="-287.5" font-family="Helvetica,sans-Serif" font-size="10.00">iomanip</text>
</a>
</g>
</g>
<!-- Node1&#45;&gt;Node4 -->
<g id="edge3" class="edge">
<title>Node1&#45;&gt;Node4</title>
<path fill="none" stroke="midnightblue" d="M463.67,-336.46C427.04,-327.95 368.98,-314.41 309.69,-300.27"/>
<polygon fill="midnightblue" stroke="midnightblue" points="310.32,-296.82 299.78,-297.9 308.69,-303.63 310.32,-296.82"/>
</g>
<!-- Node5 -->
<g id="node5" class="node">
<title>Node5</title>
<g id="a_node5"><a xlink:title=" ">
<polygon fill="white" stroke="#bfbfbf" points="317.5,-280.5 317.5,-299.5 355.5,-299.5 355.5,-280.5 317.5,-280.5"/>
<text text-anchor="middle" x="336.5" y="-287.5" font-family="Helvetica,sans-Serif" font-size="10.00">map</text>
</a>
</g>
</g>
<!-- Node1&#45;&gt;Node5 -->
<g id="edge4" class="edge">
<title>Node1&#45;&gt;Node5</title>
<path fill="none" stroke="midnightblue" d="M474.51,-336.44C444.81,-326.66 396.34,-310.7 365.45,-300.53"/>
<polygon fill="midnightblue" stroke="midnightblue" points="366.3,-297.13 355.7,-297.32 364.11,-303.77 366.3,-297.13"/>
</g>
<!-- Node6 -->
<g id="node6" class="node">
<title>Node6</title>
<g id="a_node6"><a xlink:title=" ">
<polygon fill="white" stroke="#bfbfbf" points="373.5,-280.5 373.5,-299.5 423.5,-299.5 423.5,-280.5 373.5,-280.5"/>
<text text-anchor="middle" x="398.5" y="-287.5" font-family="Helvetica,sans-Serif" font-size="10.00">chrono</text>
</a>
</g>
</g>
<!-- Node1&#45;&gt;Node6 -->
<g id="edge5" class="edge">
<title>Node1&#45;&gt;Node6</title>
<path fill="none" stroke="midnightblue" d="M484.11,-336.32C467.83,-327.7 442.63,-314.36 423.78,-304.39"/>
<polygon fill="midnightblue" stroke="midnightblue" points="425.32,-301.24 414.85,-299.65 422.05,-307.43 425.32,-301.24"/>
</g>
<!-- Node7 -->
<g id="node7" class="node">
<title>Node7</title>
<g id="a_node7"><a xlink:title=" ">
<polygon fill="white" stroke="#bfbfbf" points="441.5,-280.5 441.5,-299.5 489.5,-299.5 489.5,-280.5 441.5,-280.5"/>
<text text-anchor="middle" x="465.5" y="-287.5" font-family="Helvetica,sans-Serif" font-size="10.00">thread</text>
</a>
</g>
</g>
<!-- Node1&#45;&gt;Node7 -->
<g id="edge6" class="edge">
<title>Node1&#45;&gt;Node7</title>
<path fill="none" stroke="midnightblue" d="M494.72,-336.08C489.83,-328.53 482.67,-317.49 476.67,-308.23"/>
<polygon fill="midnightblue" stroke="midnightblue" points="479.55,-306.24 471.17,-299.75 473.67,-310.05 479.55,-306.24"/>
</g>
<!-- Node8 -->
<g id="node8" class="node">
<title>Node8</title>
<g id="a_node8"><a xlink:title=" ">
<polygon fill="white" stroke="#bfbfbf" points="508,-280.5 508,-299.5 565,-299.5 565,-280.5 508,-280.5"/>
<text text-anchor="middle" x="536.5" y="-287.5" font-family="Helvetica,sans-Serif" font-size="10.00">curses.h</text>
</a>
</g>
</g>
<!-- Node1&#45;&gt;Node8 -->
<g id="edge7" class="edge">
<title>Node1&#45;&gt;Node8</title>
<path fill="none" stroke="midnightblue" d="M506.44,-336.08C511.48,-328.53 518.84,-317.49 525.01,-308.23"/>
<polygon fill="midnightblue" stroke="midnightblue" points="528.03,-310.01 530.67,-299.75 522.21,-306.13 528.03,-310.01"/>
</g>
<!-- Node9 -->
<g id="node9" class="node">
<title>Node9</title>
<g id="a_node9"><a xlink:href="Banner_8h.html" target="_top" xlink:title=" ">
<polygon fill="white" stroke="black" points="742,-112.5 742,-131.5 801,-131.5 801,-112.5 742,-112.5"/>
<text text-anchor="middle" x="771.5" y="-119.5" font-family="Helvetica,sans-Serif" font-size="10.00">Banner.h</text>
</a>
</g>
</g>
<!-- Node1&#45;&gt;Node9 -->
<g id="edge8" class="edge">
<title>Node1&#45;&gt;Node9</title>
<path fill="none" stroke="midnightblue" d="M553.3,-342.89C596.94,-339.02 659.05,-328.45 705.5,-300 732.97,-283.18 738.2,-273.33 751.5,-244 766.83,-210.18 770.56,-166.29 771.37,-141.74"/>
<polygon fill="midnightblue" stroke="midnightblue" points="774.87,-141.72 771.58,-131.65 767.88,-141.58 774.87,-141.72"/>
</g>
<!-- Node12 -->
<g id="node12" class="node">
<title>Node12</title>
<g id="a_node12"><a xlink:href="MainMenu_8h.html" target="_top" xlink:title=" ">
<polygon fill="white" stroke="black" points="666,-224.5 666,-243.5 743,-243.5 743,-224.5 666,-224.5"/>
<text text-anchor="middle" x="704.5" y="-231.5" font-family="Helvetica,sans-Serif" font-size="10.00">MainMenu.h</text>
</a>
</g>
</g>
<!-- Node1&#45;&gt;Node12 -->
<g id="edge11" class="edge">
<title>Node1&#45;&gt;Node12</title>
<path fill="none" stroke="midnightblue" d="M553.34,-337.96C600.77,-330.62 665.72,-317.71 684.5,-300 697.11,-288.11 701.83,-268.49 703.57,-253.91"/>
<polygon fill="midnightblue" stroke="midnightblue" points="707.09,-253.79 704.42,-243.54 700.11,-253.22 707.09,-253.79"/>
</g>
<!-- Node13 -->
<g id="node13" class="node">
<title>Node13</title>
<g id="a_node13"><a xlink:href="GameSettingsMenu_8h.html" target="_top" xlink:title=" ">
<polygon fill="white" stroke="black" points="783.5,-168.5 783.5,-187.5 905.5,-187.5 905.5,-168.5 783.5,-168.5"/>
<text text-anchor="middle" x="844.5" y="-175.5" font-family="Helvetica,sans-Serif" font-size="10.00">GameSettingsMenu.h</text>
</a>
</g>
</g>
<!-- Node1&#45;&gt;Node13 -->
<g id="edge13" class="edge">
<title>Node1&#45;&gt;Node13</title>
<path fill="none" stroke="midnightblue" d="M553.16,-342.43C625.18,-337.98 749.56,-326.59 785.5,-300 819.52,-274.84 834.93,-224.74 841.04,-197.57"/>
<polygon fill="midnightblue" stroke="midnightblue" points="844.47,-198.27 843.06,-187.77 837.61,-196.86 844.47,-198.27"/>
</g>
<!-- Node14 -->
<g id="node14" class="node">
<title>Node14</title>
<g id="a_node14"><a xlink:href="UserInputMenu_8h.html" target="_top" xlink:title=" ">
<polygon fill="white" stroke="black" points="857.5,-112.5 857.5,-131.5 957.5,-131.5 957.5,-112.5 857.5,-112.5"/>
<text text-anchor="middle" x="907.5" y="-119.5" font-family="Helvetica,sans-Serif" font-size="10.00">UserInputMenu.h</text>
</a>
</g>
</g>
<!-- Node1&#45;&gt;Node14 -->
<g id="edge20" class="edge">
<title>Node1&#45;&gt;Node14</title>
<path fill="none" stroke="midnightblue" d="M553.19,-341.59C629.62,-335.93 766.86,-322.9 810.5,-300 870.65,-268.43 889.67,-251.23 914.5,-188 920.33,-173.14 917.65,-155 914.04,-141.65"/>
<polygon fill="midnightblue" stroke="midnightblue" points="917.27,-140.27 910.96,-131.76 910.59,-142.35 917.27,-140.27"/>
</g>
<!-- Node15 -->
<g id="node15" class="node">
<title>Node15</title>
<g id="a_node15"><a xlink:href="MapContainer_8h.html" target="_top" xlink:title=" ">
<polygon fill="white" stroke="black" points="583,-280.5 583,-299.5 676,-299.5 676,-280.5 583,-280.5"/>
<text text-anchor="middle" x="629.5" y="-287.5" font-family="Helvetica,sans-Serif" font-size="10.00">MapContainer.h</text>
</a>
</g>
</g>
<!-- Node1&#45;&gt;Node15 -->
<g id="edge21" class="edge">
<title>Node1&#45;&gt;Node15</title>
<path fill="none" stroke="midnightblue" d="M520.94,-336.44C542.17,-327.56 575.6,-313.56 599.75,-303.45"/>
<polygon fill="midnightblue" stroke="midnightblue" points="601.28,-306.61 609.16,-299.52 598.58,-300.15 601.28,-306.61"/>
</g>
<!-- Node10 -->
<g id="node10" class="node">
<title>Node10</title>
<g id="a_node10"><a xlink:title=" ">
<polygon fill="white" stroke="#bfbfbf" points="576,-56.5 576,-75.5 623,-75.5 623,-56.5 576,-56.5"/>
<text text-anchor="middle" x="599.5" y="-63.5" font-family="Helvetica,sans-Serif" font-size="10.00">vector</text>
</a>
</g>
</g>
<!-- Node9&#45;&gt;Node10 -->
<g id="edge9" class="edge">
<title>Node9&#45;&gt;Node10</title>
<path fill="none" stroke="midnightblue" d="M744.25,-112.44C714.07,-102.97 665.42,-87.7 632.96,-77.5"/>
<polygon fill="midnightblue" stroke="midnightblue" points="633.62,-74.04 623.03,-74.39 631.53,-80.72 633.62,-74.04"/>
</g>
<!-- Node11 -->
<g id="node11" class="node">
<title>Node11</title>
<g id="a_node11"><a xlink:title=" ">
<polygon fill="white" stroke="#bfbfbf" points="501.5,-0.5 501.5,-19.5 545.5,-19.5 545.5,-0.5 501.5,-0.5"/>
<text text-anchor="middle" x="523.5" y="-7.5" font-family="Helvetica,sans-Serif" font-size="10.00">string</text>
</a>
</g>
</g>
<!-- Node9&#45;&gt;Node11 -->
<g id="edge10" class="edge">
<title>Node9&#45;&gt;Node11</title>
<path fill="none" stroke="midnightblue" d="M763.23,-112.49C749.28,-98.64 719.66,-71.23 689.5,-56 645.9,-33.99 590.24,-21.73 555.74,-15.75"/>
<polygon fill="midnightblue" stroke="midnightblue" points="556.18,-12.28 545.74,-14.1 555.04,-19.19 556.18,-12.28"/>
</g>
<!-- Node12&#45;&gt;Node10 -->
<g id="edge12" class="edge">
<title>Node12&#45;&gt;Node10</title>
<path fill="none" stroke="midnightblue" d="M698.85,-224.08C682.11,-197.61 632.52,-119.21 610.39,-84.21"/>
<polygon fill="midnightblue" stroke="midnightblue" points="613.22,-82.15 604.92,-75.57 607.31,-85.89 613.22,-82.15"/>
</g>
<!-- Node13&#45;&gt;Node9 -->
<g id="edge16" class="edge">
<title>Node13&#45;&gt;Node9</title>
<path fill="none" stroke="midnightblue" d="M832.77,-168.32C821.66,-160.11 804.76,-147.6 791.52,-137.81"/>
<polygon fill="midnightblue" stroke="midnightblue" points="793.56,-134.97 783.44,-131.83 789.4,-140.59 793.56,-134.97"/>
</g>
<!-- Node13&#45;&gt;Node10 -->
<g id="edge15" class="edge">
<title>Node13&#45;&gt;Node10</title>
<path fill="none" stroke="midnightblue" d="M821.56,-168.34C798.78,-159.62 762.95,-145.53 732.5,-132 694.64,-115.17 651.73,-93.76 625.13,-80.21"/>
<polygon fill="midnightblue" stroke="midnightblue" points="626.61,-77.04 616.11,-75.6 623.42,-83.27 626.61,-77.04"/>
</g>
<!-- Node13&#45;&gt;Node11 -->
<g id="edge14" class="edge">
<title>Node13&#45;&gt;Node11</title>
<path fill="none" stroke="midnightblue" d="M841.42,-168.11C836.42,-154.68 825.47,-129 809.5,-112 777.25,-77.66 763.05,-73.96 719.5,-56 664.36,-33.26 595.53,-20.83 555.83,-15.08"/>
<polygon fill="midnightblue" stroke="midnightblue" points="556.07,-11.58 545.68,-13.66 555.1,-18.51 556.07,-11.58"/>
</g>
<!-- Node13&#45;&gt;Node14 -->
<g id="edge17" class="edge">
<title>Node13&#45;&gt;Node14</title>
<path fill="none" stroke="midnightblue" d="M854.62,-168.32C864.03,-160.26 878.24,-148.08 889.57,-138.37"/>
<polygon fill="midnightblue" stroke="midnightblue" points="891.88,-141 897.19,-131.83 887.32,-135.68 891.88,-141"/>
</g>
<!-- Node14&#45;&gt;Node10 -->
<g id="edge18" class="edge">
<title>Node14&#45;&gt;Node10</title>
<path fill="none" stroke="midnightblue" d="M858.7,-112.44C795.72,-101.4 687.8,-82.48 633.22,-72.91"/>
<polygon fill="midnightblue" stroke="midnightblue" points="633.5,-69.41 623.04,-71.13 632.29,-76.3 633.5,-69.41"/>
</g>
<!-- Node14&#45;&gt;Node11 -->
<g id="edge19" class="edge">
<title>Node14&#45;&gt;Node11</title>
<path fill="none" stroke="midnightblue" d="M901.66,-112.05C891.67,-97.56 869.81,-69.25 843.5,-56 793.45,-30.8 626.69,-17.53 555.81,-12.91"/>
<polygon fill="midnightblue" stroke="midnightblue" points="555.89,-9.41 545.69,-12.27 555.44,-16.4 555.89,-9.41"/>
</g>
<!-- Node15&#45;&gt;Node10 -->
<g id="edge23" class="edge">
<title>Node15&#45;&gt;Node10</title>
<path fill="none" stroke="midnightblue" d="M628.32,-280.3C623.91,-247.63 608.27,-131.87 602.06,-85.96"/>
<polygon fill="midnightblue" stroke="midnightblue" points="605.51,-85.32 600.7,-75.88 598.57,-86.26 605.51,-85.32"/>
</g>
<!-- Node15&#45;&gt;Node11 -->
<g id="edge22" class="edge">
<title>Node15&#45;&gt;Node11</title>
<path fill="none" stroke="midnightblue" d="M632.69,-280.42C644.24,-247.82 680.64,-129.71 631.5,-56 614.76,-30.9 581.09,-19.77 555.77,-14.86"/>
<polygon fill="midnightblue" stroke="midnightblue" points="556.29,-11.4 545.84,-13.16 555.11,-18.3 556.29,-11.4"/>
</g>
<!-- Node16 -->
<g id="node16" class="node">
<title>Node16</title>
<g id="a_node16"><a xlink:href="Player_8h.html" target="_top" xlink:title=" ">
<polygon fill="white" stroke="black" points="261.5,-224.5 261.5,-243.5 317.5,-243.5 317.5,-224.5 261.5,-224.5"/>
<text text-anchor="middle" x="289.5" y="-231.5" font-family="Helvetica,sans-Serif" font-size="10.00">Player.h</text>
</a>
</g>
</g>
<!-- Node15&#45;&gt;Node16 -->
<g id="edge24" class="edge">
<title>Node15&#45;&gt;Node16</title>
<path fill="none" stroke="midnightblue" d="M582.75,-281.48C579.62,-280.98 576.51,-280.48 573.5,-280 485.51,-265.96 382.15,-249.62 327.63,-241.02"/>
<polygon fill="midnightblue" stroke="midnightblue" points="328.14,-237.55 317.72,-239.45 327.05,-244.47 328.14,-237.55"/>
</g>
<!-- Node20 -->
<g id="node20" class="node">
<title>Node20</title>
<g id="a_node20"><a xlink:href="Bomb_8h.html" target="_top" xlink:title=" ">
<polygon fill="white" stroke="black" points="327.5,-112.5 327.5,-131.5 381.5,-131.5 381.5,-112.5 327.5,-112.5"/>
<text text-anchor="middle" x="354.5" y="-119.5" font-family="Helvetica,sans-Serif" font-size="10.00">Bomb.h</text>
</a>
</g>
</g>
<!-- Node15&#45;&gt;Node20 -->
<g id="edge47" class="edge">
<title>Node15&#45;&gt;Node20</title>
<path fill="none" stroke="midnightblue" d="M586.52,-280.48C557.27,-273.5 518.43,-261.81 487.5,-244 437.68,-215.31 390.7,-165.27 368.27,-139.45"/>
<polygon fill="midnightblue" stroke="midnightblue" points="370.79,-137.02 361.63,-131.69 365.47,-141.57 370.79,-137.02"/>
</g>
<!-- Node22 -->
<g id="node22" class="node">
<title>Node22</title>
<g id="a_node22"><a xlink:href="Ghost_8h.html" target="_top" xlink:title=" ">
<polygon fill="white" stroke="black" points="496.5,-224.5 496.5,-243.5 550.5,-243.5 550.5,-224.5 496.5,-224.5"/>
<text text-anchor="middle" x="523.5" y="-231.5" font-family="Helvetica,sans-Serif" font-size="10.00">Ghost.h</text>
</a>
</g>
</g>
<!-- Node15&#45;&gt;Node22 -->
<g id="edge42" class="edge">
<title>Node15&#45;&gt;Node22</title>
<path fill="none" stroke="midnightblue" d="M612.47,-280.32C595.47,-271.66 569.12,-258.24 549.51,-248.25"/>
<polygon fill="midnightblue" stroke="midnightblue" points="550.99,-245.08 540.49,-243.65 547.81,-251.31 550.99,-245.08"/>
</g>
<!-- Node16&#45;&gt;Node10 -->
<g id="edge25" class="edge">
<title>Node16&#45;&gt;Node10</title>
<path fill="none" stroke="midnightblue" d="M305.73,-224.31C356.58,-197.08 513.05,-113.29 574.43,-80.43"/>
<polygon fill="midnightblue" stroke="midnightblue" points="576.27,-83.41 583.43,-75.61 572.96,-77.24 576.27,-83.41"/>
</g>
<!-- Node16&#45;&gt;Node11 -->
<g id="edge26" class="edge">
<title>Node16&#45;&gt;Node11</title>
<path fill="none" stroke="midnightblue" d="M276.03,-224.5C235.54,-197.93 120.79,-114.76 172.5,-56 193.42,-32.22 408.39,-17.55 491.21,-12.75"/>
<polygon fill="midnightblue" stroke="midnightblue" points="491.53,-16.23 501.31,-12.17 491.13,-9.25 491.53,-16.23"/>
</g>
<!-- Node17 -->
<g id="node17" class="node">
<title>Node17</title>
<g id="a_node17"><a xlink:title=" ">
<polygon fill="white" stroke="#bfbfbf" points="194.5,-56.5 194.5,-75.5 252.5,-75.5 252.5,-56.5 194.5,-56.5"/>
<text text-anchor="middle" x="223.5" y="-63.5" font-family="Helvetica,sans-Serif" font-size="10.00">memory</text>
</a>
</g>
</g>
<!-- Node16&#45;&gt;Node17 -->
<g id="edge27" class="edge">
<title>Node16&#45;&gt;Node17</title>
<path fill="none" stroke="midnightblue" d="M285.95,-224.08C275.52,-197.83 244.79,-120.55 230.7,-85.12"/>
<polygon fill="midnightblue" stroke="midnightblue" points="233.85,-83.57 226.91,-75.57 227.35,-86.15 233.85,-83.57"/>
</g>
<!-- Node18 -->
<g id="node18" class="node">
<title>Node18</title>
<g id="a_node18"><a xlink:href="Position_8h.html" target="_top" xlink:title=" ">
<polygon fill="white" stroke="black" points="322,-56.5 322,-75.5 387,-75.5 387,-56.5 322,-56.5"/>
<text text-anchor="middle" x="354.5" y="-63.5" font-family="Helvetica,sans-Serif" font-size="10.00">Position.h</text>
</a>
</g>
</g>
<!-- Node16&#45;&gt;Node18 -->
<g id="edge28" class="edge">
<title>Node16&#45;&gt;Node18</title>
<path fill="none" stroke="midnightblue" d="M286.27,-224.47C281.99,-211.94 275.51,-187.89 280.5,-168 289.3,-132.95 317.88,-100.83 336.84,-82.61"/>
<polygon fill="midnightblue" stroke="midnightblue" points="339.34,-85.06 344.29,-75.69 334.58,-79.93 339.34,-85.06"/>
</g>
<!-- Node19 -->
<g id="node19" class="node">
<title>Node19</title>
<g id="a_node19"><a xlink:href="Entity_8h.html" target="_top" xlink:title=" ">
<polygon fill="white" stroke="black" points="290,-168.5 290,-187.5 343,-187.5 343,-168.5 290,-168.5"/>
<text text-anchor="middle" x="316.5" y="-175.5" font-family="Helvetica,sans-Serif" font-size="10.00">Entity.h</text>
</a>
</g>
</g>
<!-- Node16&#45;&gt;Node19 -->
<g id="edge30" class="edge">
<title>Node16&#45;&gt;Node19</title>
<path fill="none" stroke="midnightblue" d="M293.96,-224.08C297.65,-216.69 303.02,-205.95 307.59,-196.81"/>
<polygon fill="midnightblue" stroke="midnightblue" points="310.78,-198.26 312.12,-187.75 304.52,-195.13 310.78,-198.26"/>
</g>
<!-- Node16&#45;&gt;Node20 -->
<g id="edge39" class="edge">
<title>Node16&#45;&gt;Node20</title>
<path fill="none" stroke="midnightblue" d="M309.5,-224.38C323.93,-216.99 342.41,-204.86 351.5,-188 359.12,-173.86 359.2,-155.38 357.77,-141.74"/>
<polygon fill="midnightblue" stroke="midnightblue" points="361.2,-141.03 356.34,-131.62 354.27,-142.01 361.2,-141.03"/>
</g>
<!-- Node21 -->
<g id="node21" class="node">
<title>Node21</title>
<g id="a_node21"><a xlink:href="PlayerStats_8h.html" target="_top" xlink:title=" ">
<polygon fill="white" stroke="black" points="0,-168.5 0,-187.5 81,-187.5 81,-168.5 0,-168.5"/>
<text text-anchor="middle" x="40.5" y="-175.5" font-family="Helvetica,sans-Serif" font-size="10.00">PlayerStats.h</text>
</a>
</g>
</g>
<!-- Node16&#45;&gt;Node21 -->
<g id="edge40" class="edge">
<title>Node16&#45;&gt;Node21</title>
<path fill="none" stroke="midnightblue" d="M261.42,-226.91C219.81,-217.89 141.16,-200.83 89.81,-189.69"/>
<polygon fill="midnightblue" stroke="midnightblue" points="90.43,-186.25 79.92,-187.55 88.95,-193.09 90.43,-186.25"/>
</g>
<!-- Node18&#45;&gt;Node11 -->
<g id="edge29" class="edge">
<title>Node18&#45;&gt;Node11</title>
<path fill="none" stroke="midnightblue" d="M381.28,-56.44C411.26,-46.86 459.81,-31.35 491.7,-21.16"/>
<polygon fill="midnightblue" stroke="midnightblue" points="492.96,-24.43 501.42,-18.05 490.83,-17.76 492.96,-24.43"/>
</g>
<!-- Node19&#45;&gt;Node10 -->
<g id="edge31" class="edge">
<title>Node19&#45;&gt;Node10</title>
<path fill="none" stroke="midnightblue" d="M329.66,-168.29C350.78,-154.63 393.89,-128.09 433.5,-112 477.87,-93.97 531.81,-80.87 565.91,-73.6"/>
<polygon fill="midnightblue" stroke="midnightblue" points="566.75,-77 575.82,-71.53 565.32,-70.14 566.75,-77"/>
</g>
<!-- Node19&#45;&gt;Node11 -->
<g id="edge32" class="edge">
<title>Node19&#45;&gt;Node11</title>
<path fill="none" stroke="midnightblue" d="M293.51,-168.43C246.07,-149.52 145.01,-102.23 185.5,-56 205.51,-33.14 410.77,-18.01 491.31,-12.91"/>
<polygon fill="midnightblue" stroke="midnightblue" points="491.62,-16.4 501.38,-12.28 491.18,-9.41 491.62,-16.4"/>
</g>
<!-- Node19&#45;&gt;Node17 -->
<g id="edge33" class="edge">
<title>Node19&#45;&gt;Node17</title>
<path fill="none" stroke="midnightblue" d="M309.2,-168.37C293.72,-150.05 257.36,-107.05 237.33,-83.36"/>
<polygon fill="midnightblue" stroke="midnightblue" points="239.89,-80.97 230.76,-75.59 234.55,-85.49 239.89,-80.97"/>
</g>
<!-- Node19&#45;&gt;Node18 -->
<g id="edge34" class="edge">
<title>Node19&#45;&gt;Node18</title>
<path fill="none" stroke="midnightblue" d="M315.07,-168.26C313.34,-155.46 311.48,-131.07 318.5,-112 322.54,-101.02 330.41,-90.67 337.76,-82.68"/>
<polygon fill="midnightblue" stroke="midnightblue" points="340.27,-85.12 344.78,-75.53 335.28,-80.21 340.27,-85.12"/>
</g>
<!-- Node19&#45;&gt;Node20 -->
<g id="edge35" class="edge">
<title>Node19&#45;&gt;Node20</title>
<path fill="none" stroke="midnightblue" d="M322.77,-168.08C328.14,-160.46 336.02,-149.26 342.58,-139.94"/>
<polygon fill="midnightblue" stroke="midnightblue" points="345.45,-141.94 348.34,-131.75 339.72,-137.91 345.45,-141.94"/>
</g>
<!-- Node20&#45;&gt;Node10 -->
<g id="edge37" class="edge">
<title>Node20&#45;&gt;Node10</title>
<path fill="none" stroke="midnightblue" d="M381.66,-115.01C426.79,-105.07 517.1,-85.16 566.07,-74.37"/>
<polygon fill="midnightblue" stroke="midnightblue" points="566.85,-77.78 575.86,-72.21 565.34,-70.94 566.85,-77.78"/>
</g>
<!-- Node20&#45;&gt;Node17 -->
<g id="edge36" class="edge">
<title>Node20&#45;&gt;Node17</title>
<path fill="none" stroke="midnightblue" d="M333.74,-112.44C312.18,-103.56 278.24,-89.56 253.71,-79.45"/>
<polygon fill="midnightblue" stroke="midnightblue" points="254.74,-76.09 244.16,-75.52 252.07,-82.56 254.74,-76.09"/>
</g>
<!-- Node20&#45;&gt;Node18 -->
<g id="edge38" class="edge">
<title>Node20&#45;&gt;Node18</title>
<path fill="none" stroke="midnightblue" d="M354.5,-112.08C354.5,-105.01 354.5,-94.86 354.5,-85.99"/>
<polygon fill="midnightblue" stroke="midnightblue" points="358,-85.75 354.5,-75.75 351,-85.75 358,-85.75"/>
</g>
<!-- Node21&#45;&gt;Node11 -->
<g id="edge41" class="edge">
<title>Node21&#45;&gt;Node11</title>
<path fill="none" stroke="midnightblue" d="M41.51,-168.47C44.71,-145.8 56.75,-83.93 95.5,-56 158.63,-10.5 402.42,-9.25 491.05,-10.37"/>
<polygon fill="midnightblue" stroke="midnightblue" points="491.26,-13.87 501.31,-10.51 491.36,-6.87 491.26,-13.87"/>
</g>
<!-- Node22&#45;&gt;Node10 -->
<g id="edge43" class="edge">
<title>Node22&#45;&gt;Node10</title>
<path fill="none" stroke="midnightblue" d="M527.59,-224.08C539.65,-197.72 575.29,-119.88 591.41,-84.66"/>
<polygon fill="midnightblue" stroke="midnightblue" points="594.6,-86.12 595.58,-75.57 588.23,-83.2 594.6,-86.12"/>
</g>
<!-- Node22&#45;&gt;Node11 -->
<g id="edge44" class="edge">
<title>Node22&#45;&gt;Node11</title>
<path fill="none" stroke="midnightblue" d="M523.5,-224.3C523.5,-191.63 523.5,-75.87 523.5,-29.96"/>
<polygon fill="midnightblue" stroke="midnightblue" points="527,-29.88 523.5,-19.88 520,-29.88 527,-29.88"/>
</g>
<!-- Node22&#45;&gt;Node18 -->
<g id="edge45" class="edge">
<title>Node22&#45;&gt;Node18</title>
<path fill="none" stroke="midnightblue" d="M514.41,-224.08C487.12,-197.27 405.6,-117.19 370.67,-82.89"/>
<polygon fill="midnightblue" stroke="midnightblue" points="372.81,-80.08 363.22,-75.57 367.9,-85.07 372.81,-80.08"/>
</g>
<!-- Node22&#45;&gt;Node19 -->
<g id="edge46" class="edge">
<title>Node22&#45;&gt;Node19</title>
<path fill="none" stroke="midnightblue" d="M496.44,-225.94C459.77,-216.37 394.16,-199.26 353.11,-188.55"/>
<polygon fill="midnightblue" stroke="midnightblue" points="353.8,-185.11 343.24,-185.98 352.03,-191.89 353.8,-185.11"/>
</g>
</g>
</svg>
