<?xml version="1.0" encoding="UTF-8" standalone="no"?>
<!DOCTYPE svg PUBLIC "-//W3C//DTD SVG 1.1//EN"
 "http://www.w3.org/Graphics/SVG/1.1/DTD/svg11.dtd">
<!-- Generated by graphviz version 2.43.0 (0)
 -->
<!-- Title: src/MapContainer.cpp Pages: 1 -->
<svg width="1049pt" height="364pt"
 viewBox="0.00 0.00 1048.50 364.00" xmlns="http://www.w3.org/2000/svg" xmlns:xlink="http://www.w3.org/1999/xlink">
<g id="graph0" class="graph" transform="scale(1 1) rotate(0) translate(4 360)">
<title>src/MapContainer.cpp</title>
<polygon fill="white" stroke="transparent" points="-4,4 -4,-360 1044.5,-360 1044.5,4 -4,4"/>
<!-- Node1 -->
<g id="node1" class="node">
<title>Node1</title>
<g id="a_node1"><a xlink:title=" ">
<polygon fill="#bfbfbf" stroke="black" points="531,-336.5 531,-355.5 653,-355.5 653,-336.5 531,-336.5"/>
<text text-anchor="middle" x="592" y="-343.5" font-family="Helvetica,sans-Serif" font-size="10.00">src/MapContainer.cpp</text>
</a>
</g>
</g>
<!-- Node2 -->
<g id="node2" class="node">
<title>Node2</title>
<g id="a_node2"><a xlink:title=" ">
<polygon fill="white" stroke="#bfbfbf" points="0,-280.5 0,-299.5 60,-299.5 60,-280.5 0,-280.5"/>
<text text-anchor="middle" x="30" y="-287.5" font-family="Helvetica,sans-Serif" font-size="10.00">iostream</text>
</a>
</g>
</g>
<!-- Node1&#45;&gt;Node2 -->
<g id="edge1" class="edge">
<title>Node1&#45;&gt;Node2</title>
<path fill="none" stroke="midnightblue" d="M530.87,-342.54C434.76,-338.05 242.37,-326.59 70.16,-299.97"/>
<polygon fill="midnightblue" stroke="midnightblue" points="70.57,-296.49 60.15,-298.4 69.49,-303.41 70.57,-296.49"/>
</g>
<!-- Node3 -->
<g id="node3" class="node">
<title>Node3</title>
<g id="a_node3"><a xlink:title=" ">
<polygon fill="white" stroke="#bfbfbf" points="78.5,-280.5 78.5,-299.5 123.5,-299.5 123.5,-280.5 78.5,-280.5"/>
<text text-anchor="middle" x="101" y="-287.5" font-family="Helvetica,sans-Serif" font-size="10.00">utility</text>
</a>
</g>
</g>
<!-- Node1&#45;&gt;Node3 -->
<g id="edge2" class="edge">
<title>Node1&#45;&gt;Node3</title>
<path fill="none" stroke="midnightblue" d="M530.69,-341.65C443.11,-336.25 277.37,-323.74 138,-300 136.53,-299.75 135.04,-299.47 133.53,-299.18"/>
<polygon fill="midnightblue" stroke="midnightblue" points="134.11,-295.72 123.59,-297.03 132.63,-302.56 134.11,-295.72"/>
</g>
<!-- Node4 -->
<g id="node4" class="node">
<title>Node4</title>
<g id="a_node4"><a xlink:title=" ">
<polygon fill="white" stroke="#bfbfbf" points="318.5,-56.5 318.5,-75.5 365.5,-75.5 365.5,-56.5 318.5,-56.5"/>
<text text-anchor="middle" x="342" y="-63.5" font-family="Helvetica,sans-Serif" font-size="10.00">vector</text>
</a>
</g>
</g>
<!-- Node1&#45;&gt;Node4 -->
<g id="edge3" class="edge">
<title>Node1&#45;&gt;Node4</title>
<path fill="none" stroke="midnightblue" d="M530.82,-342.42C409.92,-335.65 152,-312.17 152,-235 152,-235 152,-235 152,-177 152,-105.56 253.84,-79.77 308.4,-71.07"/>
<polygon fill="midnightblue" stroke="midnightblue" points="308.94,-74.53 318.32,-69.6 307.91,-67.61 308.94,-74.53"/>
</g>
<!-- Node5 -->
<g id="node5" class="node">
<title>Node5</title>
<g id="a_node5"><a xlink:title=" ">
<polygon fill="white" stroke="#bfbfbf" points="689,-56.5 689,-75.5 747,-75.5 747,-56.5 689,-56.5"/>
<text text-anchor="middle" x="718" y="-63.5" font-family="Helvetica,sans-Serif" font-size="10.00">memory</text>
</a>
</g>
</g>
<!-- Node1&#45;&gt;Node5 -->
<g id="edge4" class="edge">
<title>Node1&#45;&gt;Node5</title>
<path fill="none" stroke="midnightblue" d="M652.37,-336.45C729.21,-321.78 857.35,-283.5 902,-188 932.29,-123.2 820.04,-88.49 757.41,-74.5"/>
<polygon fill="midnightblue" stroke="midnightblue" points="757.96,-71.04 747.44,-72.35 756.48,-77.88 757.96,-71.04"/>
</g>
<!-- Node6 -->
<g id="node6" class="node">
<title>Node6</title>
<g id="a_node6"><a xlink:title=" ">
<polygon fill="white" stroke="#bfbfbf" points="447,-280.5 447,-299.5 511,-299.5 511,-280.5 447,-280.5"/>
<text text-anchor="middle" x="479" y="-287.5" font-family="Helvetica,sans-Serif" font-size="10.00">algorithm</text>
</a>
</g>
</g>
<!-- Node1&#45;&gt;Node6 -->
<g id="edge5" class="edge">
<title>Node1&#45;&gt;Node6</title>
<path fill="none" stroke="midnightblue" d="M574.09,-336.44C555.75,-327.68 526.99,-313.94 505.91,-303.86"/>
<polygon fill="midnightblue" stroke="midnightblue" points="507.35,-300.67 496.82,-299.52 504.33,-306.99 507.35,-300.67"/>
</g>
<!-- Node7 -->
<g id="node7" class="node">
<title>Node7</title>
<g id="a_node7"><a xlink:title=" ">
<polygon fill="white" stroke="#bfbfbf" points="529.5,-280.5 529.5,-299.5 584.5,-299.5 584.5,-280.5 529.5,-280.5"/>
<text text-anchor="middle" x="557" y="-287.5" font-family="Helvetica,sans-Serif" font-size="10.00">fstream</text>
</a>
</g>
</g>
<!-- Node1&#45;&gt;Node7 -->
<g id="edge6" class="edge">
<title>Node1&#45;&gt;Node7</title>
<path fill="none" stroke="midnightblue" d="M586.22,-336.08C581.33,-328.53 574.17,-317.49 568.17,-308.23"/>
<polygon fill="midnightblue" stroke="midnightblue" points="571.05,-306.24 562.67,-299.75 565.17,-310.05 571.05,-306.24"/>
</g>
<!-- Node8 -->
<g id="node8" class="node">
<title>Node8</title>
<g id="a_node8"><a xlink:title=" ">
<polygon fill="white" stroke="#bfbfbf" points="603,-280.5 603,-299.5 653,-299.5 653,-280.5 603,-280.5"/>
<text text-anchor="middle" x="628" y="-287.5" font-family="Helvetica,sans-Serif" font-size="10.00">chrono</text>
</a>
</g>
</g>
<!-- Node1&#45;&gt;Node8 -->
<g id="edge7" class="edge">
<title>Node1&#45;&gt;Node8</title>
<path fill="none" stroke="midnightblue" d="M597.94,-336.08C602.98,-328.53 610.34,-317.49 616.51,-308.23"/>
<polygon fill="midnightblue" stroke="midnightblue" points="619.53,-310.01 622.17,-299.75 613.71,-306.13 619.53,-310.01"/>
</g>
<!-- Node9 -->
<g id="node9" class="node">
<title>Node9</title>
<g id="a_node9"><a xlink:title=" ">
<polygon fill="white" stroke="#bfbfbf" points="671,-280.5 671,-299.5 719,-299.5 719,-280.5 671,-280.5"/>
<text text-anchor="middle" x="695" y="-287.5" font-family="Helvetica,sans-Serif" font-size="10.00">thread</text>
</a>
</g>
</g>
<!-- Node1&#45;&gt;Node9 -->
<g id="edge8" class="edge">
<title>Node1&#45;&gt;Node9</title>
<path fill="none" stroke="midnightblue" d="M608.55,-336.32C624.99,-327.7 650.43,-314.36 669.47,-304.39"/>
<polygon fill="midnightblue" stroke="midnightblue" points="671.26,-307.4 678.49,-299.65 668.01,-301.2 671.26,-307.4"/>
</g>
<!-- Node10 -->
<g id="node10" class="node">
<title>Node10</title>
<g id="a_node10"><a xlink:href="MapContainer_8h.html" target="_top" xlink:title=" ">
<polygon fill="white" stroke="black" points="335.5,-280.5 335.5,-299.5 428.5,-299.5 428.5,-280.5 335.5,-280.5"/>
<text text-anchor="middle" x="382" y="-287.5" font-family="Helvetica,sans-Serif" font-size="10.00">MapContainer.h</text>
</a>
</g>
</g>
<!-- Node1&#45;&gt;Node10 -->
<g id="edge9" class="edge">
<title>Node1&#45;&gt;Node10</title>
<path fill="none" stroke="midnightblue" d="M558.72,-336.44C522.55,-327.14 464.62,-312.25 425.02,-302.06"/>
<polygon fill="midnightblue" stroke="midnightblue" points="425.68,-298.62 415.12,-299.52 423.93,-305.4 425.68,-298.62"/>
</g>
<!-- Node16 -->
<g id="node16" class="node">
<title>Node16</title>
<g id="a_node16"><a xlink:href="PlayerStats_8h.html" target="_top" xlink:title=" ">
<polygon fill="white" stroke="black" points="746.5,-168.5 746.5,-187.5 827.5,-187.5 827.5,-168.5 746.5,-168.5"/>
<text text-anchor="middle" x="787" y="-175.5" font-family="Helvetica,sans-Serif" font-size="10.00">PlayerStats.h</text>
</a>
</g>
</g>
<!-- Node1&#45;&gt;Node16 -->
<g id="edge36" class="edge">
<title>Node1&#45;&gt;Node16</title>
<path fill="none" stroke="midnightblue" d="M653.33,-340.21C684.55,-334.81 721.07,-323.5 746,-300 774.82,-272.83 783.38,-224.69 785.93,-198.05"/>
<polygon fill="midnightblue" stroke="midnightblue" points="789.44,-198.02 786.71,-187.78 782.46,-197.49 789.44,-198.02"/>
</g>
<!-- Node18 -->
<g id="node18" class="node">
<title>Node18</title>
<g id="a_node18"><a xlink:href="AIPlayer_8h.html" target="_top" xlink:title=" ">
<polygon fill="white" stroke="black" points="692.5,-224.5 692.5,-243.5 757.5,-243.5 757.5,-224.5 692.5,-224.5"/>
<text text-anchor="middle" x="725" y="-231.5" font-family="Helvetica,sans-Serif" font-size="10.00">AIPlayer.h</text>
</a>
</g>
</g>
<!-- Node1&#45;&gt;Node18 -->
<g id="edge37" class="edge">
<title>Node1&#45;&gt;Node18</title>
<path fill="none" stroke="midnightblue" d="M653.32,-340.54C680.83,-335.11 710.89,-323.69 728,-300 737.7,-286.57 735.3,-267.2 731.49,-253.1"/>
<polygon fill="midnightblue" stroke="midnightblue" points="734.81,-252.02 728.47,-243.53 728.14,-254.12 734.81,-252.02"/>
</g>
<!-- Node20 -->
<g id="node20" class="node">
<title>Node20</title>
<g id="a_node20"><a xlink:href="Block_8h.html" target="_top" xlink:title=" ">
<polygon fill="white" stroke="black" points="987.5,-280.5 987.5,-299.5 1040.5,-299.5 1040.5,-280.5 987.5,-280.5"/>
<text text-anchor="middle" x="1014" y="-287.5" font-family="Helvetica,sans-Serif" font-size="10.00">Block.h</text>
</a>
</g>
</g>
<!-- Node1&#45;&gt;Node20 -->
<g id="edge43" class="edge">
<title>Node1&#45;&gt;Node20</title>
<path fill="none" stroke="midnightblue" d="M653.3,-339.64C728.81,-332.6 860.85,-318.89 973,-300 974.29,-299.78 975.61,-299.55 976.93,-299.31"/>
<polygon fill="midnightblue" stroke="midnightblue" points="978.04,-302.66 987.17,-297.29 976.68,-295.79 978.04,-302.66"/>
</g>
<!-- Node10&#45;&gt;Node4 -->
<g id="edge11" class="edge">
<title>Node10&#45;&gt;Node4</title>
<path fill="none" stroke="midnightblue" d="M349.01,-280.44C330.54,-273.77 309.05,-262.45 298,-244 266.61,-191.58 307.54,-117.63 329.6,-84.38"/>
<polygon fill="midnightblue" stroke="midnightblue" points="332.72,-86.01 335.49,-75.78 326.95,-82.05 332.72,-86.01"/>
</g>
<!-- Node11 -->
<g id="node11" class="node">
<title>Node11</title>
<g id="a_node11"><a xlink:title=" ">
<polygon fill="white" stroke="#bfbfbf" points="551,-0.5 551,-19.5 595,-19.5 595,-0.5 551,-0.5"/>
<text text-anchor="middle" x="573" y="-7.5" font-family="Helvetica,sans-Serif" font-size="10.00">string</text>
</a>
</g>
</g>
<!-- Node10&#45;&gt;Node11 -->
<g id="edge10" class="edge">
<title>Node10&#45;&gt;Node11</title>
<path fill="none" stroke="midnightblue" d="M428.73,-281.31C431.86,-280.85 434.97,-280.41 438,-280 542.17,-265.92 843.51,-275.34 902,-188 978.62,-73.59 701.92,-27.21 605.2,-14.71"/>
<polygon fill="midnightblue" stroke="midnightblue" points="605.46,-11.22 595.11,-13.45 604.59,-18.16 605.46,-11.22"/>
</g>
<!-- Node12 -->
<g id="node12" class="node">
<title>Node12</title>
<g id="a_node12"><a xlink:href="Player_8h.html" target="_top" xlink:title=" ">
<polygon fill="white" stroke="black" points="510,-224.5 510,-243.5 566,-243.5 566,-224.5 510,-224.5"/>
<text text-anchor="middle" x="538" y="-231.5" font-family="Helvetica,sans-Serif" font-size="10.00">Player.h</text>
</a>
</g>
</g>
<!-- Node10&#45;&gt;Node12 -->
<g id="edge12" class="edge">
<title>Node10&#45;&gt;Node12</title>
<path fill="none" stroke="midnightblue" d="M406.72,-280.44C432.85,-271.4 474.26,-257.06 503.58,-246.92"/>
<polygon fill="midnightblue" stroke="midnightblue" points="505.09,-250.1 513.4,-243.52 502.8,-243.48 505.09,-250.1"/>
</g>
<!-- Node15 -->
<g id="node15" class="node">
<title>Node15</title>
<g id="a_node15"><a xlink:href="Bomb_8h.html" target="_top" xlink:title=" ">
<polygon fill="white" stroke="black" points="484,-112.5 484,-131.5 538,-131.5 538,-112.5 484,-112.5"/>
<text text-anchor="middle" x="511" y="-119.5" font-family="Helvetica,sans-Serif" font-size="10.00">Bomb.h</text>
</a>
</g>
</g>
<!-- Node10&#45;&gt;Node15 -->
<g id="edge35" class="edge">
<title>Node10&#45;&gt;Node15</title>
<path fill="none" stroke="midnightblue" d="M388.94,-280.08C409.59,-253.49 470.95,-174.54 497.97,-139.76"/>
<polygon fill="midnightblue" stroke="midnightblue" points="500.97,-141.61 504.34,-131.57 495.44,-137.32 500.97,-141.61"/>
</g>
<!-- Node17 -->
<g id="node17" class="node">
<title>Node17</title>
<g id="a_node17"><a xlink:href="Ghost_8h.html" target="_top" xlink:title=" ">
<polygon fill="white" stroke="black" points="307,-224.5 307,-243.5 361,-243.5 361,-224.5 307,-224.5"/>
<text text-anchor="middle" x="334" y="-231.5" font-family="Helvetica,sans-Serif" font-size="10.00">Ghost.h</text>
</a>
</g>
</g>
<!-- Node10&#45;&gt;Node17 -->
<g id="edge30" class="edge">
<title>Node10&#45;&gt;Node17</title>
<path fill="none" stroke="midnightblue" d="M374.07,-280.08C367.15,-272.3 356.93,-260.8 348.55,-251.37"/>
<polygon fill="midnightblue" stroke="midnightblue" points="351.04,-248.9 341.78,-243.75 345.81,-253.55 351.04,-248.9"/>
</g>
<!-- Node12&#45;&gt;Node4 -->
<g id="edge13" class="edge">
<title>Node12&#45;&gt;Node4</title>
<path fill="none" stroke="midnightblue" d="M516.36,-224.42C497.94,-216.53 471.33,-203.69 451,-188 410.34,-156.61 372.49,-108.83 353.94,-83.73"/>
<polygon fill="midnightblue" stroke="midnightblue" points="356.73,-81.61 348.01,-75.59 351.07,-85.73 356.73,-81.61"/>
</g>
<!-- Node12&#45;&gt;Node5 -->
<g id="edge15" class="edge">
<title>Node12&#45;&gt;Node5</title>
<path fill="none" stroke="midnightblue" d="M557.68,-224.45C574.7,-216.49 599.42,-203.53 618,-188 655.82,-156.38 690.12,-109.03 706.99,-83.97"/>
<polygon fill="midnightblue" stroke="midnightblue" points="709.98,-85.81 712.58,-75.54 704.14,-81.94 709.98,-85.81"/>
</g>
<!-- Node12&#45;&gt;Node11 -->
<g id="edge14" class="edge">
<title>Node12&#45;&gt;Node11</title>
<path fill="none" stroke="midnightblue" d="M509.76,-225.09C434.9,-202.8 241.59,-135.87 309,-56 338.27,-21.32 476.4,-13.36 540.36,-11.54"/>
<polygon fill="midnightblue" stroke="midnightblue" points="540.77,-15.03 550.68,-11.28 540.59,-8.03 540.77,-15.03"/>
</g>
<!-- Node13 -->
<g id="node13" class="node">
<title>Node13</title>
<g id="a_node13"><a xlink:href="Position_8h.html" target="_top" xlink:title=" ">
<polygon fill="white" stroke="black" points="510.5,-56.5 510.5,-75.5 575.5,-75.5 575.5,-56.5 510.5,-56.5"/>
<text text-anchor="middle" x="543" y="-63.5" font-family="Helvetica,sans-Serif" font-size="10.00">Position.h</text>
</a>
</g>
</g>
<!-- Node12&#45;&gt;Node13 -->
<g id="edge16" class="edge">
<title>Node12&#45;&gt;Node13</title>
<path fill="none" stroke="midnightblue" d="M558.85,-224.43C573.58,-217.13 592.2,-205.09 601,-188 620.25,-150.59 583.48,-105.75 560.15,-82.58"/>
<polygon fill="midnightblue" stroke="midnightblue" points="562.49,-79.98 552.85,-75.59 557.65,-85.03 562.49,-79.98"/>
</g>
<!-- Node14 -->
<g id="node14" class="node">
<title>Node14</title>
<g id="a_node14"><a xlink:href="Entity_8h.html" target="_top" xlink:title=" ">
<polygon fill="white" stroke="black" points="539.5,-168.5 539.5,-187.5 592.5,-187.5 592.5,-168.5 539.5,-168.5"/>
<text text-anchor="middle" x="566" y="-175.5" font-family="Helvetica,sans-Serif" font-size="10.00">Entity.h</text>
</a>
</g>
</g>
<!-- Node12&#45;&gt;Node14 -->
<g id="edge18" class="edge">
<title>Node12&#45;&gt;Node14</title>
<path fill="none" stroke="midnightblue" d="M542.62,-224.08C546.46,-216.69 552.02,-205.95 556.76,-196.81"/>
<polygon fill="midnightblue" stroke="midnightblue" points="559.97,-198.24 561.46,-187.75 553.75,-195.02 559.97,-198.24"/>
</g>
<!-- Node12&#45;&gt;Node15 -->
<g id="edge27" class="edge">
<title>Node12&#45;&gt;Node15</title>
<path fill="none" stroke="midnightblue" d="M535.88,-224.37C531.52,-206.62 521.47,-165.67 515.56,-141.6"/>
<polygon fill="midnightblue" stroke="midnightblue" points="518.89,-140.47 513.11,-131.59 512.09,-142.14 518.89,-140.47"/>
</g>
<!-- Node12&#45;&gt;Node16 -->
<g id="edge28" class="edge">
<title>Node12&#45;&gt;Node16</title>
<path fill="none" stroke="midnightblue" d="M566.08,-226.91C607.69,-217.89 686.34,-200.83 737.69,-189.69"/>
<polygon fill="midnightblue" stroke="midnightblue" points="738.55,-193.09 747.58,-187.55 737.07,-186.25 738.55,-193.09"/>
</g>
<!-- Node13&#45;&gt;Node11 -->
<g id="edge17" class="edge">
<title>Node13&#45;&gt;Node11</title>
<path fill="none" stroke="midnightblue" d="M547.95,-56.08C552.1,-48.61 558.15,-37.72 563.27,-28.52"/>
<polygon fill="midnightblue" stroke="midnightblue" points="566.34,-30.19 568.14,-19.75 560.22,-26.79 566.34,-30.19"/>
</g>
<!-- Node14&#45;&gt;Node4 -->
<g id="edge19" class="edge">
<title>Node14&#45;&gt;Node4</title>
<path fill="none" stroke="midnightblue" d="M548.42,-168.37C509.33,-149.17 414.99,-102.84 368.62,-80.07"/>
<polygon fill="midnightblue" stroke="midnightblue" points="370.01,-76.86 359.5,-75.59 366.93,-83.14 370.01,-76.86"/>
</g>
<!-- Node14&#45;&gt;Node5 -->
<g id="edge21" class="edge">
<title>Node14&#45;&gt;Node5</title>
<path fill="none" stroke="midnightblue" d="M577.93,-168.37C603.9,-149.57 665.81,-104.77 697.92,-81.53"/>
<polygon fill="midnightblue" stroke="midnightblue" points="700.08,-84.29 706.13,-75.59 695.98,-78.62 700.08,-84.29"/>
</g>
<!-- Node14&#45;&gt;Node11 -->
<g id="edge20" class="edge">
<title>Node14&#45;&gt;Node11</title>
<path fill="none" stroke="midnightblue" d="M568.94,-168.22C575.24,-148.3 589.08,-98.17 584,-56 582.93,-47.11 580.71,-37.43 578.54,-29.34"/>
<polygon fill="midnightblue" stroke="midnightblue" points="581.84,-28.17 575.73,-19.51 575.11,-30.09 581.84,-28.17"/>
</g>
<!-- Node14&#45;&gt;Node13 -->
<g id="edge22" class="edge">
<title>Node14&#45;&gt;Node13</title>
<path fill="none" stroke="midnightblue" d="M564.2,-168.37C560.48,-150.62 551.92,-109.67 546.89,-85.6"/>
<polygon fill="midnightblue" stroke="midnightblue" points="550.27,-84.66 544.8,-75.59 543.42,-86.1 550.27,-84.66"/>
</g>
<!-- Node14&#45;&gt;Node15 -->
<g id="edge23" class="edge">
<title>Node14&#45;&gt;Node15</title>
<path fill="none" stroke="midnightblue" d="M556.92,-168.08C548.83,-160.14 536.8,-148.34 527.09,-138.8"/>
<polygon fill="midnightblue" stroke="midnightblue" points="529.5,-136.26 519.91,-131.75 524.6,-141.25 529.5,-136.26"/>
</g>
<!-- Node15&#45;&gt;Node4 -->
<g id="edge25" class="edge">
<title>Node15&#45;&gt;Node4</title>
<path fill="none" stroke="midnightblue" d="M484.22,-112.44C454.74,-103.02 407.31,-87.87 375.42,-77.68"/>
<polygon fill="midnightblue" stroke="midnightblue" points="376.24,-74.27 365.65,-74.56 374.11,-80.94 376.24,-74.27"/>
</g>
<!-- Node15&#45;&gt;Node5 -->
<g id="edge24" class="edge">
<title>Node15&#45;&gt;Node5</title>
<path fill="none" stroke="midnightblue" d="M538.06,-113.94C574.1,-104.54 638.09,-87.85 679.24,-77.11"/>
<polygon fill="midnightblue" stroke="midnightblue" points="680.14,-80.49 688.93,-74.58 678.37,-73.72 680.14,-80.49"/>
</g>
<!-- Node15&#45;&gt;Node13 -->
<g id="edge26" class="edge">
<title>Node15&#45;&gt;Node13</title>
<path fill="none" stroke="midnightblue" d="M516.28,-112.08C520.71,-104.61 527.16,-93.72 532.62,-84.52"/>
<polygon fill="midnightblue" stroke="midnightblue" points="535.73,-86.14 537.81,-75.75 529.71,-82.57 535.73,-86.14"/>
</g>
<!-- Node16&#45;&gt;Node11 -->
<g id="edge29" class="edge">
<title>Node16&#45;&gt;Node11</title>
<path fill="none" stroke="midnightblue" d="M787.56,-168.23C788.46,-146.06 787.59,-87.28 756,-56 734.92,-35.12 651.85,-21.24 605.21,-14.92"/>
<polygon fill="midnightblue" stroke="midnightblue" points="605.39,-11.41 595.02,-13.58 604.48,-18.35 605.39,-11.41"/>
</g>
<!-- Node17&#45;&gt;Node4 -->
<g id="edge31" class="edge">
<title>Node17&#45;&gt;Node4</title>
<path fill="none" stroke="midnightblue" d="M332.41,-224.43C328.97,-204.55 321.65,-153.8 328,-112 329.37,-103 332.19,-93.33 334.95,-85.26"/>
<polygon fill="midnightblue" stroke="midnightblue" points="338.27,-86.37 338.4,-75.78 331.69,-83.98 338.27,-86.37"/>
</g>
<!-- Node17&#45;&gt;Node11 -->
<g id="edge32" class="edge">
<title>Node17&#45;&gt;Node11</title>
<path fill="none" stroke="midnightblue" d="M327.59,-224.42C307.61,-196.53 250.29,-107.33 294,-56 325.34,-19.2 473.71,-12.39 540.4,-11.21"/>
<polygon fill="midnightblue" stroke="midnightblue" points="540.79,-14.7 550.74,-11.06 540.69,-7.7 540.79,-14.7"/>
</g>
<!-- Node17&#45;&gt;Node13 -->
<g id="edge33" class="edge">
<title>Node17&#45;&gt;Node13</title>
<path fill="none" stroke="midnightblue" d="M343.23,-224.36C365.28,-203.91 423.01,-151.27 475,-112 489.59,-100.98 506.77,-89.62 520.22,-81.07"/>
<polygon fill="midnightblue" stroke="midnightblue" points="522.25,-83.93 528.85,-75.64 518.52,-78.01 522.25,-83.93"/>
</g>
<!-- Node17&#45;&gt;Node14 -->
<g id="edge34" class="edge">
<title>Node17&#45;&gt;Node14</title>
<path fill="none" stroke="midnightblue" d="M361.07,-226.7C402.74,-217 482.68,-198.39 529.45,-187.51"/>
<polygon fill="midnightblue" stroke="midnightblue" points="530.52,-190.85 539.46,-185.18 528.93,-184.04 530.52,-190.85"/>
</g>
<!-- Node18&#45;&gt;Node4 -->
<g id="edge38" class="edge">
<title>Node18&#45;&gt;Node4</title>
<path fill="none" stroke="midnightblue" d="M692.39,-228.46C652.95,-222.3 585,-209.52 530,-188 483.28,-169.72 474.17,-159.17 432,-132 406.8,-115.76 378.99,-95.26 361.06,-81.67"/>
<polygon fill="midnightblue" stroke="midnightblue" points="363.17,-78.88 353.1,-75.6 358.93,-84.45 363.17,-78.88"/>
</g>
<!-- Node18&#45;&gt;Node5 -->
<g id="edge39" class="edge">
<title>Node18&#45;&gt;Node5</title>
<path fill="none" stroke="midnightblue" d="M726.71,-224.43C730.42,-204.56 738.35,-153.81 732,-112 730.63,-103 727.81,-93.33 725.05,-85.26"/>
<polygon fill="midnightblue" stroke="midnightblue" points="728.31,-83.98 721.6,-75.78 721.73,-86.37 728.31,-83.98"/>
</g>
<!-- Node18&#45;&gt;Node14 -->
<g id="edge41" class="edge">
<title>Node18&#45;&gt;Node14</title>
<path fill="none" stroke="midnightblue" d="M699.81,-224.44C673.06,-215.36 630.6,-200.94 600.69,-190.78"/>
<polygon fill="midnightblue" stroke="midnightblue" points="601.67,-187.42 591.08,-187.52 599.42,-194.05 601.67,-187.42"/>
</g>
<!-- Node18&#45;&gt;Node16 -->
<g id="edge42" class="edge">
<title>Node18&#45;&gt;Node16</title>
<path fill="none" stroke="midnightblue" d="M734.96,-224.32C744.13,-216.34 757.94,-204.31 769.03,-194.65"/>
<polygon fill="midnightblue" stroke="midnightblue" points="771.62,-197.04 776.86,-187.83 767.02,-191.76 771.62,-197.04"/>
</g>
<!-- Node19 -->
<g id="node19" class="node">
<title>Node19</title>
<g id="a_node19"><a xlink:title=" ">
<polygon fill="white" stroke="#bfbfbf" points="845.5,-168.5 845.5,-187.5 892.5,-187.5 892.5,-168.5 845.5,-168.5"/>
<text text-anchor="middle" x="869" y="-175.5" font-family="Helvetica,sans-Serif" font-size="10.00">deque</text>
</a>
</g>
</g>
<!-- Node18&#45;&gt;Node19 -->
<g id="edge40" class="edge">
<title>Node18&#45;&gt;Node19</title>
<path fill="none" stroke="midnightblue" d="M747.82,-224.44C771.83,-215.44 809.83,-201.19 836.87,-191.05"/>
<polygon fill="midnightblue" stroke="midnightblue" points="838.16,-194.3 846.29,-187.52 835.7,-187.75 838.16,-194.3"/>
</g>
</g>
</svg>
