<?xml version="1.0" encoding="UTF-8" standalone="no"?>
<!DOCTYPE svg PUBLIC "-//W3C//DTD SVG 1.1//EN"
 "http://www.w3.org/Graphics/SVG/1.1/DTD/svg11.dtd">
<!-- Generated by graphviz version 2.43.0 (0)
 -->
<!-- Title: src/MapContainer.h Pages: 1 -->
<svg width="646pt" height="308pt"
 viewBox="0.00 0.00 645.50 308.00" xmlns="http://www.w3.org/2000/svg" xmlns:xlink="http://www.w3.org/1999/xlink">
<g id="graph0" class="graph" transform="scale(1 1) rotate(0) translate(4 304)">
<title>src/MapContainer.h</title>
<polygon fill="white" stroke="transparent" points="-4,4 -4,-304 641.5,-304 641.5,4 -4,4"/>
<!-- Node1 -->
<g id="node1" class="node">
<title>Node1</title>
<g id="a_node1"><a xlink:title=" ">
<polygon fill="#bfbfbf" stroke="black" points="449.5,-280.5 449.5,-299.5 559.5,-299.5 559.5,-280.5 449.5,-280.5"/>
<text text-anchor="middle" x="504.5" y="-287.5" font-family="Helvetica,sans-Serif" font-size="10.00">src/MapContainer.h</text>
</a>
</g>
</g>
<!-- Node2 -->
<g id="node2" class="node">
<title>Node2</title>
<g id="a_node2"><a xlink:title=" ">
<polygon fill="white" stroke="#bfbfbf" points="241.5,-0.5 241.5,-19.5 285.5,-19.5 285.5,-0.5 241.5,-0.5"/>
<text text-anchor="middle" x="263.5" y="-7.5" font-family="Helvetica,sans-Serif" font-size="10.00">string</text>
</a>
</g>
</g>
<!-- Node1&#45;&gt;Node2 -->
<g id="edge1" class="edge">
<title>Node1&#45;&gt;Node2</title>
<path fill="none" stroke="midnightblue" d="M531.41,-280.41C570.28,-266.13 637.5,-233.54 637.5,-179 637.5,-179 637.5,-179 637.5,-121 637.5,-50.04 386.56,-21.52 295.78,-13.53"/>
<polygon fill="midnightblue" stroke="midnightblue" points="296.04,-10.04 285.78,-12.68 295.44,-17.01 296.04,-10.04"/>
</g>
<!-- Node3 -->
<g id="node3" class="node">
<title>Node3</title>
<g id="a_node3"><a xlink:title=" ">
<polygon fill="white" stroke="#bfbfbf" points="424,-56.5 424,-75.5 471,-75.5 471,-56.5 424,-56.5"/>
<text text-anchor="middle" x="447.5" y="-63.5" font-family="Helvetica,sans-Serif" font-size="10.00">vector</text>
</a>
</g>
</g>
<!-- Node1&#45;&gt;Node3 -->
<g id="edge2" class="edge">
<title>Node1&#45;&gt;Node3</title>
<path fill="none" stroke="midnightblue" d="M514.66,-280.19C523.41,-271.87 535.4,-258.54 540.5,-244 554.11,-205.21 560.56,-176.12 516.5,-112 507.02,-98.21 491.8,-87.62 478.06,-80.2"/>
<polygon fill="midnightblue" stroke="midnightblue" points="479.37,-76.94 468.87,-75.56 476.22,-83.19 479.37,-76.94"/>
</g>
<!-- Node4 -->
<g id="node4" class="node">
<title>Node4</title>
<g id="a_node4"><a xlink:href="Player_8h.html" target="_top" xlink:title=" ">
<polygon fill="white" stroke="black" points="233.5,-224.5 233.5,-243.5 289.5,-243.5 289.5,-224.5 233.5,-224.5"/>
<text text-anchor="middle" x="261.5" y="-231.5" font-family="Helvetica,sans-Serif" font-size="10.00">Player.h</text>
</a>
</g>
</g>
<!-- Node1&#45;&gt;Node4 -->
<g id="edge3" class="edge">
<title>Node1&#45;&gt;Node4</title>
<path fill="none" stroke="midnightblue" d="M466,-280.44C420.43,-270.32 345.03,-253.56 299.63,-243.47"/>
<polygon fill="midnightblue" stroke="midnightblue" points="300.12,-240 289.6,-241.24 298.6,-246.83 300.12,-240"/>
</g>
<!-- Node8 -->
<g id="node8" class="node">
<title>Node8</title>
<g id="a_node8"><a xlink:href="Bomb_8h.html" target="_top" xlink:title=" ">
<polygon fill="white" stroke="black" points="327.5,-112.5 327.5,-131.5 381.5,-131.5 381.5,-112.5 327.5,-112.5"/>
<text text-anchor="middle" x="354.5" y="-119.5" font-family="Helvetica,sans-Serif" font-size="10.00">Bomb.h</text>
</a>
</g>
</g>
<!-- Node1&#45;&gt;Node8 -->
<g id="edge26" class="edge">
<title>Node1&#45;&gt;Node8</title>
<path fill="none" stroke="midnightblue" d="M496.44,-280.08C472.31,-253.38 400.46,-173.87 369.25,-139.32"/>
<polygon fill="midnightblue" stroke="midnightblue" points="371.54,-136.64 362.24,-131.57 366.35,-141.33 371.54,-136.64"/>
</g>
<!-- Node10 -->
<g id="node10" class="node">
<title>Node10</title>
<g id="a_node10"><a xlink:href="Ghost_8h.html" target="_top" xlink:title=" ">
<polygon fill="white" stroke="black" points="477.5,-224.5 477.5,-243.5 531.5,-243.5 531.5,-224.5 477.5,-224.5"/>
<text text-anchor="middle" x="504.5" y="-231.5" font-family="Helvetica,sans-Serif" font-size="10.00">Ghost.h</text>
</a>
</g>
</g>
<!-- Node1&#45;&gt;Node10 -->
<g id="edge21" class="edge">
<title>Node1&#45;&gt;Node10</title>
<path fill="none" stroke="midnightblue" d="M504.5,-280.08C504.5,-273.01 504.5,-262.86 504.5,-253.99"/>
<polygon fill="midnightblue" stroke="midnightblue" points="508,-253.75 504.5,-243.75 501,-253.75 508,-253.75"/>
</g>
<!-- Node4&#45;&gt;Node2 -->
<g id="edge5" class="edge">
<title>Node4&#45;&gt;Node2</title>
<path fill="none" stroke="midnightblue" d="M240.65,-224.43C225.92,-217.13 207.3,-205.09 198.5,-188 194.43,-180.1 198.42,-176.89 198.5,-168 198.95,-118.03 183.57,-99.31 208.5,-56 215.78,-43.34 228.09,-32.77 239.22,-25.06"/>
<polygon fill="midnightblue" stroke="midnightblue" points="241.29,-27.89 247.77,-19.51 237.48,-22.02 241.29,-27.89"/>
</g>
<!-- Node4&#45;&gt;Node3 -->
<g id="edge4" class="edge">
<title>Node4&#45;&gt;Node3</title>
<path fill="none" stroke="midnightblue" d="M283.94,-224.38C303.44,-216.39 332.01,-203.41 354.5,-188 384.59,-167.38 392.58,-161.15 414.5,-132 425.42,-117.47 434.48,-98.79 440.32,-85.19"/>
<polygon fill="midnightblue" stroke="midnightblue" points="443.72,-86.12 444.29,-75.54 437.25,-83.45 443.72,-86.12"/>
</g>
<!-- Node5 -->
<g id="node5" class="node">
<title>Node5</title>
<g id="a_node5"><a xlink:title=" ">
<polygon fill="white" stroke="#bfbfbf" points="223.5,-56.5 223.5,-75.5 281.5,-75.5 281.5,-56.5 223.5,-56.5"/>
<text text-anchor="middle" x="252.5" y="-63.5" font-family="Helvetica,sans-Serif" font-size="10.00">memory</text>
</a>
</g>
</g>
<!-- Node4&#45;&gt;Node5 -->
<g id="edge6" class="edge">
<title>Node4&#45;&gt;Node5</title>
<path fill="none" stroke="midnightblue" d="M245.72,-224.47C233.3,-216.77 216.89,-204.18 209.5,-188 195.46,-157.28 196.93,-143.35 209.5,-112 214.18,-100.33 223.49,-89.97 232.26,-82.14"/>
<polygon fill="midnightblue" stroke="midnightblue" points="234.55,-84.78 240,-75.7 230.08,-79.4 234.55,-84.78"/>
</g>
<!-- Node6 -->
<g id="node6" class="node">
<title>Node6</title>
<g id="a_node6"><a xlink:href="Position_8h.html" target="_top" xlink:title=" ">
<polygon fill="white" stroke="black" points="300,-56.5 300,-75.5 365,-75.5 365,-56.5 300,-56.5"/>
<text text-anchor="middle" x="332.5" y="-63.5" font-family="Helvetica,sans-Serif" font-size="10.00">Position.h</text>
</a>
</g>
</g>
<!-- Node4&#45;&gt;Node6 -->
<g id="edge7" class="edge">
<title>Node4&#45;&gt;Node6</title>
<path fill="none" stroke="midnightblue" d="M260.45,-224.32C259.23,-211.6 258.12,-187.31 264.5,-168 275.55,-134.58 300.99,-101.91 317.43,-83.15"/>
<polygon fill="midnightblue" stroke="midnightblue" points="320.18,-85.33 324.26,-75.56 314.97,-80.65 320.18,-85.33"/>
</g>
<!-- Node7 -->
<g id="node7" class="node">
<title>Node7</title>
<g id="a_node7"><a xlink:href="Entity_8h.html" target="_top" xlink:title=" ">
<polygon fill="white" stroke="black" points="273,-168.5 273,-187.5 326,-187.5 326,-168.5 273,-168.5"/>
<text text-anchor="middle" x="299.5" y="-175.5" font-family="Helvetica,sans-Serif" font-size="10.00">Entity.h</text>
</a>
</g>
</g>
<!-- Node4&#45;&gt;Node7 -->
<g id="edge9" class="edge">
<title>Node4&#45;&gt;Node7</title>
<path fill="none" stroke="midnightblue" d="M267.77,-224.08C273.14,-216.46 281.02,-205.26 287.58,-195.94"/>
<polygon fill="midnightblue" stroke="midnightblue" points="290.45,-197.94 293.34,-187.75 284.72,-193.91 290.45,-197.94"/>
</g>
<!-- Node4&#45;&gt;Node8 -->
<g id="edge18" class="edge">
<title>Node4&#45;&gt;Node8</title>
<path fill="none" stroke="midnightblue" d="M284.38,-224.41C300.86,-217.1 322.41,-205.06 335.5,-188 345.78,-174.6 350.5,-155.78 352.67,-141.84"/>
<polygon fill="midnightblue" stroke="midnightblue" points="356.15,-142.26 353.92,-131.9 349.2,-141.38 356.15,-142.26"/>
</g>
<!-- Node9 -->
<g id="node9" class="node">
<title>Node9</title>
<g id="a_node9"><a xlink:href="PlayerStats_8h.html" target="_top" xlink:title=" ">
<polygon fill="white" stroke="black" points="0,-112.5 0,-131.5 81,-131.5 81,-112.5 0,-112.5"/>
<text text-anchor="middle" x="40.5" y="-119.5" font-family="Helvetica,sans-Serif" font-size="10.00">PlayerStats.h</text>
</a>
</g>
</g>
<!-- Node4&#45;&gt;Node9 -->
<g id="edge19" class="edge">
<title>Node4&#45;&gt;Node9</title>
<path fill="none" stroke="midnightblue" d="M233.3,-230.51C198.52,-226.34 138.71,-215.49 95.5,-188 76.47,-175.89 60.59,-155.13 50.86,-140.33"/>
<polygon fill="midnightblue" stroke="midnightblue" points="53.67,-138.22 45.38,-131.61 47.74,-141.94 53.67,-138.22"/>
</g>
<!-- Node6&#45;&gt;Node2 -->
<g id="edge8" class="edge">
<title>Node6&#45;&gt;Node2</title>
<path fill="none" stroke="midnightblue" d="M321.41,-56.32C311.01,-48.18 295.24,-35.84 282.78,-26.09"/>
<polygon fill="midnightblue" stroke="midnightblue" points="284.82,-23.24 274.79,-19.83 280.51,-28.75 284.82,-23.24"/>
</g>
<!-- Node7&#45;&gt;Node2 -->
<g id="edge11" class="edge">
<title>Node7&#45;&gt;Node2</title>
<path fill="none" stroke="midnightblue" d="M288.44,-168.48C269.02,-152.73 229.42,-116.91 214.5,-76 211.45,-67.65 210.92,-64.14 214.5,-56 219.89,-43.73 230.46,-33.34 240.4,-25.65"/>
<polygon fill="midnightblue" stroke="midnightblue" points="242.75,-28.27 248.84,-19.6 238.67,-22.58 242.75,-28.27"/>
</g>
<!-- Node7&#45;&gt;Node3 -->
<g id="edge10" class="edge">
<title>Node7&#45;&gt;Node3</title>
<path fill="none" stroke="midnightblue" d="M322.99,-168.37C342.26,-160.62 369.67,-148 390.5,-132 408.47,-118.2 425.06,-98.08 435.66,-83.88"/>
<polygon fill="midnightblue" stroke="midnightblue" points="438.67,-85.69 441.71,-75.54 433,-81.58 438.67,-85.69"/>
</g>
<!-- Node7&#45;&gt;Node5 -->
<g id="edge12" class="edge">
<title>Node7&#45;&gt;Node5</title>
<path fill="none" stroke="midnightblue" d="M295.81,-168.37C288.16,-150.46 270.41,-108.92 260.17,-84.95"/>
<polygon fill="midnightblue" stroke="midnightblue" points="263.32,-83.41 256.17,-75.59 256.88,-86.16 263.32,-83.41"/>
</g>
<!-- Node7&#45;&gt;Node6 -->
<g id="edge13" class="edge">
<title>Node7&#45;&gt;Node6</title>
<path fill="none" stroke="midnightblue" d="M302.03,-168.15C305.63,-155.63 312.46,-132.04 318.5,-112 321.16,-103.18 324.19,-93.41 326.75,-85.23"/>
<polygon fill="midnightblue" stroke="midnightblue" points="330.11,-86.2 329.77,-75.61 323.44,-84.1 330.11,-86.2"/>
</g>
<!-- Node7&#45;&gt;Node8 -->
<g id="edge14" class="edge">
<title>Node7&#45;&gt;Node8</title>
<path fill="none" stroke="midnightblue" d="M308.58,-168.08C316.67,-160.14 328.7,-148.34 338.41,-138.8"/>
<polygon fill="midnightblue" stroke="midnightblue" points="340.9,-141.25 345.59,-131.75 336,-136.26 340.9,-141.25"/>
</g>
<!-- Node8&#45;&gt;Node3 -->
<g id="edge16" class="edge">
<title>Node8&#45;&gt;Node3</title>
<path fill="none" stroke="midnightblue" d="M369.44,-112.32C384.09,-103.82 406.63,-90.73 423.74,-80.8"/>
<polygon fill="midnightblue" stroke="midnightblue" points="425.7,-83.7 432.6,-75.65 422.19,-77.65 425.7,-83.7"/>
</g>
<!-- Node8&#45;&gt;Node5 -->
<g id="edge15" class="edge">
<title>Node8&#45;&gt;Node5</title>
<path fill="none" stroke="midnightblue" d="M338.11,-112.32C321.83,-103.7 296.63,-90.36 277.78,-80.39"/>
<polygon fill="midnightblue" stroke="midnightblue" points="279.32,-77.24 268.85,-75.65 276.05,-83.43 279.32,-77.24"/>
</g>
<!-- Node8&#45;&gt;Node6 -->
<g id="edge17" class="edge">
<title>Node8&#45;&gt;Node6</title>
<path fill="none" stroke="midnightblue" d="M350.87,-112.08C347.89,-104.77 343.57,-94.18 339.88,-85.1"/>
<polygon fill="midnightblue" stroke="midnightblue" points="343.08,-83.69 336.07,-75.75 336.6,-86.33 343.08,-83.69"/>
</g>
<!-- Node9&#45;&gt;Node2 -->
<g id="edge20" class="edge">
<title>Node9&#45;&gt;Node2</title>
<path fill="none" stroke="midnightblue" d="M45.38,-112.38C53.77,-98.37 72.28,-70.72 95.5,-56 137.67,-29.26 195.48,-18.29 231.11,-13.87"/>
<polygon fill="midnightblue" stroke="midnightblue" points="231.87,-17.31 241.42,-12.7 231.08,-10.35 231.87,-17.31"/>
</g>
<!-- Node10&#45;&gt;Node2 -->
<g id="edge23" class="edge">
<title>Node10&#45;&gt;Node2</title>
<path fill="none" stroke="midnightblue" d="M509.63,-224.41C514.56,-215.61 521.66,-201.38 524.5,-188 537.34,-127.51 531.47,-91.02 480.5,-56 423.98,-17.17 340.99,-10.6 295.78,-10.18"/>
<polygon fill="midnightblue" stroke="midnightblue" points="295.66,-6.68 285.66,-10.19 295.67,-13.68 295.66,-6.68"/>
</g>
<!-- Node10&#45;&gt;Node3 -->
<g id="edge22" class="edge">
<title>Node10&#45;&gt;Node3</title>
<path fill="none" stroke="midnightblue" d="M506.39,-224.23C510.4,-203.48 517.95,-150.25 499.5,-112 493.5,-99.57 482.32,-89.18 471.85,-81.54"/>
<polygon fill="midnightblue" stroke="midnightblue" points="473.6,-78.49 463.36,-75.77 469.67,-84.28 473.6,-78.49"/>
</g>
<!-- Node10&#45;&gt;Node6 -->
<g id="edge24" class="edge">
<title>Node10&#45;&gt;Node6</title>
<path fill="none" stroke="midnightblue" d="M497.18,-224.35C479.68,-203.88 433.65,-151.2 390.5,-112 378.62,-101.21 364.4,-90.15 353.01,-81.69"/>
<polygon fill="midnightblue" stroke="midnightblue" points="355.07,-78.87 344.94,-75.78 350.94,-84.51 355.07,-78.87"/>
</g>
<!-- Node10&#45;&gt;Node7 -->
<g id="edge25" class="edge">
<title>Node10&#45;&gt;Node7</title>
<path fill="none" stroke="midnightblue" d="M477.28,-225.83C440.93,-216.25 376.44,-199.27 335.93,-188.6"/>
<polygon fill="midnightblue" stroke="midnightblue" points="336.75,-185.19 326.18,-186.03 334.96,-191.96 336.75,-185.19"/>
</g>
</g>
</svg>
