<?xml version="1.0" encoding="UTF-8" standalone="no"?>
<!DOCTYPE svg PUBLIC "-//W3C//DTD SVG 1.1//EN"
 "http://www.w3.org/Graphics/SVG/1.1/DTD/svg11.dtd">
<!-- Generated by graphviz version 2.43.0 (0)
 -->
<!-- Title: src/PlayerStats.h Pages: 1 -->
<svg width="408pt" height="196pt"
 viewBox="0.00 0.00 408.00 196.00" xmlns="http://www.w3.org/2000/svg" xmlns:xlink="http://www.w3.org/1999/xlink">
<g id="graph0" class="graph" transform="scale(1 1) rotate(0) translate(4 192)">
<title>src/PlayerStats.h</title>
<polygon fill="white" stroke="transparent" points="-4,4 -4,-192 404,-192 404,4 -4,4"/>
<!-- Node1 -->
<g id="node1" class="node">
<title>Node1</title>
<g id="a_node1"><a xlink:title=" ">
<polygon fill="#bfbfbf" stroke="black" points="143,-168.5 143,-187.5 241,-187.5 241,-168.5 143,-168.5"/>
<text text-anchor="middle" x="192" y="-175.5" font-family="Helvetica,sans-Serif" font-size="10.00">src/PlayerStats.h</text>
</a>
</g>
</g>
<!-- Node2 -->
<g id="node2" class="node">
<title>Node2</title>
<g id="a_node2"><a xlink:href="AIPlayer_8h.html" target="_top" xlink:title=" ">
<polygon fill="white" stroke="black" points="48.5,-112.5 48.5,-131.5 131.5,-131.5 131.5,-112.5 48.5,-112.5"/>
<text text-anchor="middle" x="90" y="-119.5" font-family="Helvetica,sans-Serif" font-size="10.00">src/AIPlayer.h</text>
</a>
</g>
</g>
<!-- Node1&#45;&gt;Node2 -->
<g id="edge1" class="edge">
<title>Node1&#45;&gt;Node2</title>
<path fill="none" stroke="midnightblue" d="M166.67,-163.59C147.81,-153.61 122.62,-140.27 106.35,-131.65"/>
<polygon fill="midnightblue" stroke="midnightblue" points="165.14,-166.74 175.61,-168.32 168.41,-160.55 165.14,-166.74"/>
</g>
<!-- Node4 -->
<g id="node4" class="node">
<title>Node4</title>
<g id="a_node4"><a xlink:href="MapContainer_8cpp.html" target="_top" xlink:title=" ">
<polygon fill="white" stroke="black" points="80,-0.5 80,-19.5 202,-19.5 202,-0.5 80,-0.5"/>
<text text-anchor="middle" x="141" y="-7.5" font-family="Helvetica,sans-Serif" font-size="10.00">src/MapContainer.cpp</text>
</a>
</g>
</g>
<!-- Node1&#45;&gt;Node4 -->
<g id="edge9" class="edge">
<title>Node1&#45;&gt;Node4</title>
<path fill="none" stroke="midnightblue" d="M186.28,-158.39C175.28,-122.59 151.55,-45.34 143.63,-19.57"/>
<polygon fill="midnightblue" stroke="midnightblue" points="182.98,-159.54 189.26,-168.08 189.67,-157.49 182.98,-159.54"/>
</g>
<!-- Node5 -->
<g id="node5" class="node">
<title>Node5</title>
<g id="a_node5"><a xlink:href="Player_8h.html" target="_top" xlink:title=" ">
<polygon fill="white" stroke="black" points="197.5,-112.5 197.5,-131.5 270.5,-131.5 270.5,-112.5 197.5,-112.5"/>
<text text-anchor="middle" x="234" y="-119.5" font-family="Helvetica,sans-Serif" font-size="10.00">src/Player.h</text>
</a>
</g>
</g>
<!-- Node1&#45;&gt;Node5 -->
<g id="edge4" class="edge">
<title>Node1&#45;&gt;Node5</title>
<path fill="none" stroke="midnightblue" d="M205.11,-160.14C212.43,-150.74 221.24,-139.4 227.19,-131.75"/>
<polygon fill="midnightblue" stroke="midnightblue" points="202.31,-158.04 198.94,-168.08 207.84,-162.34 202.31,-158.04"/>
</g>
<!-- Node9 -->
<g id="node9" class="node">
<title>Node9</title>
<g id="a_node9"><a xlink:href="PlayerStats_8cpp.html" target="_top" xlink:title=" ">
<polygon fill="white" stroke="black" points="289,-112.5 289,-131.5 399,-131.5 399,-112.5 289,-112.5"/>
<text text-anchor="middle" x="344" y="-119.5" font-family="Helvetica,sans-Serif" font-size="10.00">src/PlayerStats.cpp</text>
</a>
</g>
</g>
<!-- Node1&#45;&gt;Node9 -->
<g id="edge10" class="edge">
<title>Node1&#45;&gt;Node9</title>
<path fill="none" stroke="midnightblue" d="M225.67,-165.04C254.27,-154.88 294.61,-140.55 320.03,-131.52"/>
<polygon fill="midnightblue" stroke="midnightblue" points="224.34,-161.8 216.08,-168.44 226.68,-168.39 224.34,-161.8"/>
</g>
<!-- Node3 -->
<g id="node3" class="node">
<title>Node3</title>
<g id="a_node3"><a xlink:href="AIPlayer_8cpp.html" target="_top" xlink:title=" ">
<polygon fill="white" stroke="black" points="0,-56.5 0,-75.5 94,-75.5 94,-56.5 0,-56.5"/>
<text text-anchor="middle" x="47" y="-63.5" font-family="Helvetica,sans-Serif" font-size="10.00">src/AIPlayer.cpp</text>
</a>
</g>
</g>
<!-- Node2&#45;&gt;Node3 -->
<g id="edge2" class="edge">
<title>Node2&#45;&gt;Node3</title>
<path fill="none" stroke="midnightblue" d="M76.58,-104.14C69.09,-94.74 60.06,-83.4 53.97,-75.75"/>
<polygon fill="midnightblue" stroke="midnightblue" points="73.93,-106.44 82.9,-112.08 79.41,-102.08 73.93,-106.44"/>
</g>
<!-- Node2&#45;&gt;Node4 -->
<g id="edge3" class="edge">
<title>Node2&#45;&gt;Node4</title>
<path fill="none" stroke="midnightblue" d="M98.35,-103C109.47,-79 128.73,-37.47 137.02,-19.59"/>
<polygon fill="midnightblue" stroke="midnightblue" points="95.03,-101.82 94,-112.37 101.38,-104.77 95.03,-101.82"/>
</g>
<!-- Node6 -->
<g id="node6" class="node">
<title>Node6</title>
<g id="a_node6"><a xlink:href="MapContainer_8h.html" target="_top" xlink:title=" ">
<polygon fill="white" stroke="black" points="188,-56.5 188,-75.5 298,-75.5 298,-56.5 188,-56.5"/>
<text text-anchor="middle" x="243" y="-63.5" font-family="Helvetica,sans-Serif" font-size="10.00">src/MapContainer.h</text>
</a>
</g>
</g>
<!-- Node5&#45;&gt;Node6 -->
<g id="edge5" class="edge">
<title>Node5&#45;&gt;Node6</title>
<path fill="none" stroke="midnightblue" d="M237.15,-102.1C238.64,-93.14 240.36,-82.86 241.54,-75.75"/>
<polygon fill="midnightblue" stroke="midnightblue" points="233.68,-101.64 235.49,-112.08 240.58,-102.79 233.68,-101.64"/>
</g>
<!-- Node8 -->
<g id="node8" class="node">
<title>Node8</title>
<g id="a_node8"><a xlink:href="Player_8cpp.html" target="_top" xlink:title=" ">
<polygon fill="white" stroke="black" points="316,-56.5 316,-75.5 400,-75.5 400,-56.5 316,-56.5"/>
<text text-anchor="middle" x="358" y="-63.5" font-family="Helvetica,sans-Serif" font-size="10.00">src/Player.cpp</text>
</a>
</g>
</g>
<!-- Node5&#45;&gt;Node8 -->
<g id="edge8" class="edge">
<title>Node5&#45;&gt;Node8</title>
<path fill="none" stroke="midnightblue" d="M263.01,-108.37C286.23,-98.26 318.16,-84.35 338.44,-75.52"/>
<polygon fill="midnightblue" stroke="midnightblue" points="261.42,-105.24 253.65,-112.44 264.21,-111.66 261.42,-105.24"/>
</g>
<!-- Node6&#45;&gt;Node4 -->
<g id="edge7" class="edge">
<title>Node6&#45;&gt;Node4</title>
<path fill="none" stroke="midnightblue" d="M217.67,-51.59C198.81,-41.61 173.62,-28.27 157.35,-19.65"/>
<polygon fill="midnightblue" stroke="midnightblue" points="216.14,-54.74 226.61,-56.32 219.41,-48.55 216.14,-54.74"/>
</g>
<!-- Node7 -->
<g id="node7" class="node">
<title>Node7</title>
<g id="a_node7"><a xlink:href="MainMenu_8cpp.html" target="_top" xlink:title=" ">
<polygon fill="white" stroke="black" points="220.5,-0.5 220.5,-19.5 325.5,-19.5 325.5,-0.5 220.5,-0.5"/>
<text text-anchor="middle" x="273" y="-7.5" font-family="Helvetica,sans-Serif" font-size="10.00">src/MainMenu.cpp</text>
</a>
</g>
</g>
<!-- Node6&#45;&gt;Node7 -->
<g id="edge6" class="edge">
<title>Node6&#45;&gt;Node7</title>
<path fill="none" stroke="midnightblue" d="M252.85,-47.27C257.97,-38.05 264.02,-27.17 268.14,-19.75"/>
<polygon fill="midnightblue" stroke="midnightblue" points="249.75,-45.64 247.95,-56.08 255.87,-49.04 249.75,-45.64"/>
</g>
</g>
</svg>
