<?xml version="1.0" encoding="UTF-8" standalone="no"?>
<!DOCTYPE svg PUBLIC "-//W3C//DTD SVG 1.1//EN"
 "http://www.w3.org/Graphics/SVG/1.1/DTD/svg11.dtd">
<!-- Generated by graphviz version 2.43.0 (0)
 -->
<!-- Title: src/Player.cpp Pages: 1 -->
<svg width="473pt" height="308pt"
 viewBox="0.00 0.00 473.00 308.00" xmlns="http://www.w3.org/2000/svg" xmlns:xlink="http://www.w3.org/1999/xlink">
<g id="graph0" class="graph" transform="scale(1 1) rotate(0) translate(4 304)">
<title>src/Player.cpp</title>
<polygon fill="white" stroke="transparent" points="-4,4 -4,-304 469,-304 469,4 -4,4"/>
<!-- Node1 -->
<g id="node1" class="node">
<title>Node1</title>
<g id="a_node1"><a xlink:title=" ">
<polygon fill="#bfbfbf" stroke="black" points="218.5,-280.5 218.5,-299.5 302.5,-299.5 302.5,-280.5 218.5,-280.5"/>
<text text-anchor="middle" x="260.5" y="-287.5" font-family="Helvetica,sans-Serif" font-size="10.00">src/Player.cpp</text>
</a>
</g>
</g>
<!-- Node2 -->
<g id="node2" class="node">
<title>Node2</title>
<g id="a_node2"><a xlink:title=" ">
<polygon fill="white" stroke="#bfbfbf" points="117.5,-224.5 117.5,-243.5 177.5,-243.5 177.5,-224.5 117.5,-224.5"/>
<text text-anchor="middle" x="147.5" y="-231.5" font-family="Helvetica,sans-Serif" font-size="10.00">iostream</text>
</a>
</g>
</g>
<!-- Node1&#45;&gt;Node2 -->
<g id="edge1" class="edge">
<title>Node1&#45;&gt;Node2</title>
<path fill="none" stroke="midnightblue" d="M242.59,-280.44C224.25,-271.68 195.49,-257.94 174.41,-247.86"/>
<polygon fill="midnightblue" stroke="midnightblue" points="175.85,-244.67 165.32,-243.52 172.83,-250.99 175.85,-244.67"/>
</g>
<!-- Node3 -->
<g id="node3" class="node">
<title>Node3</title>
<g id="a_node3"><a xlink:href="Player_8h.html" target="_top" xlink:title=" ">
<polygon fill="white" stroke="black" points="195.5,-224.5 195.5,-243.5 251.5,-243.5 251.5,-224.5 195.5,-224.5"/>
<text text-anchor="middle" x="223.5" y="-231.5" font-family="Helvetica,sans-Serif" font-size="10.00">Player.h</text>
</a>
</g>
</g>
<!-- Node1&#45;&gt;Node3 -->
<g id="edge2" class="edge">
<title>Node1&#45;&gt;Node3</title>
<path fill="none" stroke="midnightblue" d="M254.39,-280.08C249.22,-272.53 241.65,-261.49 235.31,-252.23"/>
<polygon fill="midnightblue" stroke="midnightblue" points="238.04,-250.02 229.5,-243.75 232.26,-253.98 238.04,-250.02"/>
</g>
<!-- Node11 -->
<g id="node11" class="node">
<title>Node11</title>
<g id="a_node11"><a xlink:title=" ">
<polygon fill="white" stroke="#bfbfbf" points="270,-224.5 270,-243.5 327,-243.5 327,-224.5 270,-224.5"/>
<text text-anchor="middle" x="298.5" y="-231.5" font-family="Helvetica,sans-Serif" font-size="10.00">curses.h</text>
</a>
</g>
</g>
<!-- Node1&#45;&gt;Node11 -->
<g id="edge20" class="edge">
<title>Node1&#45;&gt;Node11</title>
<path fill="none" stroke="midnightblue" d="M266.77,-280.08C272.14,-272.46 280.02,-261.26 286.58,-251.94"/>
<polygon fill="midnightblue" stroke="midnightblue" points="289.45,-253.94 292.34,-243.75 283.72,-249.91 289.45,-253.94"/>
</g>
<!-- Node12 -->
<g id="node12" class="node">
<title>Node12</title>
<g id="a_node12"><a xlink:href="Block_8h.html" target="_top" xlink:title=" ">
<polygon fill="white" stroke="black" points="345,-224.5 345,-243.5 398,-243.5 398,-224.5 345,-224.5"/>
<text text-anchor="middle" x="371.5" y="-231.5" font-family="Helvetica,sans-Serif" font-size="10.00">Block.h</text>
</a>
</g>
</g>
<!-- Node1&#45;&gt;Node12 -->
<g id="edge21" class="edge">
<title>Node1&#45;&gt;Node12</title>
<path fill="none" stroke="midnightblue" d="M278.33,-280.32C296.22,-271.62 323.98,-258.12 344.55,-248.11"/>
<polygon fill="midnightblue" stroke="midnightblue" points="346.25,-251.18 353.71,-243.65 343.19,-244.88 346.25,-251.18"/>
</g>
<!-- Node4 -->
<g id="node4" class="node">
<title>Node4</title>
<g id="a_node4"><a xlink:title=" ">
<polygon fill="white" stroke="#bfbfbf" points="162,-56.5 162,-75.5 209,-75.5 209,-56.5 162,-56.5"/>
<text text-anchor="middle" x="185.5" y="-63.5" font-family="Helvetica,sans-Serif" font-size="10.00">vector</text>
</a>
</g>
</g>
<!-- Node3&#45;&gt;Node4 -->
<g id="edge3" class="edge">
<title>Node3&#45;&gt;Node4</title>
<path fill="none" stroke="midnightblue" d="M220.54,-224.45C217.5,-215.45 212.76,-200.85 209.5,-188 200.39,-152.15 192.65,-109.59 188.58,-85.7"/>
<polygon fill="midnightblue" stroke="midnightblue" points="191.98,-84.86 186.88,-75.58 185.08,-86.02 191.98,-84.86"/>
</g>
<!-- Node5 -->
<g id="node5" class="node">
<title>Node5</title>
<g id="a_node5"><a xlink:title=" ">
<polygon fill="white" stroke="#bfbfbf" points="218.5,-0.5 218.5,-19.5 262.5,-19.5 262.5,-0.5 218.5,-0.5"/>
<text text-anchor="middle" x="240.5" y="-7.5" font-family="Helvetica,sans-Serif" font-size="10.00">string</text>
</a>
</g>
</g>
<!-- Node3&#45;&gt;Node5 -->
<g id="edge4" class="edge">
<title>Node3&#45;&gt;Node5</title>
<path fill="none" stroke="midnightblue" d="M214.68,-224.42C188.6,-197.97 115.87,-115.87 152.5,-56 164.68,-36.09 188.76,-24.63 208.66,-18.27"/>
<polygon fill="midnightblue" stroke="midnightblue" points="209.68,-21.62 218.3,-15.46 207.72,-14.89 209.68,-21.62"/>
</g>
<!-- Node6 -->
<g id="node6" class="node">
<title>Node6</title>
<g id="a_node6"><a xlink:title=" ">
<polygon fill="white" stroke="#bfbfbf" points="249.5,-56.5 249.5,-75.5 307.5,-75.5 307.5,-56.5 249.5,-56.5"/>
<text text-anchor="middle" x="278.5" y="-63.5" font-family="Helvetica,sans-Serif" font-size="10.00">memory</text>
</a>
</g>
</g>
<!-- Node3&#45;&gt;Node6 -->
<g id="edge5" class="edge">
<title>Node3&#45;&gt;Node6</title>
<path fill="none" stroke="midnightblue" d="M223.37,-224.37C223.36,-203.92 225.17,-151.3 242.5,-112 247.17,-101.4 254.98,-91.18 262.14,-83.17"/>
<polygon fill="midnightblue" stroke="midnightblue" points="264.87,-85.37 269.19,-75.7 259.78,-80.57 264.87,-85.37"/>
</g>
<!-- Node7 -->
<g id="node7" class="node">
<title>Node7</title>
<g id="a_node7"><a xlink:href="Position_8h.html" target="_top" xlink:title=" ">
<polygon fill="white" stroke="black" points="400,-56.5 400,-75.5 465,-75.5 465,-56.5 400,-56.5"/>
<text text-anchor="middle" x="432.5" y="-63.5" font-family="Helvetica,sans-Serif" font-size="10.00">Position.h</text>
</a>
</g>
</g>
<!-- Node3&#45;&gt;Node7 -->
<g id="edge6" class="edge">
<title>Node3&#45;&gt;Node7</title>
<path fill="none" stroke="midnightblue" d="M251.65,-225.86C286.52,-216.68 343.51,-200.43 361.5,-188 397.78,-162.93 418.26,-112.8 427.14,-85.59"/>
<polygon fill="midnightblue" stroke="midnightblue" points="430.56,-86.37 430.16,-75.78 423.87,-84.31 430.56,-86.37"/>
</g>
<!-- Node8 -->
<g id="node8" class="node">
<title>Node8</title>
<g id="a_node8"><a xlink:href="Entity_8h.html" target="_top" xlink:title=" ">
<polygon fill="white" stroke="black" points="299,-168.5 299,-187.5 352,-187.5 352,-168.5 299,-168.5"/>
<text text-anchor="middle" x="325.5" y="-175.5" font-family="Helvetica,sans-Serif" font-size="10.00">Entity.h</text>
</a>
</g>
</g>
<!-- Node3&#45;&gt;Node8 -->
<g id="edge8" class="edge">
<title>Node3&#45;&gt;Node8</title>
<path fill="none" stroke="midnightblue" d="M239.89,-224.32C256.17,-215.7 281.37,-202.36 300.22,-192.39"/>
<polygon fill="midnightblue" stroke="midnightblue" points="301.95,-195.43 309.15,-187.65 298.68,-189.24 301.95,-195.43"/>
</g>
<!-- Node9 -->
<g id="node9" class="node">
<title>Node9</title>
<g id="a_node9"><a xlink:href="Bomb_8h.html" target="_top" xlink:title=" ">
<polygon fill="white" stroke="black" points="251.5,-112.5 251.5,-131.5 305.5,-131.5 305.5,-112.5 251.5,-112.5"/>
<text text-anchor="middle" x="278.5" y="-119.5" font-family="Helvetica,sans-Serif" font-size="10.00">Bomb.h</text>
</a>
</g>
</g>
<!-- Node3&#45;&gt;Node9 -->
<g id="edge17" class="edge">
<title>Node3&#45;&gt;Node9</title>
<path fill="none" stroke="midnightblue" d="M227.82,-224.37C236.81,-206.38 257.72,-164.55 269.69,-140.63"/>
<polygon fill="midnightblue" stroke="midnightblue" points="272.86,-142.1 274.2,-131.59 266.6,-138.97 272.86,-142.1"/>
</g>
<!-- Node10 -->
<g id="node10" class="node">
<title>Node10</title>
<g id="a_node10"><a xlink:href="PlayerStats_8h.html" target="_top" xlink:title=" ">
<polygon fill="white" stroke="black" points="0,-112.5 0,-131.5 81,-131.5 81,-112.5 0,-112.5"/>
<text text-anchor="middle" x="40.5" y="-119.5" font-family="Helvetica,sans-Serif" font-size="10.00">PlayerStats.h</text>
</a>
</g>
</g>
<!-- Node3&#45;&gt;Node10 -->
<g id="edge18" class="edge">
<title>Node3&#45;&gt;Node10</title>
<path fill="none" stroke="midnightblue" d="M195.45,-225.02C163.02,-215.48 111.99,-199.36 95.5,-188 77.13,-175.34 61.3,-155.01 51.4,-140.46"/>
<polygon fill="midnightblue" stroke="midnightblue" points="54.19,-138.33 45.79,-131.87 48.33,-142.16 54.19,-138.33"/>
</g>
<!-- Node7&#45;&gt;Node5 -->
<g id="edge7" class="edge">
<title>Node7&#45;&gt;Node5</title>
<path fill="none" stroke="midnightblue" d="M402.08,-56.44C366.76,-46.51 308.75,-30.2 272.69,-20.05"/>
<polygon fill="midnightblue" stroke="midnightblue" points="273.27,-16.58 262.7,-17.24 271.38,-23.32 273.27,-16.58"/>
</g>
<!-- Node8&#45;&gt;Node4 -->
<g id="edge9" class="edge">
<title>Node8&#45;&gt;Node4</title>
<path fill="none" stroke="midnightblue" d="M305.17,-168.45C287.58,-160.5 261.97,-147.55 242.5,-132 224.99,-118.02 208.52,-98.24 197.83,-84.18"/>
<polygon fill="midnightblue" stroke="midnightblue" points="200.45,-81.83 191.68,-75.88 194.82,-86 200.45,-81.83"/>
</g>
<!-- Node8&#45;&gt;Node5 -->
<g id="edge10" class="edge">
<title>Node8&#45;&gt;Node5</title>
<path fill="none" stroke="midnightblue" d="M327.75,-168.29C332.77,-146.74 342.47,-90.24 316.5,-56 305.22,-41.13 287.48,-30.22 271.98,-22.88"/>
<polygon fill="midnightblue" stroke="midnightblue" points="273.25,-19.61 262.69,-18.76 270.41,-26.01 273.25,-19.61"/>
</g>
<!-- Node8&#45;&gt;Node6 -->
<g id="edge11" class="edge">
<title>Node8&#45;&gt;Node6</title>
<path fill="none" stroke="midnightblue" d="M325.39,-168.19C324.94,-155.3 322.92,-130.8 314.5,-112 309.76,-101.43 301.95,-91.21 294.81,-83.2"/>
<polygon fill="midnightblue" stroke="midnightblue" points="297.17,-80.6 287.77,-75.71 292.07,-85.4 297.17,-80.6"/>
</g>
<!-- Node8&#45;&gt;Node7 -->
<g id="edge12" class="edge">
<title>Node8&#45;&gt;Node7</title>
<path fill="none" stroke="midnightblue" d="M339.3,-168.4C352.1,-160.03 371.26,-146.49 385.5,-132 399.93,-117.31 413.37,-97.9 422.15,-84.13"/>
<polygon fill="midnightblue" stroke="midnightblue" points="425.14,-85.96 427.44,-75.62 419.19,-82.27 425.14,-85.96"/>
</g>
<!-- Node8&#45;&gt;Node9 -->
<g id="edge13" class="edge">
<title>Node8&#45;&gt;Node9</title>
<path fill="none" stroke="midnightblue" d="M317.74,-168.08C310.96,-160.3 300.96,-148.8 292.74,-139.37"/>
<polygon fill="midnightblue" stroke="midnightblue" points="295.32,-137 286.12,-131.75 290.04,-141.59 295.32,-137"/>
</g>
<!-- Node9&#45;&gt;Node4 -->
<g id="edge15" class="edge">
<title>Node9&#45;&gt;Node4</title>
<path fill="none" stroke="midnightblue" d="M263.56,-112.32C248.91,-103.82 226.37,-90.73 209.26,-80.8"/>
<polygon fill="midnightblue" stroke="midnightblue" points="210.81,-77.65 200.4,-75.65 207.3,-83.7 210.81,-77.65"/>
</g>
<!-- Node9&#45;&gt;Node6 -->
<g id="edge14" class="edge">
<title>Node9&#45;&gt;Node6</title>
<path fill="none" stroke="midnightblue" d="M278.5,-112.08C278.5,-105.01 278.5,-94.86 278.5,-85.99"/>
<polygon fill="midnightblue" stroke="midnightblue" points="282,-85.75 278.5,-75.75 275,-85.75 282,-85.75"/>
</g>
<!-- Node9&#45;&gt;Node7 -->
<g id="edge16" class="edge">
<title>Node9&#45;&gt;Node7</title>
<path fill="none" stroke="midnightblue" d="M302.9,-112.44C328.7,-103.4 369.58,-89.06 398.52,-78.92"/>
<polygon fill="midnightblue" stroke="midnightblue" points="399.93,-82.13 408.21,-75.52 397.62,-75.52 399.93,-82.13"/>
</g>
<!-- Node10&#45;&gt;Node5 -->
<g id="edge19" class="edge">
<title>Node10&#45;&gt;Node5</title>
<path fill="none" stroke="midnightblue" d="M45.45,-112.48C53.93,-98.61 72.57,-71.18 95.5,-56 130.2,-33.03 177.25,-21.28 208.22,-15.64"/>
<polygon fill="midnightblue" stroke="midnightblue" points="209.19,-19.03 218.46,-13.89 208.01,-12.13 209.19,-19.03"/>
</g>
</g>
</svg>
