<?xml version="1.0" encoding="UTF-8" standalone="no"?>
<!DOCTYPE svg PUBLIC "-//W3C//DTD SVG 1.1//EN"
 "http://www.w3.org/Graphics/SVG/1.1/DTD/svg11.dtd">
<!-- Generated by graphviz version 2.43.0 (0)
 -->
<!-- Title: src/PlayerStats.cpp Pages: 1 -->
<svg width="166pt" height="140pt"
 viewBox="0.00 0.00 165.50 140.00" xmlns="http://www.w3.org/2000/svg" xmlns:xlink="http://www.w3.org/1999/xlink">
<g id="graph0" class="graph" transform="scale(1 1) rotate(0) translate(4 136)">
<title>src/PlayerStats.cpp</title>
<polygon fill="white" stroke="transparent" points="-4,4 -4,-136 161.5,-136 161.5,4 -4,4"/>
<!-- Node1 -->
<g id="node1" class="node">
<title>Node1</title>
<g id="a_node1"><a xlink:title=" ">
<polygon fill="#bfbfbf" stroke="black" points="29.5,-112.5 29.5,-131.5 139.5,-131.5 139.5,-112.5 29.5,-112.5"/>
<text text-anchor="middle" x="84.5" y="-119.5" font-family="Helvetica,sans-Serif" font-size="10.00">src/PlayerStats.cpp</text>
</a>
</g>
</g>
<!-- Node2 -->
<g id="node2" class="node">
<title>Node2</title>
<g id="a_node2"><a xlink:href="PlayerStats_8h.html" target="_top" xlink:title=" ">
<polygon fill="white" stroke="black" points="0,-56.5 0,-75.5 81,-75.5 81,-56.5 0,-56.5"/>
<text text-anchor="middle" x="40.5" y="-63.5" font-family="Helvetica,sans-Serif" font-size="10.00">PlayerStats.h</text>
</a>
</g>
</g>
<!-- Node1&#45;&gt;Node2 -->
<g id="edge1" class="edge">
<title>Node1&#45;&gt;Node2</title>
<path fill="none" stroke="midnightblue" d="M77.23,-112.08C70.96,-104.38 61.71,-93.03 54.07,-83.65"/>
<polygon fill="midnightblue" stroke="midnightblue" points="56.66,-81.29 47.63,-75.75 51.23,-85.71 56.66,-81.29"/>
</g>
<!-- Node4 -->
<g id="node4" class="node">
<title>Node4</title>
<g id="a_node4"><a xlink:title=" ">
<polygon fill="white" stroke="#bfbfbf" points="99.5,-56.5 99.5,-75.5 157.5,-75.5 157.5,-56.5 99.5,-56.5"/>
<text text-anchor="middle" x="128.5" y="-63.5" font-family="Helvetica,sans-Serif" font-size="10.00">memory</text>
</a>
</g>
</g>
<!-- Node1&#45;&gt;Node4 -->
<g id="edge3" class="edge">
<title>Node1&#45;&gt;Node4</title>
<path fill="none" stroke="midnightblue" d="M91.77,-112.08C98.04,-104.38 107.29,-93.03 114.93,-83.65"/>
<polygon fill="midnightblue" stroke="midnightblue" points="117.77,-85.71 121.37,-75.75 112.34,-81.29 117.77,-85.71"/>
</g>
<!-- Node3 -->
<g id="node3" class="node">
<title>Node3</title>
<g id="a_node3"><a xlink:title=" ">
<polygon fill="white" stroke="#bfbfbf" points="18.5,-0.5 18.5,-19.5 62.5,-19.5 62.5,-0.5 18.5,-0.5"/>
<text text-anchor="middle" x="40.5" y="-7.5" font-family="Helvetica,sans-Serif" font-size="10.00">string</text>
</a>
</g>
</g>
<!-- Node2&#45;&gt;Node3 -->
<g id="edge2" class="edge">
<title>Node2&#45;&gt;Node3</title>
<path fill="none" stroke="midnightblue" d="M40.5,-56.08C40.5,-49.01 40.5,-38.86 40.5,-29.99"/>
<polygon fill="midnightblue" stroke="midnightblue" points="44,-29.75 40.5,-19.75 37,-29.75 44,-29.75"/>
</g>
</g>
</svg>
