<?xml version="1.0" encoding="UTF-8" standalone="no"?>
<!DOCTYPE svg PUBLIC "-//W3C//DTD SVG 1.1//EN"
 "http://www.w3.org/Graphics/SVG/1.1/DTD/svg11.dtd">
<!-- Generated by graphviz version 2.43.0 (0)
 -->
<!-- Title: src/Position.h Pages: 1 -->
<svg width="625pt" height="308pt"
 viewBox="0.00 0.00 625.00 308.00" xmlns="http://www.w3.org/2000/svg" xmlns:xlink="http://www.w3.org/1999/xlink">
<g id="graph0" class="graph" transform="scale(1 1) rotate(0) translate(4 304)">
<title>src/Position.h</title>
<polygon fill="white" stroke="transparent" points="-4,4 -4,-304 621,-304 621,4 -4,4"/>
<!-- Node1 -->
<g id="node1" class="node">
<title>Node1</title>
<g id="a_node1"><a xlink:title=" ">
<polygon fill="#bfbfbf" stroke="black" points="295.5,-280.5 295.5,-299.5 377.5,-299.5 377.5,-280.5 295.5,-280.5"/>
<text text-anchor="middle" x="336.5" y="-287.5" font-family="Helvetica,sans-Serif" font-size="10.00">src/Position.h</text>
</a>
</g>
</g>
<!-- Node2 -->
<g id="node2" class="node">
<title>Node2</title>
<g id="a_node2"><a xlink:href="Entity_8h.html" target="_top" xlink:title=" ">
<polygon fill="white" stroke="black" points="216.5,-168.5 216.5,-187.5 286.5,-187.5 286.5,-168.5 216.5,-168.5"/>
<text text-anchor="middle" x="251.5" y="-175.5" font-family="Helvetica,sans-Serif" font-size="10.00">src/Entity.h</text>
</a>
</g>
</g>
<!-- Node1&#45;&gt;Node2 -->
<g id="edge1" class="edge">
<title>Node1&#45;&gt;Node2</title>
<path fill="none" stroke="midnightblue" d="M319.53,-273.31C310.97,-264.99 300.69,-254.37 292.5,-244 277.62,-225.15 263.39,-200.67 256.26,-187.8"/>
<polygon fill="midnightblue" stroke="midnightblue" points="317.14,-275.87 326.8,-280.22 321.96,-270.79 317.14,-275.87"/>
</g>
<!-- Node7 -->
<g id="node7" class="node">
<title>Node7</title>
<g id="a_node7"><a xlink:href="Ghost_8h.html" target="_top" xlink:title=" ">
<polygon fill="white" stroke="black" points="18,-112.5 18,-131.5 89,-131.5 89,-112.5 18,-112.5"/>
<text text-anchor="middle" x="53.5" y="-119.5" font-family="Helvetica,sans-Serif" font-size="10.00">src/Ghost.h</text>
</a>
</g>
</g>
<!-- Node1&#45;&gt;Node7 -->
<g id="edge19" class="edge">
<title>Node1&#45;&gt;Node7</title>
<path fill="none" stroke="midnightblue" d="M312.73,-275.06C256.05,-241.81 114.2,-158.6 68.17,-131.61"/>
<polygon fill="midnightblue" stroke="midnightblue" points="311.29,-278.27 321.68,-280.31 314.83,-272.23 311.29,-278.27"/>
</g>
<!-- Node11 -->
<g id="node11" class="node">
<title>Node11</title>
<g id="a_node11"><a xlink:href="Player_8h.html" target="_top" xlink:title=" ">
<polygon fill="white" stroke="black" points="346,-112.5 346,-131.5 419,-131.5 419,-112.5 346,-112.5"/>
<text text-anchor="middle" x="382.5" y="-119.5" font-family="Helvetica,sans-Serif" font-size="10.00">src/Player.h</text>
</a>
</g>
</g>
<!-- Node1&#45;&gt;Node11 -->
<g id="edge20" class="edge">
<title>Node1&#45;&gt;Node11</title>
<path fill="none" stroke="midnightblue" d="M368.9,-276.28C402.78,-261 454.07,-231.83 476.5,-188 491,-159.65 450.37,-141.3 418.04,-131.55"/>
<polygon fill="midnightblue" stroke="midnightblue" points="367.2,-273.2 359.42,-280.39 369.99,-279.62 367.2,-273.2"/>
</g>
<!-- Node13 -->
<g id="node13" class="node">
<title>Node13</title>
<g id="a_node13"><a xlink:href="Bomb_8h.html" target="_top" xlink:title=" ">
<polygon fill="white" stroke="black" points="301,-224.5 301,-243.5 372,-243.5 372,-224.5 301,-224.5"/>
<text text-anchor="middle" x="336.5" y="-231.5" font-family="Helvetica,sans-Serif" font-size="10.00">src/Bomb.h</text>
</a>
</g>
</g>
<!-- Node1&#45;&gt;Node13 -->
<g id="edge14" class="edge">
<title>Node1&#45;&gt;Node13</title>
<path fill="none" stroke="midnightblue" d="M336.5,-269.8C336.5,-260.91 336.5,-250.78 336.5,-243.75"/>
<polygon fill="midnightblue" stroke="midnightblue" points="333,-270.08 336.5,-280.08 340,-270.08 333,-270.08"/>
</g>
<!-- Node15 -->
<g id="node15" class="node">
<title>Node15</title>
<g id="a_node15"><a xlink:href="Position_8cpp.html" target="_top" xlink:title=" ">
<polygon fill="white" stroke="black" points="524,-224.5 524,-243.5 617,-243.5 617,-224.5 524,-224.5"/>
<text text-anchor="middle" x="570.5" y="-231.5" font-family="Helvetica,sans-Serif" font-size="10.00">src/Position.cpp</text>
</a>
</g>
</g>
<!-- Node1&#45;&gt;Node15 -->
<g id="edge21" class="edge">
<title>Node1&#45;&gt;Node15</title>
<path fill="none" stroke="midnightblue" d="M383.5,-278.15C427.72,-267.95 493.02,-252.88 533.6,-243.52"/>
<polygon fill="midnightblue" stroke="midnightblue" points="382.53,-274.78 373.58,-280.44 384.11,-281.61 382.53,-274.78"/>
</g>
<!-- Node3 -->
<g id="node3" class="node">
<title>Node3</title>
<g id="a_node3"><a xlink:href="AIPlayer_8h.html" target="_top" xlink:title=" ">
<polygon fill="white" stroke="black" points="107,-112.5 107,-131.5 190,-131.5 190,-112.5 107,-112.5"/>
<text text-anchor="middle" x="148.5" y="-119.5" font-family="Helvetica,sans-Serif" font-size="10.00">src/AIPlayer.h</text>
</a>
</g>
</g>
<!-- Node2&#45;&gt;Node3 -->
<g id="edge2" class="edge">
<title>Node2&#45;&gt;Node3</title>
<path fill="none" stroke="midnightblue" d="M225.92,-163.59C206.88,-153.61 181.44,-140.27 165.01,-131.65"/>
<polygon fill="midnightblue" stroke="midnightblue" points="224.47,-166.78 234.95,-168.32 227.72,-160.58 224.47,-166.78"/>
</g>
<!-- Node6 -->
<g id="node6" class="node">
<title>Node6</title>
<g id="a_node6"><a xlink:href="Entity_8cpp.html" target="_top" xlink:title=" ">
<polygon fill="white" stroke="black" points="208,-112.5 208,-131.5 289,-131.5 289,-112.5 208,-112.5"/>
<text text-anchor="middle" x="248.5" y="-119.5" font-family="Helvetica,sans-Serif" font-size="10.00">src/Entity.cpp</text>
</a>
</g>
</g>
<!-- Node2&#45;&gt;Node6 -->
<g id="edge5" class="edge">
<title>Node2&#45;&gt;Node6</title>
<path fill="none" stroke="midnightblue" d="M250.43,-157.8C249.94,-148.91 249.38,-138.78 248.99,-131.75"/>
<polygon fill="midnightblue" stroke="midnightblue" points="246.96,-158.29 251,-168.08 253.94,-157.9 246.96,-158.29"/>
</g>
<!-- Node2&#45;&gt;Node7 -->
<g id="edge6" class="edge">
<title>Node2&#45;&gt;Node7</title>
<path fill="none" stroke="midnightblue" d="M210.06,-165.7C172.69,-155.51 118.56,-140.74 84.73,-131.52"/>
<polygon fill="midnightblue" stroke="midnightblue" points="209.56,-169.19 220.13,-168.44 211.4,-162.44 209.56,-169.19"/>
</g>
<!-- Node2&#45;&gt;Node11 -->
<g id="edge11" class="edge">
<title>Node2&#45;&gt;Node11</title>
<path fill="none" stroke="midnightblue" d="M281.82,-164.5C306.38,-154.38 340.32,-140.39 361.84,-131.52"/>
<polygon fill="midnightblue" stroke="midnightblue" points="280.17,-161.4 272.26,-168.44 282.84,-167.87 280.17,-161.4"/>
</g>
<!-- Node4 -->
<g id="node4" class="node">
<title>Node4</title>
<g id="a_node4"><a xlink:href="AIPlayer_8cpp.html" target="_top" xlink:title=" ">
<polygon fill="white" stroke="black" points="101.5,-56.5 101.5,-75.5 195.5,-75.5 195.5,-56.5 101.5,-56.5"/>
<text text-anchor="middle" x="148.5" y="-63.5" font-family="Helvetica,sans-Serif" font-size="10.00">src/AIPlayer.cpp</text>
</a>
</g>
</g>
<!-- Node3&#45;&gt;Node4 -->
<g id="edge3" class="edge">
<title>Node3&#45;&gt;Node4</title>
<path fill="none" stroke="midnightblue" d="M148.5,-101.8C148.5,-92.91 148.5,-82.78 148.5,-75.75"/>
<polygon fill="midnightblue" stroke="midnightblue" points="145,-102.08 148.5,-112.08 152,-102.08 145,-102.08"/>
</g>
<!-- Node5 -->
<g id="node5" class="node">
<title>Node5</title>
<g id="a_node5"><a xlink:href="MapContainer_8cpp.html" target="_top" xlink:title=" ">
<polygon fill="white" stroke="black" points="162.5,-0.5 162.5,-19.5 284.5,-19.5 284.5,-0.5 162.5,-0.5"/>
<text text-anchor="middle" x="223.5" y="-7.5" font-family="Helvetica,sans-Serif" font-size="10.00">src/MapContainer.cpp</text>
</a>
</g>
</g>
<!-- Node3&#45;&gt;Node5 -->
<g id="edge4" class="edge">
<title>Node3&#45;&gt;Node5</title>
<path fill="none" stroke="midnightblue" d="M172.32,-106.76C183.54,-98.96 196.24,-88.36 204.5,-76 216.39,-58.21 220.98,-32.86 222.64,-19.69"/>
<polygon fill="midnightblue" stroke="midnightblue" points="170.18,-103.98 163.75,-112.4 174.03,-109.83 170.18,-103.98"/>
</g>
<!-- Node8 -->
<g id="node8" class="node">
<title>Node8</title>
<g id="a_node8"><a xlink:href="Ghost_8cpp.html" target="_top" xlink:title=" ">
<polygon fill="white" stroke="black" points="0,-56.5 0,-75.5 83,-75.5 83,-56.5 0,-56.5"/>
<text text-anchor="middle" x="41.5" y="-63.5" font-family="Helvetica,sans-Serif" font-size="10.00">src/Ghost.cpp</text>
</a>
</g>
</g>
<!-- Node7&#45;&gt;Node8 -->
<g id="edge7" class="edge">
<title>Node7&#45;&gt;Node8</title>
<path fill="none" stroke="midnightblue" d="M49.3,-102.1C47.31,-93.14 45.02,-82.86 43.44,-75.75"/>
<polygon fill="midnightblue" stroke="midnightblue" points="45.93,-103.08 51.52,-112.08 52.77,-101.56 45.93,-103.08"/>
</g>
<!-- Node9 -->
<g id="node9" class="node">
<title>Node9</title>
<g id="a_node9"><a xlink:href="MapContainer_8h.html" target="_top" xlink:title=" ">
<polygon fill="white" stroke="black" points="257.5,-56.5 257.5,-75.5 367.5,-75.5 367.5,-56.5 257.5,-56.5"/>
<text text-anchor="middle" x="312.5" y="-63.5" font-family="Helvetica,sans-Serif" font-size="10.00">src/MapContainer.h</text>
</a>
</g>
</g>
<!-- Node7&#45;&gt;Node9 -->
<g id="edge8" class="edge">
<title>Node7&#45;&gt;Node9</title>
<path fill="none" stroke="midnightblue" d="M99.21,-111.47C148.03,-101.29 224.69,-85.31 271.58,-75.53"/>
<polygon fill="midnightblue" stroke="midnightblue" points="98.32,-108.08 89.24,-113.55 99.74,-114.93 98.32,-108.08"/>
</g>
<!-- Node9&#45;&gt;Node5 -->
<g id="edge10" class="edge">
<title>Node9&#45;&gt;Node5</title>
<path fill="none" stroke="midnightblue" d="M289.26,-50.9C272.94,-41 251.63,-28.07 237.76,-19.65"/>
<polygon fill="midnightblue" stroke="midnightblue" points="287.84,-54.13 298.2,-56.32 291.47,-48.14 287.84,-54.13"/>
</g>
<!-- Node10 -->
<g id="node10" class="node">
<title>Node10</title>
<g id="a_node10"><a xlink:href="MainMenu_8cpp.html" target="_top" xlink:title=" ">
<polygon fill="white" stroke="black" points="303,-0.5 303,-19.5 408,-19.5 408,-0.5 303,-0.5"/>
<text text-anchor="middle" x="355.5" y="-7.5" font-family="Helvetica,sans-Serif" font-size="10.00">src/MainMenu.cpp</text>
</a>
</g>
</g>
<!-- Node9&#45;&gt;Node10 -->
<g id="edge9" class="edge">
<title>Node9&#45;&gt;Node10</title>
<path fill="none" stroke="midnightblue" d="M325.92,-48.14C333.41,-38.74 342.44,-27.4 348.53,-19.75"/>
<polygon fill="midnightblue" stroke="midnightblue" points="323.09,-46.08 319.6,-56.08 328.57,-50.44 323.09,-46.08"/>
</g>
<!-- Node11&#45;&gt;Node9 -->
<g id="edge12" class="edge">
<title>Node11&#45;&gt;Node9</title>
<path fill="none" stroke="midnightblue" d="M363.19,-106.1C350.59,-96.38 334.57,-84.03 323.95,-75.83"/>
<polygon fill="midnightblue" stroke="midnightblue" points="361.2,-108.99 371.25,-112.32 365.47,-103.44 361.2,-108.99"/>
</g>
<!-- Node12 -->
<g id="node12" class="node">
<title>Node12</title>
<g id="a_node12"><a xlink:href="Player_8cpp.html" target="_top" xlink:title=" ">
<polygon fill="white" stroke="black" points="385.5,-56.5 385.5,-75.5 469.5,-75.5 469.5,-56.5 385.5,-56.5"/>
<text text-anchor="middle" x="427.5" y="-63.5" font-family="Helvetica,sans-Serif" font-size="10.00">src/Player.cpp</text>
</a>
</g>
</g>
<!-- Node11&#45;&gt;Node12 -->
<g id="edge13" class="edge">
<title>Node11&#45;&gt;Node12</title>
<path fill="none" stroke="midnightblue" d="M396.55,-104.14C404.39,-94.74 413.83,-83.4 420.21,-75.75"/>
<polygon fill="midnightblue" stroke="midnightblue" points="393.64,-102.16 389.93,-112.08 399.02,-106.64 393.64,-102.16"/>
</g>
<!-- Node13&#45;&gt;Node2 -->
<g id="edge15" class="edge">
<title>Node13&#45;&gt;Node2</title>
<path fill="none" stroke="midnightblue" d="M314.31,-218.9C298.72,-209 278.37,-196.07 265.12,-187.65"/>
<polygon fill="midnightblue" stroke="midnightblue" points="312.53,-221.92 322.84,-224.32 316.28,-216.01 312.53,-221.92"/>
</g>
<!-- Node13&#45;&gt;Node9 -->
<g id="edge18" class="edge">
<title>Node13&#45;&gt;Node9</title>
<path fill="none" stroke="midnightblue" d="M333.74,-213.93C328.54,-177.92 317.45,-101.23 313.74,-75.57"/>
<polygon fill="midnightblue" stroke="midnightblue" points="330.31,-214.68 335.21,-224.08 337.24,-213.68 330.31,-214.68"/>
</g>
<!-- Node13&#45;&gt;Node11 -->
<g id="edge17" class="edge">
<title>Node13&#45;&gt;Node11</title>
<path fill="none" stroke="midnightblue" d="M344.03,-215C354.06,-191 371.43,-149.47 378.91,-131.59"/>
<polygon fill="midnightblue" stroke="midnightblue" points="340.74,-213.79 340.11,-224.37 347.2,-216.49 340.74,-213.79"/>
</g>
<!-- Node14 -->
<g id="node14" class="node">
<title>Node14</title>
<g id="a_node14"><a xlink:href="Bomb_8cpp.html" target="_top" xlink:title=" ">
<polygon fill="white" stroke="black" points="384,-168.5 384,-187.5 467,-187.5 467,-168.5 384,-168.5"/>
<text text-anchor="middle" x="425.5" y="-175.5" font-family="Helvetica,sans-Serif" font-size="10.00">src/Bomb.cpp</text>
</a>
</g>
</g>
<!-- Node13&#45;&gt;Node14 -->
<g id="edge16" class="edge">
<title>Node13&#45;&gt;Node14</title>
<path fill="none" stroke="midnightblue" d="M359.74,-218.9C376.06,-209 397.37,-196.07 411.24,-187.65"/>
<polygon fill="midnightblue" stroke="midnightblue" points="357.53,-216.14 350.8,-224.32 361.16,-222.13 357.53,-216.14"/>
</g>
</g>
</svg>
