<?xml version="1.0" encoding="UTF-8" standalone="no"?>
<!DOCTYPE svg PUBLIC "-//W3C//DTD SVG 1.1//EN"
 "http://www.w3.org/Graphics/SVG/1.1/DTD/svg11.dtd">
<!-- Generated by graphviz version 2.43.0 (0)
 -->
<!-- Title: src/UserInputMenu.cpp Pages: 1 -->
<svg width="275pt" height="140pt"
 viewBox="0.00 0.00 274.66 140.00" xmlns="http://www.w3.org/2000/svg" xmlns:xlink="http://www.w3.org/1999/xlink">
<g id="graph0" class="graph" transform="scale(1 1) rotate(0) translate(4 136)">
<title>src/UserInputMenu.cpp</title>
<polygon fill="white" stroke="transparent" points="-4,4 -4,-136 270.66,-136 270.66,4 -4,4"/>
<!-- Node1 -->
<g id="node1" class="node">
<title>Node1</title>
<g id="a_node1"><a xlink:title=" ">
<polygon fill="#bfbfbf" stroke="black" points="77.59,-112.5 77.59,-131.5 205.59,-131.5 205.59,-112.5 77.59,-112.5"/>
<text text-anchor="middle" x="141.59" y="-119.5" font-family="Helvetica,sans-Serif" font-size="10.00">src/UserInputMenu.cpp</text>
</a>
</g>
</g>
<!-- Node2 -->
<g id="node2" class="node">
<title>Node2</title>
<g id="a_node2"><a xlink:title=" ">
<polygon fill="white" stroke="#bfbfbf" points="63.09,-0.5 63.09,-19.5 110.09,-19.5 110.09,-0.5 63.09,-0.5"/>
<text text-anchor="middle" x="86.59" y="-7.5" font-family="Helvetica,sans-Serif" font-size="10.00">vector</text>
</a>
</g>
</g>
<!-- Node1&#45;&gt;Node2 -->
<g id="edge1" class="edge">
<title>Node1&#45;&gt;Node2</title>
<path fill="none" stroke="midnightblue" d="M77.34,-116.16C50.32,-110.57 21.33,-99.12 4.59,-76 -12.4,-52.54 23.6,-33.08 53.16,-21.75"/>
<polygon fill="midnightblue" stroke="midnightblue" points="54.65,-24.93 62.85,-18.22 52.26,-18.35 54.65,-24.93"/>
</g>
<!-- Node3 -->
<g id="node3" class="node">
<title>Node3</title>
<g id="a_node3"><a xlink:title=" ">
<polygon fill="white" stroke="#bfbfbf" points="13.59,-56.5 13.59,-75.5 73.59,-75.5 73.59,-56.5 13.59,-56.5"/>
<text text-anchor="middle" x="43.59" y="-63.5" font-family="Helvetica,sans-Serif" font-size="10.00">iostream</text>
</a>
</g>
</g>
<!-- Node1&#45;&gt;Node3 -->
<g id="edge2" class="edge">
<title>Node1&#45;&gt;Node3</title>
<path fill="none" stroke="midnightblue" d="M125.84,-112.32C110.27,-103.74 86.21,-90.49 68.13,-80.52"/>
<polygon fill="midnightblue" stroke="midnightblue" points="69.74,-77.42 59.29,-75.65 66.36,-83.55 69.74,-77.42"/>
</g>
<!-- Node4 -->
<g id="node4" class="node">
<title>Node4</title>
<g id="a_node4"><a xlink:title=" ">
<polygon fill="white" stroke="#bfbfbf" points="174.59,-0.5 174.59,-19.5 218.59,-19.5 218.59,-0.5 174.59,-0.5"/>
<text text-anchor="middle" x="196.59" y="-7.5" font-family="Helvetica,sans-Serif" font-size="10.00">string</text>
</a>
</g>
</g>
<!-- Node1&#45;&gt;Node4 -->
<g id="edge3" class="edge">
<title>Node1&#45;&gt;Node4</title>
<path fill="none" stroke="midnightblue" d="M204.83,-112.49C226.82,-106.16 249.28,-95.14 262.59,-76 276.69,-55.71 250.1,-36.37 226.58,-24.14"/>
<polygon fill="midnightblue" stroke="midnightblue" points="228,-20.94 217.48,-19.66 224.91,-27.22 228,-20.94"/>
</g>
<!-- Node5 -->
<g id="node5" class="node">
<title>Node5</title>
<g id="a_node5"><a xlink:title=" ">
<polygon fill="white" stroke="#bfbfbf" points="209.59,-56.5 209.59,-75.5 253.59,-75.5 253.59,-56.5 209.59,-56.5"/>
<text text-anchor="middle" x="231.59" y="-63.5" font-family="Helvetica,sans-Serif" font-size="10.00">limits</text>
</a>
</g>
</g>
<!-- Node1&#45;&gt;Node5 -->
<g id="edge4" class="edge">
<title>Node1&#45;&gt;Node5</title>
<path fill="none" stroke="midnightblue" d="M156.05,-112.32C170.09,-103.9 191.64,-90.97 208.13,-81.07"/>
<polygon fill="midnightblue" stroke="midnightblue" points="210.39,-83.8 217.16,-75.65 206.79,-77.8 210.39,-83.8"/>
</g>
<!-- Node6 -->
<g id="node6" class="node">
<title>Node6</title>
<g id="a_node6"><a xlink:href="UserInputMenu_8h.html" target="_top" xlink:title=" ">
<polygon fill="white" stroke="black" points="91.59,-56.5 91.59,-75.5 191.59,-75.5 191.59,-56.5 91.59,-56.5"/>
<text text-anchor="middle" x="141.59" y="-63.5" font-family="Helvetica,sans-Serif" font-size="10.00">UserInputMenu.h</text>
</a>
</g>
</g>
<!-- Node1&#45;&gt;Node6 -->
<g id="edge5" class="edge">
<title>Node1&#45;&gt;Node6</title>
<path fill="none" stroke="midnightblue" d="M141.59,-112.08C141.59,-105.01 141.59,-94.86 141.59,-85.99"/>
<polygon fill="midnightblue" stroke="midnightblue" points="145.09,-85.75 141.59,-75.75 138.09,-85.75 145.09,-85.75"/>
</g>
<!-- Node6&#45;&gt;Node2 -->
<g id="edge6" class="edge">
<title>Node6&#45;&gt;Node2</title>
<path fill="none" stroke="midnightblue" d="M132.51,-56.08C124.42,-48.14 112.39,-36.34 102.68,-26.8"/>
<polygon fill="midnightblue" stroke="midnightblue" points="105.09,-24.26 95.5,-19.75 100.18,-29.25 105.09,-24.26"/>
</g>
<!-- Node6&#45;&gt;Node4 -->
<g id="edge7" class="edge">
<title>Node6&#45;&gt;Node4</title>
<path fill="none" stroke="midnightblue" d="M150.67,-56.08C158.76,-48.14 170.78,-36.34 180.5,-26.8"/>
<polygon fill="midnightblue" stroke="midnightblue" points="182.99,-29.25 187.67,-19.75 178.09,-24.26 182.99,-29.25"/>
</g>
</g>
</svg>
