<?xml version="1.0" encoding="UTF-8" standalone="no"?>
<!DOCTYPE svg PUBLIC "-//W3C//DTD SVG 1.1//EN"
 "http://www.w3.org/Graphics/SVG/1.1/DTD/svg11.dtd">
<!-- Generated by graphviz version 2.43.0 (0)
 -->
<!-- Title: src/UserInputMenu.h Pages: 1 -->
<svg width="410pt" height="140pt"
 viewBox="0.00 0.00 410.00 140.00" xmlns="http://www.w3.org/2000/svg" xmlns:xlink="http://www.w3.org/1999/xlink">
<g id="graph0" class="graph" transform="scale(1 1) rotate(0) translate(4 136)">
<title>src/UserInputMenu.h</title>
<polygon fill="white" stroke="transparent" points="-4,4 -4,-136 406,-136 406,4 -4,4"/>
<!-- Node1 -->
<g id="node1" class="node">
<title>Node1</title>
<g id="a_node1"><a xlink:title=" ">
<polygon fill="#bfbfbf" stroke="black" points="138.5,-112.5 138.5,-131.5 255.5,-131.5 255.5,-112.5 138.5,-112.5"/>
<text text-anchor="middle" x="197" y="-119.5" font-family="Helvetica,sans-Serif" font-size="10.00">src/UserInputMenu.h</text>
</a>
</g>
</g>
<!-- Node2 -->
<g id="node2" class="node">
<title>Node2</title>
<g id="a_node2"><a xlink:href="GameSettingsMenu_8h.html" target="_top" xlink:title=" ">
<polygon fill="white" stroke="black" points="78.5,-56.5 78.5,-75.5 217.5,-75.5 217.5,-56.5 78.5,-56.5"/>
<text text-anchor="middle" x="148" y="-63.5" font-family="Helvetica,sans-Serif" font-size="10.00">src/GameSettingsMenu.h</text>
</a>
</g>
</g>
<!-- Node1&#45;&gt;Node2 -->
<g id="edge1" class="edge">
<title>Node1&#45;&gt;Node2</title>
<path fill="none" stroke="midnightblue" d="M181.97,-104.43C173.38,-94.97 162.96,-83.48 155.94,-75.75"/>
<polygon fill="midnightblue" stroke="midnightblue" points="179.6,-107.03 188.91,-112.08 184.78,-102.33 179.6,-107.03"/>
</g>
<!-- Node3 -->
<g id="node3" class="node">
<title>Node3</title>
<g id="a_node3"><a xlink:href="GameSettingsMenu_8cpp.html" target="_top" xlink:title=" ">
<polygon fill="white" stroke="black" points="0,-0.5 0,-19.5 150,-19.5 150,-0.5 0,-0.5"/>
<text text-anchor="middle" x="75" y="-7.5" font-family="Helvetica,sans-Serif" font-size="10.00">src/GameSettingsMenu.cpp</text>
</a>
</g>
</g>
<!-- Node1&#45;&gt;Node3 -->
<g id="edge4" class="edge">
<title>Node1&#45;&gt;Node3</title>
<path fill="none" stroke="midnightblue" d="M128.21,-112.85C105.6,-106.52 82.76,-95.42 69,-76 57.08,-59.17 65.14,-33.42 70.8,-19.93"/>
<polygon fill="midnightblue" stroke="midnightblue" points="127.65,-116.31 138.2,-115.35 129.35,-109.52 127.65,-116.31"/>
</g>
<!-- Node4 -->
<g id="node4" class="node">
<title>Node4</title>
<g id="a_node4"><a xlink:href="MainMenu_8cpp.html" target="_top" xlink:title=" ">
<polygon fill="white" stroke="black" points="180.5,-0.5 180.5,-19.5 285.5,-19.5 285.5,-0.5 180.5,-0.5"/>
<text text-anchor="middle" x="233" y="-7.5" font-family="Helvetica,sans-Serif" font-size="10.00">src/MainMenu.cpp</text>
</a>
</g>
</g>
<!-- Node1&#45;&gt;Node4 -->
<g id="edge5" class="edge">
<title>Node1&#45;&gt;Node4</title>
<path fill="none" stroke="midnightblue" d="M211.03,-104.31C217,-96.26 223.41,-86.16 227,-76 233.8,-56.77 234.01,-32.45 233.53,-19.7"/>
<polygon fill="midnightblue" stroke="midnightblue" points="208.08,-102.39 204.65,-112.41 213.58,-106.72 208.08,-102.39"/>
</g>
<!-- Node5 -->
<g id="node5" class="node">
<title>Node5</title>
<g id="a_node5"><a xlink:href="UserInputMenu_8cpp.html" target="_top" xlink:title=" ">
<polygon fill="white" stroke="black" points="274,-56.5 274,-75.5 402,-75.5 402,-56.5 274,-56.5"/>
<text text-anchor="middle" x="338" y="-63.5" font-family="Helvetica,sans-Serif" font-size="10.00">src/UserInputMenu.cpp</text>
</a>
</g>
</g>
<!-- Node1&#45;&gt;Node5 -->
<g id="edge6" class="edge">
<title>Node1&#45;&gt;Node5</title>
<path fill="none" stroke="midnightblue" d="M228.93,-108.77C255.41,-98.63 292.39,-84.47 315.76,-75.52"/>
<polygon fill="midnightblue" stroke="midnightblue" points="227.43,-105.6 219.34,-112.44 229.93,-112.14 227.43,-105.6"/>
</g>
<!-- Node2&#45;&gt;Node3 -->
<g id="edge2" class="edge">
<title>Node2&#45;&gt;Node3</title>
<path fill="none" stroke="midnightblue" d="M127.86,-50.1C114.72,-40.38 98.02,-28.03 86.94,-19.83"/>
<polygon fill="midnightblue" stroke="midnightblue" points="126.15,-53.19 136.27,-56.32 130.31,-47.56 126.15,-53.19"/>
</g>
<!-- Node2&#45;&gt;Node4 -->
<g id="edge3" class="edge">
<title>Node2&#45;&gt;Node4</title>
<path fill="none" stroke="midnightblue" d="M170.19,-50.9C185.78,-41 206.13,-28.07 219.38,-19.65"/>
<polygon fill="midnightblue" stroke="midnightblue" points="168.22,-48.01 161.66,-56.32 171.97,-53.92 168.22,-48.01"/>
</g>
</g>
</svg>
